<svg width="96" height="16" viewBox="0 0 96 16" fill="none" xmlns="http://www.w3.org/2000/svg">
<path d="M0 12.116V0.367677H3.96898C4.74965 0.337402 5.52579 0.498952 6.22955 0.83818C6.78969 1.11738 7.24864 1.5646 7.54215 2.11738C7.83224 2.69122 7.97779 3.32723 7.96619 3.97012C7.97844 4.60952 7.8328 5.24205 7.54215 5.8117C7.24862 6.3567 6.79363 6.79755 6.23966 7.07377C5.53836 7.40061 4.7694 7.55603 3.99622 7.52714H0.783493V6.24184H3.9508C4.46977 6.26267 4.98693 6.16853 5.46528 5.96619C5.82441 5.80802 6.1194 5.53292 6.30227 5.18572C6.4862 4.80887 6.57695 4.39334 6.56682 3.97412C6.57613 3.54785 6.48551 3.12533 6.30227 2.74034C6.11998 2.38232 5.82321 2.09552 5.45918 1.92554C4.97794 1.71156 4.45378 1.6117 3.92757 1.63375H1.42667V12.116H0ZM5.52987 6.83855L8.42153 12.116H6.76876L3.9235 6.83855H5.52987ZM13.7485 12.2998C12.9781 12.32 12.2174 12.1253 11.5515 11.7374C10.9385 11.3559 10.4479 10.8064 10.138 10.1543C9.79536 9.41039 9.62651 8.59833 9.64422 7.77955C9.6273 6.95695 9.79608 6.1411 10.138 5.39272C10.441 4.7353 10.9219 4.17577 11.5262 3.7773C12.1487 3.37927 12.8755 3.1754 13.6142 3.19168C14.0771 3.19243 14.5366 3.26987 14.9742 3.42086C15.43 3.57947 15.8466 3.83391 16.1959 4.16701C16.5881 4.54526 16.8883 5.00846 17.0733 5.52096C17.3086 6.18736 17.4195 6.89134 17.4004 7.59782V8.1713H10.6054V7.00111H16.0202C16.0287 6.54011 15.9265 6.08381 15.7224 5.6704C15.5361 5.28934 15.2455 4.96894 14.8843 4.74652C14.5011 4.51415 14.0592 4.39679 13.6112 4.40833C13.1144 4.39665 12.626 4.53757 12.2118 4.81215C11.826 5.07125 11.5153 5.42754 11.3112 5.84504C11.1006 6.2691 10.9924 6.73662 10.9952 7.21008V7.99056C10.978 8.57361 11.0958 9.15278 11.3394 9.68276C11.5526 10.1202 11.8897 10.4853 12.3087 10.7328C12.7487 10.9767 13.2455 11.0993 13.7485 11.0882C14.0759 11.0927 14.4018 11.0425 14.7127 10.9398C14.9993 10.8434 15.2599 10.6825 15.4747 10.4697C15.6894 10.2569 15.8526 9.99772 15.9515 9.71203L17.2641 10.0785C17.1286 10.5181 16.8905 10.9192 16.5695 11.2487C16.2285 11.5922 15.8177 11.8583 15.3649 12.0292C14.8474 12.2184 14.2994 12.3101 13.7485 12.2998ZM26.3944 3.30476L23.1352 12.116H21.7591L18.4999 3.30476H19.969L22.4012 10.3259H22.4931L24.9254 3.30476H26.3944ZM28.1815 12.116V3.30476H29.5344V12.116H28.1815ZM28.8691 1.83569C28.6149 1.83931 28.3696 1.74245 28.1865 1.56615C28.0979 1.48305 28.0272 1.38264 27.9789 1.27115C27.9306 1.15966 27.9057 1.03943 27.9057 0.917922C27.9057 0.796418 27.9306 0.676181 27.9789 0.564691C28.0272 0.4532 28.0979 0.352857 28.1865 0.269756C28.3696 0.0934507 28.6149 -0.00346225 28.8691 0.000149372C28.9942 -0.0020772 29.1186 0.0206081 29.2349 0.0668886C29.3512 0.113169 29.4572 0.18215 29.5466 0.269756C29.6368 0.351892 29.7089 0.451961 29.7582 0.563581C29.8076 0.675202 29.8331 0.79588 29.8331 0.917922C29.8331 1.03996 29.8076 1.16064 29.7582 1.27226C29.7089 1.38388 29.6368 1.48401 29.5466 1.56615C29.4572 1.65376 29.3512 1.72267 29.2349 1.76896C29.1186 1.81524 28.9942 1.83792 28.8691 1.83569ZM35.7085 12.2998C34.9381 12.32 34.1774 12.1253 33.5115 11.7374C32.8985 11.3559 32.4078 10.8064 32.0979 10.1543C31.7553 9.41039 31.5865 8.59833 31.6042 7.77955C31.5873 6.95695 31.7561 6.1411 32.0979 5.39272C32.401 4.7353 32.8819 4.17577 33.4862 3.7773C34.1087 3.37927 34.8355 3.1754 35.5742 3.19168C36.0371 3.19243 36.4966 3.26987 36.9342 3.42086C37.39 3.57947 37.8066 3.83391 38.1559 4.16701C38.5481 4.54526 38.8482 5.00846 39.0333 5.52096C39.2686 6.18736 39.3795 6.89134 39.3604 7.59782V8.1713H32.5654V7.00111H37.9802C37.9886 6.54011 37.8865 6.08381 37.6823 5.6704C37.4961 5.28934 37.2055 4.96894 36.8443 4.74652C36.4611 4.51415 36.0192 4.39679 35.5712 4.40833C35.0744 4.39665 34.586 4.53757 34.1718 4.81215C33.786 5.07125 33.4753 5.42754 33.2711 5.84504C33.0606 6.2691 32.9523 6.73662 32.9551 7.21008V7.99056C32.9379 8.57361 33.0558 9.15278 33.2994 9.68276C33.5126 10.1202 33.8497 10.4853 34.2687 10.7328C34.7087 10.9767 35.2055 11.0993 35.7085 11.0882C36.0359 11.0927 36.3618 11.0425 36.6727 10.9398C36.9593 10.8434 37.2199 10.6825 37.4347 10.4697C37.6494 10.2569 37.8125 9.99772 37.9115 9.71203L39.2241 10.0785C39.0886 10.5181 38.8505 10.9192 38.5294 11.2487C38.1885 11.5922 37.7777 11.8583 37.3249 12.0292C36.8074 12.2184 36.2594 12.3101 35.7085 12.2998ZM43.4131 12.116L40.7284 3.30476H42.151L44.0563 10.0513H44.1472L46.0291 3.30476H47.478L49.3368 10.028H49.4286L51.3329 3.30476H52.7555L50.0677 12.116H48.737L46.8096 5.34625H46.6703L44.7439 12.116H43.4131ZM59.2698 12.116V0.367677H60.6237V4.70413H60.7378C60.8387 4.55167 60.9751 4.35582 61.1508 4.11956C61.3596 3.85387 61.6216 3.63478 61.9201 3.47638C62.3432 3.26591 62.8131 3.1672 63.2851 3.18964C63.9798 3.17617 64.6627 3.36986 65.2469 3.74599C65.8292 4.13603 66.2889 4.68323 66.5726 5.32407C66.9057 6.08255 67.068 6.90494 67.0481 7.73309C67.0676 8.56578 66.9054 9.39274 66.5726 10.1563C66.2888 10.7969 65.8317 11.3455 65.253 11.7404C64.6748 12.1157 63.9976 12.3095 63.3084 12.2967C62.8386 12.3179 62.3711 12.2211 61.9484 12.0151C61.645 11.8549 61.3777 11.6343 61.1629 11.3668C60.9791 11.1225 60.8374 10.9206 60.7378 10.7611H60.5772V12.116H59.2698ZM60.6005 7.70986C60.589 8.31014 60.6883 8.9074 60.8933 9.4717C61.0614 9.93959 61.3572 10.351 61.7474 10.6591C62.1604 10.9393 62.6488 11.0872 63.1479 11.0831C63.6469 11.0789 64.1329 10.9229 64.5412 10.6358C64.9344 10.319 65.2324 9.89973 65.4024 9.42425C65.6032 8.87671 65.7021 8.29707 65.6942 7.71392C65.7029 7.14267 65.6056 6.57476 65.4074 6.03891C65.2427 5.56927 64.9462 5.15702 64.5533 4.85153C64.1393 4.56812 63.6501 4.41456 63.1483 4.41042C62.6466 4.40629 62.155 4.55175 61.7363 4.8283C61.3467 5.12395 61.0516 5.52674 60.8872 5.98739C60.6876 6.53923 60.5914 7.12314 60.6035 7.70986H60.6005ZM72.6992 12.2998C71.9695 12.322 71.2494 12.1294 70.6283 11.7458C70.0072 11.3622 69.5125 10.8045 69.2058 10.1421C68.8584 9.39571 68.6874 8.5794 68.706 7.75632C68.687 6.92736 68.858 6.10507 69.2058 5.35235C69.4535 4.86755 69.7983 4.4389 70.2188 4.09306C70.6393 3.74722 71.1264 3.49157 71.6499 3.34204C72.1734 3.19251 72.7221 3.15227 73.2618 3.22385C73.8015 3.29542 74.3207 3.47726 74.7871 3.75807C75.3958 4.14546 75.8813 4.69858 76.1865 5.35235C76.5379 6.10404 76.7107 6.92679 76.6913 7.75632C76.7103 8.57998 76.5375 9.39674 76.1865 10.1421C75.8801 10.8036 75.3864 11.3606 74.7665 11.7441C74.1466 12.1276 73.4278 12.3208 72.6992 12.2998ZM72.6992 11.0831C73.235 11.1051 73.7619 10.9411 74.1904 10.6187C74.5868 10.2996 74.8867 9.87666 75.0567 9.39701C75.4309 8.33315 75.4309 7.17345 75.0567 6.10959C74.8872 5.62662 74.5874 5.19995 74.1904 4.8768C73.7534 4.57061 73.2328 4.40636 72.6992 4.40636C72.1656 4.40636 71.6449 4.57061 71.2079 4.8768C70.8104 5.19937 70.5104 5.62623 70.3416 6.10959C69.966 7.17322 69.966 8.33339 70.3416 9.39701C70.5107 9.87713 70.8108 10.3003 71.2079 10.6187C71.6365 10.9411 72.1634 11.1051 72.6992 11.0831ZM82.089 12.2998C81.3997 12.3128 80.7224 12.119 80.1443 11.7434C79.5653 11.3488 79.1082 10.8001 78.8247 10.1593C78.4911 9.39599 78.3285 8.56892 78.3482 7.73611C78.3282 6.90784 78.4909 6.08536 78.8247 5.32709C79.1081 4.68635 79.5675 4.13915 80.1494 3.74901C80.7337 3.37316 81.4165 3.1795 82.1111 3.19266C82.5816 3.16954 83.0501 3.26831 83.4712 3.4794C83.7707 3.6358 84.0329 3.85524 84.2395 4.12258C84.4193 4.35884 84.5596 4.55469 84.6585 4.70715H84.7736V0.370697H86.1276V12.116H84.815V10.7621H84.6545C84.5556 10.9223 84.4142 11.1242 84.2304 11.3678C84.0152 11.6353 83.7475 11.8559 83.4439 12.016C83.022 12.2225 82.5552 12.32 82.0859 12.2998H82.089ZM82.2727 11.0831C82.7658 11.0985 83.25 10.9493 83.6489 10.6591C84.0393 10.351 84.3356 9.93966 84.504 9.4717C84.7086 8.90727 84.8078 8.3101 84.7969 7.70986C84.8087 7.1215 84.7111 6.53611 84.5091 5.98339C84.3451 5.5228 84.0504 5.12001 83.661 4.82429C83.2408 4.54687 82.7475 4.40093 82.244 4.40506C81.7404 4.4092 81.2496 4.56324 80.834 4.84753C80.4432 5.15501 80.1471 5.56654 79.9798 6.03484C79.7853 6.57153 79.6899 7.13907 79.6981 7.70986C79.6906 8.29254 79.7877 8.87187 79.9849 9.42024C80.1571 9.89431 80.4543 10.313 80.8451 10.6318C81.2543 10.9408 81.7572 11.1001 82.2697 11.0831H82.2727ZM89.6664 15.4246C89.4604 15.4269 89.2546 15.4076 89.0525 15.3671C88.9247 15.3484 88.7997 15.3145 88.68 15.2661L89.0243 14.0727C89.3079 14.1518 89.6027 14.1829 89.8966 14.1646C90.1542 14.1386 90.393 14.0181 90.567 13.8263C90.8141 13.5442 90.9998 13.2138 91.1123 12.8561L91.3647 12.1675L88.1065 3.3108H89.5755L92.0078 10.3319H92.0997L94.5319 3.3108H96L92.2643 13.4073C92.121 13.8166 91.9093 14.1986 91.6383 14.5372C91.4067 14.8263 91.1097 15.0564 90.772 15.2086C90.4218 15.3575 90.0438 15.4298 89.6634 15.4206L89.6664 15.4246Z" fill="#1E1E1E"/>
</svg>
