<svg width="319" height="18" viewBox="0 0 319 18" fill="none" xmlns="http://www.w3.org/2000/svg">
<path d="M0 17.6367V0.351302H1.30002V17.6367H0ZM5.93015 17.6367V0.351302H7.17219L16.5474 14.7307V0.351302H17.8365V17.8827H17.1365L7.22218 2.58232V17.6367H5.93015ZM25.8987 17.6367V1.45228H20.7425V0.352279H32.3429V1.45228H27.1977V17.6367H25.8987ZM35.251 17.6367V0.351302H45.3882V1.45131H36.552V8.13148H44.0612V9.23149H36.5499V16.5317H45.5612V17.6367H35.251ZM48.8913 17.6367V0.351302H50.1914V16.5367H58.3016V17.6367H48.8913ZM75.7991 12.4366H68.1108L66.0958 17.6367H64.7237L71.5449 0.351302H72.377L79.1971 17.6367H77.8261L75.7991 12.4366ZM75.377 11.3366L71.955 2.51231L68.5448 11.3366H75.377ZM81.7522 17.6367V0.351302H86.3693C87.2749 0.336816 88.1803 0.395641 89.0764 0.527272C89.715 0.619067 90.3356 0.808637 90.9165 1.0893C91.6226 1.44432 92.1973 2.01484 92.5575 2.71831C92.9615 3.51221 93.1624 4.39387 93.1425 5.28442C93.2308 6.33735 92.9373 7.38693 92.3156 8.24129C91.6939 9.09565 90.7855 9.69775 89.7564 9.93756C90.1645 10.1662 90.5134 10.487 90.7754 10.8745C91.1251 11.4295 91.4084 12.0236 91.6194 12.6446L93.4475 17.6367H92.0065L90.2604 12.8666C90.0267 12.0437 89.5361 11.3171 88.8604 10.7926C88.0701 10.3696 87.1764 10.1786 86.2823 10.2415H83.0482V17.6367H81.7522ZM83.0522 9.13651H86.6263C87.8675 9.2322 89.1115 8.9903 90.2264 8.43648C90.7402 8.10455 91.1565 7.64199 91.4325 7.09618C91.7086 6.55036 91.8345 5.94092 91.7975 5.33038C91.832 4.74269 91.7219 4.15555 91.4767 3.62031C91.2316 3.08507 90.8589 2.61812 90.3914 2.26035C89.2519 1.61776 87.9444 1.33567 86.6413 1.45131H83.0552L83.0522 9.13651ZM108.602 14.0466L109.572 14.7966C108.916 15.8122 108.015 16.6465 106.952 17.2227C105.803 17.7548 104.547 18.0116 103.282 17.9728C101.893 18.0333 100.515 17.7002 99.3066 17.0117C98.0321 16.1801 97.0777 14.9405 96.5996 13.4956C96.1038 12.085 95.8667 10.5964 95.8996 9.10154C95.7603 6.67924 96.4783 4.28521 97.9276 2.33933C98.5846 1.56493 99.4122 0.95337 100.345 0.552724C101.278 0.152078 102.292 -0.0267622 103.306 0.0302488C104.87 -0.0599957 106.413 0.423643 107.646 1.39033C108.18 1.86437 108.605 2.44775 108.893 3.10089C109.181 3.75403 109.326 4.46159 109.316 5.17541H108.056C108.052 4.62084 107.93 4.07347 107.697 3.57014C107.464 3.06681 107.126 2.61916 106.706 2.2573C105.751 1.50804 104.558 1.12942 103.346 1.19129C102.192 1.14037 101.049 1.44285 100.072 2.05832C99.0165 2.82131 98.2388 3.90757 97.8566 5.1524C97.4255 6.43541 97.2195 7.7833 97.2476 9.13651C97.1393 11.1602 97.704 13.1627 98.8536 14.8317C99.3345 15.4844 99.9765 16.0012 100.717 16.3317C101.561 16.6729 102.466 16.8367 103.376 16.8127C104.388 16.8466 105.394 16.6335 106.306 16.1917C107.223 15.6594 108.008 14.9277 108.603 14.0506L108.602 14.0466ZM127.692 12.4296H120.002L117.982 17.6297H116.612L123.432 0.344283H124.272L131.094 17.6367H129.714L127.692 12.4296ZM127.272 11.3296L123.842 2.50535L120.432 11.3296H127.272ZM136.863 9.04453V7.94447C137.363 7.95147 137.723 7.95545 137.953 7.95545C139.037 8.01358 140.121 7.82556 141.123 7.40545C141.705 7.13812 142.194 6.70297 142.527 6.15578C142.86 5.60859 143.023 4.97434 142.993 4.33438C143.021 3.86119 142.924 3.38897 142.711 2.9652C142.499 2.54144 142.179 2.18108 141.783 1.92031C140.916 1.37762 139.904 1.1118 138.883 1.15827C136.453 1.15827 134.986 2.19365 134.483 4.26437H133.233C133.401 3.23952 133.879 2.29076 134.603 1.5453C135.168 1.01529 135.836 0.605916 136.565 0.342025C137.294 0.0781332 138.069 -0.0347367 138.843 0.0102898C140.234 -0.0532208 141.608 0.332434 142.763 1.1103C143.276 1.48178 143.689 1.97493 143.965 2.54551C144.241 3.1161 144.371 3.74624 144.343 4.37937C144.401 5.29284 144.144 6.19867 143.614 6.94511C143.085 7.69155 142.314 8.23329 141.433 8.47951C142.432 8.73729 143.324 9.30307 143.983 10.0966C144.606 10.9352 144.93 11.9584 144.903 13.0026C144.937 13.7442 144.785 14.4824 144.46 15.1498C144.135 15.8172 143.648 16.3924 143.043 16.8227C141.814 17.6389 140.356 18.0415 138.883 17.9718C135.093 17.9718 133.026 16.3817 132.683 13.2016H133.953C134.323 15.6157 135.959 16.8227 138.863 16.8227C139.927 16.8714 140.983 16.6109 141.903 16.0727C142.424 15.7581 142.852 15.3098 143.142 14.7742C143.433 14.2387 143.574 13.6353 143.553 13.0266C143.576 12.2445 143.339 11.4768 142.88 10.8435C142.42 10.2102 141.764 9.74708 141.013 9.52654C139.894 9.15923 138.719 8.99628 137.543 9.04551L136.863 9.04453ZM158.753 1.49733H148.903V0.349288H160.023V1.47432L152.984 17.6367H151.564L158.753 1.49733ZM169.804 0.00925218C170.517 -0.00281217 171.225 0.130119 171.885 0.40001C172.545 0.669901 173.143 1.07113 173.644 1.5793C175.184 3.11268 175.954 5.58173 175.954 8.98649C176.022 10.9348 175.65 12.8735 174.864 14.6577C174.44 15.6658 173.722 16.5222 172.803 17.1143C171.883 17.7063 170.806 18.0063 169.714 17.9748C168.989 17.9943 168.268 17.865 167.596 17.595C166.923 17.3249 166.313 16.9198 165.804 16.4047C164.759 15.2831 164.073 13.8753 163.833 12.3616C163.397 10.2207 163.381 8.01572 163.783 5.86842C163.937 4.98911 164.206 4.134 164.583 3.32538C165.016 2.3093 165.746 1.4484 166.679 0.856626C167.611 0.264854 168.701 -0.0299269 169.805 0.0112664L169.804 0.00925218ZM169.654 1.15729C169.114 1.15122 168.578 1.25509 168.079 1.4626C167.581 1.67011 167.13 1.97694 166.753 2.36436C165.433 3.66439 164.783 5.88045 164.783 8.99753C164.708 10.7756 165.04 12.5473 165.753 14.1777C166.071 14.9681 166.62 15.6439 167.328 16.1166C168.037 16.5892 168.872 16.8364 169.724 16.8257C170.46 16.8434 171.188 16.6609 171.829 16.2978C172.47 15.9347 173 15.4045 173.364 14.7637C174.322 12.9951 174.773 10.9953 174.664 8.98649C174.738 7.20752 174.403 5.43529 173.684 3.80635C173.358 3.01006 172.798 2.33106 172.079 1.85861C171.36 1.38615 170.515 1.14239 169.655 1.15931L169.654 1.15729ZM178.725 17.6367L180.495 0.351302H181.735L187.505 15.3747L193.255 0.351302H194.515L196.285 17.6367H195.055L193.455 3.15234L187.875 17.6367H187.125L181.555 3.15234L179.955 17.6367H178.725ZM213.276 10.1835V9.08353H218.406V16.9837C216.362 17.6644 214.22 18.0023 212.066 17.9837C210.572 18.0557 209.088 17.7149 207.776 16.9987C205.476 15.562 204.326 12.949 204.326 9.15952C204.181 6.70869 204.923 4.28772 206.416 2.33836C207.11 1.56241 207.971 0.952772 208.933 0.554616C209.896 0.156461 210.936 -0.0200516 211.976 0.0382447C213.59 -0.0578245 215.185 0.424401 216.476 1.39833C217.021 1.86286 217.453 2.44471 217.74 3.10028C218.028 3.75585 218.163 4.46807 218.136 5.1834H216.876C216.876 4.25258 216.538 3.35335 215.926 2.65233C215.412 2.14175 214.794 1.74774 214.114 1.49702C213.434 1.24631 212.708 1.14477 211.986 1.19929C211.039 1.13568 210.093 1.31936 209.239 1.73226C208.385 2.14516 207.653 2.77312 207.116 3.55439C206.074 5.23003 205.568 7.18373 205.666 9.15452C205.544 11.1979 206.138 13.2196 207.346 14.8727C207.867 15.5309 208.549 16.0437 209.326 16.3617C210.252 16.6915 211.232 16.8465 212.216 16.8187C213.89 16.8059 215.551 16.5086 217.126 15.9397V10.1856L213.276 10.1835ZM222.666 17.6367V0.351302H227.276C228.183 0.336977 229.089 0.395801 229.986 0.527272C230.625 0.618187 231.246 0.807798 231.826 1.0893C232.532 1.44495 233.106 2.01533 233.466 2.71831C233.872 3.5118 234.075 4.39346 234.056 5.28442C234.144 6.3379 233.85 7.38788 233.228 8.24232C232.605 9.09677 231.696 9.69857 230.666 9.93756C231.073 10.1687 231.422 10.489 231.686 10.8745C232.039 11.4273 232.321 12.022 232.526 12.6446L234.356 17.6367H232.916L231.166 12.8666C230.937 12.044 230.45 11.3169 229.776 10.7926C228.985 10.3695 228.091 10.1785 227.196 10.2415H223.966V17.6367H222.666ZM223.966 9.13651H227.536C228.777 9.2309 230.021 8.98907 231.136 8.43648C231.65 8.10496 232.067 7.64242 232.343 7.09648C232.619 6.55054 232.744 5.94092 232.706 5.33038C232.74 4.74234 232.63 4.15497 232.384 3.6197C232.138 3.08444 231.764 2.61769 231.296 2.26035C230.157 1.618 228.849 1.33592 227.546 1.45131H223.966V9.13651ZM247.247 12.4296H239.556L237.546 17.6297H236.176L242.997 0.344283H243.827L250.647 17.6367H249.277L247.247 12.4296ZM246.827 11.3296L243.407 2.50535L239.996 11.3296H246.827ZM253.387 17.6297V0.351302H257.757C258.687 0.336626 259.616 0.395442 260.537 0.527272C261.194 0.628359 261.832 0.830807 262.427 1.12732C263.149 1.50604 263.73 2.10558 264.087 2.83837C264.502 3.66239 264.709 4.57592 264.687 5.49841C264.73 6.65475 264.397 7.7938 263.737 8.74447C263.348 9.23272 262.863 9.63711 262.313 9.93323C261.763 10.2293 261.159 10.4111 260.537 10.4675C259.623 10.6007 258.7 10.6636 257.777 10.6555H254.687V17.6367L253.387 17.6297ZM254.687 9.54351H258.057C258.842 9.56048 259.627 9.48971 260.397 9.3325C260.954 9.21498 261.479 8.97936 261.937 8.64151C262.405 8.26544 262.776 7.78312 263.019 7.23467C263.263 6.68622 263.372 6.08749 263.337 5.4884C263.374 4.89357 263.266 4.29873 263.024 3.7541C262.782 3.20948 262.413 2.73109 261.947 2.35935C261.317 1.90605 260.579 1.62725 259.807 1.55129C259.23 1.47543 258.649 1.44005 258.067 1.44533H254.687V9.54351ZM267.967 17.6367V0.351302H269.267V7.96845H278.578V0.351302H279.878V17.6367H278.578V9.07053H269.267V17.6367H267.967ZM284.518 17.6367V0.351302H285.818V17.6367H284.518ZM302.218 14.0506L303.198 14.8007C302.538 15.8168 301.634 16.651 300.568 17.2268C299.42 17.7609 298.163 18.0178 296.898 17.9768C295.511 18.0353 294.135 17.7022 292.928 17.0158C291.656 16.1806 290.702 14.9423 290.218 13.4996C289.726 12.0878 289.489 10.6001 289.518 9.10551C289.38 6.68308 290.099 4.28938 291.548 2.3433C292.205 1.5685 293.033 0.956749 293.966 0.556081C294.9 0.155413 295.914 -0.0232037 296.928 0.0342773C298.489 -0.0577847 300.03 0.426123 301.258 1.3943C301.795 1.86631 302.223 2.44909 302.513 3.10254C302.803 3.75598 302.948 4.46459 302.938 5.17944H301.668C301.668 4.62518 301.549 4.07737 301.318 3.57368C301.086 3.06999 300.749 2.62232 300.328 2.26133C299.37 1.51065 298.173 1.132 296.958 1.19532C295.805 1.14675 294.665 1.44908 293.688 2.06235C292.636 2.82751 291.861 3.91317 291.478 5.15643C291.045 6.4389 290.838 7.78714 290.868 9.14054C290.758 11.1635 291.321 13.1658 292.468 14.8356C292.952 15.4883 293.596 16.0049 294.338 16.3357C295.182 16.6778 296.088 16.8416 296.998 16.8167C298.01 16.8495 299.016 16.6364 299.928 16.1957C300.843 15.6621 301.626 14.9288 302.218 14.0506ZM305.778 12.8086H307.028C306.985 13.8332 307.344 14.8342 308.028 15.5977C309.09 16.4932 310.464 16.9315 311.848 16.8167C313.193 16.9166 314.527 16.5202 315.599 15.7027C315.968 15.3754 316.26 14.9701 316.454 14.5161C316.648 14.0621 316.738 13.5708 316.719 13.0776C316.744 12.6122 316.658 12.1475 316.469 11.7217C316.279 11.2959 315.991 10.9212 315.628 10.6286C315.225 10.3117 314.772 10.0625 314.288 9.89056C313.492 9.61823 312.681 9.39114 311.858 9.21049C310.668 8.93748 309.788 8.70253 309.228 8.51052C308.695 8.31738 308.187 8.05765 307.718 7.73749C307.227 7.39001 306.835 6.92121 306.579 6.37686C306.323 5.8325 306.213 5.23114 306.258 4.63139C306.237 4.0576 306.331 3.4854 306.534 2.94817C306.736 2.41094 307.044 1.91947 307.438 1.50233C307.992 0.978539 308.649 0.575686 309.367 0.319502C310.085 0.0633188 310.848 -0.0406241 311.608 0.0142572C313.728 0.0142572 315.222 0.62361 316.089 1.84231C316.696 2.84669 316.989 4.01013 316.929 5.18243H315.679C315.721 4.19627 315.436 3.22369 314.868 2.41636C314.463 1.98181 313.965 1.64439 313.411 1.42933C312.856 1.21428 312.261 1.12712 311.668 1.17432C310.517 1.09339 309.38 1.47284 308.508 2.22934C308.197 2.52134 307.952 2.876 307.788 3.2699C307.624 3.6638 307.546 4.08797 307.558 4.51438C307.528 4.98266 307.629 5.45004 307.85 5.86409C308.071 6.27813 308.403 6.62245 308.808 6.85844C309.172 7.07393 309.558 7.25061 309.958 7.38549C310.378 7.51849 311.088 7.70146 312.078 7.93647C313.027 8.15024 313.962 8.42004 314.878 8.74447C315.466 8.95852 316.019 9.25886 316.519 9.63555C317.026 10.0212 317.431 10.5248 317.7 11.1027C317.968 11.6806 318.091 12.3153 318.059 12.9516C318.06 13.6312 317.928 14.3044 317.669 14.9327C317.432 15.5305 317.074 16.0731 316.619 16.5267C315.294 17.5919 313.613 18.1116 311.918 17.9798C309.488 17.9798 307.772 17.3741 306.768 16.1627C306.058 15.1938 305.708 14.0078 305.778 12.8086Z" fill="#1E1E1E"/>
</svg>
