<svg width="161" height="19" viewBox="0 0 161 19" fill="none" xmlns="http://www.w3.org/2000/svg">
<path d="M0 18.3863V0.84742H3.1772V15.7186H10.9022V18.3863H0ZM16.8245 18.6516C16.0506 18.6635 15.2829 18.5118 14.5717 18.2065C13.9294 17.9211 13.3825 17.4573 12.9962 16.8701C12.5958 16.2173 12.3962 15.4611 12.4224 14.6957C12.3984 14.0566 12.5399 13.4221 12.8334 12.8539C13.101 12.3755 13.4876 11.9744 13.9558 11.6893C14.4527 11.3887 14.9929 11.1664 15.5574 11.0302C16.1679 10.8743 16.7888 10.7628 17.4153 10.6965C18.1857 10.6162 18.811 10.5448 19.2913 10.4825C19.6565 10.4491 20.0115 10.3443 20.3363 10.1741C20.4457 10.1038 20.5343 10.0055 20.593 9.8894C20.6516 9.77333 20.6782 9.64367 20.6699 9.51388V9.46267C20.6867 9.18648 20.6442 8.90989 20.5452 8.65148C20.4462 8.39307 20.2931 8.15881 20.0961 7.96448C19.6333 7.58272 19.0419 7.39255 18.4432 7.43294C17.8024 7.39828 17.1676 7.57284 16.6346 7.93032C16.2251 8.22113 15.9144 8.63032 15.7443 9.10292L12.8495 8.69196C13.0514 7.9395 13.4402 7.25027 13.9799 6.68835C14.5181 6.13766 15.1783 5.72123 15.9071 5.47258C16.7161 5.19012 17.5683 5.05105 18.4251 5.06161C19.0623 5.06174 19.6973 5.13627 20.3172 5.28368C20.9299 5.42562 21.5127 5.67495 22.0384 6.02018C22.5657 6.36577 22.9959 6.84031 23.2884 7.39878C23.6296 8.07495 23.7945 8.82635 23.7677 9.58325V18.3863H20.7895V16.5777H20.689C20.2476 17.4133 19.508 18.0521 18.6171 18.3673C18.0411 18.5673 17.4341 18.6636 16.8245 18.6516ZM17.6283 16.3737C18.1901 16.3879 18.7465 16.2614 19.2471 16.0059C19.6813 15.7757 20.0451 15.4324 20.3001 15.0122C20.5501 14.6071 20.6807 14.1397 20.6769 13.6637V12.1134C20.5271 12.2185 20.3586 12.2942 20.1805 12.3364C19.9272 12.4108 19.6699 12.4709 19.4099 12.5163C19.1245 12.5675 18.8421 12.6168 18.5618 12.6529L17.8343 12.7534C17.4096 12.8062 16.9927 12.9095 16.5924 13.0609C16.2566 13.1834 15.9584 13.3911 15.7272 13.6637C15.4763 14.0088 15.3683 14.4374 15.4258 14.8601C15.4832 15.2829 15.7018 15.6671 16.0357 15.9326C16.5077 16.2429 17.0649 16.3982 17.6293 16.3767L17.6283 16.3737ZM32.9717 5.23241V7.62987H25.4116V5.23241H32.9717ZM27.2765 2.08135H30.3763V14.4294C30.3582 14.76 30.4232 15.09 30.5652 15.389C30.6801 15.5921 30.8614 15.7493 31.0787 15.8342C31.3038 15.917 31.5422 15.9579 31.7821 15.9547C31.9598 15.9557 32.1373 15.9412 32.3126 15.9115C32.4784 15.8834 32.604 15.8573 32.6894 15.8342L33.2119 18.2577C32.9785 18.333 32.7414 18.396 32.5015 18.4466C32.1351 18.5223 31.7623 18.5623 31.3882 18.5662C30.6719 18.5993 29.9567 18.4797 29.2901 18.2155C28.6858 17.9672 28.1699 17.5434 27.809 16.9987C27.4304 16.3823 27.2452 15.6665 27.2775 14.9439L27.2765 2.08135ZM40.764 18.6436C39.5728 18.6747 38.3944 18.3912 37.3477 17.8216C36.3989 17.272 35.6331 16.4548 35.1461 15.4724C34.6384 14.3489 34.3758 13.1302 34.3758 11.8973C34.3758 10.6644 34.6384 9.44568 35.1461 8.32221C35.6305 7.33349 36.3847 6.50195 37.3216 5.92371C38.3113 5.33174 39.4483 5.03215 40.6012 5.05959C41.3835 5.05435 42.1605 5.18774 42.8962 5.4535C43.6163 5.70662 44.2713 6.11598 44.8144 6.65223C45.4016 7.23714 45.8521 7.94462 46.1337 8.72409C46.4736 9.68004 46.6361 10.69 46.613 11.7044V12.6549H35.8314V10.5659H43.6418C43.6462 10.0139 43.5136 9.46953 43.256 8.98137C43.0142 8.52246 42.6496 8.13976 42.2029 7.87604C41.7305 7.60071 41.1911 7.46163 40.6445 7.47416C40.0545 7.46146 39.4739 7.62214 38.9745 7.93633C38.5025 8.23119 38.1159 8.64452 37.8531 9.13512C37.5887 9.6337 37.4507 10.1895 37.4512 10.7538V12.5785C37.4326 13.2591 37.5766 13.9342 37.8712 14.548C38.1317 15.0702 38.5393 15.5047 39.0438 15.798C39.5842 16.0929 40.1927 16.2405 40.8082 16.226C41.2241 16.2316 41.638 16.1682 42.0331 16.0381C42.3859 15.9141 42.7095 15.7188 42.9836 15.4643C43.2567 15.2052 43.465 14.8855 43.5916 14.5309L46.4854 14.8565C46.3132 15.6021 45.9539 16.2917 45.4414 16.8601C44.9019 17.4471 44.2321 17.8992 43.486 18.1803C42.6157 18.5024 41.6919 18.6595 40.764 18.6436ZM59.152 8.70907L56.3255 9.01755C56.2416 8.72404 56.099 8.45054 55.9065 8.21366C55.6963 7.95213 55.4261 7.74532 55.1187 7.6108C54.7351 7.44603 54.3202 7.36717 53.9029 7.37971C53.3313 7.36013 52.7662 7.50559 52.2751 7.79871C52.0799 7.90539 51.9172 8.06282 51.8042 8.25438C51.6912 8.44594 51.632 8.66451 51.633 8.88692C51.6254 9.06449 51.6594 9.24135 51.7323 9.40343C51.8052 9.56551 51.9151 9.70829 52.053 9.82034C52.4836 10.1197 52.9743 10.3213 53.4909 10.4112L55.7347 10.8905C56.7591 11.0537 57.7191 11.4951 58.5099 12.1666C58.8153 12.462 59.0553 12.8181 59.2146 13.2121C59.3738 13.606 59.4487 14.0289 59.4344 14.4535C59.4412 15.2444 59.1853 16.0152 58.7069 16.645C58.1913 17.3045 57.508 17.8132 56.7284 18.118C55.8023 18.488 54.8115 18.6687 53.8145 18.6496C52.4461 18.7149 51.0902 18.3623 49.9269 17.6388C49.4503 17.3174 49.0474 16.8986 48.7448 16.41C48.4422 15.9213 48.2468 15.374 48.1715 14.8042L51.1939 14.5128C51.299 15.0578 51.6126 15.5401 52.0681 15.8572C52.5884 16.1805 53.1944 16.3389 53.8064 16.3114C54.4295 16.3417 55.0472 16.1834 55.5789 15.8572C55.7791 15.7449 55.9468 15.5826 56.0653 15.386C56.1839 15.1894 56.2493 14.9654 56.2551 14.7359C56.2585 14.5573 56.221 14.3803 56.1454 14.2185C56.0698 14.0567 55.9582 13.9144 55.8191 13.8024C55.4257 13.5089 54.9672 13.3148 54.4827 13.2367L52.2389 12.7664C51.1948 12.6104 50.2203 12.1485 49.4385 11.4391C49.136 11.1229 48.9001 10.7492 48.7448 10.3402C48.5894 9.93109 48.5178 9.49499 48.5342 9.05772C48.5106 8.30012 48.7432 7.55673 49.1944 6.94765C49.6801 6.32169 50.3288 5.84155 51.0693 5.55997C51.9556 5.21373 52.9013 5.04512 53.8526 5.06364C55.1402 4.99119 56.4167 5.33655 57.4921 6.04833C58.3724 6.68356 58.9681 7.63903 59.151 8.70907H59.152ZM68.0767 5.23241V7.62987H60.5155V5.23241H68.0767ZM62.3825 2.08135H65.4823V14.4294C65.4639 14.76 65.5285 15.0899 65.6702 15.389C65.7853 15.5922 65.967 15.7495 66.1846 15.8342C66.4097 15.9171 66.6481 15.958 66.888 15.9547C67.0661 15.9558 67.244 15.9413 67.4196 15.9115C67.5853 15.8834 67.7109 15.8573 67.7964 15.8342L68.3189 18.2577C68.0852 18.333 67.8477 18.396 67.6074 18.4466C67.2411 18.5223 66.8682 18.5624 66.4941 18.5662C65.7778 18.5991 65.0627 18.4796 64.3961 18.2155C63.7919 17.9671 63.276 17.5432 62.915 16.9987C62.5367 16.3822 62.3519 15.6664 62.3845 14.9439L62.3825 2.08135ZM75.6861 18.3863V5.23241H78.6915V7.42491H78.8281C79.0309 6.71794 79.4655 6.09968 80.062 5.6695C80.6486 5.2532 81.3524 5.0343 82.0717 5.0445C82.2435 5.0445 82.4344 5.05256 82.6464 5.06965C82.8271 5.07709 83.0071 5.09723 83.185 5.12993V7.98159C82.9811 7.92107 82.7718 7.881 82.56 7.862C82.2908 7.82258 82.0192 7.80243 81.7471 7.80171C81.2161 7.79324 80.6916 7.91975 80.2228 8.16944C79.7858 8.40117 79.4211 8.74883 79.1688 9.17424C78.9067 9.62316 78.7736 10.1357 78.7839 10.6554V18.3863H75.6861ZM90.0468 18.6436C88.8556 18.6745 87.6772 18.3911 86.6305 17.8216C85.682 17.2727 84.9166 16.4563 84.4299 15.4744C83.922 14.351 83.6592 13.1322 83.6592 11.8993C83.6592 10.6664 83.922 9.44765 84.4299 8.32423C84.9137 7.33543 85.6676 6.50383 86.6043 5.92573C87.5945 5.33389 88.7318 5.03431 89.885 5.06161C90.6673 5.05653 91.4442 5.18984 92.18 5.45546C92.8999 5.70882 93.5549 6.11816 94.0982 6.65419C94.685 7.23916 95.1352 7.94671 95.4165 8.72612C95.7568 9.68199 95.9195 10.692 95.8968 11.7064V12.6569H85.1132V10.5679H92.9226C92.9278 10.016 92.7955 9.47147 92.5377 8.98339C92.2956 8.52442 91.9307 8.14172 91.4837 7.87807C91.0113 7.60273 90.4719 7.46365 89.9252 7.47618C89.3354 7.4639 88.7548 7.62454 88.2552 7.93835C87.7832 8.23321 87.3966 8.64648 87.1339 9.13708C86.8695 9.63566 86.7315 10.1915 86.7319 10.7558V12.5806C86.7133 13.2611 86.8573 13.9363 87.152 14.55C87.4124 15.0722 87.8201 15.5067 88.3246 15.8C88.8651 16.0947 89.4735 16.2422 90.089 16.228C90.5049 16.2337 90.9188 16.1702 91.3139 16.0401C91.6668 15.9163 91.9904 15.721 92.2644 15.4664C92.536 15.2069 92.7425 14.8871 92.8673 14.5329L95.7622 14.8585C95.589 15.604 95.2294 16.2934 94.7171 16.862C94.1783 17.448 93.5097 17.8995 92.7648 18.1803C91.8954 18.5019 90.9737 18.659 90.0468 18.6436ZM109.408 5.23241L104.724 18.3863H101.299L96.6142 5.23241H99.92L102.942 15.0041H103.08L106.112 5.23241H109.408ZM111.071 18.3863V5.23241H114.171V18.3863H111.071ZM112.63 3.36551C112.16 3.37348 111.706 3.19832 111.363 2.87715C111.196 2.72722 111.062 2.54376 110.97 2.33869C110.879 2.13361 110.831 1.91153 110.831 1.68695C110.831 1.46237 110.879 1.24034 110.97 1.03527C111.062 0.830199 111.196 0.646677 111.363 0.496743C111.703 0.170704 112.159 -0.00765335 112.63 0.000410973C112.863 -0.00462382 113.096 0.036645 113.313 0.121842C113.531 0.207038 113.729 0.334432 113.897 0.496743C114.064 0.646677 114.198 0.830199 114.289 1.03527C114.381 1.24034 114.428 1.46237 114.428 1.68695C114.428 1.91153 114.381 2.13361 114.289 2.33869C114.198 2.54376 114.064 2.72722 113.897 2.87715C113.555 3.20026 113.1 3.37573 112.63 3.36551ZM122.7 18.6385C121.509 18.6694 120.33 18.3859 119.284 17.8166C118.336 17.2671 117.57 16.4508 117.083 15.4694C116.575 14.346 116.312 13.1272 116.312 11.8943C116.312 10.6614 116.575 9.44262 117.083 8.3192C117.567 7.33049 118.322 6.49895 119.259 5.9207C120.248 5.32874 121.385 5.02915 122.538 5.05658C123.32 5.05135 124.097 5.18467 124.833 5.45044C125.553 5.70355 126.208 6.11292 126.751 6.64916C127.339 7.23407 127.789 7.94162 128.071 8.72109C128.411 9.67703 128.573 10.687 128.55 11.7013V12.6519H117.768V10.5629H125.579C125.583 10.0109 125.451 9.46654 125.193 8.97836C124.951 8.51946 124.587 8.13675 124.14 7.87304C123.668 7.5977 123.128 7.45862 122.581 7.47115C121.992 7.45846 121.411 7.61913 120.911 7.93332C120.439 8.22815 120.052 8.64141 119.789 9.13205C119.525 9.63062 119.387 10.1865 119.387 10.7508V12.5755C119.369 13.2559 119.512 13.931 119.806 14.545C120.067 15.067 120.475 15.5014 120.98 15.795C121.52 16.0899 122.129 16.2375 122.744 16.223C123.16 16.2287 123.573 16.1652 123.968 16.0351C124.321 15.9113 124.645 15.716 124.919 15.4613C125.192 15.2022 125.401 14.8825 125.528 14.5279L128.421 14.8535C128.249 15.5992 127.889 16.2887 127.376 16.8571C126.838 17.4432 126.169 17.8948 125.424 18.1753C124.553 18.4994 123.629 18.6582 122.7 18.6436V18.6385ZM133.334 18.3863L129.616 5.23241H132.776L135.087 14.4817H135.207L137.57 5.23241H140.696L143.059 14.4294H143.188L145.466 5.23241H148.635L144.911 18.3863H141.683L139.217 9.49683H139.037L136.57 18.3863H133.334ZM160.715 8.70907L157.889 9.01755C157.805 8.72416 157.662 8.45074 157.469 8.21366C157.259 7.95193 156.989 7.74507 156.682 7.6108C156.298 7.44594 155.883 7.36707 155.466 7.37971C154.895 7.3601 154.33 7.50557 153.839 7.79871C153.644 7.90559 153.481 8.06307 153.368 8.25456C153.255 8.44605 153.195 8.66449 153.196 8.88692C153.189 9.06446 153.223 9.24126 153.296 9.40331C153.368 9.56535 153.478 9.70813 153.616 9.82034C154.047 10.1197 154.538 10.3213 155.055 10.4112L157.299 10.8905C158.323 11.0537 159.282 11.4951 160.073 12.1666C160.378 12.4621 160.618 12.8182 160.778 13.2121C160.937 13.606 161.012 14.0289 160.998 14.4535C161.004 15.2445 160.748 16.0151 160.27 16.645C159.754 17.3047 159.071 17.8135 158.291 18.118C157.365 18.4882 156.374 18.669 155.377 18.6496C154.009 18.7148 152.652 18.3622 151.489 17.6388C151.012 17.3173 150.61 16.8984 150.307 16.4098C150.004 15.9212 149.809 15.374 149.733 14.8042L152.757 14.5128C152.862 15.0577 153.175 15.54 153.63 15.8572C154.15 16.1805 154.756 16.3389 155.368 16.3114C155.991 16.3417 156.609 16.1834 157.141 15.8572C157.341 15.745 157.509 15.5827 157.628 15.3861C157.746 15.1895 157.812 14.9655 157.818 14.7359C157.821 14.5572 157.784 14.3802 157.708 14.2183C157.632 14.0565 157.52 13.9142 157.381 13.8024C156.988 13.5087 156.529 13.3146 156.045 13.2367L153.802 12.7664C152.757 12.6089 151.782 12.1449 151 11.4331C150.698 11.1172 150.461 10.7435 150.306 10.3344C150.151 9.92526 150.079 9.48903 150.096 9.05171C150.072 8.29422 150.304 7.55075 150.755 6.94158C151.241 6.31588 151.89 5.83586 152.63 5.55396C153.517 5.20792 154.462 5.03926 155.414 5.05756C156.701 4.98497 157.978 5.33041 159.053 6.04232C159.936 6.67813 160.533 7.6362 160.715 8.70907Z" fill="#1E1E1E"/>
</svg>
