<svg width="117" height="13" viewBox="0 0 117 13" fill="none" xmlns="http://www.w3.org/2000/svg">
<path d="M0 12.2793V0.566579H4.39273C5.17422 0.540907 5.95058 0.701703 6.65757 1.03566C7.24402 1.32205 7.72906 1.78068 8.04773 2.35024C8.37404 2.95169 8.53749 3.62803 8.52184 4.31213C8.53888 4.9952 8.37306 5.67041 8.04164 6.26794C7.71538 6.82584 7.22655 7.27078 6.64049 7.54326C5.9247 7.8613 5.14645 8.01408 4.36355 7.99022H1.23508V6.22868H4.07768C4.51874 6.24382 4.95832 6.16987 5.37015 6.01125C5.68226 5.88324 5.94366 5.65615 6.11403 5.36499C6.28703 5.04171 6.37176 4.67858 6.35966 4.31213C6.37067 3.94225 6.28606 3.57578 6.11403 3.24815C5.94564 2.94688 5.68231 2.70972 5.36511 2.57369C4.95416 2.40309 4.51129 2.32312 4.06662 2.33918H2.12187V12.2793H0ZM6.05161 6.97152L8.95061 12.2793H6.58311L3.73443 6.97152H6.05161ZM14.1466 12.4504C13.351 12.4716 12.5638 12.2824 11.8647 11.9018C11.2312 11.5355 10.72 10.9903 10.3951 10.3346C10.0561 9.58422 9.88072 8.77028 9.88072 7.94691C9.88072 7.12353 10.0561 6.30959 10.3951 5.55925C10.7186 4.89915 11.2221 4.34397 11.8476 3.95776C12.5084 3.56185 13.2679 3.36152 14.038 3.38C14.5605 3.37666 15.0794 3.46559 15.571 3.6427C16.0521 3.81381 16.4896 4.08873 16.8524 4.44797C17.2444 4.83878 17.5452 5.31141 17.7332 5.83204C17.9603 6.47034 18.0687 7.14482 18.0533 7.82213V8.45727H10.8521V7.0611H16.0682C16.0714 6.69266 15.9833 6.3292 15.8116 6.0032C15.6492 5.69702 15.4054 5.44164 15.107 5.26533C14.7915 5.08138 14.4313 4.98839 14.0662 4.99661C13.6722 4.98864 13.2845 5.09607 12.9508 5.30564C12.6347 5.50378 12.3761 5.78145 12.2009 6.1109C12.0243 6.44387 11.932 6.81504 11.9322 7.19196V8.40996C11.9199 8.86459 12.0162 9.31559 12.213 9.72559C12.3872 10.0741 12.6594 10.3641 12.9962 10.56C13.3573 10.7569 13.7637 10.8554 14.1748 10.8459C14.4524 10.8499 14.7287 10.8074 14.9922 10.7201C15.2282 10.6376 15.4445 10.507 15.6274 10.3366C15.8088 10.1635 15.9467 9.94998 16.03 9.71349L17.9637 9.93091C17.848 10.4291 17.6076 10.8898 17.2651 11.2697C16.9039 11.6617 16.4557 11.9634 15.9565 12.1505C15.3769 12.3611 14.7633 12.4627 14.1466 12.4504ZM27.3995 3.49175L24.271 12.2793H21.984L18.8555 3.49476H21.063L23.0822 10.0205H23.1738L25.1981 3.49476L27.3995 3.49175ZM28.8329 12.2793V3.49476H30.9035V12.2793H28.8329ZM29.8737 2.24758C29.5599 2.25298 29.2563 2.13604 29.0272 1.92146C28.9146 1.82201 28.8247 1.69955 28.7636 1.56236C28.7025 1.42517 28.6715 1.2764 28.6729 1.12621C28.6709 0.976083 28.7016 0.82737 28.7628 0.690253C28.824 0.553136 28.9142 0.430879 29.0272 0.332009C29.2574 0.118563 29.5598 0 29.8737 0C30.1877 0 30.49 0.118563 30.7203 0.332009C30.8333 0.430879 30.9235 0.553136 30.9846 0.690253C31.0458 0.82737 31.0765 0.976083 31.0746 1.12621C31.0759 1.2764 31.045 1.42517 30.9838 1.56236C30.9227 1.69955 30.8328 1.82201 30.7203 1.92146C30.4919 2.13715 30.1878 2.25427 29.8737 2.24758ZM36.9199 12.4504C36.1242 12.4716 35.3371 12.2824 34.638 11.9018C34.0045 11.5355 33.4932 10.9903 33.1683 10.3346C32.8293 9.58422 32.654 8.77028 32.654 7.94691C32.654 7.12353 32.8293 6.30959 33.1683 5.55925C33.4918 4.89915 33.9953 4.34397 34.6208 3.95776C35.2816 3.56185 36.0411 3.36152 36.8112 3.38C37.3337 3.37666 37.8526 3.46559 38.3442 3.6427C38.8253 3.81381 39.2628 4.08873 39.6256 4.44797C40.0176 4.83878 40.3184 5.31141 40.5064 5.83204C40.7334 6.47034 40.8419 7.14482 40.8265 7.82213V8.45727H33.6253V7.0611H38.8415C38.8447 6.69266 38.7565 6.3292 38.5848 6.0032C38.4224 5.69702 38.1785 5.44164 37.8802 5.26533C37.5647 5.08138 37.2044 4.98839 36.8393 4.99661C36.4454 4.98864 36.0577 5.09607 35.7241 5.30564C35.4079 5.50378 35.1493 5.78145 34.9742 6.1109C34.7975 6.44387 34.7052 6.81504 34.7054 7.19196V8.40996C34.6931 8.86459 34.7894 9.31559 34.9862 9.72559C35.1603 10.0741 35.4326 10.3641 35.7693 10.56C36.1305 10.7569 36.5369 10.8554 36.9481 10.8459C37.2257 10.8499 37.5019 10.8074 37.7655 10.7201C38.0014 10.6376 38.2177 10.507 38.4006 10.3366C38.582 10.1635 38.72 9.94998 38.8033 9.71349L40.7369 9.93091C40.6212 10.4291 40.3808 10.8898 40.0383 11.2697C39.6771 11.6617 39.2289 11.9634 38.7297 12.1505C38.1504 12.3609 37.5362 12.4626 36.9199 12.4504ZM44.3435 12.2793L41.8613 3.49476H43.9751L45.5193 9.67122H45.5997L47.1781 3.49476H49.2658L50.8441 9.63497H50.9297L52.4507 3.49476H54.5645L52.0772 12.2793H49.9211L48.2743 6.34037H48.1535L46.5067 12.2793H44.3435ZM59.6438 12.4504C58.8481 12.4716 58.0609 12.2824 57.3618 11.9018C56.7283 11.5355 56.2171 10.9903 55.8922 10.3346C55.5532 9.58422 55.3779 8.77028 55.3779 7.94691C55.3779 7.12353 55.5532 6.30959 55.8922 5.55925C56.2157 4.89915 56.7192 4.34397 57.3447 3.95776C58.0055 3.56185 58.765 3.36152 59.535 3.38C60.0575 3.37666 60.5765 3.46559 61.0681 3.6427C61.5492 3.81381 61.9867 4.08873 62.3495 4.44797C62.7415 4.83878 63.0423 5.31141 63.2303 5.83204C63.4573 6.47034 63.5658 7.14482 63.5504 7.82213V8.45727H56.3502V7.0611H61.5654C61.5686 6.69266 61.4804 6.3292 61.3087 6.0032C61.1463 5.69702 60.9024 5.44164 60.6041 5.26533C60.2886 5.08138 59.9283 4.98839 59.5632 4.99661C59.1693 4.98864 58.7816 5.09607 58.448 5.30564C58.1321 5.50381 57.8738 5.78149 57.699 6.1109C57.5217 6.44363 57.429 6.81491 57.4293 7.19196V8.40996C57.417 8.86459 57.5133 9.31559 57.7101 9.72559C57.8842 10.0741 58.1565 10.3641 58.4932 10.56C58.8544 10.7567 59.2608 10.8553 59.672 10.8459C59.9496 10.8499 60.2258 10.8074 60.4893 10.7201C60.7253 10.6376 60.9416 10.507 61.1245 10.3366C61.3059 10.1635 61.4438 9.94998 61.5271 9.71349L63.4608 9.93091C63.3457 10.4292 63.1057 10.8899 62.7632 11.2697C62.4018 11.6614 61.9536 11.963 61.4547 12.1505C60.8759 12.3607 60.2634 12.4624 59.6478 12.4504H59.6438ZM65.3018 12.2793V3.49476H67.309V4.95833H67.4006C67.536 4.48628 67.826 4.07336 68.224 3.78567C68.6169 3.50799 69.0877 3.36208 69.5688 3.36894C69.6825 3.36894 69.8104 3.37394 69.9513 3.38602C70.0723 3.39057 70.1927 3.40407 70.3116 3.42632V5.33378C70.1758 5.2931 70.0362 5.26617 69.895 5.25329C69.7149 5.22731 69.5333 5.21382 69.3514 5.21299C68.9964 5.20772 68.646 5.29257 68.3327 5.4596C68.0409 5.61345 67.7971 5.8447 67.6281 6.12798C67.4525 6.42769 67.3633 6.7702 67.3704 7.1175V12.2793H65.3018ZM77.7524 7.13157V12.2793H75.6829V3.49476H77.6608V4.98751H77.7615C77.955 4.50638 78.2926 4.09683 78.7278 3.81485C79.2243 3.51117 79.799 3.35996 80.3807 3.38C80.9339 3.36673 81.4807 3.50081 81.965 3.76853C82.4209 4.03016 82.7874 4.42301 83.0169 4.89591C83.2828 5.45396 83.4106 6.06783 83.3893 6.68565V12.2793H81.3188V7.00574C81.3482 6.5047 81.1843 6.01151 80.8608 5.62776C80.7007 5.45899 80.5057 5.32706 80.2894 5.24119C80.0732 5.15532 79.8409 5.11756 79.6086 5.13048C79.271 5.1241 78.9377 5.20671 78.6422 5.37002C78.3617 5.52859 78.1331 5.76493 77.9839 6.05051C77.8216 6.3871 77.7436 6.75809 77.7565 7.13157H77.7524ZM88.0197 12.4565C87.5027 12.4631 86.9902 12.3602 86.5158 12.1545C86.0868 11.9635 85.7214 11.6537 85.4629 11.2617C85.1953 10.8256 85.0619 10.3205 85.0794 9.80914C85.0635 9.38261 85.1582 8.95921 85.3542 8.58008C85.5329 8.26034 85.7912 7.99227 86.1041 7.80197C86.4358 7.60121 86.7964 7.45253 87.1732 7.3611C87.5809 7.25697 87.9957 7.18261 88.4143 7.13863C88.9283 7.08495 89.3457 7.03727 89.6665 6.99567C89.91 6.97511 90.147 6.90674 90.3641 6.7944C90.4372 6.74768 90.4964 6.68221 90.5357 6.60486C90.575 6.52751 90.5929 6.44109 90.5875 6.3545V6.32028C90.5987 6.13565 90.5702 5.95077 90.5041 5.77803C90.4379 5.60529 90.3356 5.44868 90.204 5.31872C89.8941 5.06276 89.4977 4.93583 89.0968 4.96435C88.6689 4.94135 88.2451 5.05757 87.8888 5.29556C87.6152 5.49014 87.4076 5.76375 87.2939 6.07969L85.3613 5.80488C85.4957 5.30228 85.7555 4.84201 86.1162 4.46714C86.4754 4.09914 86.916 3.82086 87.4026 3.65481C87.9427 3.46615 88.5116 3.37315 89.0837 3.38C89.5095 3.3801 89.9338 3.43011 90.348 3.52898C90.7572 3.62344 91.1464 3.78973 91.4975 4.02018C91.8496 4.25133 92.1371 4.56833 92.3329 4.94125C92.5606 5.39278 92.6707 5.89441 92.653 6.39978V12.2793H90.663V11.0714H90.5936C90.4575 11.3293 90.2777 11.5616 90.0621 11.7579C89.8138 11.9816 89.5242 12.1546 89.2095 12.2672C88.83 12.3989 88.4304 12.463 88.0287 12.4565H88.0197ZM88.5572 10.9355C88.9325 10.9448 89.3041 10.86 89.6383 10.6889C89.929 10.5357 90.1725 10.3064 90.3429 10.0255C90.5091 9.75567 90.5963 9.44462 90.5946 9.12768V8.09288C90.494 8.1627 90.3814 8.21323 90.2624 8.24187C90.0933 8.29126 89.9216 8.33121 89.748 8.36161C89.5568 8.39583 89.3685 8.42604 89.1813 8.45321L88.6951 8.52172C88.412 8.5559 88.1339 8.62343 87.8667 8.72299C87.6423 8.80452 87.4431 8.94335 87.2889 9.12565C87.1211 9.35573 87.0484 9.64166 87.0859 9.92397C87.1234 10.2063 87.2682 10.4633 87.4902 10.6416C87.8093 10.8498 88.1856 10.9526 88.5663 10.9355H88.5572ZM94.7488 12.2793V3.49476H96.7278V4.98751H96.8284C96.9938 4.50634 97.3119 4.09245 97.7344 3.80883C98.184 3.51515 98.7125 3.36554 99.2493 3.38C99.7843 3.36235 100.311 3.51458 100.754 3.81485C101.165 4.09925 101.471 4.51151 101.623 4.98751H101.714C101.906 4.50188 102.252 4.09223 102.698 3.82087C103.195 3.51817 103.77 3.36513 104.352 3.38C104.716 3.36622 105.08 3.42705 105.42 3.55878C105.76 3.6905 106.07 3.89033 106.33 4.146C106.601 4.44839 106.809 4.80222 106.94 5.18645C107.072 5.57068 107.125 5.97751 107.097 6.3827V12.2793H105.02V6.70279C105.039 6.48395 105.01 6.26353 104.935 6.05708C104.86 5.85064 104.741 5.66318 104.585 5.50795C104.292 5.25075 103.912 5.11379 103.522 5.12446C103.304 5.11246 103.087 5.14818 102.884 5.22921C102.681 5.31024 102.499 5.43455 102.35 5.59347C102.061 5.9281 101.912 6.36022 101.932 6.8014V12.2793H99.9016V6.61721C99.9113 6.41745 99.8797 6.21782 99.8089 6.03079C99.738 5.84375 99.6294 5.6733 99.4898 5.53007C99.3491 5.39429 99.1822 5.2886 98.9992 5.21938C98.8163 5.15016 98.6213 5.11889 98.4259 5.12747C98.1389 5.12488 97.8571 5.20413 97.6136 5.35595C97.3648 5.51031 97.1632 5.73 97.0307 5.9911C96.8803 6.28447 96.8056 6.61074 96.8133 6.94031V12.2793H94.7488ZM113.092 12.4504C112.296 12.4717 111.509 12.2825 110.81 11.9018C110.176 11.5358 109.665 10.9905 109.34 10.3346C109.001 9.58439 108.825 8.77038 108.825 7.94691C108.825 7.12343 109.001 6.30942 109.34 5.55925C109.664 4.89894 110.167 4.34367 110.793 3.95776C111.454 3.56175 112.213 3.36141 112.983 3.38C113.506 3.37666 114.025 3.46559 114.516 3.6427C114.997 3.81381 115.435 4.08873 115.798 4.44797C116.189 4.83905 116.49 5.3116 116.678 5.83204C116.906 6.47034 117.014 7.14482 116.999 7.82213V8.45727H109.797V7.0611H115.014C115.016 6.69257 114.928 6.32911 114.756 6.0032C114.594 5.69671 114.35 5.44123 114.051 5.26533C113.736 5.08153 113.375 4.98855 113.01 4.99661C112.616 4.98864 112.229 5.09607 111.895 5.30564C111.579 5.50349 111.32 5.78123 111.145 6.1109C110.969 6.44387 110.876 6.81504 110.876 7.19196V8.40996C110.864 8.86459 110.96 9.31559 111.157 9.72559C111.331 10.0741 111.604 10.3641 111.94 10.56C112.301 10.7567 112.707 10.8553 113.118 10.8459C113.396 10.85 113.673 10.8075 113.937 10.7201C114.172 10.6374 114.389 10.5069 114.572 10.3366C114.753 10.1635 114.891 9.95 114.974 9.71349L116.908 9.93091C116.792 10.4291 116.552 10.8898 116.209 11.2697C115.848 11.6615 115.4 11.9631 114.901 12.1505C114.321 12.3609 113.708 12.4625 113.092 12.4504Z" fill="#757575"/>
</svg>
