<svg width="196" height="18" viewBox="0 0 196 18" fill="none" xmlns="http://www.w3.org/2000/svg">
<path d="M5.8444 17.3484L0 0.344671H2.05363L6.52157 13.637L10.9895 0.344671H13.0432L7.2098 17.3484H5.8444ZM15.5429 16.9877V0.344671H17.5282V16.9877H15.5429ZM21.9348 16.9877V0.344671H26.3325C28.5534 0.220511 30.7458 0.892791 32.5154 2.24058C34.2061 3.9519 35.1542 6.2606 35.1542 8.66622C35.1542 11.0718 34.2061 13.3805 32.5154 15.0918C30.7363 16.4444 28.5325 17.1168 26.3013 16.9877H21.9348ZM23.9212 15.3179H26.2008C27.9455 15.4153 29.6682 14.8917 31.0636 13.84C32.3878 12.4432 33.1267 10.5925 33.1288 8.66787C33.1308 6.74328 32.3958 4.89098 31.0747 3.49144C29.6679 2.43646 27.9333 1.91295 26.1777 2.01351H23.9212V15.3179ZM38.7296 16.9877V0.344671H49.0088V2.01749H40.7149V7.51225H47.6323V9.17103H40.7149V15.3209H49.1886V16.9877H38.7296ZM59.1805 0.0171467C60.2987 -0.0641339 61.4189 0.144503 62.4329 0.622892C63.4469 1.10128 64.3203 1.83325 64.9686 2.74797C65.9825 4.5557 66.5149 6.59359 66.5149 8.66622C66.5149 10.7389 65.9825 12.7767 64.9686 14.5844C63.7348 16.4049 61.7639 17.3152 59.0559 17.3152C56.3479 17.3152 54.3769 16.4049 53.1432 14.5844C52.1296 12.7766 51.5973 10.7388 51.5973 8.66622C51.5973 6.59364 52.1296 4.55579 53.1432 2.74797C53.8174 1.72988 54.797 0.951756 55.9413 0.525512C56.9826 0.166573 58.0792 -0.00551495 59.1805 0.0171467ZM58.9665 1.76631C58.1845 1.70781 57.4005 1.84898 56.688 2.17656C55.9755 2.50415 55.358 3.00742 54.8934 3.63911C53.9685 5.14839 53.5274 6.90454 53.6294 8.67174C53.6294 13.268 55.4379 15.5661 59.0549 15.5661C62.6718 15.5661 64.4803 13.2793 64.4803 8.70589C64.5912 6.92708 64.1498 5.15742 63.2164 3.63911C62.7865 3.01635 62.193 2.5244 61.5013 2.21747C60.696 1.89457 59.8338 1.74098 58.9665 1.76631ZM86.7457 13.1286L88.0327 14.4267C87.4564 15.2218 86.7229 15.89 85.8776 16.3899C84.6553 17.0347 83.2874 17.3533 81.906 17.3152C80.8322 17.3931 79.7556 17.2053 78.7716 16.7685C77.7875 16.3316 76.9261 15.6592 76.2636 14.8105C75.1176 12.9111 74.5356 10.7249 74.5856 8.50715C74.6356 6.28939 75.3155 4.13161 76.5459 2.28578C77.1933 1.52592 78.0081 0.926642 78.9264 0.535078C79.8446 0.143514 80.8412 -0.0296869 81.8377 0.0291659C83.3952 -0.0664273 84.9333 0.415442 86.1579 1.38256C86.6852 1.86225 87.1021 2.45073 87.3796 3.10732C87.6572 3.7639 87.7888 4.4729 87.7655 5.18536H85.8364C85.8259 4.3911 85.5476 3.62366 85.0467 3.00718C84.6417 2.57318 84.1445 2.23542 83.5918 2.01878C83.0391 1.80214 82.4449 1.7121 81.8528 1.75528C81.0654 1.71018 80.2802 1.87432 79.5768 2.23096C78.8734 2.58759 78.2769 3.12401 77.848 3.78579C76.9635 5.29403 76.5359 7.0266 76.6172 8.77316C76.5227 10.5651 77.0224 12.3381 78.0389 13.8168C78.5039 14.4064 79.1055 14.8738 79.7918 15.1786C80.478 15.4833 81.2282 15.6164 81.9773 15.5661C83.1429 15.5927 84.2886 15.2621 85.2607 14.6186C85.8155 14.1857 86.315 13.6851 86.7457 13.1286ZM100.574 12.3168H93.5104L91.7492 16.9877H89.6955L96.2402 0.344671H97.8417L104.386 16.9877H102.333L100.574 12.3168ZM99.9707 10.6912L97.037 2.89465L94.0921 10.6912H99.9707ZM106.81 16.9877V0.344671H111.955C112.816 0.328631 113.676 0.385439 114.527 0.514474C115.118 0.609324 115.687 0.807954 116.209 1.10121C116.86 1.47488 117.383 2.03712 117.709 2.71381C118.074 3.47351 118.256 4.30839 118.239 5.1512C118.275 5.78777 118.169 6.42434 117.929 7.01504C117.689 7.60575 117.321 8.13591 116.852 8.56724C116.355 8.9581 115.804 9.27363 115.215 9.50364C115.616 9.71781 115.958 10.0286 116.209 10.4078C116.53 10.9342 116.784 11.499 116.964 12.0888L118.598 16.9877H116.409L115.145 13.1065C114.957 12.5117 114.836 12.1581 114.784 12.0455C114.7 11.8493 114.599 11.6607 114.483 11.4819C114.22 11.0107 113.822 10.6291 113.34 10.3867C112.698 10.1712 112.02 10.0795 111.343 10.1165H108.793V16.9877H106.81ZM108.795 8.4798H111.809C112.888 8.56377 113.97 8.34931 114.935 7.85989C115.359 7.57431 115.7 7.18185 115.924 6.72211C116.148 6.26236 116.247 5.75168 116.21 5.24165C116.245 4.7433 116.154 4.24409 115.945 3.79039C115.736 3.33669 115.415 2.9432 115.013 2.64648C114.072 2.14602 113.007 1.92663 111.945 2.01449H108.796L108.795 8.4798ZM122.057 16.9877V0.344671H126.458C128.679 0.220268 130.872 0.892562 132.642 2.24058C134.333 3.9519 135.281 6.2606 135.281 8.66622C135.281 11.0718 134.333 13.3805 132.642 15.0918C130.861 16.4455 128.656 17.1179 126.423 16.9877H122.057ZM124.044 15.3179H126.323C128.068 15.4153 129.791 14.8917 131.186 13.84C132.51 12.4432 133.249 10.5925 133.251 8.66787C133.253 6.74328 132.518 4.89098 131.197 3.49144C129.79 2.43796 128.056 1.91585 126.301 2.01749H124.045L124.044 15.3179ZM147.364 16.9877V2.01749H142.614V0.347676H154.112V2.01749H149.35V16.9877H147.364ZM161.304 16.9877V10.4772L155.639 0.344671H157.806L162.296 8.51395L166.776 0.344671H168.942L163.29 10.4772V16.9877H161.304ZM170.98 16.9877V0.344671H175.572C176.514 0.325452 177.456 0.392727 178.385 0.545625C179.038 0.65635 179.666 0.88588 180.236 1.22281C180.916 1.62465 181.462 2.21896 181.804 2.93077C182.186 3.71748 182.375 4.58349 182.357 5.45763C182.415 6.18288 182.296 6.91135 182.009 7.57995C181.722 8.24855 181.276 8.83714 180.71 9.29465C179.173 10.2309 177.381 10.661 175.586 10.5244H172.968V16.9877H170.98ZM172.965 8.88673H175.685C176.842 8.97203 177.999 8.71705 179.013 8.15325C179.447 7.84797 179.794 7.4366 180.023 6.95844C180.252 6.48029 180.354 5.95142 180.319 5.42249C180.351 4.91586 180.256 4.40931 180.043 3.94842C179.831 3.48753 179.507 3.08674 179.101 2.78212C178.084 2.18979 176.911 1.92195 175.738 2.01449H172.962L172.965 8.88673ZM185.541 16.9877V0.344671H195.82V2.01749H187.526V7.51225H194.443V9.17103H187.526V15.3209H196V16.9877H185.541Z" fill="#6C757D"/>
</svg>
