<svg width="54" height="17" viewBox="0 0 54 17" fill="none" xmlns="http://www.w3.org/2000/svg">
<path d="M4.80479 16.8373V1.69528H0V0.00628097H11.6299V1.69528H6.8139V16.8373H4.80479ZM18.9051 16.8373V10.252L13.1756 0.00322617H15.3666L19.9092 8.26628L24.4396 0.00322617H26.6306L20.9143 10.252V16.8373H18.9051ZM28.6916 16.8373V0.00322617H33.3368C34.2895 -0.0161621 35.242 0.0518692 36.1823 0.206471C36.8429 0.318332 37.4774 0.550506 38.0542 0.89143C38.7421 1.29788 39.2941 1.89905 39.6405 2.61904C40.0262 3.41484 40.2178 4.29073 40.1995 5.17489C40.2581 5.90854 40.137 6.64544 39.8466 7.32171C39.5562 7.99799 39.1052 8.59326 38.5328 9.05591C36.9781 10.0031 35.1652 10.4382 33.35 10.2998H30.7007V16.8373H28.6916ZM30.7007 8.64331H33.4516C34.6222 8.72959 35.7925 8.47173 36.8184 7.90146C37.2568 7.59275 37.6085 7.17661 37.8398 6.69295C38.0711 6.20929 38.1743 5.67432 38.1396 5.13931C38.1716 4.62685 38.0757 4.11446 37.8606 3.64826C37.6454 3.18206 37.3176 2.77668 36.9068 2.46862C35.8786 1.86949 34.6919 1.59862 33.5055 1.69222H30.7007V8.64331ZM43.4199 16.8373V0.00322617H53.8171V1.69528H45.4291V7.2531H52.4249V8.93091H45.4291V15.1513H54V16.8373H43.4199Z" fill="#6C757D"/>
</svg>
