<svg width="94" height="18" viewBox="0 0 94 18" fill="none" xmlns="http://www.w3.org/2000/svg">
<path d="M4.42747 16.9616V1.60108L0 3.1793V2.05184L4.79892 0.327062H5.65226V16.9616H4.42747ZM20.1293 0.00378263C20.8138 -0.00743676 21.4935 0.120741 22.1269 0.380495C22.7603 0.640248 23.3343 1.02615 23.8139 1.51474C25.2863 2.9872 26.0259 5.36321 26.0326 8.64279C26.1 10.5171 25.743 12.3823 24.9884 14.0993C24.5825 15.0691 23.8923 15.8931 23.0088 16.4628C22.1253 17.0326 21.0898 17.3213 20.039 17.2909C19.3418 17.3106 18.648 17.1872 18.0004 16.9281C17.3529 16.6691 16.7654 16.28 16.2742 15.7849C15.2701 14.7049 14.6096 13.3508 14.3767 11.8946C13.9525 9.83598 13.9353 7.7142 14.3264 5.64901C14.4765 4.80329 14.7364 3.98081 15.0995 3.2024C15.5163 2.22332 16.2201 1.39355 17.1181 0.822528C18.016 0.25151 19.0659 -0.0339596 20.1293 0.00378263ZM19.9787 1.10814C19.4588 1.10097 18.943 1.20033 18.463 1.4001C17.983 1.59988 17.5489 1.89582 17.1877 2.26971C15.9227 3.52465 15.2903 5.65168 15.2903 8.65082C15.2195 10.3613 15.5387 12.0656 16.2239 13.6345C16.5307 14.395 17.0599 15.0452 17.7425 15.4999C18.425 15.9545 19.229 16.1925 20.049 16.1825C20.7566 16.2003 21.4556 16.025 22.0712 15.6755C22.6867 15.326 23.1955 14.8154 23.5428 14.1987C24.4695 12.4983 24.904 10.5734 24.7977 8.63979C24.8672 6.92836 24.5443 5.22371 23.8539 3.65618C23.5417 2.88926 23.0042 2.23516 22.3122 1.78037C21.6203 1.32558 20.8065 1.09153 19.9787 1.10915V1.10814ZM35.289 0.00378263C35.9736 -0.00837802 36.6535 0.119369 37.2871 0.379177C37.9206 0.638986 38.4945 1.02539 38.9735 1.51474C40.4594 2.9872 41.2023 5.36321 41.2023 8.64279C41.2716 10.5182 40.911 12.3846 40.1481 14.0993C39.7421 15.0691 39.052 15.8931 38.1685 16.4628C37.2849 17.0326 36.2495 17.3213 35.1987 17.2909C34.5015 17.3106 33.8077 17.1872 33.1601 16.9281C32.5126 16.6691 31.925 16.28 31.4338 15.7849C30.4297 14.7049 29.7693 13.3508 29.5363 11.8946C29.324 10.8216 29.2165 9.73057 29.2151 8.63679C29.2116 7.6341 29.3056 6.63344 29.4961 5.64901C29.6432 4.80381 29.8997 3.98138 30.2592 3.2024C30.676 2.22332 31.3798 1.39355 32.2777 0.822528C33.1757 0.25151 34.2255 -0.0339596 35.289 0.00378263ZM35.1384 1.10814C34.6188 1.10285 34.1036 1.20306 33.6238 1.40272C33.1441 1.60238 32.7099 1.89733 32.3475 2.26971C31.0825 3.52465 30.45 5.65168 30.45 8.65082C30.377 10.3625 30.6999 12.068 31.3936 13.6345C31.6972 14.3952 32.2243 15.046 32.9054 15.5009C33.5866 15.9559 34.3897 16.1935 35.2087 16.1825C35.9163 16.2003 36.6154 16.025 37.2309 15.6755C37.8465 15.326 38.3551 14.8154 38.7024 14.1987C39.6291 12.4983 40.0637 10.5734 39.9574 8.63979C40.0296 6.92916 39.7102 5.22464 39.0236 3.65618C38.7078 2.88978 38.1679 2.23659 37.4747 1.78213C36.7815 1.32767 35.9671 1.09312 35.1384 1.10915V1.10814ZM50.4587 0.00378263C51.1432 -0.00743676 51.8229 0.120741 52.4563 0.380495C53.0897 0.640248 53.6637 1.02615 54.1432 1.51474C55.6157 2.9872 56.3552 5.36321 56.3619 8.64279C56.4291 10.517 56.0723 12.3823 55.3179 14.0993C54.9108 15.0682 54.2204 15.8915 53.3371 16.4611C52.4538 17.0306 51.4189 17.3199 50.3684 17.2909C49.6698 17.3097 48.9748 17.1858 48.3258 16.9269C47.6767 16.6679 47.0873 16.2794 46.5935 15.7849C45.5964 14.7014 44.94 13.3484 44.7061 11.8946C44.2819 9.83597 44.2649 7.7142 44.6559 5.64901C44.8013 4.80213 45.0612 3.97903 45.4289 3.2024C45.8435 2.22171 46.5468 1.39043 47.4452 0.819081C48.3437 0.247732 49.3947 -0.0366421 50.4587 0.00378263ZM50.3081 1.10814C49.7868 1.10183 49.2698 1.20156 48.7883 1.40124C48.3068 1.60092 47.8709 1.89638 47.5071 2.26971C46.2522 3.52465 45.623 5.65168 45.6197 8.65082C45.5489 10.3613 45.8681 12.0656 46.5533 13.6345C46.8602 14.395 47.3895 15.0451 48.072 15.4997C48.7545 15.9544 49.5584 16.1923 50.3784 16.1825C51.0857 16.1983 51.784 16.0222 52.3992 15.6729C53.0144 15.3236 53.5233 14.8141 53.8722 14.1987C54.7951 12.4972 55.2261 10.5724 55.117 8.63979C55.1893 6.92916 54.87 5.22464 54.1834 3.65618C53.8702 2.89001 53.3322 2.23661 52.6405 1.78198C51.9488 1.32735 51.1356 1.09279 50.3081 1.10915V1.10814ZM65.9698 16.9605V0.331075H70.9293C72.2792 0.246353 73.6224 0.581251 74.7745 1.28985C75.2719 1.64638 75.6714 2.12243 75.9363 2.67407C76.2013 3.22571 76.323 3.83518 76.2904 4.44628C76.3253 5.1755 76.1208 5.89614 75.7081 6.49836C75.2057 7.10512 74.5456 7.56158 73.8006 7.81755C74.2592 7.88776 74.7055 8.02297 75.1259 8.21913C75.4951 8.4123 75.828 8.66811 76.1097 8.97513C76.5129 9.40218 76.8271 9.90517 77.0339 10.4548C77.2407 11.0045 77.3361 11.5898 77.3144 12.1767C77.3312 13.1052 77.0765 14.0184 76.5816 14.8041C76.1006 15.5636 75.3851 16.1455 74.5435 16.4616C73.4042 16.835 72.2078 17.0029 71.0097 16.9575L65.9698 16.9605ZM67.2047 7.41095H71.3209C72.2727 7.46952 73.2157 7.19867 73.9914 6.64393C74.3236 6.38272 74.5889 6.04617 74.7652 5.66209C74.9415 5.27801 75.0239 4.85747 75.0054 4.43525C75.0294 3.99714 74.9479 3.55965 74.768 3.15947C74.5881 2.75929 74.3149 2.40805 73.9713 2.13518C73.117 1.54254 72.0874 1.25631 71.0498 1.32299H67.2047V7.41095ZM67.2047 15.9686H70.7686C74.2624 15.9686 76.0094 14.7207 76.0094 12.2249C76.0438 11.6401 75.9259 11.0564 75.6672 10.5308C75.4085 10.0051 75.0178 9.55562 74.5335 9.22611C73.6648 8.68708 72.6534 8.42351 71.6321 8.47012H67.2047V15.9686ZM89.0608 9.78931V8.72913H94.0001V16.3281C92.0318 16.9803 89.9696 17.3043 87.8961 17.2868C86.4597 17.357 85.0318 17.029 83.7699 16.3391C81.5512 14.957 80.4434 12.4428 80.4468 8.79641C80.3065 6.4374 81.0231 4.1071 82.4647 2.23457C83.1317 1.48856 83.9582 0.90256 84.8829 0.520159C85.8076 0.137758 86.8068 -0.0311922 87.8058 0.0258728C89.3576 -0.0690109 90.8922 0.393879 92.1328 1.33101C92.6588 1.77674 93.0766 2.3361 93.3549 2.96688C93.6331 3.59766 93.7645 4.28341 93.7391 4.97237H92.5143C92.5189 4.07771 92.1977 3.21194 91.6107 2.53675C91.1155 2.04519 90.5202 1.66596 89.8654 1.42483C89.2106 1.18369 88.5116 1.08631 87.8159 1.13927C86.9052 1.07944 85.9945 1.25674 85.1728 1.65388C84.351 2.05102 83.6463 2.65442 83.1274 3.40519C82.1322 5.02061 81.6492 6.89933 81.7419 8.79439C81.6239 10.7593 82.1916 12.7042 83.3482 14.2971C83.8552 14.9254 84.5108 15.4174 85.2557 15.7287C86.1508 16.0468 87.0972 16.1959 88.0468 16.1684C89.6559 16.1539 91.2511 15.8681 92.7653 15.3231V9.7863L89.0608 9.78931Z" fill="#1E1E1E"/>
</svg>
