<svg width="79" height="12" viewBox="0 0 79 12" fill="none" xmlns="http://www.w3.org/2000/svg">
<path d="M7.61751 9.31234H3.12036L2.37743 11.4634H0L4.05942 0.158404H6.6956L10.7551 11.4634H8.36143L7.61751 9.31234ZM7.0029 7.50096L5.36946 2.77843L3.73595 7.50096H7.0029ZM18.6768 5.67341C19.3006 5.78418 19.8603 6.12462 20.2456 6.62762C20.6501 7.1317 20.8672 7.7604 20.8601 8.40665C20.8713 8.97345 20.7137 9.53078 20.4073 10.0078C20.0935 10.4796 19.6498 10.8504 19.1297 11.0752C18.5025 11.3472 17.8237 11.4796 17.1404 11.4634H12.2723V0.174576H16.9301C17.6067 0.157296 18.2793 0.28409 18.9032 0.546552C19.4184 0.756573 19.8581 1.11737 20.1647 1.58163C20.4571 2.02819 20.6092 2.55201 20.6014 3.08572C20.622 3.68111 20.4331 4.26486 20.0677 4.73537C19.7125 5.18472 19.2265 5.51253 18.6768 5.67341ZM14.5325 4.83241H16.6026C17.0464 4.86158 17.4865 4.73581 17.8479 4.4766C18.0557 4.26919 18.1973 4.00486 18.2549 3.71699C18.3125 3.42913 18.2834 3.13066 18.1714 2.8593C18.0967 2.67868 17.9867 2.51477 17.8479 2.37714C17.4907 2.10808 17.0489 1.97609 16.6026 2.00516H14.5325V4.83241ZM16.8129 9.61963C17.2717 9.6487 17.7254 9.51083 18.0905 9.23147C18.2479 9.09647 18.3721 8.92704 18.4534 8.73632C18.5347 8.54561 18.571 8.33873 18.5595 8.13171C18.5712 7.9184 18.5335 7.70528 18.4493 7.50893C18.3652 7.31257 18.2369 7.13828 18.0744 6.9996C17.7031 6.70236 17.2352 6.55263 16.7603 6.5791H14.5284V9.61963H16.8129ZM27.9005 11.5766C26.8818 11.5866 25.8783 11.3301 24.9893 10.8326C24.1175 10.3482 23.3915 9.63889 22.8868 8.77863C22.3624 7.86978 22.0941 6.83579 22.1105 5.78662C22.0946 4.74773 22.363 3.72426 22.8868 2.82695C23.3874 1.95938 24.1141 1.24391 24.9893 0.756802C25.8819 0.268422 26.883 0.0124488 27.9005 0.0124488C28.918 0.0124488 29.9191 0.268422 30.8116 0.756802C31.6848 1.24106 32.4069 1.95756 32.8979 2.82695C33.4218 3.72426 33.6902 4.74773 33.6742 5.78662C33.6907 6.8358 33.4224 7.8698 32.8979 8.77863C32.4025 9.6405 31.6812 10.3507 30.8116 10.8326C29.9238 11.3291 28.9217 11.5855 27.9045 11.5766H27.9005ZM27.9005 9.55493C28.5287 9.56799 29.1488 9.41156 29.6957 9.10209C30.218 8.78444 30.6388 8.32437 30.9087 7.7759C31.2109 7.15713 31.3606 6.47505 31.3454 5.78662C31.3617 5.10327 31.2118 4.42617 30.9087 3.81351C30.6422 3.26588 30.2203 2.80886 29.6957 2.49945C29.1489 2.18993 28.5287 2.03349 27.9005 2.0466C27.2673 2.03473 26.6423 2.191 26.0891 2.49945C25.5645 2.80886 25.1427 3.26588 24.8761 3.81351C24.573 4.42617 24.4231 5.10327 24.4395 5.78662C24.4242 6.47506 24.5739 7.15714 24.8761 7.7759C25.146 8.32437 25.5669 8.78444 26.0891 9.10209C26.6447 9.41189 27.2726 9.56819 27.9086 9.55493H27.9005ZM37.5911 0.174576V7.16133C37.5699 7.4801 37.6118 7.79992 37.7145 8.10244C37.8172 8.40497 37.9787 8.68422 38.1896 8.92419C38.4151 9.13227 38.6803 9.29256 38.9694 9.39541C39.2584 9.49825 39.5654 9.54151 39.8716 9.52259C40.1803 9.54197 40.4898 9.49898 40.7815 9.39617C41.0733 9.29336 41.3414 9.13284 41.5698 8.92419C41.7807 8.68422 41.9421 8.40497 42.0447 8.10244C42.1474 7.79992 42.1894 7.4801 42.1681 7.16133V0.174576H44.4485V7.1492C44.4756 8.00675 44.2568 8.85414 43.8178 9.59133C43.4191 10.2388 42.8401 10.7559 42.152 11.0792C41.4286 11.4096 40.6426 11.5806 39.8473 11.5806C39.052 11.5806 38.2661 11.4096 37.5427 11.0792C36.8702 10.7514 36.3081 10.2342 35.9254 9.59133C35.5068 8.84715 35.2998 8.0026 35.3269 7.1492V0.174576H37.5911ZM54.3181 0.174576V2.00213H51.3099V11.4634H49.0457V2.00213H46.0375V0.174576H54.3181ZM62.0559 0.174576V7.16133C62.0347 7.4801 62.0766 7.79992 62.1793 8.10244C62.282 8.40497 62.4434 8.68422 62.6543 8.92419C62.8798 9.13227 63.145 9.29256 63.4341 9.39541C63.7232 9.49825 64.0301 9.54151 64.3363 9.52259C64.6451 9.54197 64.9545 9.49898 65.2463 9.39617C65.538 9.29336 65.8061 9.13284 66.0345 8.92419C66.2454 8.68422 66.4068 8.40497 66.5095 8.10244C66.6122 7.79992 66.6541 7.4801 66.6329 7.16133V0.174576H68.9133V7.1492C68.9403 8.00675 68.7215 8.85414 68.2826 9.59133C67.8841 10.239 67.3051 10.7562 66.6167 11.0792C65.8933 11.4096 65.1073 11.5806 64.312 11.5806C63.5168 11.5806 62.7308 11.4096 62.0074 11.0792C61.3349 10.7514 60.7728 10.2342 60.3901 9.59133C59.9715 8.84713 59.7646 8.00259 59.7917 7.1492V0.174576H62.0559ZM74.9944 11.5766C74.2627 11.5877 73.5364 11.4502 72.8595 11.1722C72.2664 10.9274 71.7517 10.5247 71.3716 10.0078C70.9996 9.48338 70.8016 8.85547 70.8055 8.21257H73.2315C73.2424 8.62867 73.4167 9.02374 73.7167 9.31234C74.0612 9.59644 74.4999 9.74075 74.9458 9.71667C75.3916 9.74203 75.8323 9.61041 76.1911 9.34469C76.3375 9.2226 76.4542 9.06896 76.5326 8.89529C76.6111 8.72162 76.6491 8.53245 76.644 8.34196C76.6562 8.0377 76.5471 7.74105 76.3408 7.51713C76.1238 7.29178 75.8583 7.11892 75.5644 7.01173C75.1533 6.84501 74.7319 6.70456 74.303 6.59123C73.6918 6.4192 73.0922 6.20852 72.5077 5.96048C72.0461 5.73737 71.6421 5.41085 71.3271 5.00627C70.9813 4.50219 70.8108 3.89839 70.8419 3.28789C70.8285 2.66777 71.0049 2.05835 71.3473 1.54119C71.6951 1.03392 72.1845 0.640197 72.7544 0.409087C73.4081 0.129425 74.1137 -0.00838472 74.8245 0.00476006C75.8383 -0.0422698 76.8375 0.260335 77.6548 0.86193C78.0183 1.14203 78.3155 1.49889 78.5251 1.90705C78.7348 2.31521 78.8518 2.76461 78.8678 3.22319H76.3772C76.3686 3.03668 76.3189 2.85437 76.2315 2.68938C76.1441 2.52439 76.0213 2.38081 75.8717 2.26898C75.5283 1.99596 75.0969 1.85791 74.6588 1.88083C74.2737 1.86246 73.895 1.983 73.5914 2.22047C73.4575 2.34583 73.3533 2.49939 73.2862 2.67002C73.219 2.84066 73.1907 3.02408 73.2032 3.20702C73.1992 3.34666 73.2229 3.4857 73.2728 3.61616C73.3228 3.74662 73.3981 3.8659 73.4943 3.96715C73.7128 4.1702 73.9644 4.33431 74.2382 4.45235C74.5408 4.57027 74.9614 4.71044 75.4998 4.87285C76.1131 5.04474 76.713 5.26095 77.295 5.51977C77.7668 5.74131 78.1775 6.07436 78.4918 6.49015C78.8464 6.98324 79.0245 7.58152 78.9972 8.18832C79 8.78165 78.8376 9.36405 78.5282 9.87031C78.1957 10.4061 77.7194 10.8376 77.1535 11.1156C76.4822 11.4349 75.7456 11.5928 75.0025 11.5766H74.9944Z" fill="black"/>
</svg>
