<svg width="575" height="53" viewBox="0 0 575 53" fill="none" xmlns="http://www.w3.org/2000/svg">
<path d="M11.0865 12.579H3.39047L1.37239 17.7844H0L6.82805 0.481493H7.66094L14.488 17.7844H13.1156L11.0865 12.579ZM10.664 11.4779L7.23851 2.64473L3.82494 11.4779H10.664ZM16.2008 12.9564H17.4561C17.4142 13.9818 17.7732 14.9831 18.4571 15.7483C19.5209 16.6435 20.8953 17.0821 22.2811 16.9686C23.6266 17.0697 24.9624 16.6732 26.0349 15.8544C26.4054 15.527 26.6986 15.1215 26.8933 14.6671C27.0881 14.2127 27.1795 13.7207 27.1611 13.2267C27.1858 12.7609 27.0998 12.2959 26.9102 11.8698C26.7205 11.4436 26.4326 11.0685 26.0699 10.7751C25.6666 10.4588 25.2151 10.2094 24.7326 10.0364C23.933 9.76341 23.1185 9.53614 22.2931 9.35568C21.1039 9.08206 20.228 8.84849 19.6654 8.65495C19.1301 8.46217 18.6215 8.20216 18.1518 7.88116C17.6604 7.53317 17.2672 7.0642 17.0103 6.51966C16.7534 5.97511 16.6414 5.37345 16.6852 4.77294C16.6652 4.19833 16.7597 3.62548 16.9632 3.08773C17.1667 2.54998 17.4751 2.05809 17.8705 1.6407C18.4253 1.11647 19.0831 0.713343 19.802 0.456917C20.521 0.20049 21.2854 0.0963693 22.0468 0.151157C24.1657 0.151157 25.6592 0.761117 26.5274 1.98105C27.1382 2.98552 27.4325 4.1505 27.3723 5.32451H26.117C26.161 4.33751 25.8765 3.36378 25.3082 2.55565C24.9024 2.12048 24.4035 1.78262 23.8488 1.56733C23.2941 1.35204 22.698 1.26488 22.1048 1.31235C20.951 1.23225 19.8124 1.61192 18.9376 2.36845C18.6279 2.66196 18.3834 3.01723 18.2197 3.41126C18.0561 3.80529 17.977 4.22929 17.9876 4.65582C17.9592 5.12478 18.0615 5.59242 18.2831 6.00669C18.5048 6.42095 18.8371 6.76559 19.2429 7.00224C19.6062 7.21842 19.9914 7.39527 20.3921 7.52979C20.8145 7.66326 21.5226 7.84712 22.5163 8.08136C23.4658 8.29559 24.4017 8.566 25.3192 8.8912C25.9077 9.10601 26.4612 9.40657 26.9619 9.78313C27.4678 10.1706 27.8719 10.6751 28.1395 11.2533C28.4072 11.8316 28.5304 12.4662 28.4985 13.1026C28.5 13.7822 28.3683 14.4556 28.1111 15.0846C27.8756 15.6848 27.5161 16.2286 27.056 16.6803C25.7313 17.7486 24.0477 18.2691 22.3511 18.1348C19.9186 18.1348 18.2018 17.5288 17.2008 16.3169C16.4887 15.3442 16.1354 14.1551 16.2008 12.9514V12.9564ZM31.8169 0.486503H33.1183V11.5199C33.0484 12.7443 33.2739 13.9676 33.7759 15.0866C34.4633 16.3379 35.7693 16.9636 37.694 16.9636C39.6326 16.9636 40.9424 16.3379 41.6231 15.0866C42.1249 13.9679 42.3504 12.745 42.2807 11.5209V0.481493H43.5821V10.7111C43.6039 11.8014 43.5413 12.8918 43.3949 13.9725C43.2914 14.6488 43.0564 15.2984 42.7032 15.8844C41.7802 17.378 40.1142 18.1247 37.705 18.1247C35.2812 18.1247 33.6128 17.378 32.6999 15.8844C32.3433 15.2956 32.1081 14.6415 32.0081 13.9604C31.8624 12.8837 31.7999 11.7974 31.8209 10.7111L31.8169 0.486503ZM47.0787 12.9564H48.334C48.2922 13.9818 48.6512 14.9831 49.335 15.7483C50.3988 16.6435 51.7733 17.0821 53.159 16.9686C54.5046 17.0697 55.8404 16.6732 56.9129 15.8544C57.2834 15.527 57.5765 15.1215 57.7713 14.6671C57.966 14.2127 58.0575 13.7207 58.0391 13.2267C58.0638 12.7609 57.9778 12.2959 57.7881 11.8698C57.5985 11.4436 57.3105 11.0685 56.9479 10.7751C56.5445 10.459 56.0929 10.2096 55.6105 10.0364C54.8109 9.76341 53.9964 9.53614 53.171 9.35568C51.9818 9.08206 51.1058 8.84849 50.5433 8.65495C50.008 8.46219 49.4994 8.20218 49.0297 7.88116C48.5382 7.53331 48.1449 7.06436 47.888 6.51978C47.631 5.97521 47.5191 5.37347 47.5632 4.77294C47.5431 4.19833 47.6376 3.62548 47.8411 3.08773C48.0445 2.54998 48.353 2.05809 48.7484 1.6407C49.3033 1.11647 49.961 0.713343 50.68 0.456917C51.399 0.20049 52.1634 0.0963693 52.9248 0.151157C55.0443 0.151157 56.5378 0.761117 57.4054 1.98105C58.0157 2.98571 58.31 4.15055 58.2503 5.32451H56.9949C57.0386 4.3374 56.7539 3.36365 56.1852 2.55565C55.7795 2.12024 55.2807 1.78223 54.7259 1.56692C54.1712 1.35161 53.575 1.26459 52.9818 1.31235C51.8267 1.22712 50.6848 1.60329 49.8065 2.35844C49.4967 2.65183 49.2521 3.00709 49.0884 3.40114C48.9247 3.7952 48.8457 4.21925 48.8565 4.64581C48.8281 5.11477 48.9305 5.58242 49.1521 5.99668C49.3737 6.41095 49.706 6.75559 50.1118 6.99224C50.475 7.2086 50.8603 7.38546 51.261 7.51978C51.6835 7.65325 52.3912 7.83711 53.3842 8.07135C54.3337 8.28549 55.2697 8.55592 56.1871 8.88119C56.7755 9.09622 57.3291 9.39675 57.8299 9.77311C58.3357 10.1606 58.7398 10.6651 59.0075 11.2433C59.2751 11.8216 59.3983 12.4562 59.3664 13.0925C59.3679 13.7722 59.2363 14.4455 58.979 15.0746C58.7432 15.6749 58.3833 16.2186 57.9229 16.6702C56.5982 17.7387 54.9146 18.2592 53.218 18.1247C50.7868 18.1247 49.0704 17.5188 48.0687 16.3069C47.3608 15.3364 47.0103 14.1508 47.0767 12.9514L47.0787 12.9564ZM68.1004 17.7894V0.481493H72.476C73.4058 0.467226 74.3353 0.526138 75.2558 0.657678C75.913 0.758201 76.5503 0.960854 77.1448 1.2583C77.8681 1.63757 78.4516 2.23755 78.8106 2.97108C79.2254 3.79622 79.4316 4.71049 79.4111 5.63383C79.4555 6.7915 79.1217 7.93213 78.4602 8.88319C78.0701 9.37184 77.5853 9.77654 77.0348 10.073C76.4843 10.3694 75.8795 10.5514 75.2569 10.608C74.3401 10.7416 73.4144 10.8046 72.488 10.7962H69.4028V17.7844L68.1004 17.7894ZM69.4018 9.69503H72.7693C73.5565 9.71186 74.3432 9.64102 75.1147 9.48381C75.6714 9.36771 76.1961 9.13166 76.6523 8.79209C77.0941 8.39652 77.4478 7.91239 77.6902 7.37119C77.9326 6.82999 78.0584 6.24382 78.0595 5.6508C78.0605 5.05778 77.9367 4.47117 77.6962 3.92912C77.4556 3.38707 77.1037 2.90171 76.6633 2.50459C76.0367 2.04945 75.2999 1.76988 74.5291 1.69475C73.9493 1.61909 73.365 1.58396 72.7803 1.58964H69.4018V9.69503ZM82.6095 17.7844V5.33752H83.8648V7.87414C84.2882 7.09902 84.8676 6.42006 85.5665 5.88008C86.3397 5.38767 87.2429 5.13835 88.1592 5.16434H88.7338V6.3846H88.3704C87.752 6.36545 87.1353 6.46082 86.5515 6.66589C86.0628 6.85943 85.6283 7.16857 85.2853 7.56683C84.686 8.25889 84.2096 9.04843 83.8768 9.90124V17.7844H82.6095ZM95.9002 4.96214C96.722 4.93745 97.5384 5.10357 98.2853 5.44746C99.0321 5.79136 99.6892 6.30367 100.205 6.94418C101.166 8.29158 101.682 9.90539 101.682 11.5605C101.682 13.2155 101.166 14.8293 100.205 16.1767C99.655 16.7999 98.9789 17.299 98.2215 17.6408C97.4641 17.9827 96.6426 18.1595 95.8116 18.1595C94.9806 18.1595 94.1592 17.9827 93.4018 17.6408C92.6443 17.299 91.9683 16.7999 91.4186 16.1767C90.3996 14.8657 89.876 13.2372 89.94 11.578C89.8749 9.90788 90.3982 8.26791 91.4186 6.94418C91.9598 6.28787 92.6468 5.76695 93.4249 5.42286C94.2029 5.07877 95.0505 4.92101 95.9002 4.96214ZM95.7481 6.06327C94.8725 6.05104 94.0151 6.31361 93.2965 6.81405C91.9205 7.75235 91.232 9.336 91.2314 11.565C91.1777 12.8701 91.5272 14.1602 92.2324 15.2598C92.6492 15.8169 93.1901 16.2691 93.8122 16.5806C94.4342 16.8921 95.1204 17.0543 95.8161 17.0543C96.5118 17.0543 97.198 16.8921 97.8201 16.5806C98.4422 16.2691 98.9831 15.8169 99.3998 15.2598C100.053 14.1356 100.397 12.8586 100.397 11.5585C100.397 10.2583 100.053 8.9813 99.3998 7.85713C98.9946 7.27168 98.4463 6.79968 97.8071 6.48604C97.1679 6.17239 96.4591 6.02754 95.7481 6.06527V6.06327ZM114.482 12.57H106.786L104.763 17.7844H103.391L110.219 0.481493H111.052L117.884 17.7844H116.512L114.482 12.57ZM114.06 11.4689L110.634 2.63572L107.221 11.4689H114.06ZM120.547 17.7754V5.33752H121.802V7.87414C122.226 7.09927 122.805 6.42037 123.504 5.88008C124.277 5.38767 125.18 5.13835 126.096 5.16434H126.671V6.3846H126.308C125.69 6.36544 125.073 6.46081 124.49 6.66589C124.001 6.85914 123.566 7.16832 123.222 7.56683C122.624 8.25919 122.148 9.04867 121.815 9.90124V17.7844L120.547 17.7754ZM130.79 6.44066H128.842V5.33952H130.79L130.93 1.5506H132.057V5.33952H135.495V6.44066H132.058V14.4409C132.003 15.0503 132.152 15.6606 132.48 16.1767C132.669 16.3614 132.896 16.502 133.146 16.5886C133.395 16.6751 133.661 16.7054 133.924 16.6773H135.789V17.7844H133.805C133.384 17.8137 132.961 17.7489 132.567 17.5946C132.174 17.4404 131.82 17.2005 131.53 16.8925C131.007 16.2306 130.744 15.4003 130.791 14.5581L130.79 6.44066ZM142.756 12.9474H144.004C143.962 13.9728 144.321 14.9741 145.005 15.7393C146.069 16.6345 147.443 17.0731 148.829 16.9595C150.175 17.0607 151.51 16.6642 152.583 15.8454C152.954 15.5188 153.248 15.114 153.443 14.6601C153.639 14.2062 153.731 13.7146 153.714 13.2207C153.739 12.7549 153.653 12.2899 153.463 11.8638C153.273 11.4376 152.986 11.0625 152.623 10.7691C152.219 10.453 151.768 10.2036 151.286 10.0304C150.486 9.75739 149.671 9.53013 148.846 9.34967C147.657 9.07605 146.781 8.84248 146.218 8.64895C145.683 8.45585 145.174 8.19549 144.705 7.87414C144.213 7.52616 143.82 7.0572 143.563 6.51265C143.306 5.96811 143.194 5.36645 143.238 4.76593C143.218 4.19132 143.313 3.61846 143.516 3.08072C143.72 2.54297 144.028 2.05108 144.423 1.63369C144.978 1.10946 145.636 0.70634 146.355 0.449913C147.074 0.193486 147.838 0.0893582 148.6 0.144146C150.719 0.144146 152.213 0.754114 153.08 1.97404C153.691 2.97871 153.985 4.14353 153.925 5.3175H152.67C152.714 4.3305 152.429 3.35677 151.861 2.54863C151.455 2.11347 150.956 1.77562 150.402 1.56033C149.847 1.34504 149.251 1.25788 148.658 1.30535C147.504 1.22503 146.365 1.60472 145.491 2.36144C145.181 2.65484 144.936 3.01009 144.772 3.40414C144.609 3.7982 144.53 4.22226 144.541 4.64881C144.512 5.11777 144.614 5.58542 144.836 5.99968C145.058 6.41395 145.39 6.75859 145.796 6.99524C146.159 7.21142 146.544 7.38827 146.945 7.52278C147.367 7.65625 148.075 7.84011 149.068 8.07436C150.018 8.2885 150.954 8.55893 151.871 8.88419C152.46 9.09922 153.013 9.39975 153.514 9.77611C154.02 10.1636 154.424 10.6681 154.691 11.2463C154.959 11.8246 155.082 12.4592 155.05 13.0956C155.052 13.7752 154.92 14.4485 154.663 15.0776C154.428 15.6778 154.068 16.2216 153.608 16.6733C152.283 17.7413 150.6 18.2618 148.903 18.1278C146.472 18.1278 144.755 17.5218 143.754 16.3099C143.042 15.3396 142.689 14.1528 142.754 12.9514L142.756 12.9474ZM158.803 6.44066H156.856V5.33952H158.803L158.944 1.5506H160.071V5.33952H163.507V6.44066H160.071V14.4409C160.015 15.0503 160.164 15.6608 160.493 16.1767C160.682 16.3614 160.909 16.502 161.158 16.5885C161.408 16.6751 161.673 16.7054 161.936 16.6773H163.8V17.7844H161.818C161.397 17.8137 160.974 17.7489 160.58 17.5946C160.186 17.4404 159.832 17.2005 159.542 16.8925C159.019 16.2306 158.756 15.4003 158.803 14.5581V6.44066ZM166.311 5.33952H167.578V12.6471C167.54 13.5573 167.623 14.4685 167.825 15.3569C167.95 15.8107 168.235 16.2044 168.626 16.4662C169.018 16.728 169.49 16.8405 169.958 16.7834C171.019 16.72 172.024 16.284 172.796 15.5521C173.457 15.0013 174.051 14.3754 174.568 13.6872V5.33752H175.837V17.7844H174.57V15.2738C174.025 15.8685 173.432 16.4179 172.798 16.9165C171.909 17.6024 170.824 17.9848 169.702 18.0076C169.117 18.0563 168.532 17.9265 168.023 17.6353C167.514 17.3442 167.105 16.9054 166.851 16.3769C166.632 15.9338 166.486 15.4587 166.417 14.9695C166.331 14.1747 166.296 13.3753 166.311 12.576V5.33952ZM189.442 17.7844V15.5821C188.999 16.3856 188.343 17.0516 187.547 17.5068C186.75 17.9621 185.843 18.189 184.926 18.1628C184.115 18.1964 183.307 18.0337 182.572 17.6887C181.837 17.3436 181.196 16.8264 180.703 16.1807C179.792 14.8134 179.306 13.2073 179.306 11.5645C179.306 9.92163 179.792 8.31551 180.703 6.94819C181.196 6.30257 181.837 5.7853 182.572 5.44025C183.307 5.09521 184.115 4.93257 184.926 4.96614C185.842 4.94114 186.746 5.16874 187.541 5.62397C188.336 6.07919 188.99 6.74446 189.431 7.54681V0H190.697V17.7844H189.442ZM184.891 6.06527C184.292 6.05274 183.699 6.18475 183.162 6.45014C182.625 6.71553 182.159 7.10647 181.805 7.58985C181.017 8.7644 180.597 10.1467 180.597 11.561C180.597 12.9752 181.017 14.3575 181.805 15.5321C182.17 16.0211 182.647 16.415 183.197 16.6804C183.746 16.9458 184.352 17.0748 184.961 17.0567C185.629 17.0698 186.289 16.9117 186.878 16.5975C187.468 16.2833 187.967 15.8235 188.328 15.2618C189.048 14.1616 189.431 12.8753 189.431 11.5605C189.431 10.2456 189.048 8.95935 188.328 7.85913C187.886 7.19118 187.26 6.66548 186.526 6.34556C186.005 6.14436 185.449 6.04907 184.891 6.06527ZM195.284 17.7844V5.33752H196.551V17.7844H195.284ZM195.942 0.610632C196.072 0.609397 196.202 0.634762 196.322 0.685188C196.443 0.735613 196.552 0.810042 196.642 0.903935C196.738 0.996919 196.813 1.10839 196.863 1.23148C196.914 1.35457 196.938 1.48667 196.936 1.61967C196.939 1.75334 196.913 1.88611 196.862 2.0094C196.81 2.13268 196.733 2.24375 196.635 2.33542C196.543 2.43059 196.431 2.50572 196.308 2.55617C196.185 2.60661 196.053 2.6313 195.92 2.62872C195.785 2.63131 195.651 2.60666 195.526 2.55625C195.401 2.50584 195.288 2.43071 195.192 2.33536C195.097 2.24002 195.022 2.12641 194.972 2.00137C194.921 1.87633 194.897 1.74241 194.9 1.60766C194.897 1.47682 194.921 1.34682 194.972 1.2261C195.022 1.10538 195.098 0.996631 195.193 0.906937C195.292 0.810301 195.409 0.734328 195.538 0.683454C195.666 0.63258 195.804 0.607827 195.942 0.610632ZM206.123 4.96314C206.945 4.93845 207.762 5.10457 208.508 5.44846C209.255 5.79236 209.912 6.30467 210.428 6.94518C211.389 8.29235 211.906 9.90625 211.906 11.5615C211.906 13.2167 211.389 14.8306 210.428 16.1777C209.878 16.8009 209.202 17.3 208.445 17.6418C207.687 17.9837 206.866 18.1605 206.035 18.1605C205.204 18.1605 204.382 17.9837 203.625 17.6418C202.867 17.3 202.191 16.8009 201.642 16.1777C200.623 14.8664 200.099 13.2376 200.162 11.578C200.097 9.90795 200.621 8.26815 201.641 6.94418C202.182 6.28773 202.869 5.76673 203.647 5.42263C204.426 5.07854 205.273 4.92186 206.123 4.96314ZM205.971 6.06427C205.096 6.05224 204.238 6.3148 203.52 6.81505C202.144 7.75335 201.455 9.337 201.454 11.566C201.4 12.8712 201.75 14.1614 202.455 15.2608C202.872 15.8179 203.413 16.2701 204.035 16.5816C204.657 16.8931 205.343 17.0553 206.039 17.0553C206.735 17.0553 207.421 16.8931 208.043 16.5816C208.665 16.2701 209.206 15.8179 209.623 15.2608C210.276 14.1366 210.62 12.8596 210.62 11.5595C210.62 10.2593 210.276 8.98234 209.623 7.85813C209.217 7.27219 208.669 6.79982 208.029 6.48599C207.389 6.17216 206.68 6.02732 205.968 6.06527L205.971 6.06427ZM215.403 17.7844V0H216.67V7.5438C217.109 6.7389 217.762 6.07149 218.557 5.61586C219.353 5.16023 220.259 4.93427 221.175 4.96314C221.986 4.92957 222.794 5.0922 223.529 5.43725C224.264 5.7823 224.905 6.29957 225.397 6.94518C226.308 8.3125 226.794 9.91863 226.794 11.5615C226.794 13.2043 226.308 14.8104 225.397 16.1777C224.905 16.8233 224.264 17.3406 223.529 17.6857C222.794 18.0307 221.986 18.1934 221.175 18.1598C220.252 18.1851 219.34 17.954 218.541 17.4923C217.741 17.0305 217.085 16.3561 216.646 15.5441L216.506 17.7844H215.403ZM221.069 6.06527C220.412 6.05843 219.764 6.21975 219.187 6.53391C218.61 6.84807 218.123 7.30462 217.772 7.86013C217.053 8.96058 216.67 10.2468 216.67 11.5615C216.67 12.8761 217.053 14.1623 217.772 15.2628C218.134 15.8245 218.633 16.2843 219.222 16.5985C219.811 16.9127 220.471 17.0708 221.139 17.0577C221.751 17.0768 222.358 16.9482 222.909 16.6828C223.461 16.4174 223.94 16.023 224.307 15.5331C225.087 14.3557 225.504 12.9745 225.504 11.562C225.504 10.1495 225.087 8.76826 224.307 7.59085C223.926 7.09899 223.434 6.70434 222.871 6.43918C222.308 6.17402 221.691 6.04589 221.069 6.06527ZM235.263 4.96414C236.085 4.93952 236.902 5.10568 237.648 5.44957C238.395 5.79346 239.052 6.30573 239.568 6.94618C240.529 8.29358 241.046 9.90739 241.046 11.5625C241.046 13.2175 240.529 14.8313 239.568 16.1787C239.018 16.8018 238.342 17.3008 237.584 17.6425C236.827 17.9843 236.005 18.161 235.174 18.161C234.343 18.161 233.522 17.9843 232.764 17.6425C232.007 17.3008 231.331 16.8018 230.781 16.1787C229.763 14.8674 229.239 13.239 229.303 11.58C229.238 9.91007 229.761 8.27028 230.781 6.94618C231.322 6.28949 232.009 5.76819 232.787 5.42375C233.566 5.07931 234.413 4.92125 235.263 4.96214V4.96414ZM235.11 6.06527C234.235 6.05324 233.377 6.3158 232.659 6.81605C231.283 7.75435 230.595 9.338 230.595 11.567C230.541 12.8721 230.89 14.1622 231.596 15.2618C232.012 15.8189 232.553 16.2711 233.175 16.5826C233.798 16.8941 234.484 17.0563 235.179 17.0563C235.875 17.0563 236.561 16.8941 237.183 16.5826C237.805 16.2711 238.346 15.8189 238.763 15.2618C239.416 14.1376 239.76 12.8606 239.76 11.5605C239.76 10.2603 239.416 8.98331 238.763 7.85913C238.358 7.27331 237.809 6.80092 237.17 6.48693C236.531 6.17294 235.822 6.02778 235.11 6.06527ZM249.525 4.96414C250.347 4.93952 251.163 5.10568 251.91 5.44957C252.657 5.79346 253.314 6.30573 253.83 6.94618C254.791 8.29358 255.307 9.90739 255.307 11.5625C255.307 13.2175 254.791 14.8313 253.83 16.1787C253.28 16.8018 252.604 17.3008 251.846 17.6425C251.089 17.9843 250.267 18.161 249.436 18.161C248.605 18.161 247.784 17.9843 247.026 17.6425C246.269 17.3008 245.592 16.8018 245.043 16.1787C244.024 14.8674 243.501 13.239 243.565 11.58C243.5 9.91007 244.023 8.27028 245.043 6.94618C245.584 6.28907 246.272 5.76752 247.05 5.42306C247.829 5.07861 248.678 4.92078 249.528 4.96214L249.525 4.96414ZM249.372 6.06527C248.496 6.05324 247.639 6.3158 246.92 6.81605C245.544 7.75435 244.856 9.338 244.856 11.567C244.803 12.8721 245.152 14.1622 245.857 15.2618C246.274 15.8189 246.815 16.2711 247.437 16.5826C248.059 16.8941 248.745 17.0563 249.441 17.0563C250.137 17.0563 250.823 16.8941 251.445 16.5826C252.067 16.2711 252.608 15.8189 253.025 15.2618C253.678 14.1376 254.022 12.8606 254.022 11.5605C254.022 10.2603 253.678 8.98331 253.025 7.85913C252.62 7.27375 252.072 6.80165 251.433 6.48768C250.794 6.17371 250.086 6.0283 249.375 6.06527H249.372ZM258.807 17.7844V0H260.074V10.3938L265.951 5.33752H267.512L261.517 10.5699L268.708 17.7844H267.124L260.074 10.629V17.7964L258.807 17.7844ZM276.275 17.7844V0.481493H280.645C281.575 0.467226 282.505 0.526138 283.425 0.657678C284.082 0.758185 284.72 0.960839 285.314 1.2583C286.037 1.63757 286.621 2.23755 286.98 2.97108C287.395 3.79622 287.601 4.71049 287.581 5.63383C287.625 6.79138 287.292 7.93201 286.631 8.88319C286.241 9.37184 285.756 9.77654 285.205 10.073C284.655 10.3694 284.05 10.5514 283.427 10.608C282.51 10.7416 281.585 10.8046 280.658 10.7962H277.573V17.7844H276.275ZM277.576 9.69003H280.946C281.733 9.70686 282.52 9.63602 283.291 9.47881C283.848 9.36252 284.372 9.12649 284.829 8.78709C285.271 8.39152 285.624 7.90739 285.867 7.36619C286.109 6.82498 286.235 6.23882 286.236 5.6458C286.237 5.05277 286.113 4.46617 285.873 3.92412C285.632 3.38207 285.28 2.89671 284.84 2.49959C284.213 2.04428 283.476 1.76469 282.705 1.68974C282.125 1.61404 281.541 1.57892 280.957 1.58464H277.578L277.576 9.69003ZM290.786 17.7844V5.33752H292.041V7.87414C292.465 7.09902 293.044 6.42006 293.743 5.88008C294.516 5.38767 295.419 5.13835 296.336 5.16434H296.91V6.3846H296.547C295.928 6.36545 295.312 6.46082 294.728 6.66589C294.239 6.85918 293.805 7.16836 293.462 7.56683C292.862 8.25889 292.386 9.04843 292.053 9.90124V17.7844H290.786ZM304.077 4.96214C304.898 4.93752 305.715 5.10368 306.462 5.44757C307.208 5.79146 307.865 6.30373 308.381 6.94418C309.342 8.29158 309.859 9.90539 309.859 11.5605C309.859 13.2155 309.342 14.8293 308.381 16.1767C307.831 16.7998 307.155 17.2988 306.398 17.6405C305.64 17.9823 304.819 18.159 303.988 18.159C303.156 18.159 302.335 17.9823 301.577 17.6405C300.82 17.2988 300.144 16.7998 299.594 16.1767C298.576 14.8654 298.053 13.237 298.116 11.578C298.051 9.90806 298.574 8.26824 299.594 6.94418C300.136 6.28797 300.823 5.76714 301.601 5.42307C302.379 5.07899 303.227 4.92117 304.077 4.96214ZM303.924 6.06327C303.049 6.05123 302.191 6.31378 301.472 6.81405C300.096 7.75235 299.408 9.336 299.408 11.565C299.354 12.8701 299.704 14.1602 300.409 15.2598C300.826 15.8169 301.366 16.2691 301.989 16.5806C302.611 16.8921 303.297 17.0543 303.993 17.0543C304.688 17.0543 305.374 16.8921 305.996 16.5806C306.619 16.2691 307.159 15.8169 307.576 15.2598C308.229 14.1356 308.574 12.8586 308.574 11.5585C308.574 10.2583 308.229 8.9813 307.576 7.85713C307.171 7.27175 306.623 6.7998 305.983 6.48617C305.344 6.17253 304.635 6.02764 303.924 6.06527V6.06327ZM323.609 17.7844V1.80687L318.998 3.44957V2.27636L323.995 0.481493H324.875V17.7844H323.609ZM334.902 9.04535C335.45 8.37536 336.15 7.8447 336.943 7.49674C337.736 7.14878 338.6 6.99339 339.464 7.04328C340.809 6.98842 342.136 7.3621 343.254 8.11039C343.95 8.60386 344.509 9.26442 344.882 10.0312C345.255 10.7979 345.429 11.6463 345.388 12.4979C345.43 13.3288 345.275 14.1578 344.937 14.9179C344.598 15.678 344.086 16.3478 343.441 16.8735C342.29 17.7521 340.865 18.1966 339.418 18.1288C338.561 18.1849 337.701 18.0463 336.905 17.7233C336.109 17.4004 335.396 16.9014 334.819 16.2638C333.835 14.8714 333.37 13.1778 333.505 11.4779C333.484 9.45519 333.665 7.43546 334.045 5.44864C334.293 3.97082 334.98 2.6017 336.016 1.51857C336.531 1.04506 337.136 0.679651 337.795 0.443926C338.454 0.2082 339.153 0.106941 339.852 0.146147C340.469 0.0680627 341.096 0.119325 341.692 0.296671C342.289 0.474017 342.842 0.773568 343.316 1.17627C343.791 1.57896 344.176 2.076 344.448 2.63575C344.72 3.1955 344.873 3.80571 344.896 4.42758H343.641C343.605 3.96589 343.476 3.51621 343.262 3.10578C343.048 2.69534 342.752 2.3327 342.393 2.03984C342.035 1.74697 341.62 1.52998 341.175 1.40201C340.73 1.27404 340.264 1.23774 339.805 1.29534C338.858 1.25366 337.928 1.55788 337.189 2.15123C336.411 2.89347 335.851 3.83485 335.57 4.87304C335.173 6.23029 334.949 7.63205 334.902 9.04535ZM339.406 8.18947C338.237 8.13139 337.089 8.51678 336.192 9.26859C335.741 9.68197 335.386 10.1895 335.153 10.7551C334.92 11.3208 334.814 11.9308 334.842 12.542C334.821 13.1659 334.933 13.7872 335.172 14.364C335.41 14.9408 335.77 15.4596 336.227 15.8854C337.158 16.5932 338.295 16.9763 339.465 16.9763C340.634 16.9763 341.772 16.5932 342.703 15.8854C343.159 15.4644 343.519 14.9499 343.757 14.377C343.996 13.8041 344.109 13.1863 344.087 12.566C344.119 11.9733 344.024 11.3807 343.807 10.828C343.591 10.2754 343.258 9.7757 342.832 9.36268C341.886 8.54083 340.657 8.12066 339.406 8.18947ZM4.77496 50.2049L0.410398 32.5146H1.70177L5.31452 47.1428L9.91327 32.3615H10.64L15.2508 47.1428L18.8545 32.5146H20.1559L15.7923 50.2049H14.9475L10.2786 35.1774L5.60981 50.2049H4.77496ZM32.9892 33.6638H23.1239V32.5146H34.2565V33.6408L27.2041 49.8175H25.7817L32.9892 33.6638ZM39.4959 41.0785C40.0448 40.4085 40.7443 39.8778 41.5375 39.5299C42.3307 39.1819 43.1949 39.0265 44.0596 39.0764C45.4037 39.0215 46.7306 39.3952 47.8485 40.1435C48.5441 40.6368 49.1043 41.2973 49.4775 42.0641C49.8506 42.8309 50.0248 43.6793 49.9837 44.5311C50.0244 45.3619 49.8694 46.1907 49.5312 46.9507C49.1931 47.7107 48.6811 48.3806 48.0367 48.9066C46.8846 49.7851 45.4598 50.2295 44.0125 50.1619C43.155 50.218 42.2959 50.0793 41.4995 49.7564C40.7031 49.4334 39.99 48.9345 39.4138 48.297C38.4295 46.9041 37.9647 45.2102 38.1004 43.51C38.0794 41.4873 38.2602 39.4676 38.64 37.4808C38.8881 36.0028 39.5748 34.6335 40.611 33.5507C41.1262 33.0771 41.7311 32.7116 42.39 32.4759C43.0489 32.2402 43.7483 32.139 44.447 32.1783C45.0644 32.1002 45.6913 32.1515 46.2878 32.3288C46.8843 32.5062 47.4373 32.8057 47.9118 33.2084C48.3862 33.6111 48.7716 34.1081 49.0435 34.6679C49.3155 35.2276 49.4679 35.8379 49.4912 36.4597H48.2359C48.1628 35.7736 47.9032 35.1207 47.4851 34.5718C47.1017 34.1404 46.6237 33.8037 46.0885 33.588C45.5532 33.3723 44.9753 33.2835 44.3999 33.3285C43.4531 33.2868 42.5233 33.591 41.7842 34.1844C41.006 34.9268 40.4458 35.8681 40.1645 36.9062C39.768 38.2635 39.5434 39.6652 39.4959 41.0785ZM44.0005 40.2216C42.8314 40.1634 41.6834 40.5488 40.7862 41.3007C40.3354 41.7143 39.9809 42.2218 39.7479 42.7874C39.5149 43.3531 39.409 43.963 39.4378 44.5741C39.4159 45.198 39.5283 45.8193 39.7671 46.3961C40.0059 46.9729 40.3657 47.4917 40.8222 47.9176C41.7533 48.6247 42.8904 49.0076 44.0596 49.0076C45.2288 49.0076 46.3658 48.6247 47.2969 47.9176C47.7531 47.4964 48.113 46.9817 48.3519 46.4086C48.5908 45.8355 48.7032 45.2176 48.6814 44.5971C48.7136 44.0045 48.6182 43.4118 48.4016 42.8591C48.1851 42.3065 47.8524 41.8068 47.4261 41.3938C46.4801 40.5726 45.2514 40.1522 44.0005 40.2216ZM59.3444 32.1743C60.0571 32.1618 60.7647 32.2947 61.4243 32.5649C62.0838 32.8351 62.6814 33.237 63.1804 33.7459C64.722 35.2808 65.4924 37.7524 65.4918 41.1606C65.5638 43.1112 65.1906 45.0526 64.4006 46.8375C63.9784 47.8465 63.2604 48.7039 62.3411 49.2966C61.4219 49.8894 60.3446 50.1897 59.2513 50.1579C58.5256 50.1772 57.8035 50.0477 57.1297 49.7774C56.4558 49.5071 55.8445 49.1017 55.3333 48.5863C54.2902 47.462 53.6042 46.0535 53.3622 44.5391C53.1355 43.4232 53.0214 42.2873 53.0218 41.1486C53.0201 40.1052 53.1183 39.064 53.3152 38.0394C53.468 37.159 53.7373 36.303 54.116 35.4937C54.5502 34.4767 55.2825 33.6151 56.2162 33.0225C57.1499 32.43 58.2412 32.1342 59.3464 32.1743H59.3444ZM59.1922 33.3235C58.6507 33.3169 58.1136 33.4206 57.6134 33.6283C57.1133 33.836 56.6607 34.1434 56.2832 34.5317C54.9692 35.8378 54.3122 38.0507 54.3122 41.1706C54.2382 42.9506 54.5714 44.7241 55.2862 46.356C55.6045 47.1472 56.1544 47.8237 56.864 48.2967C57.5736 48.7698 58.4096 49.0172 59.2623 49.0067C59.9987 49.0247 60.7261 48.8421 61.3667 48.4785C62.0073 48.115 62.537 47.584 62.8991 46.9426C63.8621 45.1734 64.3127 43.1707 64.2004 41.1596C64.276 39.3794 63.9429 37.6056 63.2264 35.9742C62.9 35.1773 62.3402 34.4978 61.6206 34.0247C60.901 33.5517 60.0552 33.3072 59.1942 33.3235H59.1922ZM74.6422 32.1743C75.3549 32.1618 76.0626 32.2948 76.7221 32.565C77.3816 32.8352 77.9791 33.237 78.4782 33.7459C80.0191 35.2808 80.7893 37.7524 80.7886 41.1606C80.8606 43.1112 80.4875 45.0526 79.6975 46.8375C79.2753 47.8465 78.5572 48.7039 77.638 49.2966C76.7187 49.8894 75.6415 50.1897 74.5481 50.1579C73.8221 50.1774 73.0997 50.0481 72.4255 49.7778C71.7513 49.5075 71.1396 49.102 70.6281 48.5863C69.585 47.462 68.899 46.0535 68.657 44.5391C68.4308 43.4231 68.3168 42.2873 68.3167 41.1486C68.3149 40.1052 68.4132 39.064 68.61 38.0394C68.7633 37.1592 69.0326 36.3032 69.4108 35.4937C69.8453 34.4762 70.578 33.6143 71.5123 33.0217C72.4466 32.429 73.5386 32.1336 74.6443 32.1743H74.6422ZM74.4891 33.3235C73.9476 33.317 73.4104 33.4208 72.9103 33.6285C72.4102 33.8362 71.9576 34.1435 71.58 34.5317C70.2667 35.8378 69.6097 38.0507 69.609 41.1706C69.5356 42.9506 69.8687 44.7239 70.583 46.356C70.9015 47.1472 71.4516 47.8238 72.1613 48.2968C72.8711 48.7699 73.7072 49.0173 74.5601 49.0067C75.2963 49.0245 76.0236 48.8419 76.664 48.4783C77.3044 48.1147 77.8339 47.5839 78.1959 46.9426C79.1594 45.1736 79.6101 43.1708 79.4972 41.1596C79.5726 39.3795 79.2398 37.6058 78.5242 35.9742C78.1976 35.1773 77.6377 34.4977 76.9179 34.0246C76.1982 33.5516 75.3522 33.3072 74.4911 33.3235H74.4891ZM84.5215 49.8175V32.5146H85.8228V40.1395H95.1324V32.5146H96.4338V49.8175H95.1324V41.2427H85.8228V49.8175H84.5215ZM104.124 41.2187V40.1175C104.616 40.1248 104.98 40.1285 105.215 40.1285C106.299 40.1869 107.382 39.9987 108.382 39.578C108.965 39.3106 109.456 38.8752 109.79 38.3275C110.124 37.7798 110.288 37.1448 110.259 36.5038C110.286 36.0306 110.189 35.5585 109.977 35.1346C109.765 34.7107 109.446 34.3496 109.051 34.0873C108.18 33.5458 107.166 33.2799 106.142 33.3245C103.709 33.3245 102.241 34.3609 101.737 36.4337H100.482C100.652 35.4063 101.133 34.4558 101.86 33.7109C102.427 33.1798 103.095 32.7696 103.825 32.5055C104.555 32.2413 105.332 32.1286 106.107 32.1743C107.497 32.1117 108.871 32.4977 110.025 33.2754C110.54 33.6464 110.955 34.1398 111.231 34.7111C111.508 35.2824 111.638 35.9137 111.61 36.5478C111.668 37.4619 111.411 38.3684 110.882 39.1155C110.352 39.8627 109.581 40.4052 108.699 40.6521C109.697 40.9104 110.588 41.4769 111.245 42.2707C111.873 43.1081 112.2 44.1333 112.172 45.1797C112.206 45.9223 112.053 46.6616 111.728 47.3297C111.402 47.9979 110.913 48.5735 110.307 49.0037C109.077 49.8212 107.618 50.2242 106.143 50.1539C102.35 50.1539 100.281 48.5622 99.9364 45.379H101.204C101.579 47.7955 103.218 49.0037 106.119 49.0037C107.187 49.053 108.246 48.7923 109.169 48.2529C109.692 47.9384 110.12 47.4898 110.411 46.9537C110.702 46.4175 110.844 45.8133 110.823 45.2038C110.844 44.4207 110.607 43.6525 110.146 43.0188C109.686 42.385 109.028 41.9214 108.277 41.7001C107.158 41.3326 105.982 41.1695 104.805 41.2187H104.124ZM125.603 44.6092H117.907L115.89 49.8145H114.517L121.345 32.5116H122.177L129.004 49.8175H127.632L125.603 44.6092ZM125.18 43.508L121.755 34.6749L118.341 43.508H125.18ZM130.6 43.1567V42.0555H137.088V43.1567H130.6ZM147.587 32.1763C148.675 32.0955 149.767 32.2895 150.761 32.7404C151.755 33.1913 152.619 33.8847 153.276 34.757C154.496 36.6669 155.091 38.9098 154.977 41.1736C155.088 43.4339 154.494 45.6728 153.276 47.5802C152.056 49.3 150.113 50.1602 147.446 50.1609C144.778 50.1616 142.839 49.3013 141.628 47.5802C140.412 45.681 139.817 43.4509 139.926 41.1986C139.803 38.9264 140.399 36.6732 141.628 34.758C142.294 33.8039 143.235 33.0755 144.325 32.6698C145.376 32.319 146.479 32.1514 147.587 32.1743V32.1763ZM147.34 33.3375C146.424 33.267 145.506 33.4379 144.676 33.8331C143.847 34.2283 143.135 34.834 142.613 35.5898C142.044 36.4462 141.664 37.414 141.498 38.4288C141.346 39.3357 141.271 40.254 141.275 41.1736C141.258 42.246 141.365 43.3168 141.592 44.3649C141.788 45.2131 142.133 46.0196 142.613 46.7464C143.206 47.4518 143.947 48.0189 144.783 48.408C145.619 48.797 146.53 48.9986 147.452 48.9986C148.374 48.9986 149.284 48.797 150.12 48.408C150.956 48.0189 151.697 47.4518 152.291 46.7464C153.264 45.0692 153.729 43.1452 153.628 41.2086C153.743 39.2451 153.278 37.291 152.291 35.5898C151.757 34.7573 150.973 34.1164 150.05 33.7599C149.18 33.4581 148.262 33.3144 147.34 33.3355V33.3375ZM158.684 49.8175V32.5146H159.986V48.7164H168.103V49.8175H158.684ZM171.097 49.8175V32.5146H181.243V33.6158H172.397V40.3027H179.917V41.4038H172.397V48.7114H181.419V49.8175H171.097ZM184.746 49.8175V32.5146H189.099C191.314 32.4074 193.498 33.0706 195.28 34.3916C197.149 35.8931 198.083 38.1495 198.083 41.1606C198.083 44.1717 197.149 46.4317 195.28 47.9406C193.477 49.2699 191.269 49.9332 189.032 49.8175H184.746ZM186.047 48.7164H188.951C190.919 48.8332 192.865 48.2471 194.441 47.0627C195.976 45.788 196.744 43.8213 196.744 41.1626C196.744 38.5192 195.976 36.5562 194.441 35.2735C192.854 34.0836 190.895 33.4974 188.915 33.6198H186.047V48.7164ZM200.91 43.1567V42.0555H207.398V43.1567H200.91ZM211.174 49.8175V32.5146H212.475V48.7164H220.593V49.8175H211.174ZM233.239 33.6638H223.373V32.5146H234.498V33.6408L227.45 49.8175H226.031L233.239 33.6638ZM246.56 49.8175V45.8875H237.867V45.0666L243.473 32.5146H244.798L239.285 44.7853H246.558V37.5238H247.836V44.7853H250.84V45.8865H247.836V49.8175H246.56ZM259.042 49.8175V33.84L254.431 35.4827V34.3095L259.428 32.5146H260.308V49.8175H259.042ZM273.236 40.7141L267.945 32.5146H269.4L274.187 39.9053L278.644 32.5146H280.052L274.878 41.0234L280.545 49.8175H279.103L273.929 41.8403L268.942 49.8175H267.5L273.236 40.7141ZM283.254 52.8437L284.521 47.9176H286.304L284.451 52.8437H283.254ZM300.921 49.8175V33.84L296.311 35.4827V34.3095L301.308 32.5146H302.188V49.8175H300.921ZM312.218 41.0785C312.767 40.4085 313.466 39.8778 314.259 39.5299C315.052 39.1819 315.916 39.0265 316.781 39.0764C318.125 39.0215 319.452 39.3952 320.571 40.1435C321.266 40.6371 321.826 41.2976 322.199 42.0644C322.572 42.8311 322.746 43.6794 322.705 44.5311C322.746 45.362 322.591 46.191 322.253 46.951C321.915 47.7111 321.403 48.381 320.758 48.9066C319.606 49.7852 318.182 50.2297 316.735 50.1619C315.877 50.2181 315.018 50.0795 314.222 49.7565C313.425 49.4335 312.712 48.9346 312.136 48.297C311.151 46.9042 310.686 45.2103 310.822 43.51C310.801 41.4873 310.981 39.4676 311.361 37.4808C311.61 36.0029 312.296 34.6338 313.332 33.5507C313.847 33.0772 314.452 32.7118 315.111 32.4761C315.77 32.2403 316.469 32.1391 317.168 32.1783C317.786 32.1002 318.412 32.1515 319.009 32.3288C319.605 32.5062 320.158 32.8057 320.633 33.2084C321.107 33.6111 321.493 34.1081 321.765 34.6679C322.037 35.2276 322.189 35.8379 322.212 36.4597H320.957C320.922 35.9981 320.793 35.5485 320.578 35.1381C320.364 34.7277 320.068 34.3652 319.71 34.0723C319.351 33.7795 318.937 33.5625 318.492 33.4345C318.047 33.3064 317.581 33.27 317.121 33.3275C316.174 33.2858 315.245 33.59 314.505 34.1834C313.727 34.9256 313.167 35.867 312.887 36.9052C312.49 38.2627 312.265 39.6649 312.218 41.0785ZM316.723 40.2216C315.554 40.1634 314.406 40.5488 313.508 41.3007C313.057 41.714 312.702 42.2215 312.469 42.7872C312.236 43.3529 312.13 43.9629 312.159 44.5741C312.137 45.198 312.249 45.8193 312.488 46.3961C312.727 46.9729 313.087 47.4917 313.543 47.9176C314.475 48.6248 315.612 49.0077 316.781 49.0077C317.951 49.0077 319.088 48.6248 320.019 47.9176C320.475 47.4964 320.835 46.9817 321.074 46.4086C321.313 45.8355 321.425 45.2176 321.404 44.5971C321.436 44.0045 321.34 43.4118 321.124 42.8591C320.907 42.3065 320.575 41.8068 320.148 41.3938C319.202 40.5728 317.974 40.1524 316.723 40.2216ZM328.101 47.9406C328.248 47.9387 328.393 47.9668 328.528 48.0233C328.664 48.0798 328.786 48.1634 328.887 48.2689C328.992 48.3688 329.075 48.4891 329.132 48.6223C329.188 48.7556 329.217 48.899 329.216 49.0437C329.219 49.1915 329.19 49.3381 329.131 49.4737C329.072 49.6093 328.985 49.7307 328.875 49.8296C328.771 49.9363 328.647 50.0205 328.509 50.0769C328.371 50.1334 328.223 50.161 328.074 50.1579C327.924 50.1613 327.775 50.134 327.636 50.0775C327.496 50.021 327.37 49.9367 327.265 49.8296C327.16 49.727 327.077 49.6047 327.02 49.4697C326.964 49.3347 326.934 49.1897 326.934 49.0432C326.934 48.8968 326.964 48.7518 327.02 48.6168C327.077 48.4818 327.16 48.3595 327.265 48.2569C327.491 48.0455 327.792 47.9318 328.101 47.9406ZM339.551 32.1743C340.264 32.1618 340.972 32.2948 341.631 32.565C342.291 32.8352 342.888 33.237 343.387 33.7459C344.928 35.2808 345.698 37.7524 345.698 41.1606C345.77 43.1112 345.397 45.0526 344.607 46.8375C344.184 47.8465 343.466 48.7039 342.547 49.2966C341.628 49.8894 340.551 50.1897 339.457 50.1579C338.732 50.1772 338.009 50.0477 337.336 49.7774C336.662 49.5071 336.05 49.1017 335.539 48.5863C334.496 47.462 333.81 46.0535 333.568 44.5391C333.341 43.4232 333.227 42.2873 333.228 41.1486C333.226 40.1052 333.324 39.064 333.521 38.0394C333.674 37.159 333.943 36.303 334.322 35.4937C334.756 34.4769 335.488 33.6154 336.422 33.0228C337.355 32.4303 338.446 32.1344 339.551 32.1743ZM339.398 33.3235C338.857 33.3169 338.319 33.4206 337.819 33.6283C337.319 33.836 336.867 34.1434 336.489 34.5317C335.175 35.8378 334.518 38.0507 334.518 41.1706C334.444 42.9506 334.777 44.7241 335.492 46.356C335.81 47.1472 336.36 47.8237 337.07 48.2967C337.78 48.7698 338.616 49.0172 339.468 49.0067C340.205 49.0247 340.932 48.8421 341.573 48.4785C342.213 48.115 342.743 47.584 343.105 46.9426C344.068 45.1734 344.519 43.1707 344.406 41.1596C344.482 39.3794 344.149 37.6056 343.432 35.9742C343.106 35.177 342.546 34.4973 341.826 34.0242C341.106 33.5511 340.26 33.3068 339.398 33.3235ZM348.572 39.0294V32.5227H349.663V39.0294H348.572ZM351.798 39.0294V32.5227H352.889V39.0294H351.798ZM356.694 52.8437L357.955 47.9176H359.737L357.885 52.8437H356.694ZM369.387 32.5146H370.689V43.5531C370.616 44.7769 370.839 46.0003 371.339 47.1198C372.03 48.3711 373.331 48.9967 375.263 48.9967C377.195 48.9967 378.507 48.3711 379.187 47.1198C379.691 46.0013 379.918 44.7778 379.848 43.5531V32.5146H381.149V42.7442C381.173 43.8344 381.109 44.9246 380.959 46.0046C380.86 46.6823 380.625 47.3329 380.268 47.9176C379.347 49.4111 377.676 50.1579 375.273 50.1579C372.851 50.1579 371.179 49.4111 370.258 47.9176C369.906 47.3266 369.672 46.6734 369.567 45.9936C369.427 44.9164 369.367 43.8303 369.387 42.7442V32.5146ZM385.674 49.8175V32.5146H386.975V40.1395H396.295V32.5146H397.596V49.8175H396.295V41.2427H386.975V49.8175H385.674ZM402.241 49.8175V32.5146H406.596C408.81 32.4077 410.992 33.0709 412.772 34.3916C414.641 35.8931 415.575 38.1495 415.575 41.1606C415.575 44.1717 414.641 46.4317 412.772 47.9406C410.97 49.2714 408.762 49.9348 406.526 49.8175H402.241ZM403.542 48.7164H406.436C408.406 48.8339 410.353 48.2479 411.931 47.0627C413.466 45.788 414.234 43.8213 414.234 41.1626C414.234 38.5192 413.466 36.5562 411.931 35.2735C410.345 34.0827 408.386 33.4964 406.406 33.6198H403.542V48.7164ZM418.808 41.7252V40.624H424.044V35.9031H425.155V40.618H430.39V41.7192H425.155V46.435H424.044V41.7192L418.808 41.7252ZM434.605 52.8457L435.876 47.9196H437.658L435.806 52.8457H434.605ZM447.408 49.8175V32.5146H448.709V49.8175H447.408ZM453.254 49.8175V37.3707H454.525V39.8933C455.091 39.2551 455.715 38.67 456.387 38.1455C457.319 37.4132 458.465 37.0055 459.651 36.9843C460.268 36.9322 460.887 37.0635 461.43 37.3617C461.973 37.66 462.416 38.112 462.704 38.661C462.934 39.1218 463.086 39.6172 463.154 40.1275C463.25 40.9413 463.29 41.7608 463.274 42.5801V49.8175H462.013V42.51C462.052 41.5598 461.962 40.6086 461.743 39.6831C461.584 39.2012 461.263 38.7897 460.833 38.5198C460.404 38.2498 459.893 38.1383 459.39 38.2045C458.885 38.2016 458.384 38.3014 457.919 38.4978C457.359 38.7589 456.84 39.0987 456.377 39.5069C455.684 40.0841 455.063 40.7417 454.525 41.4659V49.8175H453.254ZM468.36 38.4738H466.408V37.3727H468.36L468.5 33.5837H469.621V37.3727H473.065V38.4738H469.621V46.4741C469.566 47.0835 469.714 47.694 470.041 48.2109C470.232 48.3946 470.461 48.5346 470.712 48.621C470.963 48.7075 471.229 48.7383 471.493 48.7114H473.355V49.8175H471.373C470.95 49.8465 470.526 49.7815 470.132 49.6273C469.737 49.4731 469.381 49.2335 469.09 48.9256C468.571 48.2624 468.311 47.4324 468.36 46.5912V38.4738ZM485.678 43.7993H475.877C475.89 44.7789 476.105 45.7454 476.508 46.6383C476.853 47.3756 477.393 48.0046 478.07 48.4571C478.736 48.8809 479.512 49.1008 480.302 49.0898C481.913 49.0597 483.458 48.4425 484.646 47.354L485.357 48.328C483.955 49.5303 482.169 50.1918 480.322 50.1929C479.491 50.2285 478.664 50.0676 477.908 49.7232C477.151 49.3787 476.486 48.8606 475.968 48.2109C474.992 46.9086 474.5 45.3075 474.576 43.6822C474.511 41.9961 475.019 40.3376 476.018 38.9773C476.499 38.3388 477.127 37.8254 477.848 37.4803C478.569 37.1352 479.363 36.9685 480.162 36.9943C480.928 36.9717 481.689 37.1298 482.383 37.4559C483.077 37.782 483.684 38.2668 484.156 38.8712C485.228 40.2831 485.767 42.0286 485.678 43.7993ZM484.346 42.6982C484.263 41.7927 483.994 40.9142 483.555 40.1175C483.228 39.4964 482.735 38.9787 482.13 38.6222C481.526 38.2658 480.834 38.0848 480.132 38.0994C479.219 38.0784 478.331 38.3961 477.639 38.9913C477.159 39.4025 476.77 39.91 476.498 40.4809C476.199 41.189 476 41.9353 475.907 42.6982H484.346ZM489.131 49.8185V32.0331H490.402V49.8175L489.131 49.8185ZM512.035 46.2288L513.006 46.9796C512.348 47.999 511.442 48.8346 510.373 49.4081C509.224 49.9428 507.966 50.2 506.699 50.1589C505.311 50.2174 503.933 49.8841 502.725 49.1969C501.452 48.363 500.499 47.1223 500.022 45.6773C499.522 44.2659 499.281 42.7758 499.312 41.2787C499.174 38.8538 499.893 36.4577 501.344 34.5097C502.002 33.7349 502.831 33.123 503.765 32.722C504.7 32.321 505.714 32.1418 506.729 32.1983C508.292 32.1058 509.834 32.5898 511.064 33.5587C511.601 34.0313 512.03 34.6147 512.32 35.2687C512.611 35.9228 512.756 36.6321 512.746 37.3476H511.474C511.475 36.7928 511.355 36.2445 511.123 35.7403C510.892 35.2361 510.554 34.788 510.133 34.4266C509.174 33.6752 507.976 33.2961 506.759 33.3595C505.606 33.3109 504.464 33.6135 503.486 34.2274C502.433 34.9934 501.657 36.0801 501.274 37.3246C500.84 38.6084 500.633 39.958 500.663 41.3127C500.551 43.3394 501.119 45.3454 502.275 47.0136C502.753 47.6686 503.395 48.1864 504.137 48.5152C504.982 48.8577 505.888 49.0216 506.799 48.9967C507.813 49.0295 508.819 48.8162 509.732 48.3751C510.652 47.8415 511.438 47.1085 512.035 46.2288ZM521.525 36.9963C522.346 36.9727 523.163 37.1394 523.909 37.4834C524.656 37.8274 525.313 38.3394 525.829 38.9793C526.786 40.3283 527.301 41.9415 527.301 43.5956C527.301 45.2497 526.786 46.8629 525.829 48.2119C525.279 48.8348 524.603 49.3337 523.845 49.6754C523.087 50.0171 522.266 50.1938 521.435 50.1938C520.603 50.1938 519.782 50.0171 519.024 49.6754C518.267 49.3337 517.59 48.8348 517.04 48.2119C516.018 46.9023 515.493 45.273 515.558 43.6131C515.492 41.9423 516.016 40.3016 517.04 38.9793C517.582 38.3227 518.269 37.8014 519.048 37.457C519.826 37.1126 520.674 36.9555 521.525 36.9963ZM521.364 38.0974C520.489 38.0861 519.631 38.3486 518.912 38.8482C517.54 39.7865 516.853 41.3701 516.85 43.5991C516.793 44.9046 517.143 46.1956 517.851 47.2939C518.268 47.851 518.808 48.3033 519.431 48.6148C520.053 48.9263 520.739 49.0885 521.435 49.0885C522.13 49.0885 522.816 48.9263 523.439 48.6148C524.061 48.3033 524.602 47.851 525.018 47.2939C525.667 46.1685 526.009 44.8922 526.009 43.5931C526.009 42.294 525.667 41.0177 525.018 39.8923C524.612 39.3068 524.064 38.8347 523.424 38.5207C522.785 38.2068 522.076 38.0604 521.364 38.0974ZM530.804 49.8175V37.3707H532.055V39.9073C532.478 39.1311 533.057 38.4516 533.757 37.9122C534.531 37.4203 535.434 37.1713 536.35 37.1975H536.921V38.4167H536.56C535.941 38.3975 535.323 38.4932 534.738 38.699C534.25 38.8907 533.817 39.2002 533.477 39.6C532.876 40.2914 532.399 41.0811 532.065 41.9344V49.8175H530.804ZM549.263 43.7993H539.453C539.464 44.7802 539.682 45.7478 540.094 46.6383C540.439 47.3756 540.979 48.0046 541.655 48.4571C542.318 48.8821 543.091 49.1022 543.878 49.0898C545.492 49.0582 547.039 48.4414 548.232 47.354L548.933 48.328C547.535 49.5301 545.752 50.1917 543.908 50.1929C543.077 50.2284 542.25 50.0674 541.493 49.723C540.737 49.3786 540.072 48.8605 539.553 48.2109C538.574 46.91 538.079 45.3087 538.152 43.6822C538.087 41.9961 538.595 40.3376 539.593 38.9773C540.076 38.3399 540.704 37.8272 541.425 37.4822C542.146 37.1372 542.939 36.9699 543.738 36.9943C544.506 36.9706 545.268 37.1282 545.964 37.4543C546.66 37.7804 547.269 38.2658 547.742 38.8712C548.81 40.2853 549.348 42.0292 549.263 43.7993ZM547.922 42.6982C547.842 41.7935 547.576 40.9151 547.141 40.1175C546.812 39.4982 546.318 38.982 545.714 38.6258C545.11 38.2697 544.419 38.0875 543.718 38.0994C542.802 38.0801 541.912 38.3975 541.215 38.9913C540.735 39.4025 540.346 39.91 540.074 40.4809C539.779 41.1896 539.583 41.9358 539.493 42.6982H547.922ZM558.143 49.8175V37.3707H559.414V49.8175H558.143ZM558.803 32.6438C559.068 32.6464 559.322 32.7542 559.507 32.9433C559.693 33.1325 559.796 33.3877 559.794 33.6528C559.797 33.7864 559.771 33.9191 559.719 34.0423C559.668 34.1656 559.591 34.2767 559.494 34.3686C559.4 34.4641 559.288 34.5395 559.164 34.5899C559.04 34.6403 558.907 34.6648 558.773 34.6619C558.639 34.6629 558.506 34.6373 558.381 34.5863C558.257 34.5354 558.144 34.4602 558.049 34.3652C557.954 34.2702 557.879 34.1572 557.828 34.0328C557.777 33.9084 557.751 33.7752 557.752 33.6408C557.749 33.5094 557.775 33.3789 557.827 33.2581C557.879 33.1372 557.956 33.0288 558.052 32.9401C558.151 32.8427 558.269 32.7663 558.398 32.7154C558.527 32.6645 558.665 32.6401 558.803 32.6438ZM573.739 33.6638H563.868V32.5146H575V33.6408L567.953 49.8175H566.531L573.739 33.6638Z" fill="#1E1E1E"/>
</svg>
