<svg width="83" height="18" viewBox="0 0 83 18" fill="none" xmlns="http://www.w3.org/2000/svg">
<path d="M0 17.0782V0.346544H1.25247V16.0116H9.10068V17.0782H0ZM21.4234 12.0421H13.9792L12.0299 17.0782H10.7066L17.3024 0.346544H18.1104L24.7162 17.0782H23.383L21.4234 12.0421ZM21.0193 10.9754L17.7064 2.43334L14.4035 10.9754H21.0193ZM27.8373 17.0782V0.346544H32.0594C32.9614 0.332564 33.8632 0.389648 34.7563 0.517251C35.3889 0.613141 36.0024 0.808108 36.5743 1.095C37.2742 1.46294 37.8399 2.04273 38.1904 2.7515C38.5892 3.54999 38.7869 4.43386 38.7662 5.32616C38.8111 6.44586 38.4883 7.54946 37.847 8.46846C37.4705 8.94007 37.0027 9.33086 36.4716 9.6174C35.9405 9.90395 35.3572 10.0804 34.7563 10.1361C33.87 10.265 32.9752 10.3258 32.0796 10.3179H29.0897V17.0782H27.8373ZM29.0897 9.25127H32.3523C33.1117 9.26811 33.8705 9.20035 34.6149 9.04924C35.1534 8.93912 35.6606 8.71036 36.0996 8.37958C36.5276 7.99755 36.8702 7.52958 37.1051 7.00618C37.3401 6.48279 37.462 5.91574 37.463 5.34205C37.4639 4.76836 37.3439 4.2009 37.1107 3.67673C36.8775 3.15256 36.5365 2.68346 36.1098 2.30001C35.505 1.85993 34.7936 1.58964 34.0492 1.5172C33.49 1.44397 32.9263 1.41023 32.3623 1.41621H29.0897V9.25127ZM45.7256 17.0782V1.41317H40.7257V0.346544H51.9576V1.41317H46.978V17.0782H45.7256ZM60.8664 0.0172592C61.9181 -0.0608168 62.9725 0.126853 63.9327 0.562995C64.8929 0.999136 65.7279 1.66975 66.3611 2.51313C67.44 4.40108 68.0075 6.53791 68.0075 8.71239C68.0075 10.8869 67.44 13.0237 66.3611 14.9116C65.1894 16.5756 63.3107 17.4075 60.725 17.4075C58.1594 17.4075 56.284 16.5756 55.0989 14.9116C54.02 13.0237 53.4526 10.8869 53.4526 8.71239C53.4526 6.53791 54.02 4.40108 55.0989 2.51313C55.7457 1.58993 56.6582 0.885366 57.715 0.493007C58.7303 0.154343 59.7964 -0.00660626 60.8664 0.0172592ZM60.624 1.14045C59.7391 1.07297 58.8519 1.23852 58.0509 1.6206C57.2499 2.00269 56.5629 2.58797 56.0585 3.31815C55.5036 4.14417 55.1348 5.0809 54.9777 6.0635C54.8332 6.94087 54.7623 7.82878 54.7656 8.71796C54.7494 9.75469 54.8511 10.7899 55.0687 11.8037C55.2577 12.6245 55.593 13.4046 56.0585 14.1066C56.632 14.7888 57.3478 15.3372 58.1557 15.7134C58.9635 16.0896 59.8439 16.2846 60.7351 16.2846C61.6263 16.2846 62.5066 16.0896 63.3145 15.7134C64.1224 15.3372 64.8382 14.7888 65.4117 14.1066C66.2616 12.4355 66.7045 10.5872 66.7045 8.71239C66.7045 6.83757 66.2616 4.98927 65.4117 3.31815C64.8958 2.51507 64.1393 1.89567 63.2501 1.54852C62.4059 1.25793 61.5167 1.11976 60.624 1.14045ZM72.0579 17.0782V0.346544H76.2901C77.1888 0.332499 78.0871 0.389584 78.9768 0.517251C79.6126 0.613256 80.2295 0.808192 80.805 1.095C81.5049 1.46294 82.0706 2.04273 82.4211 2.7515C82.8199 3.54999 83.0175 4.43386 82.9968 5.32616C83.0368 6.44525 82.7145 7.54735 82.0777 8.46846C81.7 8.94115 81.2305 9.33256 80.6976 9.61915C80.1647 9.90573 79.5794 10.0816 78.9768 10.1361C78.0906 10.2658 77.1957 10.3266 76.3001 10.3179H73.3204V17.0782H72.0579ZM73.3204 9.25127H76.5728C77.3355 9.26806 78.0977 9.20029 78.8455 9.04924C79.3827 8.93506 79.8891 8.70667 80.3303 8.37958C80.7585 7.99764 81.1012 7.52968 81.3362 7.00628C81.5712 6.48287 81.6932 5.91579 81.6941 5.34205C81.6951 4.76831 81.575 4.20082 81.3418 3.67664C81.1085 3.15246 80.7672 2.68337 80.3403 2.30001C79.7356 1.85993 79.0243 1.58964 78.2799 1.5172C77.7173 1.444 77.1502 1.41026 76.5829 1.41621H73.3204V9.25127Z" fill="#1E1E1E"/>
</svg>
