<svg width="62" height="12" viewBox="0 0 62 12" fill="none" xmlns="http://www.w3.org/2000/svg">
<path d="M4.16736 11.5172C3.43951 11.5278 2.71704 11.3909 2.04347 11.1149C1.45339 10.8714 0.941416 10.4707 0.563205 9.95645C0.193158 9.43474 -0.00381332 8.81006 5.59316e-05 8.17045H2.41359C2.42447 8.58442 2.59785 8.97746 2.89627 9.26458C3.23904 9.54722 3.67548 9.69079 4.11911 9.66683C4.56265 9.69206 5.001 9.56112 5.35804 9.29676C5.5036 9.1753 5.61974 9.02245 5.69777 8.84967C5.7758 8.67689 5.81369 8.48869 5.80856 8.29918C5.82067 7.99648 5.71218 7.70135 5.50688 7.47859C5.29125 7.25417 5.02704 7.08216 4.73456 6.97577C4.32549 6.80991 3.90632 6.67018 3.47955 6.55743C2.87153 6.38629 2.27499 6.1767 1.69355 5.92992C1.23427 5.70796 0.832311 5.38311 0.518951 4.98061C0.174905 4.47912 0.00531492 3.87842 0.0362693 3.27104C0.0240362 2.65425 0.199375 2.04828 0.539083 1.53332C0.88505 1.02864 1.37191 0.636942 1.93894 0.407019C2.58933 0.128968 3.29123 -0.00812753 3.99844 0.00476656C5.00704 -0.0421864 6.00112 0.258882 6.81419 0.857538C7.17645 1.13557 7.47262 1.49045 7.68128 1.89665C7.88995 2.30286 8.00594 2.75027 8.02095 3.20668H5.5431C5.53555 3.02093 5.48642 2.83923 5.39941 2.67495C5.31239 2.51067 5.1897 2.36798 5.04028 2.25737C4.69861 1.98575 4.26941 1.8484 3.83352 1.87121C3.45042 1.85248 3.07338 1.97245 2.77155 2.2091C2.63847 2.33387 2.53481 2.48665 2.46803 2.65639C2.40124 2.82614 2.37303 3.0086 2.38541 3.19059C2.38144 3.32951 2.405 3.46785 2.45471 3.59763C2.50441 3.72742 2.57931 3.84609 2.67506 3.94682C2.89238 4.14883 3.14268 4.3121 3.41516 4.42953C3.71618 4.54685 4.13451 4.6863 4.67017 4.84787C5.2803 5.01886 5.87721 5.23396 6.45616 5.49147C6.92551 5.71188 7.33418 6.04322 7.64685 6.45687C7.99965 6.94746 8.17679 7.54265 8.14966 8.14632C8.15246 8.73661 7.9909 9.31602 7.68306 9.81969C7.35234 10.3527 6.87844 10.782 6.31542 11.0586C5.64546 11.3783 4.90947 11.5354 4.16736 11.5172ZM12.3472 0.173711V11.4046H10.0946V0.173711H12.3472ZM22.3934 3.55262C22.1524 3.0972 21.7832 2.72241 21.3315 2.47459C20.8457 2.21952 20.3031 2.09217 19.7546 2.10451C19.1348 2.09263 18.5234 2.24828 17.9847 2.55503C17.4666 2.85858 17.0475 3.30565 16.778 3.84224C16.4788 4.44112 16.3297 5.10374 16.3435 5.77304C16.3273 6.45289 16.4764 7.12651 16.778 7.73602C17.0592 8.27487 17.4892 8.72165 18.0169 9.02323C18.5778 9.33266 19.2107 9.4881 19.8511 9.47375C20.613 9.50657 21.3617 9.267 21.963 8.79796C22.5292 8.30221 22.9094 7.62825 23.041 6.88728H19.1794V5.16967H25.2614V7.13265C25.1086 7.92056 24.7785 8.66337 24.296 9.30481C23.7902 9.97983 23.1366 10.5302 22.3853 10.9138C21.577 11.319 20.6829 11.5232 19.7788 11.5091C18.7515 11.5233 17.7378 11.274 16.8342 10.7851C15.9758 10.3025 15.2641 9.59632 14.7747 8.74165C14.2888 7.83049 14.0346 6.81373 14.0346 5.78108C14.0346 4.74844 14.2888 3.73167 14.7747 2.82052C15.2581 1.96129 15.9713 1.2537 16.8342 0.777086C17.7293 0.279588 18.7388 0.024456 19.7627 0.0369443C20.931 0.00898701 22.0806 0.334239 23.0611 0.970168C23.9912 1.57775 24.6754 2.49574 24.9919 3.56066L22.3934 3.55262ZM36.5295 11.4046H34.2769L29.1763 3.69743V11.4046H26.9237V0.157622H29.1763L34.2769 7.88084V0.157622H36.5295V11.4046ZM44.8118 0.173711V7.12461C44.7907 7.44174 44.8324 7.75992 44.9345 8.06089C45.0367 8.36186 45.1973 8.63968 45.4072 8.87842C45.6315 9.08544 45.8953 9.2449 46.1829 9.34722C46.4705 9.44953 46.7759 9.49258 47.0805 9.47375C47.3877 9.49304 47.6955 9.45026 47.9858 9.34798C48.276 9.2457 48.5428 9.086 48.77 8.87842C48.9798 8.63968 49.1404 8.36186 49.2426 8.06089C49.3447 7.75992 49.3864 7.44174 49.3653 7.12461V0.173711H51.634V7.11254C51.6609 7.96568 51.4431 8.80871 51.0065 9.54213C50.6101 10.1865 50.0341 10.701 49.3492 11.0224C48.6295 11.3511 47.8476 11.5212 47.0564 11.5212C46.2652 11.5212 45.4832 11.3511 44.7635 11.0224C44.0945 10.6962 43.5353 10.1817 43.1546 9.54213C42.7381 8.80177 42.5322 7.96156 42.5592 7.11254V0.173711H44.8118ZM62 3.64916C62.0024 4.24024 61.8528 4.822 61.5656 5.33861C61.2611 5.88913 60.795 6.33285 60.2301 6.60973C59.5197 6.95575 58.735 7.12152 57.9453 7.09242H56.0628V11.4046H53.8102V0.173711H57.9453C58.7102 0.151825 59.4699 0.305962 60.1658 0.62423C60.7374 0.88795 61.2146 1.32029 61.5334 1.86316C61.8482 2.405 62.0089 3.0226 61.998 3.64916H62ZM57.8488 5.27425C58.3463 5.31428 58.8405 5.16485 59.2325 4.85591C59.3871 4.69693 59.507 4.50757 59.5845 4.29984C59.6621 4.09211 59.6956 3.87054 59.683 3.64916C59.683 2.55504 59.0716 2.00797 57.8488 2.00797H56.0628V5.27023L57.8488 5.27425Z" fill="black"/>
</svg>
