<svg width="232" height="20" viewBox="0 0 232 20" fill="none" xmlns="http://www.w3.org/2000/svg">
<path d="M0 18.7485V0.708413H4.97908C5.9989 0.688853 7.01837 0.762322 8.02485 0.927903C8.73218 1.04864 9.41148 1.29761 10.0293 1.66254C10.7672 2.09641 11.3601 2.73914 11.7331 3.50964C12.1474 4.36262 12.3534 5.30168 12.3344 6.24974C12.3973 7.03612 12.2675 7.82599 11.9563 8.55091C11.6451 9.27583 11.1619 9.91395 10.5485 10.41C9.35782 11.2986 7.50637 11.743 4.99411 11.743H2.15379V18.7586L0 18.7485ZM2.15279 9.964H5.10135C6.35581 10.0568 7.61 9.78051 8.70938 9.16924C9.17981 8.83873 9.5574 8.39287 9.80591 7.87443C10.0544 7.35599 10.1655 6.78238 10.1285 6.20865C10.163 5.65928 10.0602 5.10997 9.82967 4.61015C9.59909 4.11033 9.24786 3.67566 8.8076 3.34528C7.70521 2.70337 6.43319 2.41316 5.16148 2.51343H2.1548L2.15279 9.964ZM15.4273 18.7485V5.53515H17.4458V7.81121C17.9438 7.10973 18.5608 6.50087 19.2689 6.01221C20.05 5.56609 20.9383 5.34219 21.8376 5.36478H22.3638V7.36923H21.9027C21.3487 7.35287 20.7954 7.4232 20.2631 7.57769C19.8132 7.7421 19.4013 7.99611 19.0524 8.32435C18.456 8.92993 17.9381 9.60808 17.511 10.3428V18.7485H15.4273ZM30.133 5.14428C30.9965 5.11828 31.855 5.28463 32.6463 5.63131C33.4376 5.97799 34.1419 6.49632 34.7082 7.14874C35.8041 8.58204 36.3978 10.3361 36.3978 12.1403C36.3978 13.9446 35.8041 15.6987 34.7082 17.1319C34.1073 17.7659 33.3835 18.2707 32.5811 18.6157C31.7786 18.9607 30.9143 19.1386 30.0408 19.1386C29.1674 19.1386 28.303 18.9607 27.5006 18.6157C26.6981 18.2707 25.9744 17.7659 25.3735 17.1319C24.2776 15.6987 23.6839 13.9446 23.6839 12.1403C23.6839 10.3361 24.2776 8.58204 25.3735 7.14874C25.967 6.48067 26.7025 5.95389 27.5261 5.60705C28.3496 5.26021 29.2404 5.10209 30.133 5.14428ZM29.9737 6.94228C29.3439 6.9211 28.7191 7.06048 28.1581 7.34732C27.597 7.63416 27.1182 8.05902 26.7666 8.58193C26.1344 9.66107 25.8011 10.8892 25.8011 12.1398C25.8011 13.3905 26.1344 14.6186 26.7666 15.6978C27.147 16.2067 27.6409 16.6199 28.2091 16.9046C28.7772 17.1892 29.4039 17.3374 30.0393 17.3374C30.6748 17.3374 31.3015 17.1892 31.8696 16.9046C32.4377 16.6199 32.9317 16.2067 33.3121 15.6978C33.9443 14.6186 34.2776 13.3905 34.2776 12.1398C34.2776 10.8892 33.9443 9.66107 33.3121 8.58193C32.9399 8.04845 32.4383 7.61817 31.8544 7.3314C31.2705 7.04463 30.6234 6.91074 29.9737 6.94228ZM49.0842 18.7485V16.7912C48.6205 17.5316 47.9712 18.138 47.2008 18.5501C46.4305 18.9621 45.5657 19.1657 44.6924 19.1404C43.8663 19.1741 43.0441 19.0097 42.2945 18.661C41.5448 18.3123 40.8894 17.7894 40.3828 17.136C39.3862 15.6621 38.8535 13.9236 38.8535 12.1444C38.8535 10.3651 39.3862 8.62662 40.3828 7.15275C40.8849 6.49714 41.5369 5.97162 42.2842 5.62038C43.0316 5.26913 43.8523 5.10242 44.6774 5.13426C45.5252 5.10655 46.3657 5.29919 47.1169 5.69338C47.868 6.08756 48.5041 6.66981 48.9629 7.38327V0.201288H51.0426V18.7485H49.0842ZM44.8538 6.93025C44.3024 6.92234 43.7576 7.04977 43.2669 7.30139C42.7763 7.553 42.3548 7.92112 42.0395 8.37347C41.3435 9.50498 40.975 10.8074 40.975 12.1358C40.975 13.4643 41.3435 14.7667 42.0395 15.8982C42.361 16.3558 42.7904 16.727 43.2897 16.9787C43.7891 17.2305 44.3428 17.3551 44.9019 17.3414C45.5081 17.3543 46.1072 17.21 46.6411 16.9227C47.175 16.6354 47.6255 16.2148 47.9487 15.7018C48.6465 14.6529 49.0013 13.4131 48.9639 12.1539C49.0275 10.8008 48.6261 9.46678 47.8264 8.37347C47.4817 7.91352 47.0321 7.54258 46.515 7.29155C45.998 7.04051 45.4284 6.91664 44.8538 6.93025ZM55.2529 5.53515H57.3325V13.3165C57.3007 14.138 57.3748 14.9603 57.553 15.7629C57.6526 16.1656 57.8944 16.5186 58.2339 16.757C58.5734 16.9953 58.9876 17.1029 59.4001 17.0598C60.1024 17.0521 60.7872 16.8397 61.3705 16.4484C62.2124 15.8523 62.9731 15.1492 63.6336 14.3568V5.53716H65.7132V18.7485H63.6336V16.5346C63.072 17.0745 62.4754 17.5768 61.8476 18.038C60.9764 18.6402 59.945 18.9683 58.886 18.9801C58.2648 19.0347 57.6417 18.9005 57.0982 18.5948C56.5546 18.2892 56.1162 17.8264 55.8402 17.2673C55.6065 16.7763 55.4496 16.2524 55.3752 15.7138C55.2797 14.8822 55.2388 14.0452 55.2529 13.2082V5.53515ZM79.2062 15.5675L80.2706 17.0848C79.5951 17.7572 78.7906 18.2859 77.9055 18.6392C77.0204 18.9925 76.0729 19.163 75.1201 19.1404C74.3125 19.186 73.5046 19.0575 72.751 18.7635C71.9974 18.4696 71.3158 18.017 70.7524 17.4366C69.5598 16.0143 68.9598 14.1878 69.0767 12.3353C68.9927 10.4667 69.5352 8.62368 70.6181 7.09863C71.1485 6.43456 71.8317 5.90865 72.6093 5.56572C73.387 5.2228 74.236 5.07305 75.084 5.12925C75.9163 5.04867 76.7549 5.19488 77.5108 5.55237C78.2668 5.90986 78.9118 6.4653 79.3776 7.15976C79.8351 7.93786 80.0721 8.82588 80.0631 9.72848H78.1278C78.1402 9.33756 78.0682 8.94856 77.9167 8.58799C77.7652 8.22741 77.5377 7.90374 77.2498 7.63903C76.9619 7.37432 76.6202 7.17478 76.2482 7.05403C75.8762 6.93327 75.4826 6.89413 75.0941 6.93928C74.5064 6.90949 73.9214 7.03654 73.399 7.30741C72.8766 7.57829 72.4357 7.98322 72.1214 8.4807C71.4548 9.61216 71.1316 10.9131 71.1914 12.225C71.0981 13.6387 71.5391 15.0359 72.4271 16.1397C72.7844 16.5335 73.2238 16.8438 73.7142 17.0489C74.2047 17.2539 74.7343 17.3487 75.2654 17.3264C76.0063 17.3119 76.7367 17.1488 77.4133 16.8466C78.0899 16.5445 78.6989 16.1095 79.2042 15.5675H79.2062ZM84.1612 7.33415H82.1918V5.53515H84.1863L84.3577 1.62045H86.2408V5.53515H89.7767V7.33415H86.2408V14.5642C86.1854 15.2093 86.3217 15.8565 86.6327 16.4244C86.8006 16.6141 87.0115 16.761 87.2478 16.8525C87.4841 16.944 87.7388 16.9777 87.9907 16.9505H90.1075V18.7485H87.9026C85.4063 18.7485 84.1582 17.464 84.1582 14.895L84.1612 7.33415ZM98.3027 18.7485V5.53515H100.377V18.7485H98.3027ZM99.3671 0.50797C99.5488 0.504614 99.7293 0.538442 99.8975 0.607381C100.066 0.67632 100.218 0.778908 100.345 0.908856C100.475 1.03413 100.577 1.18458 100.646 1.35092C100.715 1.51726 100.749 1.69597 100.746 1.87601C100.748 2.05712 100.712 2.23657 100.64 2.40293C100.568 2.56928 100.463 2.71887 100.33 2.84216C100.201 2.97295 100.046 3.07598 99.876 3.14492C99.7055 3.21385 99.5228 3.24725 99.339 3.24305C99.1537 3.24632 98.9695 3.21254 98.7974 3.1437C98.6253 3.07486 98.4687 2.97234 98.3368 2.84216C98.2068 2.71484 98.1042 2.56232 98.0352 2.39395C97.9663 2.22557 97.9325 2.04489 97.9359 1.86298C97.9325 1.68163 97.9679 1.50165 98.0396 1.33505C98.1114 1.16845 98.2178 1.01906 98.3518 0.896835C98.6259 0.638718 98.9907 0.499004 99.3671 0.50797ZM104.787 18.7485V5.53515H106.868V7.76211C107.622 6.95759 108.491 6.26926 109.447 5.71956C110.194 5.32689 111.026 5.12513 111.87 5.13226C112.529 5.06946 113.192 5.20315 113.776 5.5165C114.36 5.82985 114.837 6.30884 115.149 6.89317C115.403 7.40502 115.572 7.95471 115.65 8.52079C115.764 9.36802 115.814 10.2227 115.798 11.0775V18.7485H113.717V10.9672C113.755 10.1017 113.66 9.23542 113.436 8.39852C113.295 7.96823 113.01 7.59969 112.629 7.35464C112.248 7.1096 111.794 7.00294 111.344 7.05253C110.584 7.06567 109.844 7.29931 109.215 7.72502C108.33 8.3431 107.539 9.08573 106.867 9.92992V18.7485H104.787ZM120.815 18.7485V7.33415H118.844V5.53515L120.815 5.52312V5.02201C120.73 3.79259 121.001 2.56473 121.598 1.48614C121.979 0.975557 122.485 0.572093 123.068 0.314852C123.651 0.0576116 124.291 -0.0446869 124.925 0.0178736C125.602 0.0178405 126.277 0.0792345 126.943 0.201288L126.809 1.93915C126.252 1.83939 125.687 1.78609 125.12 1.7798C124.68 1.75757 124.242 1.85013 123.849 2.04839C123.523 2.25772 123.281 2.57381 123.163 2.94238C122.954 3.61083 122.864 4.31043 122.894 5.00998V5.53515H126.369V7.33415H122.894V18.7485H120.815ZM134.003 5.14428C134.867 5.11828 135.725 5.28463 136.516 5.63131C137.308 5.97799 138.012 6.49632 138.578 7.14874C139.674 8.58204 140.268 10.3361 140.268 12.1403C140.268 13.9446 139.674 15.6987 138.578 17.1319C137.977 17.7659 137.254 18.2707 136.451 18.6157C135.649 18.9607 134.784 19.1386 133.911 19.1386C133.037 19.1386 132.173 18.9607 131.371 18.6157C130.568 18.2707 129.844 17.7659 129.244 17.1319C128.149 15.6982 127.556 13.9443 127.556 12.1403C127.556 10.3364 128.149 8.58252 129.244 7.14874C129.837 6.48086 130.572 5.95421 131.396 5.60737C132.219 5.26054 133.11 5.10231 134.002 5.14428H134.003ZM133.844 6.94228C133.214 6.9211 132.589 7.06048 132.028 7.34732C131.467 7.63416 130.988 8.05902 130.637 8.58193C130.004 9.66096 129.671 10.8891 129.671 12.1398C129.671 13.3906 130.004 14.6187 130.637 15.6978C131.017 16.2067 131.511 16.6199 132.079 16.9046C132.647 17.1892 133.274 17.3374 133.909 17.3374C134.545 17.3374 135.172 17.1892 135.74 16.9046C136.308 16.6199 136.802 16.2067 137.182 15.6978C137.814 14.6185 138.147 13.3905 138.147 12.1398C138.147 10.8892 137.814 9.66117 137.182 8.58193C136.81 8.04837 136.308 7.61805 135.724 7.33128C135.14 7.04451 134.493 6.91066 133.843 6.94228H133.844ZM143.643 18.7485V5.53515H145.661V7.81121C146.159 7.1097 146.776 6.50084 147.484 6.01221C148.265 5.56609 149.154 5.34219 150.053 5.36478H150.579V7.36923H150.114C149.56 7.35285 149.007 7.42318 148.475 7.57769C148.025 7.74205 147.613 7.99607 147.264 8.32435C146.667 8.92985 146.149 9.60801 145.722 10.3428V18.7485H143.643ZM153.234 18.7485V5.53515H155.289V7.75008C155.943 6.97487 156.71 6.30252 157.565 5.75564C158.231 5.35741 158.993 5.14622 159.769 5.14428C160.262 5.11538 160.754 5.20857 161.203 5.41557C161.651 5.62257 162.041 5.93699 162.338 6.33092C162.653 6.83432 162.877 7.3894 162.999 7.97057C163.725 7.12194 164.56 6.37312 165.482 5.74362C166.163 5.34 166.942 5.13193 167.733 5.14228C168.34 5.09512 168.947 5.23982 169.467 5.55596C169.988 5.8721 170.396 6.3437 170.634 6.9042C170.859 7.41391 171.007 7.95436 171.074 8.50776C171.169 9.36049 171.21 10.2185 171.196 11.0765V18.7485H169.116V10.9672C169.146 10.1132 169.072 9.25874 168.896 8.42257C168.827 8.02703 168.616 7.67042 168.302 7.42017C167.988 7.16993 167.593 7.04342 167.192 7.06456C166.278 7.13571 165.421 7.54099 164.787 8.20308C164.239 8.74334 163.728 9.31957 163.257 9.92792V18.7485H161.178V10.9672C161.209 10.1132 161.135 9.25855 160.957 8.42257C160.892 8.02807 160.684 7.67142 160.372 7.42086C160.061 7.1703 159.668 7.04344 159.268 7.06456C158.07 7.06456 156.752 8.01901 155.317 9.92792V18.7485H153.234ZM183.902 17.0357C183.485 17.7333 182.855 18.2781 182.104 18.5892C181.204 18.9721 180.232 19.16 179.254 19.1404C176.138 19.1404 174.579 17.7577 174.579 14.9922C174.501 14.3065 174.616 13.6127 174.91 12.9884C175.204 12.3641 175.666 11.8339 176.244 11.4573C177.449 10.8997 178.773 10.6514 180.098 10.7347C180.513 10.7347 181.476 10.7715 182.985 10.845L183.743 10.882V9.8287C183.779 9.42205 183.724 9.01241 183.583 8.62949C183.441 8.24657 183.216 7.89996 182.924 7.61478C182.173 7.08451 181.259 6.8361 180.342 6.91322C179.668 6.8548 178.992 7.00863 178.409 7.35319C177.942 7.78913 177.64 8.37236 177.553 9.00487H175.608C175.686 8.37628 175.855 7.76229 176.109 7.18181C176.329 6.74058 176.647 6.35557 177.039 6.05631C178.076 5.37519 179.309 5.05306 180.547 5.13927C181.978 5.00813 183.407 5.41355 184.556 6.2768C185.008 6.77487 185.352 7.36196 185.565 8.00051C185.778 8.63905 185.855 9.31498 185.791 9.98505V18.7485H183.895L183.902 17.0357ZM183.78 12.4846C182.695 12.3712 181.605 12.314 180.514 12.3132C178.85 12.3132 177.777 12.5498 177.295 13.0228C177.071 13.2748 176.901 13.5695 176.794 13.8891C176.686 14.2088 176.645 14.5469 176.672 14.8829C176.635 15.4626 176.79 16.0385 177.112 16.5216C177.447 16.8502 177.853 17.0982 178.298 17.2467C178.743 17.3951 179.216 17.4402 179.682 17.3785C180.764 17.4367 181.835 17.1354 182.727 16.5216C183.101 16.1919 183.391 15.7782 183.574 15.3147C183.757 14.8511 183.828 14.3507 183.78 13.8547V12.4846ZM190.717 7.33415H188.747V5.53515H190.741L190.913 1.62045H192.797V5.53515H196.333V7.33415H192.797V14.5642C192.741 15.2092 192.877 15.8563 193.188 16.4244C193.356 16.6141 193.567 16.7608 193.803 16.8524C194.039 16.9439 194.294 16.9776 194.546 16.9505H196.662V18.7485H194.458C191.962 18.7485 190.714 17.464 190.714 14.895L190.717 7.33415ZM199.332 18.7485V5.53515H201.412V18.7485H199.332ZM200.397 0.50797C200.579 0.504595 200.759 0.538407 200.928 0.607343C201.096 0.676278 201.249 0.77888 201.376 0.908856C201.505 1.03427 201.607 1.18475 201.676 1.35105C201.745 1.51736 201.779 1.696 201.777 1.87601C201.779 2.05712 201.742 2.23657 201.671 2.40293C201.599 2.56928 201.494 2.71887 201.361 2.84216C201.232 2.97286 201.077 3.07582 200.907 3.14475C200.736 3.21368 200.554 3.24713 200.37 3.24305C200.184 3.24637 200 3.21262 199.828 3.14378C199.656 3.07493 199.499 2.97238 199.368 2.84216C199.237 2.71499 199.135 2.5625 199.066 2.39409C198.997 2.22568 198.963 2.04492 198.967 1.86298C198.963 1.6816 198.998 1.50156 199.07 1.33493C199.142 1.1683 199.248 1.01893 199.383 0.896835C199.657 0.63813 200.023 0.498363 200.4 0.50797H200.397ZM211.347 5.14528C212.211 5.11928 213.069 5.28564 213.86 5.63232C214.652 5.97899 215.356 6.49732 215.922 7.14974C217.018 8.58304 217.612 10.3371 217.612 12.1413C217.612 13.9456 217.018 15.6997 215.922 17.133C215.321 17.7669 214.598 18.2717 213.795 18.6167C212.993 18.9617 212.128 19.1396 211.255 19.1396C210.381 19.1396 209.517 18.9617 208.715 18.6167C207.912 18.2717 207.189 17.7669 206.588 17.133C205.492 15.6997 204.898 13.9456 204.898 12.1413C204.898 10.3371 205.492 8.58304 206.588 7.14974C207.181 6.48154 207.917 5.95462 208.74 5.6076C209.564 5.26059 210.454 5.10329 211.347 5.14528ZM211.188 6.94328C210.558 6.9221 209.933 7.06148 209.372 7.34832C208.811 7.63516 208.332 8.06002 207.981 8.58293C207.348 9.66196 207.015 10.8901 207.015 12.1408C207.015 13.3916 207.348 14.6197 207.981 15.6988C208.361 16.2077 208.855 16.6209 209.423 16.9056C209.991 17.1902 210.618 17.3384 211.253 17.3384C211.888 17.3384 212.515 17.1902 213.083 16.9056C213.651 16.6209 214.145 16.2077 214.525 15.6988C215.158 14.6198 215.491 13.3916 215.491 12.1408C215.491 10.8901 215.158 9.66193 214.525 8.58293C214.153 8.04942 213.652 7.61903 213.068 7.33209C212.484 7.04514 211.837 6.91203 211.188 6.94328ZM220.988 18.7485V5.53515H223.067V7.76211C223.822 6.95722 224.692 6.26886 225.649 5.71956C226.396 5.32689 227.228 5.12513 228.071 5.13226C228.731 5.0694 229.394 5.20308 229.977 5.51644C230.56 5.82981 231.038 6.30884 231.35 6.89317C231.603 7.40523 231.772 7.95483 231.851 8.52079C231.964 9.36811 232.013 10.2228 231.997 11.0775V18.7485H229.917V10.9672C229.955 10.1016 229.86 9.23535 229.636 8.39852C229.494 7.96831 229.209 7.5998 228.829 7.35474C228.448 7.10969 227.994 7.00299 227.544 7.05253C226.784 7.06567 226.045 7.29931 225.415 7.72502C224.531 8.34331 223.739 9.08591 223.066 9.92992V18.7485H220.988Z" fill="#1E1E1E"/>
</svg>
