<svg width="127" height="19" viewBox="0 0 127 19" fill="none" xmlns="http://www.w3.org/2000/svg">
<path d="M0 18.3288V0.844769H6.55589C7.72242 0.80707 8.88119 1.04742 9.9365 1.54595C10.812 1.97402 11.5358 2.65937 12.0109 3.51021C12.4986 4.40757 12.7428 5.41705 12.7191 6.4381C12.7447 7.4578 12.4974 8.46579 12.0029 9.35793C11.5155 10.1906 10.7855 10.8546 9.91046 11.2611C8.84216 11.735 7.68098 11.9626 6.51282 11.9272H1.84407V9.29783H6.08811C6.74645 9.32035 7.40258 9.20993 8.01731 8.97326C8.4827 8.78159 8.87251 8.44284 9.12716 8.00871C9.38556 7.52656 9.51235 6.98485 9.49477 6.4381C9.51105 5.88606 9.38443 5.33915 9.12716 4.85045C8.87602 4.39998 8.48251 4.04559 8.0083 3.84279C7.39498 3.58793 6.7338 3.46868 6.07008 3.49321H3.16526V18.3288H0ZM9.032 10.4067L13.3602 18.3288H9.82532L5.57426 10.4067H9.032ZM20.6353 18.5852C19.4478 18.6161 18.2731 18.3335 17.2296 17.7659C16.2841 17.2187 15.521 16.4048 15.036 15.426C14.5296 14.3061 14.2677 13.0912 14.2677 11.8621C14.2677 10.633 14.5296 9.41809 15.036 8.29819C15.5192 7.31245 16.2718 6.48375 17.2066 5.90817C18.1936 5.31818 19.3274 5.01954 20.477 5.04676C21.2568 5.04168 22.0313 5.17465 22.7648 5.43944C23.4825 5.692 24.1354 6.10005 24.677 6.63441C25.262 7.21755 25.7108 7.92289 25.9912 8.69986C26.3304 9.65274 26.4926 10.6596 26.47 11.6708V12.6184H15.7171V10.5359H23.503C23.5082 9.98563 23.3764 9.44281 23.1194 8.95626C22.878 8.49873 22.5142 8.11728 22.0687 7.85446C21.5977 7.57998 21.06 7.44128 20.5151 7.45377C19.9271 7.44153 19.3483 7.60173 18.8503 7.91456C18.3798 8.20849 17.9944 8.62047 17.7325 9.10953C17.4689 9.60655 17.3313 10.1606 17.3318 10.7232V12.5422C17.3132 13.2206 17.4568 13.8936 17.7505 14.5055C18.0102 15.026 18.4165 15.4592 18.9194 15.7515C19.4583 16.0453 20.0648 16.1925 20.6783 16.1783C21.0929 16.1839 21.5056 16.1206 21.8994 15.991C22.2512 15.8675 22.5738 15.6728 22.8469 15.419C23.1195 15.1609 23.3271 14.8421 23.453 14.4885L26.3387 14.813C26.1661 15.5562 25.8077 16.2434 25.297 16.8103C24.7599 17.3945 24.0933 17.8446 23.3508 18.1245C22.4821 18.4455 21.5612 18.6017 20.6353 18.5852ZM39.9363 5.21604L35.2666 18.3288H31.8519L27.1821 5.21604H30.4776L33.4906 14.9572H33.6279L36.6499 5.21604H39.9363ZM41.5941 18.3288V5.21604H44.6842V18.3288H41.5941ZM43.1477 3.35498C42.6794 3.36292 42.2264 3.18831 41.8846 2.86815C41.7179 2.71868 41.5846 2.5358 41.4933 2.33137C41.402 2.12694 41.3549 1.90555 41.3549 1.68167C41.3549 1.45779 41.402 1.23646 41.4933 1.03203C41.5846 0.827601 41.7179 0.644654 41.8846 0.495189C42.2239 0.17017 42.6779 -0.00762941 43.1477 0.000409687C43.3805 -0.00460935 43.6119 0.0365304 43.8287 0.12146C44.0455 0.20639 44.2433 0.333385 44.4108 0.495189C44.5774 0.644654 44.7107 0.827601 44.802 1.03203C44.8933 1.23646 44.9405 1.45779 44.9405 1.68167C44.9405 1.90555 44.8933 2.12694 44.802 2.33137C44.7107 2.5358 44.5774 2.71868 44.4108 2.86815C44.0707 3.18975 43.6177 3.36464 43.1497 3.35498H43.1477ZM53.1863 18.5802C51.9989 18.611 50.8242 18.3284 49.7807 17.7609C48.8356 17.2131 48.0727 16.3993 47.587 15.421C47.0807 14.3011 46.8188 13.0861 46.8188 11.8571C46.8188 10.628 47.0807 9.41308 47.587 8.29318C48.0699 7.30755 48.8217 6.47862 49.7556 5.90218C50.7422 5.31206 51.8758 5.01341 53.0251 5.04076C53.8049 5.03555 54.5794 5.16845 55.3129 5.43338C56.0306 5.68571 56.6837 6.09379 57.2251 6.62836C57.8104 7.21144 58.2595 7.91677 58.5402 8.6938C58.8791 9.64676 59.041 10.6536 59.018 11.6647V12.6124H48.2702V10.5299H56.0561C56.0604 9.97962 55.9283 9.43693 55.6715 8.95027C55.4304 8.4928 55.067 8.11129 54.6217 7.84841C54.1508 7.57393 53.6131 7.43529 53.0681 7.44778C52.4801 7.43513 51.9012 7.59529 51.4034 7.9085C50.9326 8.20241 50.5468 8.61437 50.2845 9.10348C50.0209 9.60049 49.8834 10.1546 49.8838 10.7172V12.5362C49.8655 13.2145 50.0087 13.8874 50.3015 14.4995C50.5619 15.0199 50.9685 15.4529 51.4715 15.7456C52.0102 16.0396 52.6168 16.1867 53.2304 16.1722C53.6447 16.178 54.057 16.1146 54.4504 15.9849C54.8023 15.8616 55.125 15.6669 55.398 15.413C55.6705 15.1547 55.8785 14.8359 56.005 14.4824L58.8898 14.807C58.7178 15.5504 58.3592 16.2378 57.8481 16.8043C57.3111 17.3887 56.6445 17.8388 55.9019 18.1185C55.0336 18.4415 54.1127 18.5998 53.1863 18.5852V18.5802ZM63.7839 18.3288L60.0778 5.21604H63.228L65.5318 14.4364H65.651L68.007 5.21604H71.1231L73.479 14.3843H73.6073L75.878 5.21604H79.0373L75.3281 18.3288H72.1098L69.6517 9.46712H69.4724L67.0133 18.3288H63.7839ZM92.746 5.21604V7.606H85.2075V5.21604H92.746ZM87.0686 2.07484H90.1587V14.3843C90.1407 14.7139 90.2054 15.0427 90.3471 15.3409C90.4616 15.5432 90.6424 15.6999 90.8589 15.7846C91.0833 15.8671 91.321 15.9078 91.5601 15.9048C91.7376 15.9058 91.9149 15.8914 92.09 15.8617C92.2542 15.8337 92.3794 15.8077 92.4656 15.7846L92.9854 18.2006C92.7528 18.2758 92.5165 18.3386 92.2773 18.3889C91.912 18.4643 91.5404 18.5043 91.1674 18.5081C90.4534 18.5411 89.7405 18.422 89.0759 18.1586C88.4735 17.9111 87.9591 17.4886 87.5995 16.9455C87.2225 16.3309 87.038 15.6175 87.0696 14.8971L87.0686 2.07484ZM94.8526 18.3288V5.21604H97.9407V18.3288H94.8526ZM96.4061 3.35498C95.9378 3.36292 95.4848 3.18831 95.143 2.86815C94.9764 2.71868 94.843 2.5358 94.7518 2.33137C94.6605 2.12694 94.6133 1.90555 94.6133 1.68167C94.6133 1.45779 94.6605 1.23646 94.7518 1.03203C94.843 0.827601 94.9764 0.644654 95.143 0.495189C95.4824 0.170264 95.9363 -0.00752041 96.4061 0.000409687C96.6391 -0.00457661 96.8707 0.0365357 97.0876 0.12146C97.3046 0.206385 97.5026 0.333401 97.6702 0.495189C97.8366 0.644824 97.9697 0.827807 98.0608 1.03221C98.1518 1.23662 98.1989 1.45789 98.1989 1.68167C98.1989 1.90545 98.1518 2.12672 98.0608 2.33112C97.9697 2.53553 97.8366 2.71851 97.6702 2.86815C97.3292 3.1903 96.8751 3.36522 96.4061 3.35498ZM107.188 5.21604V7.606H99.6495V5.21604H107.188ZM101.511 2.07484H104.601V14.3843C104.583 14.7139 104.647 15.0427 104.789 15.3409C104.904 15.5432 105.084 15.6999 105.301 15.7846C105.525 15.8671 105.763 15.9078 106.002 15.9048C106.18 15.9058 106.357 15.8914 106.532 15.8617C106.696 15.8337 106.821 15.8077 106.908 15.7846L107.427 18.2006C107.195 18.2758 106.958 18.3386 106.719 18.3889C106.354 18.4643 105.982 18.5043 105.609 18.5081C104.895 18.5411 104.182 18.422 103.518 18.1586C102.915 17.9111 102.401 17.4886 102.041 16.9455C101.665 16.3309 101.48 15.6175 101.512 14.8971L101.511 2.07484ZM112.664 0.844769V18.3288H109.573V0.844769H112.664ZM121.166 18.5852C119.979 18.6161 118.804 18.3335 117.761 17.7659C116.815 17.2187 116.052 16.4048 115.567 15.426C115.061 14.3061 114.799 13.0912 114.799 11.8621C114.799 10.633 115.061 9.41809 115.567 8.29819C116.049 7.31248 116.801 6.48348 117.735 5.90719C118.722 5.3172 119.855 5.01857 121.005 5.04578C121.785 5.04056 122.559 5.17346 123.293 5.4384C124.01 5.69096 124.663 6.09902 125.205 6.63337C125.79 7.21651 126.239 7.92185 126.519 8.69882C126.859 9.65158 127.021 10.6585 126.998 11.6698V12.6173H116.25V10.5349H124.035C124.04 9.98466 123.908 9.44184 123.651 8.95529C123.41 8.49775 123.046 8.11625 122.601 7.85342C122.13 7.57894 121.592 7.4403 121.047 7.45279C120.459 7.44055 119.88 7.60069 119.382 7.91352C118.912 8.20745 118.526 8.61943 118.264 9.10849C118.001 9.60569 117.864 10.1597 117.864 10.7222V12.5412C117.846 13.2196 117.989 13.8925 118.282 14.5045C118.542 15.0251 118.949 15.4583 119.452 15.7506C119.991 16.0444 120.597 16.1916 121.21 16.1772C121.625 16.1829 122.038 16.1196 122.431 15.9899C122.783 15.8665 123.106 15.6718 123.379 15.418C123.65 15.1594 123.856 14.8405 123.98 14.4874L126.866 14.812C126.693 15.5552 126.335 16.2424 125.824 16.8093C125.287 17.3934 124.62 17.8435 123.878 18.1235C123.01 18.4443 122.091 18.6009 121.166 18.5852Z" fill="#1E1E1E"/>
</svg>
