<svg width="53" height="13" viewBox="0 0 53 13" fill="none" xmlns="http://www.w3.org/2000/svg">
<path d="M4.30739 7.3755C3.21714 7.12146 2.19735 6.6273 1.32235 5.92905C1.02172 5.66268 0.782535 5.33425 0.621206 4.96642C0.460233 4.59923 0.381615 4.20126 0.390835 3.80044C0.381373 3.34482 0.480889 2.89353 0.681245 2.48421C0.873657 2.0731 1.16236 1.71439 1.52276 1.43844C2.37234 0.783685 3.42624 0.450831 4.49777 0.498847C5.26653 0.484257 6.02802 0.649599 6.72151 0.981667C7.34121 1.27334 7.86565 1.73455 8.23409 2.31192C8.59529 2.86218 8.78371 3.50789 8.77504 4.16606H7.17223C7.18954 3.84515 7.13486 3.52445 7.01204 3.22747C6.89349 2.929 6.70846 2.66146 6.47109 2.44515C5.91717 1.99201 5.21188 1.76609 4.49777 1.81307C3.84196 1.77541 3.19264 1.95998 2.65468 2.33696C2.43978 2.50762 2.26818 2.72658 2.15383 2.97605C2.03905 3.22689 1.98744 3.50203 2.00355 3.77741C2.00117 4.02048 2.05599 4.26069 2.16374 4.47859C2.27456 4.69499 2.432 4.88416 2.6246 5.03253C3.272 5.47247 3.99548 5.78835 4.75822 5.96411C5.58446 6.17092 6.37944 6.4869 7.12222 6.9037C7.63608 7.18779 8.07015 7.59671 8.38437 8.09272C8.67203 8.57697 8.81774 9.13233 8.805 9.69544C8.81457 10.153 8.71508 10.6063 8.51459 11.0177C8.31653 11.4296 8.02081 11.7869 7.65315 12.0584C6.75843 12.6861 5.67937 12.9964 4.58789 12.9399C3.78548 12.9454 2.99073 12.7841 2.25398 12.4661C1.58874 12.1858 1.01096 11.7319 0.581099 11.1519C0.196489 10.5983 -0.00649293 9.93879 0.000158388 9.26471H1.60285C1.59354 9.59755 1.66204 9.92798 1.8029 10.2297C1.94375 10.5314 2.15301 10.7961 2.41416 11.0027C3.04676 11.4523 3.8128 11.6751 4.58789 11.6347C5.27135 11.6784 5.95038 11.4972 6.52122 11.1188C6.73893 10.9571 6.91423 10.7451 7.0321 10.5008C7.14974 10.2567 7.20473 9.98716 7.19228 9.71647C7.21149 9.45456 7.16319 9.19211 7.05203 8.95418C6.94382 8.71472 6.77878 8.50531 6.57123 8.34415C5.87927 7.891 5.11297 7.56312 4.30739 7.3755ZM14.8453 12.9379C14.2928 12.9575 13.7424 12.8605 13.2299 12.6534C12.7173 12.4463 12.2541 12.1337 11.8703 11.7359C11.08 10.8555 10.6664 9.70035 10.7183 8.51844V8.23596C10.7061 7.41223 10.8808 6.59644 11.2292 5.84991C11.5464 5.18099 12.0422 4.61256 12.6616 4.20713C13.2521 3.81412 13.9457 3.60497 14.655 3.60611C15.1693 3.57824 15.6832 3.668 16.1576 3.86856C16.6285 4.06785 17.0468 4.37371 17.3796 4.76207C18.0869 5.71344 18.4346 6.88446 18.3612 8.06768V8.70776H12.2609C12.2487 9.49537 12.5228 10.2607 13.0323 10.8614C13.2708 11.1251 13.5633 11.3344 13.89 11.4749C14.2167 11.6155 14.5699 11.684 14.9255 11.6758C15.4079 11.6924 15.8856 11.5774 16.3077 11.3432C16.6931 11.1176 17.0303 10.8181 17.2995 10.4617L18.241 11.193C17.8804 11.7586 17.3759 12.2183 16.7792 12.5249C16.1825 12.8315 15.5151 12.9741 14.8453 12.9379ZM14.655 4.87226C14.3623 4.86771 14.0719 4.92577 13.8035 5.04254C13.5331 5.16135 13.2908 5.33576 13.0923 5.55441C12.6337 6.08542 12.3596 6.75073 12.3109 7.45063H16.8186V7.33443C16.8198 6.67602 16.5973 6.03674 16.1875 5.52136C15.9967 5.30572 15.7607 5.13473 15.4964 5.02051C15.2306 4.9085 14.9431 4.85783 14.655 4.87226ZM26.1946 12.7717C26.0796 12.4674 26.0087 12.1483 25.9841 11.824C25.6579 12.1774 25.2623 12.4598 24.8221 12.6535C24.3796 12.845 23.902 12.9419 23.4199 12.9379C22.6243 12.9684 21.8458 12.7016 21.2361 12.1897C20.9615 11.9538 20.7426 11.66 20.5954 11.3293C20.4481 10.9986 20.3762 10.6393 20.3847 10.2774C20.3651 9.8535 20.4548 9.43166 20.6451 9.05235C20.8277 8.67206 21.1033 8.34403 21.4464 8.09873C22.3417 7.53039 23.3928 7.25713 24.4515 7.3174H25.9541V6.6102C25.9629 6.37515 25.9254 6.14067 25.8439 5.92004C25.7619 5.70015 25.6358 5.49935 25.4733 5.33003C25.2808 5.15889 25.0561 5.02809 24.8122 4.94538C24.5676 4.86203 24.3088 4.82798 24.0509 4.84521C23.561 4.82908 23.0792 4.97329 22.6786 5.25591C22.5096 5.36227 22.3714 5.51114 22.2779 5.68764C22.1802 5.86231 22.1253 6.05763 22.1176 6.25761H20.575C20.5823 5.7847 20.7481 5.32792 21.0458 4.96041C21.3887 4.52225 21.8365 4.17771 22.348 3.95871C22.9165 3.71116 23.531 3.58656 24.1511 3.59309C25.0314 3.54153 25.8993 3.82012 26.5851 4.37441C26.8827 4.64364 27.1186 4.97409 27.2764 5.34306C27.4341 5.71166 27.5093 6.1103 27.4967 6.51104V10.6681C27.4722 11.3396 27.5813 12.0093 27.8173 12.6384V12.7717H26.1946ZM23.6502 11.5997C24.1327 11.5987 24.6062 11.4697 25.0226 11.226C25.4258 11.0054 25.751 10.6657 25.9541 10.2534V8.40625H24.7521C22.8689 8.40625 21.9273 8.95785 21.9273 10.0611C21.9185 10.2736 21.9561 10.4856 22.0375 10.6821C22.1231 10.8767 22.2495 11.0505 22.4081 11.192C22.7596 11.473 23.2006 11.6178 23.6502 11.5997ZM34.759 5.15875C34.5073 5.11862 34.2527 5.09919 33.9977 5.10065C33.5622 5.06516 33.1268 5.1705 32.7556 5.40115C32.3891 5.63712 32.1054 5.98174 31.9443 6.38683V12.7717H30.4117V3.7754H31.9042L31.9343 4.81516C32.1449 4.43652 32.4571 4.12426 32.8357 3.91363C33.2154 3.70421 33.6445 3.60044 34.0779 3.61313C34.3108 3.60138 34.5433 3.64105 34.759 3.72932V5.15875ZM40.1181 11.6858C40.6432 11.6961 41.1548 11.5185 41.5606 11.185C41.754 11.0353 41.9144 10.8472 42.0316 10.6326C42.1488 10.418 42.2203 10.1815 42.2417 9.93784H43.6942C43.6657 10.4699 43.481 10.9817 43.1633 11.4093C42.8242 11.8829 42.3734 12.2655 41.851 12.5232C41.0892 12.8992 40.2278 13.0236 39.3908 12.8787C38.5537 12.7338 37.7843 12.327 37.1932 11.7169C36.4336 10.7671 36.0487 9.57172 36.1113 8.35717V8.09973C36.0992 7.29403 36.2633 6.49541 36.5921 5.75976C36.8915 5.10917 37.3712 4.55813 37.9744 4.17207C38.6213 3.78504 39.3645 3.58915 40.1181 3.60711C41.0378 3.57411 41.9347 3.89702 42.6223 4.50864C42.9546 4.80485 43.2208 5.16765 43.4037 5.57345C43.5942 5.9762 43.6935 6.41608 43.6942 6.86163H42.2417C42.215 6.31717 41.978 5.80434 41.5807 5.4312C41.3829 5.2461 41.1517 5.10026 40.8994 5.00147C40.6508 4.90413 40.385 4.85814 40.1181 4.86625C39.768 4.84781 39.4188 4.91552 39.101 5.06344C38.7831 5.21136 38.5064 5.43497 38.2951 5.71469C37.8217 6.43521 37.5965 7.29062 37.654 8.15082V8.44131C37.6019 9.2881 37.827 10.1288 38.2951 10.8364C38.508 11.1142 38.7851 11.3363 39.1026 11.4837C39.4201 11.6311 39.7684 11.6994 40.1181 11.6828V11.6858ZM47.4706 4.86725C47.7827 4.46194 48.1882 4.13819 48.6526 3.92365C49.1121 3.70543 49.6165 3.5987 50.125 3.61213C52.0283 3.61213 52.9899 4.68494 52.9999 6.82958V12.7717H51.4674V6.81856C51.5076 6.29896 51.3461 5.78385 51.0166 5.38012C50.836 5.21032 50.6207 5.08181 50.3855 5.00348C50.154 4.92366 49.9083 4.89328 49.6643 4.91433C49.1955 4.90548 48.736 5.04579 48.3521 5.31501C47.9733 5.58288 47.6697 5.9437 47.4706 6.36278V12.7717H45.928V0H47.4706V4.86725Z" fill="#176B87" fill-opacity="0.62"/>
</svg>
