<svg width="30" height="17" viewBox="0 0 30 17" fill="none" xmlns="http://www.w3.org/2000/svg">
<path d="M0 13.0988V0.0107142H4.33103C5.43714 -0.0602417 6.53716 0.222612 7.47182 0.818357C8.04426 1.31179 8.42656 1.98949 8.55281 2.73462C8.67905 3.47975 8.54133 4.24559 8.16337 4.90004C7.8074 5.37765 7.32524 5.74649 6.77115 5.96513C7.42143 6.09743 8.01572 6.4254 8.4743 6.90504C8.80035 7.30195 9.04132 7.76165 9.18231 8.25558C9.3233 8.74951 9.3613 9.26713 9.2939 9.77634C9.2265 10.2856 9.05517 10.7755 8.79053 11.2157C8.5259 11.656 8.1736 12.0371 7.75552 12.3355C6.6907 12.911 5.4855 13.1755 4.27754 13.0988H0ZM1.52643 5.42603H4.3391C5.02172 5.46808 5.7006 5.29773 6.28251 4.9384C6.52882 4.76619 6.72728 4.53414 6.8592 4.2641C6.99113 3.99407 7.0522 3.69492 7.03667 3.39478C7.0528 3.09685 6.99705 2.79941 6.87405 2.52758C6.75105 2.25575 6.5644 2.01752 6.32996 1.83298C5.74045 1.42565 5.03099 1.22862 4.31587 1.27366H1.52945L1.52643 5.42603ZM1.52643 11.8418H3.95651C4.8908 11.9055 5.82512 11.7187 6.66313 11.3007C7.00791 11.09 7.28906 10.7897 7.47663 10.4318C7.6642 10.0739 7.75115 9.67186 7.72822 9.26845C7.74635 8.90931 7.67949 8.55098 7.53301 8.22258C7.38653 7.89418 7.1646 7.605 6.88527 7.37855C6.20479 6.88432 5.37333 6.64263 4.53394 6.69507H1.52545L1.52643 11.8418ZM11.7837 3.51894H13.2919V9.16246C13.2687 9.75818 13.3227 10.3544 13.4525 10.9362C13.5245 11.2284 13.6998 11.4847 13.9461 11.6577C14.1924 11.8306 14.4929 11.9086 14.7922 11.8772C15.3014 11.8717 15.7979 11.7177 16.2207 11.434C16.8314 11.0027 17.3833 10.4936 17.8623 9.91964V3.52199H19.3706V13.0988H17.8623V11.4925C17.455 11.8844 17.0223 12.2489 16.567 12.5839C15.9351 13.0202 15.1875 13.2582 14.4196 13.2673C13.969 13.3072 13.5169 13.2099 13.1225 12.9883C12.7282 12.7667 12.41 12.4312 12.2097 12.0256C12.0403 11.6692 11.9266 11.2888 11.8725 10.8979C11.8034 10.2947 11.7737 9.68769 11.7837 9.08066V3.51894ZM24.694 12.7383L21.1363 3.51894H22.7244L25.431 10.9191L28.1286 3.51894H29.7257L25.7238 13.865C25.4979 14.4868 25.228 15.0918 24.9162 15.6752C24.6697 16.1151 24.2993 16.4729 23.8511 16.7039C23.2706 16.9205 22.653 17.02 22.0339 16.9967V15.6842C22.4706 15.7167 22.9082 15.6339 23.3028 15.444C23.7135 15.0978 24.0127 14.6381 24.163 14.1224L24.694 12.7383Z" fill="white"/>
</svg>
