<svg width="34" height="12" viewBox="0 0 34 12" fill="none" xmlns="http://www.w3.org/2000/svg">
<path d="M3.63958 11.7956H0V0.00219509H3.80073C4.82604 -0.0260552 5.84045 0.21881 6.73998 0.711676C7.55562 1.18124 8.20864 1.88838 8.61195 2.73873C9.06998 3.72127 9.2928 4.797 9.26266 5.88064C9.29049 6.97451 9.06573 8.06007 8.60589 9.05298C8.19089 9.91076 7.52404 10.6215 6.69439 11.0902C5.75529 11.5883 4.70199 11.8315 3.63958 11.7956ZM1.42806 10.5287H3.54734C4.39158 10.5587 5.22855 10.3628 5.97173 9.9611C6.60618 9.59157 7.10774 9.03112 7.40486 8.35971C8.03248 6.77117 8.03464 5.00377 7.41092 3.41369C7.12237 2.75177 6.63542 2.19575 6.01732 1.82245C5.31193 1.43219 4.51424 1.23961 3.70849 1.26502H1.42806V10.5287ZM14.0738 11.9983C13.5481 12.0072 13.0269 11.8999 12.5475 11.6841C12.1053 11.4848 11.7282 11.1652 11.459 10.7618C11.1795 10.3199 11.0383 9.80466 11.0535 9.28205C11.0355 8.8526 11.141 8.42696 11.3576 8.05566C11.5528 7.73869 11.8293 7.47974 12.1583 7.30566C12.5062 7.11967 12.8784 6.98319 13.2641 6.90023C13.6695 6.80901 14.0748 6.73809 14.4904 6.67728C15.0309 6.61647 15.4668 6.56577 15.7979 6.52523C16.0536 6.50921 16.3038 6.44381 16.5347 6.33266C16.6136 6.28723 16.6778 6.22013 16.7197 6.13928C16.7615 6.05843 16.7793 5.96721 16.7708 5.87656V5.82589C16.7857 5.58621 16.7521 5.34602 16.672 5.11963C16.5919 4.89324 16.467 4.68531 16.3046 4.50832C16.1157 4.33835 15.8942 4.20852 15.6536 4.12664C15.413 4.04476 15.1583 4.01256 14.9049 4.03199C14.363 4.00071 13.8261 4.15044 13.3786 4.45766C13.0498 4.69467 12.783 5.00757 12.6012 5.36979L11.312 4.90361C11.5057 4.41515 11.8232 3.98548 12.2333 3.65693C12.6074 3.35953 13.0386 3.14225 13.5002 3.01846C13.9434 2.89907 14.4003 2.83769 14.8593 2.83598C15.1882 2.8388 15.516 2.87277 15.8384 2.93737C16.2179 3.00947 16.582 3.14659 16.9148 3.34274C17.2825 3.57492 17.5825 3.90012 17.7844 4.28537C18.0376 4.80876 18.1564 5.38698 18.13 5.9678V11.7956H16.7708V10.5996H16.7019C16.5815 10.8286 16.4259 11.0372 16.2407 11.2179C15.9926 11.456 15.7017 11.6451 15.3834 11.7753C14.9662 11.9364 14.5208 12.0123 14.0738 11.9983ZM14.2816 10.7821C14.7541 10.7993 15.2228 10.6908 15.6398 10.4679C15.9903 10.2767 16.2813 9.99268 16.4809 9.64691C16.6682 9.32711 16.7675 8.96346 16.7688 8.59286V7.34618C16.6611 7.44254 16.5301 7.50895 16.3887 7.53875C16.1686 7.59721 15.9457 7.64458 15.7208 7.68066C15.4715 7.7212 15.2272 7.76173 14.9891 7.79214C14.7509 7.82254 14.5654 7.83268 14.4194 7.85295C14.0822 7.89639 13.7504 7.97455 13.4292 8.0861C13.1475 8.16545 12.8926 8.31955 12.6914 8.53205C12.4986 8.76076 12.4 9.05428 12.4157 9.35301C12.4032 9.56204 12.4448 9.77072 12.5366 9.95893C12.6284 10.1472 12.7673 10.3085 12.9397 10.4273C13.342 10.6759 13.809 10.7993 14.2816 10.7821ZM24.4554 2.94751V4.10288H19.8712V2.94751H24.4554ZM21.207 0.829212H22.5662V9.26176C22.5478 9.55847 22.6054 9.85494 22.7334 10.1232C22.8316 10.2974 22.986 10.4332 23.1713 10.5084C23.3549 10.5697 23.5473 10.6006 23.7409 10.5996C23.8641 10.5995 23.9873 10.5927 24.1098 10.5793C24.2061 10.5591 24.2821 10.5388 24.3399 10.5287L24.6166 11.7449C24.4909 11.7919 24.3618 11.8292 24.2304 11.8564C24.0232 11.8921 23.8133 11.9091 23.603 11.9071C23.2138 11.9059 22.8291 11.8231 22.474 11.6638C22.1053 11.4999 21.7894 11.2368 21.5618 10.9037C21.3108 10.5264 21.1856 10.0794 21.204 9.62662L21.207 0.829212ZM30.1129 11.978C29.3388 12.0019 28.5739 11.805 27.9075 11.4104C27.2914 11.0319 26.7985 10.4826 26.4885 9.82934C26.1616 9.07428 25.9929 8.26023 25.9929 7.43743C25.9929 6.61462 26.1616 5.80057 26.4885 5.04552C26.7936 4.38614 27.2761 3.82461 27.8821 3.42384C28.5064 3.02292 29.2364 2.81815 29.9781 2.83598C30.443 2.83335 30.9047 2.91229 31.3423 3.06913C31.8001 3.22417 32.2188 3.47657 32.5697 3.80898C32.9631 4.19246 33.2643 4.6603 33.4505 5.17722C33.6869 5.84367 33.7982 6.54811 33.7788 7.255V7.83272H26.9608V6.65699H32.3964C32.4041 6.19365 32.3016 5.7351 32.0974 5.31913C31.9091 4.93882 31.6176 4.61921 31.2561 4.39685C30.8712 4.16373 30.4281 4.04424 29.9781 4.05222C29.4797 4.04307 28.9902 4.18437 28.5734 4.45766C28.1856 4.71615 27.8732 5.0729 27.6683 5.49147C27.4575 5.92024 27.3493 6.3921 27.352 6.86985V7.65023C27.3349 8.23682 27.4532 8.81951 27.6977 9.35301C27.9108 9.79008 28.2497 10.1535 28.6707 10.3969C29.1107 10.6467 29.6101 10.7727 30.1159 10.7618C30.4449 10.7664 30.7722 10.715 31.0839 10.6098C31.3655 10.5146 31.6229 10.3589 31.8379 10.1537C32.0561 9.93239 32.2232 9.66599 32.3274 9.37324L33.645 9.74824C33.5073 10.1891 33.2685 10.5917 32.9477 10.924C32.6041 11.2663 32.1921 11.5322 31.7386 11.7043C31.218 11.8943 30.667 11.987 30.1129 11.978Z" fill="#B3B3B3"/>
</svg>
