<svg width="195" height="18" viewBox="0 0 195 18" fill="none" xmlns="http://www.w3.org/2000/svg">
<path d="M0 16.9212V0.344521H4.57421C5.51236 0.325435 6.45027 0.392441 7.37618 0.544674C8.0267 0.654824 8.65148 0.883417 9.21947 1.21913C9.89685 1.61936 10.4404 2.21136 10.7816 2.92034C11.1614 3.70396 11.35 4.56645 11.332 5.43709C11.3897 6.15953 11.2705 6.88518 10.9845 7.55112C10.6985 8.21706 10.2545 8.80319 9.6908 9.25877C8.15986 10.1915 6.37471 10.6199 4.58722 10.4836H1.97839V16.9212H0ZM1.97839 8.85251H4.68729C5.83999 8.93747 6.99237 8.68353 8.00262 8.12199C8.43425 7.81799 8.78056 7.40824 9.00836 6.93197C9.23615 6.45571 9.33779 5.92891 9.30353 5.40209C9.33511 4.89746 9.2407 4.39288 9.02881 3.9338C8.81692 3.47473 8.49419 3.07556 8.08968 2.77222C7.07713 2.18225 5.90859 1.91551 4.74033 2.00768H1.97839V8.85251ZM14.3801 16.9212V0.344521H19.5047C20.3619 0.328555 21.2189 0.385136 22.0665 0.513646C22.6546 0.608294 23.2214 0.806124 23.7407 1.09804C24.3899 1.47006 24.9111 2.03004 25.2357 2.70418C25.5995 3.46087 25.7805 4.29243 25.7641 5.13188C25.7997 5.76591 25.6943 6.39997 25.4553 6.98832C25.2163 7.57667 24.8498 8.10466 24.3821 8.53426C23.8878 8.92348 23.3389 9.23775 22.753 9.46693C23.1522 9.68038 23.492 9.9899 23.7417 10.3676C24.0619 10.8919 24.315 11.4544 24.4952 12.0417L26.1233 16.9212H23.9438L22.6849 13.0554C22.4975 12.463 22.3777 12.1108 22.3257 11.9987C22.2418 11.8033 22.1414 11.6155 22.0255 11.4373C21.7646 10.9685 21.3694 10.5886 20.8907 10.3465C20.2505 10.1319 19.5755 10.0406 18.9013 10.0774H16.3575V16.9212H14.3801ZM16.3585 8.44723H19.3606C20.4353 8.53102 21.5124 8.31741 22.4738 7.82979C22.8962 7.54528 23.2361 7.15435 23.459 6.69646C23.682 6.23857 23.7802 5.72992 23.7437 5.22194C23.779 4.72566 23.6884 4.2285 23.4802 3.77662C23.272 3.32473 22.953 2.93279 22.5528 2.63715C21.6152 2.13861 20.554 1.92009 19.4957 2.00768H16.3575L16.3585 8.44723ZM36.0193 0.0183031C37.133 -0.0626532 38.2489 0.145151 39.2588 0.621632C40.2687 1.09811 41.1386 1.82713 41.7843 2.7382C42.7939 4.53882 43.324 6.56854 43.324 8.63284C43.324 10.6972 42.7939 12.7269 41.7843 14.5275C40.5555 16.3408 38.5924 17.2474 35.8952 17.2474C33.198 17.2474 31.2349 16.3408 30.0061 14.5275C28.9965 12.7269 28.4664 10.6972 28.4664 8.63284C28.4664 6.56854 28.9965 4.53882 30.0061 2.7382C30.6776 1.72422 31.6534 0.949245 32.793 0.52464C33.8302 0.167134 34.9224 -0.0042681 36.0193 0.0183031ZM35.8061 1.76052C35.0273 1.70226 34.2464 1.84286 33.5368 2.16914C32.8271 2.49541 32.2121 2.99665 31.7493 3.62582C30.8281 5.12908 30.3888 6.87819 30.4904 8.63834C30.4904 13.2169 32.2917 15.5058 35.8942 15.5052C39.4967 15.5045 41.298 13.2269 41.298 8.67236C41.4085 6.90065 40.9688 5.13808 40.0391 3.62582C39.611 3.00554 39.0198 2.51556 38.3309 2.20984C37.5288 1.88824 36.67 1.73529 35.8061 1.76052ZM58.1649 13.0775L59.4458 14.3704C58.8719 15.1624 58.1412 15.828 57.2992 16.3257C56.0819 16.9682 54.7194 17.2856 53.3435 17.2474C52.274 17.3249 51.202 17.1378 50.222 16.7027C49.242 16.2676 48.3843 15.5979 47.7245 14.7527C46.583 12.8609 46.0033 10.6833 46.0531 8.47441C46.1029 6.26547 46.7801 4.11631 48.0057 2.27789C48.6505 1.521 49.4621 0.924054 50.3767 0.534046C51.2913 0.144039 52.2839 -0.0283909 53.2764 0.030305C54.8277 -0.0647172 56.3596 0.415148 57.5794 1.37824C58.1034 1.85673 58.5174 2.44312 58.793 3.097C59.0685 3.75089 59.199 4.45672 59.1756 5.1659H57.2532C57.2427 4.37481 56.9656 3.6104 56.4667 2.99638C56.0635 2.56407 55.5685 2.22767 55.0181 2.01189C54.4677 1.79611 53.876 1.70643 53.2864 1.7495C52.5021 1.70451 51.7198 1.86792 51.019 2.22313C50.3183 2.57834 49.724 3.11269 49.2966 3.77192C48.4164 5.27441 47.991 6.99998 48.0718 8.73943C47.9774 10.5242 48.4752 12.2902 49.4878 13.7629C49.9508 14.35 50.5499 14.8155 51.2332 15.119C51.9165 15.4226 52.6635 15.5551 53.4095 15.5052C54.5704 15.5317 55.7116 15.2024 56.6798 14.5615C57.2343 14.1305 57.7339 13.632 58.1649 13.0775ZM62.8682 16.9212V0.344521H73.1053V2.0107H64.8445V7.48354H71.7344V9.1357H64.8445V15.261H73.2855V16.9212H62.8682ZM75.5391 12.0998H77.4604C77.4392 12.9512 77.7268 13.7815 78.27 14.4374C78.712 14.8364 79.2315 15.14 79.796 15.3294C80.3606 15.5188 80.9581 15.5899 81.5513 15.5382C82.6473 15.6182 83.7358 15.303 84.6194 14.6496C84.9377 14.38 85.1909 14.0419 85.3602 13.6607C85.5295 13.2795 85.6105 12.8649 85.5971 12.448C85.6159 12.0363 85.53 11.6265 85.3473 11.257C85.1645 10.8876 84.891 10.5705 84.5524 10.3355C84.1825 10.0833 83.782 9.87923 83.3605 9.72813C82.6232 9.47206 81.873 9.25461 81.113 9.07667C80.315 8.88359 79.5274 8.64977 78.7533 8.37616C78.2635 8.19164 77.7989 7.9462 77.3703 7.64564C76.9029 7.29549 76.5312 6.83326 76.2895 6.30159C76.0478 5.76991 75.9439 5.18594 75.9874 4.60352C75.944 3.44654 76.3602 2.3194 77.1452 1.46833C77.683 0.957294 78.3218 0.564299 79.0204 0.314593C79.719 0.0648862 80.4621 -0.0360237 81.202 0.0183031C84.7539 0.0183031 86.5408 1.71182 86.5628 5.09887H84.6415C84.6676 4.28885 84.4394 3.49099 83.989 2.81727C83.6457 2.43502 83.2184 2.13757 82.7407 1.94831C82.2631 1.75905 81.748 1.68314 81.2361 1.7265C80.3419 1.6672 79.4585 1.94856 78.7633 2.51404C78.4979 2.75037 78.2871 3.04157 78.1454 3.36746C78.0037 3.69334 77.9346 4.04613 77.9427 4.40139C77.9217 4.79281 78.0105 5.18233 78.1992 5.52592C78.3879 5.86952 78.6689 6.15349 79.0105 6.34575C79.3411 6.54027 79.6917 6.69861 80.0562 6.81806C80.4372 6.94548 81.085 7.12162 81.9996 7.34645C82.9011 7.55267 83.7874 7.82013 84.6525 8.147C85.2154 8.37411 85.739 8.6889 86.2035 9.07966C86.6615 9.47582 87.0231 9.97127 87.2607 10.5283C87.4982 11.0853 87.6056 11.6892 87.5745 12.2939C87.6054 12.9476 87.4949 13.6002 87.2505 14.2073C87.0062 14.8143 86.6337 15.3615 86.1585 15.8114C84.8716 16.854 83.2364 17.3684 81.5843 17.2504C79.1413 17.2504 77.4294 16.6023 76.4487 15.306C75.8093 14.3625 75.4911 13.2385 75.5391 12.0998ZM90.0863 12.0998H92.0086C91.9871 12.9511 92.2743 13.7814 92.8172 14.4374C93.2595 14.8363 93.7791 15.1399 94.3438 15.3293C94.9085 15.5186 95.5061 15.5898 96.0995 15.5382C97.1956 15.6182 98.284 15.303 99.1677 14.6496C99.4859 14.38 99.7391 14.0419 99.9084 13.6607C100.078 13.2795 100.159 12.8649 100.145 12.448C100.164 12.0362 100.078 11.6263 99.8952 11.2568C99.7122 10.8873 99.4385 10.5703 99.0996 10.3355C98.73 10.0833 98.3299 9.87924 97.9088 9.72813C97.1713 9.47235 96.4211 9.2549 95.6612 9.07667C94.8629 8.88356 94.075 8.64974 93.3005 8.37616C92.811 8.19164 92.3467 7.94619 91.9186 7.64564C91.4506 7.29513 91.0786 6.83225 90.837 6.29978C90.5954 5.76732 90.4921 5.18253 90.5366 4.59952C90.4929 3.44268 90.9088 2.31553 91.6934 1.4643C92.2314 0.953237 92.8703 0.560265 93.5691 0.310562C94.2679 0.0608578 95.0112 -0.040042 95.7513 0.0143025C99.3017 0.0143025 101.089 1.70782 101.112 5.09487H99.1897C99.2165 4.28491 98.9887 3.48693 98.5382 2.81327C98.1947 2.43094 97.7673 2.13345 97.2894 1.94419C96.8116 1.75493 96.2964 1.67906 95.7843 1.7225C94.8904 1.66315 94.0073 1.94453 93.3125 2.51004C93.0472 2.74637 92.8363 3.03754 92.6946 3.36343C92.5529 3.68931 92.4838 4.0421 92.492 4.39736C92.4709 4.78878 92.5597 5.17833 92.7484 5.52192C92.9371 5.86552 93.2181 6.14949 93.5597 6.34174C93.8899 6.53648 94.2402 6.69483 94.6044 6.81406C94.9867 6.94148 95.6348 7.11762 96.5488 7.34245C97.4499 7.54865 98.336 7.81612 99.2007 8.143C99.7638 8.36987 100.287 8.68468 100.752 9.07566C101.21 9.47167 101.572 9.96708 101.809 10.5241C102.047 11.0812 102.154 11.6851 102.123 12.2899C102.154 12.9436 102.044 13.5963 101.799 14.2034C101.555 14.8105 101.182 15.3576 100.707 15.8074C99.4199 16.8503 97.7846 17.3647 96.1325 17.2464C93.6908 17.2464 91.9789 16.5983 90.9969 15.302C90.3584 14.3596 90.0389 13.2372 90.0853 12.0998H90.0863ZM112.153 0.0183031C113.267 -0.0627315 114.383 0.14503 115.393 0.62151C116.403 1.09799 117.273 1.82705 117.919 2.7382C118.928 4.53894 119.458 6.56861 119.458 8.63284C119.458 10.6971 118.928 12.7267 117.919 14.5275C116.69 16.3408 114.727 17.2474 112.03 17.2474C109.332 17.2474 107.369 16.3408 106.141 14.5275C105.131 12.727 104.6 10.6972 104.6 8.63284C104.6 6.56848 105.131 4.53872 106.141 2.7382C106.812 1.72427 107.788 0.949306 108.928 0.52464C109.964 0.167428 111.057 -0.0039688 112.153 0.0183031ZM111.94 1.76052C111.161 1.70216 110.38 1.84273 109.67 2.16901C108.961 2.4953 108.345 2.99658 107.883 3.62582C106.961 5.12898 106.522 6.87817 106.624 8.63834C106.624 13.2169 108.425 15.5058 112.028 15.5052C115.63 15.5045 117.431 13.2269 117.431 8.67236C117.542 6.90067 117.102 5.13818 116.173 3.62582C115.744 3.00568 115.153 2.51574 114.464 2.20984C113.662 1.88835 112.802 1.7354 111.939 1.76052H111.94ZM122.89 16.9212V0.344521H128.015C128.872 0.328492 129.729 0.385074 130.577 0.513646C131.165 0.608139 131.732 0.805975 132.252 1.09804C132.901 1.46967 133.422 2.02979 133.746 2.70418C134.11 3.46085 134.291 4.29243 134.274 5.13188C134.31 5.76591 134.204 6.39997 133.965 6.98832C133.727 7.57667 133.36 8.10466 132.892 8.53426C132.398 8.92357 131.848 9.23783 131.262 9.46693C131.662 9.68024 132.002 9.98977 132.252 10.3676C132.572 10.8919 132.825 11.4543 133.004 12.0417L134.635 16.9212H132.454L131.195 13.0554C131.008 12.463 130.888 12.1108 130.836 11.9987C130.752 11.8034 130.652 11.6156 130.536 11.4373C130.274 10.9685 129.879 10.5886 129.4 10.3465C128.76 10.1319 128.085 10.0406 127.41 10.0774H124.871V16.9212H122.89ZM124.868 8.44723H127.87C128.945 8.53087 130.022 8.31726 130.983 7.82979C131.405 7.54528 131.745 7.15435 131.968 6.69646C132.191 6.23857 132.289 5.72992 132.253 5.22194C132.288 4.72557 132.197 4.22836 131.989 3.77647C131.781 3.32457 131.461 2.93268 131.061 2.63715C130.124 2.13869 129.063 1.92017 128.005 2.00768H124.869L124.868 8.44723ZM146.558 16.9212V2.0107H141.827V0.347514H153.279V2.0107H148.538V16.9212H146.558ZM160.443 16.9212V10.4366L154.801 0.344521H156.958L161.431 8.48125L165.893 0.344521H168.052L162.421 10.4366V16.9212H160.443ZM170.079 16.9212V0.344521H174.653C175.591 0.325463 176.529 0.392469 177.455 0.544674C178.105 0.655088 178.73 0.883663 179.298 1.21913C179.975 1.61965 180.519 2.21156 180.86 2.92034C181.24 3.7039 181.429 4.56644 181.41 5.43709C181.468 6.15953 181.349 6.88518 181.063 7.55112C180.777 8.21706 180.333 8.80319 179.769 9.25877C178.238 10.1916 176.453 10.6201 174.666 10.4836H172.055V16.9212H170.079ZM172.055 8.85251H174.764C175.916 8.93747 177.069 8.68353 178.079 8.12199C178.511 7.81799 178.857 7.40824 179.085 6.93197C179.313 6.45571 179.414 5.92891 179.38 5.40209C179.412 4.89756 179.317 4.39307 179.106 3.93402C178.894 3.47497 178.571 3.07574 178.167 2.77222C177.155 2.18237 175.986 1.91563 174.818 2.00768H172.055V8.85251ZM184.582 16.9212V0.344521H194.82V2.0107H186.56V7.48354H193.449V9.1357H186.56V15.261H195V16.9212H184.582Z" fill="#6C757D"/>
</svg>
