<svg width="103" height="12" viewBox="0 0 103 12" fill="none" xmlns="http://www.w3.org/2000/svg">
<path d="M0.00103798 5.789C-0.016531 4.75141 0.239472 3.72749 0.743252 2.82023C1.22526 1.96207 1.93416 1.25315 2.79233 0.771143C3.68473 0.270474 4.69353 0.0144397 5.71668 0.0289527C6.89246 0.0043708 8.04732 0.342371 9.0243 0.997027C9.96945 1.63992 10.669 2.58399 11.0089 3.67537H8.40715C8.17653 3.16749 7.79291 2.74439 7.30999 2.46527C6.81827 2.18806 6.26087 2.04871 5.69656 2.06191C5.07831 2.05197 4.46944 2.21396 3.93787 2.52981C3.42562 2.83824 3.01153 3.28588 2.74389 3.82057C2.45218 4.43493 2.30855 5.10909 2.32443 5.789C2.31114 6.46865 2.45464 7.14223 2.74389 7.75741C3.01342 8.29609 3.42665 8.74978 3.93787 9.06835C4.47284 9.37425 5.08038 9.53031 5.69656 9.52011C6.26077 9.53237 6.81792 9.39307 7.30999 9.11675C7.7913 8.82836 8.17386 8.40082 8.40715 7.89052H11.0048C10.6679 8.98769 9.96808 9.93778 9.02024 10.585C8.04082 11.2327 6.88656 11.5649 5.71268 11.5369C4.69158 11.5512 3.68413 11.3011 2.78826 10.8109C1.93491 10.3226 1.22751 9.61515 0.73919 8.76179C0.236171 7.85294 -0.0184267 6.82758 0.00103798 5.789ZM18.1625 11.549C17.1463 11.5591 16.1451 11.3032 15.2583 10.8068C14.3884 10.3238 13.664 9.61619 13.1608 8.75776C12.6376 7.85107 12.37 6.81954 12.3863 5.77286C12.3704 4.73644 12.6382 3.7154 13.1608 2.82023C13.6602 1.95472 14.3852 1.24095 15.2583 0.755002C16.1488 0.267784 17.1475 0.0124192 18.1625 0.0124192C19.1776 0.0124192 20.1763 0.267784 21.0668 0.755002C21.9372 1.23899 22.6573 1.95358 23.1481 2.82023C23.6707 3.7154 23.9385 4.73644 23.9226 5.77286C23.9389 6.81954 23.6713 7.85107 23.1481 8.75776C22.6536 9.61736 21.934 10.3258 21.0668 10.8068C20.1786 11.3036 19.176 11.5594 18.1585 11.549H18.1625ZM18.1625 9.53222C18.7893 9.54524 19.4079 9.38919 19.9535 9.08045C20.4745 8.76356 20.8943 8.30457 21.1636 7.75741C21.465 7.14011 21.6143 6.45966 21.5992 5.77286C21.6154 5.09113 21.466 4.41564 21.1636 3.80444C20.8977 3.25812 20.4768 2.80218 19.9535 2.49351C19.4079 2.18473 18.7893 2.02866 18.1625 2.04174C17.5308 2.02985 16.9073 2.18574 16.3555 2.49351C15.8321 2.80218 15.4112 3.25812 15.1454 3.80444C14.843 4.41564 14.6935 5.09113 14.7097 5.77286C14.6945 6.45966 14.8439 7.14013 15.1454 7.75741C15.4146 8.30457 15.8344 8.76356 16.3555 9.08045C16.9062 9.38726 17.5282 9.5431 18.1585 9.53222H18.1625ZM35.2349 11.4361H32.9761L27.8614 3.70763V11.4361H25.6026V0.158028H27.8614L32.9761 7.90263V0.158028H35.2349V11.4361ZM45.1314 0.174161V1.99737H42.1305V11.4361H39.8716V1.99737H36.8706V0.174161H45.1314ZM53.6848 9.2902H49.1994L48.4572 11.4361H46.0854L50.1352 0.158028H52.7651L56.8149 11.4361H54.427L53.6848 9.2902ZM53.0717 7.48313L51.4421 2.77182L49.8125 7.48313H53.0717ZM57.78 5.789C57.7624 4.75141 58.0184 3.72749 58.5222 2.82023C59.0042 1.96207 59.7131 1.25315 60.5713 0.771143C61.4637 0.270474 62.4725 0.0144397 63.4956 0.0289527C64.6714 0.0043708 65.8263 0.342371 66.8032 0.997027C67.745 1.64006 68.4419 2.58247 68.7807 3.67133H66.1831C65.9525 3.16346 65.5688 2.74036 65.0859 2.46124C64.5942 2.18403 64.0368 2.04467 63.4725 2.05787C62.8542 2.04793 62.2454 2.20993 61.7138 2.52578C61.2015 2.83421 60.7875 3.28185 60.5198 3.81654C60.2281 4.43089 60.0845 5.10506 60.1004 5.78496C60.0871 6.46462 60.2306 7.1382 60.5198 7.75338C60.7893 8.29206 61.2026 8.74575 61.7138 9.06432C62.2489 9.36994 62.8563 9.52598 63.4725 9.51608C64.0367 9.52834 64.5938 9.38904 65.0859 9.11272C65.5672 8.82433 65.9498 8.39678 66.1831 7.88649H68.7807C68.4438 8.98366 67.744 9.93375 66.7962 10.581C65.8167 11.2287 64.6625 11.5609 63.4886 11.5329C62.4675 11.5471 61.46 11.297 60.5642 10.8068C59.7108 10.3185 59.0034 9.61111 58.5151 8.75776C58.0136 7.8499 57.7601 6.82597 57.78 5.789ZM78.3778 0.174161V1.99737H75.3768V11.4361H73.1169V1.99737H70.1158V0.174161H78.3778ZM86.0962 0.174161V7.1443C86.075 7.46231 86.1168 7.78138 86.2192 8.08318C86.3217 8.38498 86.4827 8.66357 86.6931 8.90297C87.1702 9.28923 87.7654 9.49999 88.3792 9.49999C88.993 9.49999 89.5882 9.28923 90.0653 8.90297C90.2757 8.66357 90.4367 8.38498 90.5392 8.08318C90.6416 7.78138 90.6834 7.46231 90.6622 7.1443V0.174161H92.9372V7.1322C92.9642 7.98771 92.7458 8.83307 92.308 9.56852C91.9108 10.2149 91.3331 10.7309 90.6461 11.0529C89.9244 11.3825 89.1403 11.5531 88.3469 11.5531C87.5536 11.5531 86.7694 11.3825 86.0477 11.0529C85.3768 10.7258 84.8161 10.2099 84.4343 9.56852C84.0177 8.82571 83.8114 7.98346 83.8373 7.1322V0.174161H86.0962ZM99.0038 11.549C98.2739 11.5602 97.5494 11.4229 96.8741 11.1457C96.2821 10.9018 95.7687 10.5 95.3897 9.98398C95.0177 9.4613 94.8201 8.83457 94.825 8.19304H97.2451C97.2561 8.60815 97.4299 9.00229 97.7292 9.2902C98.0729 9.57363 98.5105 9.71759 98.9554 9.69357C99.4002 9.71886 99.8398 9.58756 100.198 9.32247C100.344 9.20063 100.46 9.04734 100.538 8.87409C100.617 8.70085 100.655 8.51215 100.65 8.32213C100.662 8.01863 100.553 7.72276 100.347 7.49926C100.131 7.27441 99.8657 7.10196 99.5725 6.99505C99.1623 6.82874 98.742 6.68862 98.3141 6.57556C97.7042 6.40439 97.106 6.1942 96.5231 5.94631C96.0621 5.72448 95.6589 5.3986 95.3453 4.99437C95.0003 4.49149 94.8302 3.88912 94.8612 3.28007C94.8479 2.66143 95.0238 2.05345 95.3655 1.53753C95.7124 1.03146 96.2006 0.638674 96.7692 0.408115C97.4213 0.129118 98.1252 -0.00836478 98.8344 0.00474874C99.8458 -0.0421693 100.843 0.259716 101.658 0.859881C102.021 1.13931 102.317 1.49532 102.526 1.90251C102.735 2.3097 102.852 2.75803 102.868 3.21553H100.383C100.375 3.02948 100.325 2.84763 100.238 2.68309C100.151 2.51808 100.029 2.3747 99.8791 2.26359C99.5363 1.99163 99.106 1.85396 98.669 1.87636C98.2848 1.85703 97.9066 1.97739 97.6042 2.21519C97.4707 2.34025 97.3666 2.49345 97.2997 2.66368C97.2327 2.8339 97.2044 3.01689 97.2169 3.19939C97.2129 3.3387 97.2365 3.47742 97.2864 3.60756C97.3362 3.73771 97.4113 3.85671 97.5073 3.95772C97.7253 4.16029 97.9763 4.324 98.2496 4.44176C98.5501 4.55941 98.9695 4.69924 99.508 4.86126C100.12 5.03274 100.718 5.24843 101.299 5.50664C101.769 5.72845 102.179 6.06056 102.493 6.47472C102.847 6.96667 103.024 7.56351 102.997 8.16885C103 8.76077 102.838 9.34181 102.529 9.84684C102.198 10.3813 101.722 10.8118 101.158 11.0892C100.487 11.4083 99.7513 11.5657 99.0089 11.549H99.0038Z" fill="black"/>
</svg>
