<svg width="45" height="12" viewBox="0 0 45 12" fill="none" xmlns="http://www.w3.org/2000/svg">
<path d="M9.2838 0.160772V11.3526H7.03903V6.59048H2.24481V11.3526H0V0.160772H2.24481V4.76259H7.03903V0.160772H9.2838ZM16.6886 11.4649C15.6787 11.4747 14.6838 11.2204 13.8024 10.7273C12.9379 10.2473 12.2181 9.54405 11.718 8.69096C11.1986 7.78972 10.9326 6.76474 10.9484 5.72464C10.9325 4.69467 11.1987 3.67998 11.718 2.79038C12.2143 1.93026 12.9347 1.22092 13.8024 0.737999C14.6839 0.245123 15.6787 -0.00911594 16.6886 0.000426409C17.6988 -0.0118835 18.6943 0.242535 19.5748 0.737999C20.4404 1.21814 21.1563 1.92849 21.6432 2.79038C22.1625 3.67998 22.4286 4.69467 22.4128 5.72464C22.4286 6.76474 22.1626 7.78972 21.6432 8.69096C21.1523 9.54565 20.437 10.2498 19.5748 10.7273C18.6931 11.2205 17.6978 11.4747 16.6876 11.4649H16.6886ZM16.6886 9.4606C17.3114 9.47354 17.9262 9.31846 18.4684 9.01164C18.9864 8.69698 19.4037 8.24079 19.671 7.69684C19.9706 7.08339 20.119 6.40716 20.1039 5.72464C20.12 5.04715 19.9715 4.37586 19.671 3.76846C19.4062 3.22591 18.9881 2.77295 18.4684 2.46569C17.9262 2.15883 17.3114 2.00373 16.6886 2.01673C16.0608 2.00491 15.4411 2.15984 14.8928 2.46569C14.3731 2.77295 13.955 3.22591 13.6902 3.76846C13.3897 4.37586 13.2411 5.04715 13.2573 5.72464C13.2422 6.40716 13.3906 7.08339 13.6902 7.69684C13.9575 8.24079 14.3748 8.69698 14.8928 9.01164C15.4408 9.31746 16.0601 9.47238 16.6876 9.4606H16.6886ZM36.2854 0.160772V11.3526H34.0366V4.07311L31.0412 11.3526H29.3376L26.3232 4.07311V11.3526H24.0783V0.160772H26.6278L30.1874 8.47851L33.7469 0.160772H36.2854ZM40.7489 1.97263V4.77862H44.5169V6.55842H40.7509V9.52474H44.9999V11.3526H38.5061V0.144739H44.9999V1.97263H40.7489Z" fill="black"/>
</svg>
