<svg width="234" height="18" viewBox="0 0 234 18" fill="none" xmlns="http://www.w3.org/2000/svg">
<path d="M0 16.9123V0.344358H4.38078C6.59173 0.220758 8.77425 0.890006 10.5359 2.23172C12.2189 3.93532 13.1628 6.23361 13.1628 8.62838C13.1628 11.0231 12.2189 13.3214 10.5359 15.025C8.76427 16.3719 6.56955 17.0413 4.34778 16.9123H0ZM1.97735 15.25H4.24676C5.98352 15.3469 7.69848 14.8257 9.08763 13.7788C10.4058 12.3884 11.1414 10.5459 11.1435 8.63002C11.1455 6.71411 10.4138 4.87017 9.09863 3.47694C7.69815 2.42671 5.97141 1.90556 4.22376 2.00567H1.97735V15.25ZM16.72 16.9123V0.344358H18.6974V16.9123H16.72ZM22.106 12.0935H24.0263C24.0051 12.9444 24.2925 13.7743 24.8355 14.4299C25.2773 14.8285 25.7966 15.1319 26.3608 15.3212C26.925 15.5105 27.5222 15.5816 28.115 15.5301C29.2105 15.6102 30.2985 15.2951 31.1816 14.6419C31.4997 14.3725 31.7529 14.0347 31.9221 13.6536C32.0913 13.2726 32.1722 12.8583 32.1588 12.4416C32.1776 12.03 32.0917 11.6204 31.909 11.2512C31.7264 10.8819 31.4531 10.565 31.1146 10.3302C30.7452 10.0781 30.3452 9.87413 29.9244 9.72305C29.1873 9.46729 28.4375 9.24995 27.678 9.07194C26.8804 8.87892 26.0932 8.64522 25.3195 8.3718C24.8303 8.1874 24.3662 7.94211 23.9383 7.64169C23.4705 7.29137 23.0987 6.82866 22.8573 6.29648C22.6159 5.76429 22.5126 5.17983 22.557 4.59714C22.5137 3.44076 22.9297 2.31421 23.7143 1.46358C24.2518 0.952812 24.8902 0.560053 25.5885 0.310477C26.2867 0.0609012 27.0294 -0.040017 27.769 0.0142814C31.3183 0.0142814 33.1043 1.70694 33.1269 5.09222H31.2066C31.2332 4.28272 31.0055 3.48521 30.5555 2.81178C30.2123 2.4298 29.7852 2.13256 29.3078 1.9434C28.8304 1.75424 28.3157 1.67836 27.804 1.72162C26.9103 1.66224 26.0273 1.94347 25.3325 2.50875C25.0674 2.74499 24.8567 3.03604 24.7151 3.36174C24.5734 3.68745 24.5043 4.04001 24.5124 4.39507C24.4913 4.7863 24.5801 5.17564 24.7687 5.51905C24.9573 5.86247 25.2382 6.14626 25.5796 6.33841C25.9097 6.53287 26.2597 6.6912 26.6238 6.81055C27.0058 6.9379 27.6536 7.11389 28.5671 7.33859C29.4678 7.54469 30.3533 7.81208 31.2176 8.13879C31.7804 8.36557 32.3037 8.68015 32.7679 9.0709C33.2257 9.4668 33.5871 9.962 33.8246 10.5187C34.062 11.0755 34.1693 11.6791 34.1381 12.2835C34.1692 12.9368 34.0588 13.5892 33.8145 14.1959C33.5703 14.8027 33.1979 15.3495 32.7229 15.7992C31.4367 16.8414 29.8023 17.3556 28.151 17.2374C25.7099 17.2374 23.999 16.5896 23.0181 15.2941C22.3791 14.3524 22.06 13.2306 22.106 12.0935ZM37.4407 16.9123V0.344358H42.0125C42.9502 0.325265 43.8876 0.392236 44.813 0.544406C45.4632 0.654477 46.0877 0.882982 46.6554 1.21854C47.3324 1.61861 47.8756 2.21022 48.2167 2.91879C48.5964 3.70195 48.785 4.56406 48.7667 5.43426C48.8245 6.15632 48.7053 6.8816 48.4195 7.54719C48.1336 8.21278 47.6898 8.79863 47.1265 9.25398C45.5963 10.1862 43.8121 10.6144 42.0255 10.4782H39.4201V16.9123H37.4407ZM39.4181 8.8479H42.1246C43.2767 8.93281 44.4284 8.67898 45.4382 8.11772C45.8696 7.81396 46.2158 7.40446 46.4435 6.92843C46.6712 6.45239 46.7727 5.92584 46.7384 5.39928C46.7699 4.89492 46.6756 4.39063 46.4638 3.93179C46.252 3.47296 45.9295 3.074 45.5252 2.77082C44.5131 2.18116 43.3452 1.91452 42.1776 2.00664H39.4201L39.4181 8.8479ZM51.9433 16.9123V0.344358H53.9207V15.2471H61.458V16.9123H51.9433ZM73.3692 12.2625H66.3379L64.5806 16.9123H62.5362L69.0514 0.344358H70.6467L77.1608 16.9123H75.1165L73.3692 12.2625ZM72.7691 10.6442L69.8485 2.88284L66.917 10.6442H72.7691ZM82.0637 16.9123V10.4312L76.4247 0.344358H78.5811L83.0519 8.4768L87.5117 0.344358H89.6681L84.0401 10.4312V16.9123H82.0637ZM96.8784 16.9123V0.344358H102C102.857 0.328358 103.714 0.384909 104.562 0.513394C105.15 0.607993 105.716 0.80572 106.235 1.09748C106.884 1.46931 107.405 2.02903 107.729 2.70281C108.093 3.45909 108.274 4.2902 108.257 5.12921C108.293 5.76289 108.187 6.39652 107.948 6.98453C107.71 7.57254 107.343 8.10033 106.876 8.52985C106.382 8.91867 105.833 9.23275 105.247 9.46202C105.646 9.67522 105.986 9.98458 106.235 10.3621C106.555 10.8863 106.808 11.4485 106.988 12.0355L108.616 16.9123H106.438L105.18 13.0487C104.993 12.4566 104.872 12.1045 104.82 11.9924C104.736 11.7972 104.636 11.6095 104.52 11.4314C104.259 10.9627 103.864 10.5829 103.386 10.3411C102.746 10.1267 102.071 10.0354 101.397 10.0721H98.8517V16.9123H96.8784ZM98.8557 8.4428H101.856C102.93 8.52665 104.007 8.31314 104.968 7.82568C105.39 7.5414 105.73 7.1507 105.953 6.69303C106.176 6.23536 106.274 5.72699 106.237 5.21926C106.272 4.72322 106.182 4.22626 105.974 3.7746C105.766 3.32294 105.447 2.93121 105.047 2.63578C104.11 2.13751 103.049 1.9191 101.991 2.00664H98.8517L98.8557 8.4428ZM112.054 16.9123V0.344358H122.287V2.00963H114.031V7.47961H120.917V9.13091H114.031V15.253H122.467V16.9123H112.054ZM124.718 12.0935H126.64C126.618 12.9443 126.905 13.7742 127.448 14.4299C127.89 14.8286 128.409 15.1319 128.974 15.3212C129.538 15.5105 130.135 15.5816 130.728 15.5301C131.824 15.6101 132.912 15.295 133.795 14.6419C134.113 14.3724 134.366 14.0346 134.535 13.6536C134.705 13.2726 134.786 12.8582 134.772 12.4416C134.791 12.0299 134.705 11.6203 134.522 11.251C134.339 10.8818 134.066 10.5649 133.727 10.3302C133.358 10.0781 132.958 9.87408 132.537 9.72305C131.8 9.46742 131.05 9.25009 130.29 9.07194C129.492 8.87891 128.705 8.64522 127.931 8.3718C127.442 8.18736 126.978 7.94208 126.55 7.64169C126.082 7.29137 125.71 6.82866 125.469 6.29648C125.227 5.76429 125.124 5.17983 125.168 4.59714C125.125 3.4409 125.54 2.31437 126.325 1.46358C126.862 0.952864 127.501 0.560111 128.199 0.310538C128.897 0.0609655 129.64 -0.0399547 130.379 0.0142814C133.929 0.0142814 135.715 1.70694 135.737 5.09222H133.817C133.843 4.28275 133.616 3.4853 133.166 2.81178C132.822 2.42978 132.395 2.13255 131.918 1.9434C131.44 1.75425 130.925 1.67835 130.413 1.72162C129.52 1.66234 128.637 1.94355 127.942 2.50875C127.677 2.74513 127.467 3.03624 127.325 3.36193C127.184 3.68762 127.115 4.0401 127.123 4.39507C127.102 4.7863 127.191 5.17564 127.379 5.51905C127.568 5.86247 127.849 6.14626 128.19 6.33841C128.52 6.53305 128.87 6.69138 129.234 6.81055C129.616 6.9379 130.264 7.11389 131.178 7.33859C132.078 7.54469 132.964 7.81208 133.828 8.13879C134.391 8.36554 134.914 8.68012 135.378 9.0709C135.836 9.46685 136.197 9.96207 136.435 10.5188C136.672 11.0755 136.78 11.6791 136.749 12.2835C136.779 12.9368 136.669 13.5891 136.425 14.1958C136.181 14.8026 135.808 15.3495 135.333 15.7992C134.047 16.8414 132.413 17.3556 130.761 17.2374C128.321 17.2374 126.61 16.5896 125.629 15.2941C124.992 14.3514 124.675 13.2297 124.723 12.0935H124.718ZM146.773 0.0183105C147.887 -0.0627999 149.002 0.144832 150.011 0.62108C151.021 1.09733 151.89 1.82608 152.535 2.73682C153.545 4.5364 154.075 6.56509 154.075 8.62838C154.075 10.6917 153.545 12.7203 152.535 14.5199C151.307 16.3322 149.345 17.2384 146.65 17.2384C143.955 17.2384 141.993 16.3322 140.764 14.5199C139.755 12.7203 139.225 10.6917 139.225 8.62838C139.225 6.56509 139.755 4.5364 140.764 2.73682C141.435 1.72337 142.411 0.948765 143.55 0.524383C144.588 0.166577 145.681 -0.00474282 146.778 0.0183105H146.773ZM146.56 1.75959C145.782 1.70078 145.001 1.8411 144.292 2.16726C143.582 2.49341 142.968 2.99468 142.506 3.62394C141.585 5.12631 141.146 6.87462 141.247 8.63387C141.247 13.2094 143.048 15.4971 146.648 15.4971C150.249 15.4971 152.049 13.2207 152.049 8.66787C152.16 6.89721 151.721 5.13562 150.792 3.62394C150.364 3.00413 149.773 2.51444 149.085 2.20871C148.283 1.88738 147.424 1.73448 146.56 1.75959ZM157.634 16.9123V0.344358H159.612V15.2471H167.148V16.9123H157.634ZM169.377 0.344358H171.355V10.6892C171.282 11.808 171.489 12.9272 171.955 13.9468C172.358 14.4312 172.862 14.8211 173.433 15.0886C174.003 15.3561 174.625 15.4948 175.255 15.4948C175.885 15.4948 176.508 15.3561 177.078 15.0886C177.649 14.8211 178.153 14.4312 178.556 13.9468C179.02 12.9266 179.226 11.8079 179.156 10.6892V0.344358H181.133V10.0381C181.155 11.0974 181.091 12.1568 180.941 13.2057C180.832 13.8713 180.591 14.5086 180.234 15.081C179.301 16.5193 177.642 17.2384 175.258 17.2384C172.875 17.2384 171.216 16.5193 170.283 15.081C169.925 14.5086 169.685 13.8713 169.574 13.2057C169.425 12.1567 169.361 11.0974 169.383 10.0381L169.377 0.344358ZM188.58 16.9123V2.00963H183.851V0.347349H195.296V2.00963H190.556V16.9123H188.58ZM198.11 16.9123V0.344358H200.087V16.9123H198.11ZM211.19 0.0183105C212.303 -0.0627999 213.418 0.144832 214.428 0.62108C215.437 1.09733 216.307 1.82608 216.952 2.73682C217.961 4.5364 218.491 6.56509 218.491 8.62838C218.491 10.6917 217.961 12.7203 216.952 14.5199C215.724 16.3322 213.762 17.2384 211.067 17.2384C208.372 17.2384 206.41 16.3322 205.181 14.5199C204.172 12.7203 203.641 10.6917 203.641 8.62838C203.641 6.56509 204.172 4.5364 205.181 2.73682C205.852 1.72337 206.827 0.948765 207.966 0.524383C209.003 0.167159 210.094 -0.00415184 211.19 0.0183105ZM210.977 1.75959C210.198 1.70078 209.418 1.8411 208.708 2.16726C207.999 2.49341 207.384 2.99468 206.922 3.62394C206.001 5.12631 205.562 6.87462 205.664 8.63387C205.664 13.2094 207.464 15.4971 211.065 15.4971C214.666 15.4971 216.466 13.2207 216.466 8.66787C216.576 6.89721 216.137 5.13562 215.209 3.62394C214.781 3.00413 214.19 2.51444 213.501 2.20871C212.7 1.88738 211.84 1.73448 210.977 1.75959ZM222.046 16.9123V0.344358H223.955L232.057 12.7116V0.344358H234V17.1254H232.676L223.989 3.70995V16.9123H222.046Z" fill="#6C757D"/>
</svg>
