<svg width="59" height="18" viewBox="0 0 59 18" fill="none" xmlns="http://www.w3.org/2000/svg">
<path d="M4.61149 17.644V1.67781L0 3.31934V2.14696L5.00163 0.353375H5.88192V17.644H4.61149ZM15.9052 8.91115C16.4521 8.24214 17.1496 7.71211 17.9407 7.36439C18.7317 7.01666 19.5939 6.86112 20.4566 6.9105C21.8016 6.85406 23.1296 7.22758 24.2479 7.97686C24.9422 8.47034 25.5013 9.13056 25.8737 9.89673C26.246 10.6629 26.4196 11.5104 26.3786 12.3613C26.4188 13.191 26.2642 14.0186 25.9273 14.7778C25.5903 15.5371 25.0802 16.2069 24.4379 16.7337C23.2857 17.6099 21.8627 18.0538 20.4167 17.9881C19.5589 18.0438 18.6995 17.9052 17.9028 17.5825C17.1061 17.2598 16.3924 16.7614 15.8151 16.1245C14.8344 14.7313 14.371 13.0394 14.5047 11.341C14.4835 9.31966 14.6645 7.30128 15.0449 5.31599C15.2938 3.83912 15.9803 2.47098 17.0155 1.38872C17.5303 0.915935 18.1344 0.551003 18.7924 0.31546C19.4504 0.0799171 20.1489 -0.0214693 20.8468 0.0172672C21.6464 -0.0505855 22.4504 0.0822178 23.1858 0.403623C23.9212 0.725029 24.5647 1.22487 25.0581 1.85786C25.5484 2.58134 25.8352 3.42333 25.8884 4.29567H24.638C24.5578 3.61187 24.299 2.96121 23.8878 2.40904C23.503 1.97786 23.0239 1.64135 22.4878 1.42568C21.9517 1.21002 21.373 1.12103 20.7968 1.16565C19.8513 1.12401 18.923 1.42842 18.1859 2.02192C17.409 2.76483 16.8489 3.705 16.5653 4.7418C16.1688 6.09784 15.947 7.49894 15.9052 8.91115ZM20.4067 8.05489C19.2357 7.99703 18.0857 8.382 17.1855 9.13324C16.7375 9.54805 16.3855 10.0557 16.1539 10.6207C15.9224 11.1857 15.817 11.7944 15.8451 12.4043C15.8232 13.0275 15.9351 13.6481 16.1732 14.2245C16.4114 14.8008 16.7702 15.3194 17.2256 15.7454C18.1563 16.4522 19.2929 16.8349 20.4616 16.8349C21.6303 16.8349 22.7669 16.4522 23.6977 15.7454C24.1528 15.3241 24.5118 14.8096 24.75 14.237C24.9882 13.6643 25.1001 13.0471 25.0781 12.4273C25.1096 11.8355 25.0144 11.2438 24.7987 10.6917C24.5831 10.1397 24.252 9.64004 23.8277 9.22626C22.8823 8.40713 21.6558 7.98716 20.4067 8.05489ZM31.7704 15.7684C31.9175 15.766 32.0636 15.794 32.1996 15.8504C32.3355 15.9068 32.4583 15.9906 32.5605 16.0965C32.6658 16.1976 32.7494 16.319 32.8062 16.4535C32.863 16.5879 32.8918 16.7325 32.8908 16.8784C32.8899 17.0243 32.8593 17.1686 32.8008 17.3023C32.7423 17.4359 32.6572 17.5563 32.5506 17.656C32.3354 17.8663 32.0463 17.9841 31.7453 17.9841C31.4444 17.9841 31.1553 17.8663 30.94 17.656C30.8355 17.5536 30.7526 17.4313 30.6959 17.2964C30.6392 17.1615 30.6101 17.0166 30.6101 16.8703C30.6101 16.7239 30.6392 16.579 30.6959 16.4441C30.7526 16.3092 30.8355 16.187 30.94 16.0845C31.1646 15.8744 31.4629 15.7609 31.7704 15.7684ZM43.214 0.0132681C43.9259 0.000339731 44.633 0.132983 45.2918 0.403043C45.9507 0.673104 46.5474 1.0749 47.0453 1.58379C48.5858 3.11762 49.356 5.58741 49.356 8.99318C49.4295 10.9425 49.0565 12.8828 48.2657 14.666C47.8448 15.6742 47.1279 16.531 46.21 17.1234C45.292 17.7157 44.2161 18.0159 43.124 17.9841C42.3978 18.0037 41.6753 17.8745 41.0009 17.6044C40.3265 17.3343 39.7146 16.9291 39.2027 16.4136C38.1619 15.289 37.4764 13.882 37.2321 12.3693C37.009 11.2536 36.8951 10.1189 36.892 8.98118C36.8901 7.93819 36.9905 6.89753 37.192 5.87418C37.3423 4.99515 37.6081 4.13982 37.9823 3.33036C38.4177 2.31406 39.1506 1.4533 40.0843 0.861261C41.0181 0.269219 42.1091 -0.026405 43.214 0.0132681ZM43.0639 1.16165C42.5222 1.15456 41.9847 1.25796 41.4842 1.46555C40.9837 1.67314 40.5308 1.98057 40.1531 2.36905C38.8427 3.67414 38.1858 5.88585 38.1825 9.0042C38.11 10.7836 38.4453 12.556 39.1628 14.1859C39.479 14.9773 40.0278 15.6542 40.7369 16.1272C41.4459 16.6001 42.2818 16.8468 43.134 16.8348C43.8694 16.8522 44.5956 16.6695 45.2352 16.3062C45.8748 15.9429 46.4036 15.4126 46.7652 14.7721C47.7289 13.0047 48.1793 11.003 48.0656 8.99318C48.1425 7.21449 47.8106 5.44186 47.0953 3.8115C46.7684 3.01518 46.2086 2.33615 45.4893 1.86333C44.77 1.3905 43.9246 1.14593 43.0639 1.16165ZM52.267 4.92487L53.5074 0.353375H55.308L53.4573 4.92487H52.267ZM55.7581 4.92487L56.9985 0.353375H58.8092L56.9485 4.92487H55.7581Z" fill="#1E1E1E"/>
</svg>
