<svg width="131" height="18" viewBox="0 0 131 18" fill="none" xmlns="http://www.w3.org/2000/svg">
<path d="M0 17.6439C0.172264 16.5549 0.62361 15.529 1.31019 14.6663C2.48998 13.3528 3.8041 12.1665 5.23097 11.1267C6.68359 10.0732 8.01822 8.86591 9.21171 7.52594C9.84864 6.72538 10.2006 5.73538 10.2119 4.71242C10.2267 4.23731 10.1377 3.76472 9.95111 3.32751C9.76455 2.89031 9.48498 2.499 9.13174 2.18093C8.26244 1.43917 7.14248 1.05776 6.00114 1.11475C5.27171 1.07056 4.5427 1.20798 3.8794 1.51467C3.2161 1.82136 2.63918 2.28775 2.20037 2.87211C1.74185 3.61204 1.45481 4.44522 1.36024 5.31056H0.140041C0.250246 4.03435 0.729881 2.8179 1.52031 1.80989C2.09278 1.19877 2.79285 0.72126 3.57075 0.411311C4.34865 0.101361 5.18528 -0.0334446 6.02116 0.0165215C7.51667 -0.0613478 8.98904 0.409596 10.1618 1.34081C10.6411 1.74853 11.0211 2.26037 11.2724 2.83725C11.5237 3.41413 11.64 4.0408 11.6122 4.66944C11.615 5.3828 11.4768 6.08969 11.2056 6.74949C10.9344 7.40929 10.5355 8.009 10.0318 8.51417C9.55172 9.01426 9.15167 9.41436 8.81161 9.69841C8.47155 9.98247 7.53142 10.7176 5.99113 11.9138C4.85799 12.7635 3.77591 13.6793 2.75052 14.6563C2.23073 15.1966 1.82877 15.8389 1.57024 16.5427H12.1323V17.6439H0ZM18.8235 8.49018C18.0893 8.24635 17.4217 7.83549 16.8732 7.28994C16.2225 6.55069 15.8789 5.59069 15.9129 4.60644C15.8848 3.93969 16.0216 3.27628 16.3112 2.67505C16.6008 2.07382 17.0343 1.55331 17.5733 1.15974C18.749 0.341355 20.1635 -0.0626109 21.5941 0.0115157C23.1272 -0.0817551 24.6408 0.39406 25.8449 1.34777C26.309 1.74851 26.6776 2.24814 26.9233 2.80996C27.1691 3.37178 27.2859 3.98155 27.2652 4.59442C27.2988 5.44808 27.049 6.28889 26.555 6.98586C25.9859 7.6879 25.2249 8.20919 24.3646 8.48615C25.2593 8.73229 26.0756 9.20455 26.7351 9.85744C27.1322 10.2847 27.4409 10.7863 27.6434 11.3334C27.846 11.8804 27.9383 12.4621 27.9152 13.045C27.9403 13.7672 27.7831 14.4842 27.458 15.1296C27.1328 15.775 26.6502 16.3281 26.0549 16.7377C24.7373 17.6143 23.1751 18.0494 21.5941 17.98C19.9096 18.07 18.2468 17.5684 16.8932 16.5617C16.3648 16.1444 15.9419 15.6086 15.6587 14.9978C15.3755 14.3869 15.24 13.7179 15.2629 13.045C15.2211 12.0177 15.5354 11.0075 16.153 10.1855C16.8479 9.35954 17.7804 8.7676 18.8235 8.49018ZM21.544 1.16377C20.3319 1.06147 19.1282 1.44054 18.1934 2.21897C17.8876 2.52087 17.6479 2.883 17.4895 3.28246C17.3311 3.68192 17.2575 4.10998 17.2733 4.53941C17.25 5.02083 17.3422 5.5008 17.5423 5.93928C17.7424 6.37776 18.0445 6.76203 18.4234 7.05991C19.35 7.70507 20.4671 8.01903 21.5941 7.95107C22.7945 8.03778 23.9836 7.66922 24.9247 6.91883C25.2517 6.61771 25.5089 6.24874 25.6782 5.8377C25.8475 5.42665 25.9249 4.98352 25.9048 4.53941C25.9317 4.06242 25.843 3.58601 25.6462 3.15066C25.4495 2.71532 25.1505 2.33392 24.7747 2.03894C23.825 1.39629 22.6882 1.08835 21.544 1.16377ZM21.534 9.09924C20.2685 9.03666 19.0185 9.3997 17.9834 10.1304C17.5475 10.4422 17.1952 10.8567 16.9579 11.3372C16.7206 11.8177 16.6057 12.3494 16.6232 12.885C16.5992 13.468 16.7245 14.0474 16.987 14.5684C17.2495 15.0895 17.6407 15.5349 18.1234 15.8625C19.1568 16.5225 20.3693 16.8461 21.5941 16.7887C22.9133 16.8628 24.2174 16.4775 25.2847 15.6985C25.7009 15.3608 26.0325 14.9306 26.253 14.4422C26.4736 13.9537 26.5769 13.4205 26.555 12.885C26.5737 12.3072 26.4405 11.7346 26.1684 11.2245C25.8963 10.7144 25.4951 10.2847 25.0047 9.97844C23.9597 9.35002 22.7522 9.04415 21.534 9.09924ZM34.1065 8.49018C33.3751 8.24652 32.7106 7.83553 32.166 7.28994C31.5083 6.55424 31.1607 5.59266 31.1959 4.60644C31.1699 3.94001 31.3076 3.27731 31.5971 2.67645C31.8865 2.07559 32.3189 1.55483 32.8562 1.15974C34.0319 0.341355 35.4465 -0.0626109 36.877 0.0115157C38.4101 -0.0817551 39.9238 0.39406 41.1278 1.34777C41.5937 1.74707 41.9634 2.24645 42.2093 2.80862C42.4552 3.37078 42.571 3.98124 42.548 4.59442C42.5816 5.44808 42.332 6.28889 41.8379 6.98586C41.2688 7.6879 40.5078 8.20919 39.6475 8.48615C40.5423 8.73229 41.3586 9.20455 42.018 9.85744C42.4151 10.2848 42.7237 10.7863 42.9262 11.3334C43.1288 11.8804 43.2212 12.4621 43.1981 13.045C43.2233 13.7672 43.0661 14.4842 42.7409 15.1296C42.4158 15.775 41.9332 16.3281 41.3378 16.7377C40.0202 17.6143 38.4581 18.0494 36.877 17.98C35.1926 18.0699 33.5296 17.5683 32.176 16.5617C31.6476 16.1444 31.2249 15.6086 30.9417 14.9978C30.6585 14.3869 30.5228 13.7179 30.5457 13.045C30.504 12.0177 30.8184 11.0076 31.4359 10.1855C32.1307 9.35944 33.0632 8.76748 34.1065 8.49018ZM36.8269 1.16377C35.6148 1.06147 34.4111 1.44054 33.4763 2.21897C33.1705 2.52087 32.9309 2.883 32.7725 3.28246C32.6141 3.68192 32.5403 4.10998 32.5561 4.53941C32.5328 5.02083 32.6251 5.5008 32.8252 5.93928C33.0253 6.37776 33.3274 6.76203 33.7064 7.05991C34.6329 7.70507 35.75 8.01903 36.877 7.95107C38.0803 8.03589 39.2719 7.66768 40.2176 6.91883C40.5414 6.61571 40.7959 6.24611 40.9633 5.83538C41.1308 5.42464 41.2073 4.98255 41.1878 4.53941C41.2146 4.06242 41.1259 3.58601 40.9292 3.15066C40.7324 2.71532 40.4333 2.33392 40.0575 2.03894C39.1085 1.39495 37.9713 1.08689 36.8269 1.16377ZM36.8169 9.09924C35.5516 9.03821 34.3021 9.40111 33.2663 10.1304C32.8304 10.4422 32.4782 10.8567 32.2409 11.3372C32.0036 11.8177 31.8885 12.3494 31.906 12.885C31.882 13.468 32.0073 14.0474 32.2698 14.5684C32.5323 15.0895 32.9235 15.5349 33.4062 15.8625C34.4396 16.5225 35.6522 16.8461 36.877 16.7887C38.1963 16.8628 39.5004 16.4775 40.5676 15.6985C40.9838 15.3608 41.3153 14.9306 41.5358 14.4421C41.7564 13.9537 41.8598 13.4205 41.8379 12.885C41.8588 12.3068 41.7264 11.7334 41.4542 11.2229C41.1819 10.7125 40.7794 10.2831 40.2876 9.97844C39.2425 9.34997 38.0351 9.04409 36.8169 9.09924ZM52.2599 0.0155448C52.9731 0.00353671 53.6812 0.136557 54.3414 0.406488C55.0016 0.67642 55.6001 1.07764 56.1006 1.58585C57.6342 3.11947 58.4011 5.58893 58.4011 8.99424C58.4745 10.9433 58.1015 12.8834 57.3108 14.6663C56.8906 15.6748 56.1741 16.532 55.2561 17.1244C54.3381 17.7168 53.2619 18.0166 52.1698 17.984C51.4452 18.0035 50.7244 17.8742 50.0517 17.6041C49.3791 17.3341 48.769 16.9289 48.2592 16.4137C47.2146 15.2919 46.5284 13.8839 46.2887 12.3699C46.0607 11.2551 45.9468 10.1201 45.9487 8.98227C45.9434 7.93974 46.0406 6.8992 46.2388 5.87567C46.3873 4.99509 46.6565 4.13917 47.0388 3.33215C47.471 2.31578 48.2016 1.45454 49.1338 0.862324C50.0661 0.270112 51.1562 -0.0251475 52.2599 0.0155448ZM52.1099 1.16377C51.5684 1.1586 51.0315 1.26284 50.5313 1.47029C50.0312 1.67774 49.5781 1.98409 49.1993 2.37097C47.889 3.67589 47.2356 5.8873 47.239 9.00523C47.1637 10.7836 47.4955 12.5556 48.2091 14.1863C48.5265 14.9768 49.0756 15.6528 49.7842 16.1255C50.4929 16.5982 51.328 16.8454 52.1798 16.8347C52.9151 16.8521 53.6413 16.6695 54.2808 16.3062C54.9203 15.943 55.449 15.4128 55.8105 14.7724C56.7741 13.0052 57.2245 11.0038 57.1108 8.99424C57.1877 7.21579 56.8558 5.44341 56.1407 3.81326C55.8149 3.01631 55.2553 2.33665 54.5359 1.86374C53.8164 1.39082 52.9707 1.14681 52.1099 1.16377ZM64.6722 10.9156L60.6115 5.20751H62.0717L65.4824 9.99046L68.9031 5.20751H70.3333L66.0925 10.8456L70.9334 17.6469H69.4832L65.2824 11.7628L61.3116 17.6439H59.8814L64.6722 10.9156ZM78.2749 17.6439V1.67986L73.6639 3.32117V2.14895L78.655 0.355636H79.5351V17.6439H78.2749ZM89.5569 8.91225C90.1052 8.24235 90.8044 7.7118 91.5971 7.36411C92.3899 7.01641 93.2537 6.86146 94.1178 6.91187C95.4623 6.85835 96.7892 7.23154 97.9086 7.97806C98.6029 8.47147 99.1619 9.1316 99.5342 9.89767C99.9064 10.6637 100.08 11.5111 100.039 12.3619C100.08 13.1925 99.9243 14.021 99.5854 14.7805C99.2466 15.54 98.7338 16.2091 98.0886 16.7337C96.938 17.6126 95.514 18.0568 94.0678 17.988C93.2116 18.0437 92.3539 17.9051 91.5589 17.5824C90.7639 17.2597 90.0521 16.7614 89.477 16.1246C88.4964 14.7316 88.0329 13.0399 88.1666 11.3417C88.1455 9.32064 88.3265 7.30261 88.7068 5.31758C88.9514 3.83952 89.6384 2.47035 90.6771 1.39081C91.1913 0.917331 91.7953 0.552001 92.4533 0.316444C93.1114 0.0808871 93.8101 -0.0200681 94.5079 0.0195739C95.3062 -0.0494014 96.109 0.0829029 96.8429 0.404413C97.5767 0.725922 98.2182 1.22634 98.7087 1.85989C99.2021 2.58239 99.4923 3.42426 99.5488 4.29736H98.2887C98.2531 3.83631 98.1243 3.38728 97.9102 2.97741C97.6961 2.56754 97.4011 2.20532 97.043 1.91276C96.6849 1.62019 96.2711 1.40336 95.8268 1.27531C95.3825 1.14725 94.9168 1.11063 94.4579 1.16774C93.5125 1.1261 92.5845 1.43051 91.8474 2.02392C91.0709 2.76612 90.5108 3.70544 90.2271 4.74142C89.8315 6.09848 89.6063 7.49957 89.5569 8.91225ZM94.0578 8.05607C92.8902 7.99978 91.7442 8.38466 90.8472 9.13428C90.396 9.547 90.0412 10.054 89.8078 10.6192C89.5745 11.1844 89.4683 11.7941 89.497 12.4049C89.4746 13.029 89.5872 13.6506 89.8271 14.2271C90.0671 14.8037 90.4287 15.3216 90.8873 15.7455C91.8161 16.4521 92.9509 16.8347 94.1178 16.8347C95.2848 16.8347 96.4196 16.4521 97.3484 15.7455C97.8067 15.3263 98.1683 14.8125 98.4083 14.2396C98.6484 13.6668 98.7612 13.0486 98.7387 12.4279C98.7708 11.8352 98.6749 11.2425 98.4574 10.6902C98.24 10.1379 97.906 9.63901 97.4785 9.22732C96.5349 8.40522 95.3072 7.98484 94.0578 8.05607ZM102.98 17.6439C103.156 16.5562 103.607 15.5314 104.29 14.6663C105.47 13.3528 106.784 12.1665 108.21 11.1267C109.663 10.0732 110.998 8.86594 112.191 7.52594C112.828 6.72538 113.18 5.73538 113.191 4.71242C113.206 4.23731 113.117 3.76472 112.931 3.32751C112.744 2.89031 112.465 2.499 112.111 2.18093C111.242 1.43917 110.122 1.05776 108.981 1.11475C108.251 1.07056 107.522 1.20798 106.859 1.51467C106.196 1.82136 105.619 2.28775 105.18 2.87211C104.721 3.61207 104.434 4.44524 104.34 5.31056H103.12C103.23 4.03435 103.709 2.8179 104.5 1.80989C105.072 1.19877 105.772 0.72126 106.55 0.411311C107.328 0.101361 108.165 -0.0334446 109.001 0.0165215C110.496 -0.0612549 111.969 0.409679 113.141 1.34081C113.621 1.74853 114.001 2.26037 114.252 2.83725C114.503 3.41413 114.619 4.0408 114.592 4.66944C114.595 5.3828 114.456 6.08969 114.185 6.74949C113.914 7.40929 113.515 8.009 113.011 8.51417C112.531 9.01426 112.131 9.41436 111.791 9.69841C111.451 9.98247 110.521 10.7176 108.971 11.9138C107.838 12.7636 106.755 13.6793 105.73 14.6563C105.21 15.1966 104.808 15.839 104.55 16.5427H115.112V17.6439H102.98ZM124.674 0.0155448C125.385 0.00261815 126.092 0.135243 126.751 0.405267C127.41 0.675292 128.006 1.07703 128.504 1.58585C130.045 3.11947 130.815 5.58893 130.815 8.99424C130.888 10.9433 130.515 12.8834 129.725 14.6663C129.304 15.6743 128.587 16.531 127.669 17.1233C126.751 17.7156 125.675 18.0157 124.584 17.984C123.858 18.0026 123.136 17.873 122.461 17.603C121.787 17.333 121.175 16.9283 120.663 16.4137C119.622 15.2892 118.937 13.8824 118.692 12.3699C118.469 11.2544 118.356 10.1199 118.352 8.98227C118.35 7.93942 118.451 6.89887 118.653 5.87567C118.803 4.99674 119.068 4.14149 119.443 3.33215C119.878 2.31599 120.611 1.45539 121.544 0.863423C122.478 0.271461 123.569 -0.0241229 124.674 0.0155448ZM124.524 1.16377C123.982 1.1575 123.445 1.26125 122.944 1.46876C122.444 1.67628 121.991 1.98321 121.613 2.37097C120.303 3.67589 119.646 5.8873 119.643 9.00523C119.57 10.7844 119.906 12.5565 120.623 14.1863C120.94 14.9768 121.489 15.6528 122.198 16.1255C122.907 16.5982 123.742 16.8454 124.594 16.8347C125.329 16.8521 126.055 16.6695 126.694 16.3062C127.334 15.943 127.863 15.4128 128.224 14.7724C129.188 13.0052 129.638 11.0038 129.525 8.99424C129.602 7.21579 129.27 5.44338 128.554 3.81326C128.229 3.01631 127.669 2.33665 126.95 1.86374C126.23 1.39082 125.384 1.14681 124.524 1.16377Z" fill="#1E1E1E"/>
</svg>
