<svg width="38" height="14" viewBox="0 0 38 14" fill="none" xmlns="http://www.w3.org/2000/svg">
<path d="M0 13.6293V0.368248H3.33569C5.03372 0.286453 6.70778 0.794598 8.07383 1.80647C9.45005 3.184 10.223 5.05156 10.223 6.99876C10.223 8.94596 9.45005 10.8135 8.07383 12.191C6.69069 13.21 4.99718 13.7183 3.2815 13.6293H0ZM0.998311 12.7843H3.21907C4.72735 12.8737 6.2184 12.4246 7.42634 11.5169C8.55968 10.2854 9.18871 8.67291 9.18871 6.99926C9.18871 5.32561 8.55968 3.71311 7.42634 2.48159C6.21073 1.5689 4.70966 1.1192 3.19247 1.21318H0.998311V12.7843ZM19.3299 12.2002C19.1314 12.5987 18.8303 12.937 18.4574 13.1802C17.6258 13.6971 16.6586 13.9536 15.6802 13.9167C13.4441 13.9167 12.3261 12.9429 12.3261 10.9953C12.2758 10.4794 12.3714 9.95973 12.6019 9.4955C12.8325 9.03128 13.1888 8.64112 13.6303 8.36945C14.6224 7.95888 15.6968 7.78651 16.7675 7.86618C17.3908 7.86618 18.2388 7.90232 19.3115 7.97461V7.27289C19.3253 6.82972 19.2708 6.38709 19.1499 5.96051C19.0566 5.64663 18.8756 5.36592 18.6282 5.15138C18.0061 4.74513 17.2649 4.56126 16.5251 4.62969C16.1603 4.58661 15.7905 4.62652 15.4434 4.74644C15.0962 4.86636 14.7806 5.06318 14.5202 5.3222C14.2952 5.65807 14.1449 6.03827 14.0793 6.43717H13.1587C13.2182 6.00363 13.3359 5.5801 13.5085 5.17798C13.6569 4.87321 13.8757 4.60812 14.1468 4.40465C14.8548 3.94211 15.6949 3.72438 16.5384 3.78478C17.5283 3.69928 18.5185 3.94619 19.3524 4.48648C19.6919 4.81841 19.9517 5.22303 20.1123 5.66988C20.2728 6.11673 20.3299 6.59417 20.2792 7.06627V13.6293H19.3258L19.3299 12.2002ZM19.3115 8.82464C18.4666 8.74076 17.5947 8.69882 16.6959 8.69882C16.0843 8.68465 15.4729 8.73264 14.871 8.84204C14.4964 8.90684 14.1474 9.07514 13.8635 9.32792C13.6668 9.54617 13.5168 9.80226 13.4225 10.0805C13.3282 10.3588 13.2917 10.6533 13.3152 10.9462C13.2904 11.2428 13.3306 11.5413 13.4331 11.8208C13.5356 12.1003 13.6978 12.3541 13.9085 12.5644C14.4559 12.9491 15.1207 13.1301 15.7875 13.0759C16.7757 13.1366 17.748 12.8059 18.4942 12.1552C18.7873 11.834 19.0112 11.4559 19.152 11.0445C19.2927 10.6331 19.3474 10.1971 19.3125 9.76367L19.3115 8.82464ZM23.5821 13.6323V4.09368H24.5447V6.03722C24.8688 5.44175 25.3125 4.9197 25.8479 4.50387C26.4404 4.12685 27.1323 3.9359 27.8344 3.9556H28.2752V4.89054H27.996C27.5219 4.87581 27.0492 4.94898 26.6018 5.10637C26.2268 5.2551 25.8937 5.49276 25.6311 5.79888C25.172 6.32935 24.8069 6.93443 24.5518 7.58794V13.6293L23.5821 13.6323ZM30.4152 13.6323V0H31.3859V7.9654L35.8868 4.09062H37.0825L32.4886 8.10043L38.0001 13.6241H36.793L31.39 8.14032V13.6333L30.4152 13.6323Z" fill="#6C757D"/>
</svg>
