<svg width="328" height="219" viewBox="0 0 328 219" fill="none" xmlns="http://www.w3.org/2000/svg">
<path d="M9.00101 2H318.335V0H9.00101V2ZM325.335 9V210H327.335V9H325.335ZM318.335 217H9.00201V219H318.335V217ZM2.00101 210V9H0.00100708V210H2.00101ZM9.00101 217C7.14449 217 5.36399 216.262 4.05124 214.95C2.73848 213.637 2.00101 211.857 2.00101 210H0.00100708C0.00100708 212.387 0.949197 214.676 2.63702 216.364C4.32485 218.052 6.61406 219 9.00101 219V217ZM325.335 210C325.335 211.857 324.596 213.637 323.284 214.95C321.971 216.262 320.191 217 318.335 217V219C320.722 219 323.01 218.052 324.698 216.364C326.386 214.676 327.335 212.387 327.335 210H325.335ZM318.335 2C320.191 2 321.971 2.73748 323.284 4.05023C324.596 5.36299 325.335 7.14348 325.335 9H327.335C327.335 6.61305 326.386 4.32387 324.698 2.63605C323.01 0.94822 320.722 0 318.335 0V2ZM9 0C6.61305 0 4.32387 0.94822 2.63605 2.63605C0.94822 4.32387 0 6.61305 0 9H2C2 7.14348 2.73751 5.36299 4.05026 4.05023C5.36302 2.73748 7.14348 2 9 2V0Z" fill="#D9D9D9"/>
</svg>
