<svg width="194" height="24" viewBox="0 0 194 24" fill="none" xmlns="http://www.w3.org/2000/svg">
<path d="M3.70033 18.3019L0 5.21077H3.14529L5.44548 14.4115H5.56451L7.9167 5.21077H11.028L13.3812 14.3616H13.5082L15.7754 5.21077H18.9297L15.2233 18.3019H12.0101L9.55582 9.45113H9.37581L6.92061 18.3019H3.70033ZM23.6911 10.6312V18.3019H20.6058V0.85041H23.6231V7.43094H23.7761C24.0608 6.71838 24.558 6.1108 25.2002 5.6908C25.939 5.22873 26.8008 5.00201 27.6714 5.04072C28.5002 5.02104 29.3198 5.21757 30.0496 5.61083C30.7293 5.99605 31.2761 6.57833 31.6177 7.2809C32.0154 8.11698 32.2085 9.03576 32.1808 9.96119V18.3019H29.0955V10.4412C29.1407 9.69548 28.8964 8.96102 28.4135 8.39098C28.1711 8.13709 27.8762 7.93931 27.5493 7.81146C27.2225 7.68362 26.8716 7.62882 26.5213 7.65093C26.0111 7.64401 25.5073 7.76428 25.0552 8.00093C24.6304 8.23939 24.2816 8.59302 24.0491 9.02104C23.7976 9.51959 23.6745 10.073 23.6911 10.6312ZM40.6415 18.5619C39.456 18.5897 38.2838 18.3069 37.2413 17.7418C36.2957 17.1953 35.5332 16.381 35.05 15.4016C34.5445 14.2845 34.283 13.0725 34.283 11.8464C34.283 10.6202 34.5445 9.40808 35.05 8.291C35.5303 7.30492 36.2813 6.47588 37.2153 5.90078C38.2008 5.31275 39.3322 5.01466 40.4795 5.04072C41.2579 5.03581 42.0311 5.16784 42.7637 5.43076C43.4793 5.68341 44.131 6.08956 44.6729 6.62081C45.2585 7.20513 45.707 7.91229 45.986 8.69106C46.3246 9.64036 46.4863 10.6437 46.463 11.6513V12.6014H35.7321V10.5212H43.5058C43.51 9.97085 43.3781 9.42807 43.1218 8.94108C42.8784 8.48627 42.5162 8.10607 42.0737 7.84101C41.6022 7.57011 41.0662 7.43185 40.5225 7.44095C39.9358 7.43189 39.3589 7.59153 38.8604 7.90095C38.3887 8.19545 38.0033 8.60956 37.7433 9.10113C37.479 9.59658 37.3416 10.1497 37.3433 10.7113V12.5213C37.3242 13.1987 37.4675 13.8709 37.7613 14.4816C38.0204 15.003 38.426 15.4375 38.9284 15.7317C39.4675 16.0214 40.0727 16.166 40.6846 16.1517C41.0988 16.1588 41.5112 16.0946 41.9037 15.9617C42.2549 15.8389 42.577 15.6448 42.8497 15.3916C43.12 15.133 43.3255 14.8144 43.4498 14.4616L46.33 14.7916C46.158 15.5323 45.8004 16.2171 45.2909 16.7817C44.7547 17.3674 44.089 17.8196 43.3468 18.1019C42.4805 18.4183 41.5637 18.5742 40.6415 18.5619ZM48.5932 18.3019V5.21077H51.5855V7.3909H51.7215C51.9251 6.68754 52.3568 6.07185 52.9486 5.64074C53.5339 5.22953 54.2336 5.01263 54.9488 5.02069C55.1198 5.02069 55.3098 5.03072 55.5198 5.05073C55.7001 5.05658 55.8797 5.07671 56.0569 5.11079V7.94099C55.8532 7.88574 55.645 7.84894 55.4348 7.831C55.1666 7.79169 54.8958 7.77158 54.6247 7.77093C54.0969 7.76268 53.5755 7.88643 53.1076 8.13095C52.6729 8.36158 52.3102 8.70763 52.0595 9.13104C51.7997 9.57678 51.6672 10.0854 51.6765 10.6013V18.3019H48.5932ZM62.8865 18.5619C61.701 18.5897 60.5287 18.3069 59.4862 17.7418C58.5406 17.1954 57.7781 16.3811 57.295 15.4016C56.7894 14.2845 56.5279 13.0725 56.5279 11.8464C56.5279 10.6202 56.7894 9.40808 57.295 8.291C57.7753 7.30492 58.5262 6.47588 59.4602 5.90078C60.4457 5.31275 61.5771 5.01466 62.7244 5.04072C63.5028 5.03572 64.276 5.16776 65.0086 5.43076C65.7244 5.68375 66.3763 6.08984 66.9188 6.62081C67.5037 7.20553 67.9518 7.91258 68.231 8.69106C68.5696 9.64036 68.7312 10.6437 68.708 11.6513V12.6014H57.9801V10.5212H65.7537C65.7579 9.97085 65.626 9.42807 65.3697 8.94108C65.1264 8.48624 64.7642 8.10604 64.3216 7.84101C63.8502 7.57011 63.3141 7.43185 62.7705 7.44095C62.1838 7.43189 61.6069 7.59153 61.1083 7.90095C60.6367 8.19522 60.2515 8.60941 59.9922 9.10113C59.7274 9.59637 59.59 10.1497 59.5922 10.7113V12.5213C59.5732 13.1987 59.7165 13.8709 60.0102 14.4816C60.2693 15.003 60.6749 15.4375 61.1773 15.7317C61.7165 16.0214 62.3216 16.166 62.9335 16.1517C63.3478 16.1588 63.7602 16.0946 64.1526 15.9617C64.5039 15.8389 64.826 15.6448 65.0987 15.3916C65.3707 15.1335 65.578 14.8149 65.7037 14.4616L68.584 14.7916C68.4118 15.5323 68.0543 16.2171 67.5449 16.7817C67.0089 17.3672 66.3435 17.8193 65.6017 18.1019C64.7322 18.4193 63.812 18.5752 62.8865 18.5619ZM82.0231 18.5619C80.8411 18.5949 79.6739 18.2933 78.6558 17.6918C77.7257 17.1236 76.9776 16.3012 76.4997 15.3216C75.9828 14.2249 75.7261 13.0236 75.7496 11.8113C75.724 10.5938 75.9868 9.38749 76.5167 8.291C76.9933 7.30246 77.7451 6.47248 78.6818 5.90078C79.6884 5.31056 80.8396 5.01273 82.0061 5.04072C82.9794 5.01839 83.9447 5.22025 84.8274 5.63073C85.6211 5.98714 86.3019 6.55445 86.7956 7.27089C87.293 8.00328 87.582 8.8571 87.6316 9.74108H84.6823C84.5774 9.13871 84.2781 8.58731 83.8303 8.17099C83.5906 7.95132 83.3096 7.78157 83.0036 7.67168C82.6976 7.56179 82.3728 7.51393 82.0481 7.53092C81.4539 7.51985 80.8717 7.69853 80.386 8.04098C79.8829 8.40765 79.4956 8.91088 79.2699 9.49105C78.9921 10.2114 78.8589 10.9794 78.8779 11.7513C78.8593 12.5393 78.9923 13.3237 79.2699 14.0615C79.4948 14.6432 79.8754 15.1517 80.37 15.5316C80.7934 15.8133 81.2805 15.9847 81.7871 16.0301C82.2936 16.0755 82.8034 15.9935 83.2702 15.7916C83.6313 15.6159 83.9443 15.355 84.1823 15.0316C84.437 14.6742 84.6079 14.264 84.6823 13.8315H87.6316C87.5721 14.7077 87.2906 15.5543 86.8136 16.2917C86.3327 17.0113 85.667 17.5882 84.8864 17.9619C83.991 18.3799 83.011 18.5852 82.0231 18.5619ZM93.4521 18.5619C92.6822 18.5772 91.9179 18.427 91.2109 18.1218C90.5704 17.8392 90.0255 17.3773 89.6418 16.7917C89.2439 16.1432 89.0453 15.392 89.0707 14.6315C89.0477 13.9931 89.1889 13.3596 89.4808 12.7914C89.7448 12.3163 90.1299 11.9194 90.5969 11.6413C91.0917 11.3416 91.6292 11.1192 92.191 10.9813C92.7981 10.8244 93.4163 10.714 94.0401 10.6512C94.8072 10.5712 95.4293 10.5012 95.9073 10.4312C96.2702 10.4012 96.6234 10.2991 96.9464 10.1311C97.0553 10.0604 97.1436 9.96203 97.2021 9.84607C97.2606 9.7301 97.2873 9.6008 97.2794 9.47115V9.4211C97.2963 9.14634 97.254 8.87119 97.1555 8.61415C97.057 8.3571 96.9045 8.12413 96.7084 7.93098C96.2474 7.55156 95.6591 7.362 95.0632 7.40091C94.4259 7.36479 93.7942 7.53677 93.2631 7.89094C92.8551 8.18149 92.5456 8.58979 92.3761 9.06108L89.4958 8.65101C89.6969 7.90332 90.084 7.21869 90.6209 6.66085C91.1544 6.1105 91.8117 5.69565 92.5381 5.45079C93.3436 5.17072 94.1915 5.03197 95.0443 5.04072C95.6785 5.0395 96.3106 5.11333 96.9274 5.26071C97.5367 5.40234 98.1165 5.6494 98.6406 5.99075C99.1652 6.33862 99.5935 6.81334 99.8857 7.37087C100.226 8.04206 100.39 8.78895 100.363 9.54111V18.3019H97.3965V16.5017H97.2965C97.0966 16.8873 96.8278 17.233 96.5034 17.5218C96.1366 17.8595 95.7043 18.1183 95.2333 18.2819C94.6612 18.4812 94.0578 18.576 93.4521 18.5619ZM94.2522 16.3017C94.8115 16.3128 95.3649 16.1857 95.8634 15.9317C96.296 15.7027 96.6583 15.3605 96.9114 14.9416C97.1602 14.5392 97.2902 14.0746 97.2865 13.6015V12.0613C97.1368 12.1645 96.9693 12.2391 96.7924 12.2813C96.5407 12.3571 96.2845 12.4173 96.0254 12.4614C95.7413 12.5114 95.4603 12.5614 95.1813 12.6014C94.9023 12.6414 94.6613 12.6714 94.4572 12.7014C94.0343 12.7553 93.6194 12.8593 93.2211 13.0114C92.8884 13.1314 92.592 13.3346 92.36 13.6015C92.1104 13.9453 92.003 14.3721 92.0602 14.7931C92.1174 15.2142 92.3347 15.597 92.667 15.8617C93.1372 16.1696 93.6906 16.3233 94.2522 16.3017ZM106.072 10.6312V18.3019H102.984V5.21077H105.933V7.43094H106.087C106.376 6.71593 106.879 6.10798 107.527 5.6908C108.265 5.23396 109.123 5.00761 109.991 5.04072C110.815 5.0195 111.631 5.21976 112.352 5.62072C113.034 6.00716 113.581 6.59364 113.92 7.30092C114.316 8.13004 114.506 9.04275 114.474 9.96119V18.3019H111.389V10.4412C111.432 9.69567 111.188 8.96174 110.707 8.39098C110.468 8.13867 110.178 7.94165 109.855 7.81378C109.533 7.68592 109.186 7.63034 108.839 7.65093C108.337 7.64347 107.842 7.76391 107.399 8.00093C106.983 8.24225 106.644 8.59578 106.419 9.02104C106.174 9.52147 106.055 10.0743 106.073 10.6312H106.072ZM122.606 18.3019V5.21077H125.692V18.3019H122.606ZM124.158 3.35063C123.691 3.35898 123.239 3.18694 122.896 2.87048C122.728 2.72109 122.594 2.5377 122.503 2.33247C122.412 2.12724 122.366 1.90496 122.368 1.68044C122.364 1.4571 122.409 1.23571 122.501 1.03182C122.592 0.827932 122.727 0.646439 122.896 0.500282C123.234 0.174175 123.688 -0.00546702 124.158 0.000239001C124.391 -0.00359357 124.622 0.0387037 124.838 0.124517C125.055 0.210331 125.252 0.33797 125.419 0.500282C125.588 0.646439 125.723 0.827932 125.814 1.03182C125.905 1.23571 125.951 1.4571 125.947 1.68044C125.949 1.90495 125.902 2.12725 125.811 2.33247C125.72 2.53769 125.586 2.72105 125.419 2.87048C125.077 3.18844 124.624 3.36076 124.158 3.35063ZM133.995 18.3019V0.85041H137.08V7.37087H137.208C137.398 7.01239 137.623 6.67409 137.881 6.3609C138.205 5.97353 138.605 5.6569 139.057 5.43076C139.647 5.14999 140.296 5.01616 140.949 5.04072C141.916 5.02964 142.866 5.29697 143.686 5.8108C144.54 6.36742 145.215 7.15937 145.629 8.09103C146.144 9.24775 146.392 10.5056 146.354 11.7713C146.389 13.0318 146.148 14.2848 145.646 15.4416C145.233 16.3744 144.565 17.1716 143.72 17.7418C142.898 18.2729 141.937 18.5479 140.958 18.5319C140.315 18.5557 139.676 18.429 139.091 18.1618C138.638 17.9398 138.232 17.6305 137.898 17.2517C137.633 16.94 137.402 16.6014 137.208 16.2416H137.029V18.3019H133.995ZM137.02 11.7513C137.005 12.5101 137.127 13.2654 137.378 13.9816C137.585 14.5649 137.948 15.0803 138.427 15.4717C138.909 15.8304 139.497 16.017 140.097 16.0016C140.715 16.0243 141.321 15.8297 141.81 15.4517C142.291 15.0547 142.651 14.5317 142.85 13.9415C143.325 12.5307 143.328 11.0037 142.858 9.59116C142.662 9.00815 142.301 8.49427 141.819 8.11105C141.322 7.76314 140.73 7.5749 140.122 7.57133C139.515 7.56776 138.921 7.749 138.419 8.09103C137.937 8.46731 137.573 8.97407 137.371 9.55112C137.124 10.2578 137.005 11.0029 137.021 11.7513H137.02ZM156.841 12.7914V5.21077H159.927V18.3019H156.935V15.9717H156.799C156.507 16.7062 155.998 17.3342 155.341 17.7718C154.607 18.2587 153.74 18.5036 152.86 18.4719C152.065 18.4878 151.279 18.2909 150.585 17.9018C149.922 17.5021 149.389 16.9185 149.051 16.2217C148.66 15.3837 148.47 14.4658 148.497 13.5415V5.21077H151.582V13.0714C151.542 13.7922 151.787 14.4997 152.264 15.0416C152.492 15.286 152.77 15.4786 153.078 15.6063C153.387 15.734 153.72 15.7938 154.053 15.7816C154.515 15.7815 154.97 15.6646 155.375 15.4416C155.806 15.2156 156.169 14.877 156.424 14.4616C156.718 13.9554 156.861 13.3764 156.841 12.7914ZM164.541 23.2123C164.15 23.2165 163.758 23.1831 163.373 23.1124C163.086 23.0613 162.804 22.9877 162.529 22.8922L163.245 20.4821C163.633 20.606 164.038 20.6701 164.445 20.6721C164.783 20.6673 165.109 20.5513 165.374 20.3421C165.696 20.0572 165.934 19.6909 166.064 19.2819L166.329 18.5719L161.581 5.21077H164.854L167.872 15.1016H168.009L171.034 5.21077H174.315L169.074 19.892C168.854 20.5366 168.525 21.1387 168.102 21.6722C167.706 22.1663 167.198 22.5575 166.618 22.8123C165.963 23.0961 165.253 23.2326 164.538 23.2123H164.541ZM181.443 18.3019V5.21077H184.529V18.3019H181.443ZM182.995 3.35063C182.528 3.35918 182.076 3.18712 181.733 2.87048C181.565 2.72109 181.431 2.5377 181.34 2.33247C181.249 2.12724 181.203 1.90496 181.205 1.68044C181.201 1.4571 181.247 1.23571 181.338 1.03182C181.429 0.827932 181.564 0.646439 181.733 0.500282C182.071 0.17399 182.525 -0.00568356 182.995 0.000239001C183.228 -0.00359357 183.459 0.0387037 183.675 0.124517C183.892 0.210331 184.089 0.33797 184.256 0.500282C184.425 0.646439 184.56 0.827932 184.651 1.03182C184.742 1.23571 184.788 1.4571 184.784 1.68044C184.786 1.90496 184.74 2.12724 184.648 2.33247C184.557 2.5377 184.424 2.72109 184.256 2.87048C183.913 3.18966 183.459 3.36208 182.991 3.35063H182.995ZM193.759 5.21077V7.601H186.233V5.21077H193.759ZM188.091 2.07049H191.177V14.3616C191.158 14.6922 191.222 15.0223 191.364 15.3216C191.48 15.5214 191.661 15.6763 191.876 15.7616C192.1 15.8442 192.337 15.8849 192.576 15.8816C192.753 15.8845 192.93 15.8712 193.105 15.8417C193.27 15.8117 193.395 15.7816 193.48 15.7616L194 18.1719C193.768 18.2485 193.531 18.312 193.292 18.3619C192.927 18.4391 192.556 18.4793 192.184 18.4819C191.471 18.5153 190.759 18.3959 190.096 18.1318C189.495 17.8836 188.982 17.4624 188.621 16.9218C188.245 16.3061 188.061 15.5922 188.093 14.8715L188.091 2.07049Z" fill="#1E1E1E"/>
</svg>
