<svg width="48" height="17" viewBox="0 0 48 17" fill="none" xmlns="http://www.w3.org/2000/svg">
<path d="M0 16.8638V0.00269839H5.21255C6.08477 -0.0135994 6.95681 0.0439528 7.81933 0.174726C8.41755 0.271019 8.99405 0.472259 9.52224 0.769166C10.1818 1.14622 10.7119 1.71393 11.0429 2.39776C11.413 3.16744 11.5971 4.01329 11.5804 4.86714C11.6166 5.51205 11.5093 6.15697 11.2663 6.75542C11.0232 7.35387 10.6504 7.89093 10.1747 8.32791C9.67192 8.72381 9.11356 9.04347 8.51759 9.27658C8.92368 9.4937 9.26931 9.80853 9.52325 10.1927C9.84857 10.7261 10.1057 11.2982 10.2887 11.8956L11.9458 16.8638H9.72785L8.44736 12.9318C8.25668 12.3292 8.13487 11.9709 8.08194 11.8569C7.99667 11.6582 7.89451 11.4671 7.77658 11.2859C7.51125 10.8091 7.10923 10.4226 6.62231 10.1764C5.97115 9.95806 5.28452 9.86515 4.59877 9.90257H2.01132V16.8638H0ZM2.01132 8.24445H5.06495C6.15812 8.32968 7.25367 8.1124 8.23157 7.61641C8.66123 7.32702 9.00693 6.92938 9.23372 6.46363C9.46052 5.99788 9.56039 5.48054 9.52325 4.96384C9.55907 4.45895 9.46672 3.95319 9.25478 3.49354C9.04284 3.0339 8.71819 2.63526 8.31097 2.33465C7.35723 1.82756 6.27783 1.60532 5.20135 1.69441H2.01132V8.24445ZM24.6082 12.1317H17.4525L15.6661 16.8638H13.5856L20.212 0.00269839H21.8406L28.469 16.8638H26.3885L24.6082 12.1317ZM23.9975 10.4848L21.0253 2.58608L18.0419 10.4848H23.9975ZM30.064 16.8638L31.8962 0.00269839H33.8515L39.0427 13.4387L44.2206 0.00269839H46.1678L48 16.8638H46.0783L44.6532 3.79837L39.5974 16.8638H38.4778L33.4138 3.79837L31.9837 16.8638H30.064Z" fill="#6C757D"/>
</svg>
