<svg width="149" height="18" viewBox="0 0 149 18" fill="none" xmlns="http://www.w3.org/2000/svg">
<path d="M0 16.9594V0.345316H4.39297C6.61007 0.221372 8.79865 0.892482 10.5652 2.23793C12.2529 3.94627 13.1994 6.25095 13.1994 8.65237C13.1994 11.0538 12.2529 13.3584 10.5652 15.0668C8.78865 16.4175 6.58783 17.0887 4.35987 16.9594H0ZM1.98285 15.2925H4.25857C6.00016 15.3896 7.71989 14.8669 9.11291 13.8171C10.4347 12.4228 11.1724 10.5753 11.1745 8.65403C11.1765 6.73278 10.4428 4.88371 9.12394 3.48661C7.71957 2.43346 5.98802 1.91086 4.23551 2.01125H1.98285V15.2925ZM16.7665 16.9594V0.345316H18.7494V16.9594H16.7665ZM22.1674 12.1271H24.0931C24.0719 12.9804 24.3601 13.8126 24.9045 14.47C25.3476 14.8698 25.8683 15.174 26.4341 15.3638C26.9999 15.5536 27.5987 15.6249 28.1932 15.5733C29.2918 15.6536 30.3827 15.3376 31.2683 14.6826C31.5874 14.4124 31.8412 14.0737 32.0109 13.6916C32.1806 13.3095 32.2617 12.894 32.2482 12.4762C32.2671 12.0635 32.1809 11.6528 31.9978 11.2825C31.8146 10.9122 31.5405 10.5944 31.2011 10.3589C30.8307 10.1062 30.4297 9.90159 30.0076 9.7501C29.2685 9.49362 28.5166 9.27568 27.7549 9.09717C26.9552 8.90361 26.1658 8.66927 25.39 8.39508C24.8993 8.21018 24.434 7.9642 24.0049 7.66294C23.5358 7.31165 23.163 6.84765 22.9209 6.31399C22.6788 5.78033 22.5752 5.19424 22.6198 4.60992C22.5763 3.45033 22.9935 2.32065 23.7802 1.46765C24.3193 0.955462 24.9594 0.561611 25.6596 0.311341C26.3598 0.0610705 27.1046 -0.0401283 27.8462 0.0143212C31.4054 0.0143212 33.1963 1.71169 33.2191 5.10638H31.2934C31.32 4.29463 31.0917 3.4949 30.6405 2.8196C30.2963 2.43656 29.8681 2.13849 29.3893 1.9488C28.9106 1.75912 28.3944 1.68302 27.8813 1.72641C26.9851 1.66686 26.0997 1.94887 25.403 2.51573C25.1371 2.75263 24.9258 3.04449 24.7838 3.3711C24.6418 3.6977 24.5725 4.05125 24.5806 4.4073C24.5594 4.79961 24.6485 5.19003 24.8376 5.5344C25.0267 5.87877 25.3084 6.16335 25.6507 6.35604C25.9817 6.55104 26.3328 6.70981 26.6978 6.82949C27.081 6.9572 27.7305 7.13367 28.6466 7.35901C29.5498 7.56568 30.4378 7.8338 31.3044 8.16142C31.8688 8.38884 32.3935 8.70429 32.859 9.09613C33.3181 9.49313 33.6805 9.98971 33.9186 10.548C34.1568 11.1063 34.2643 11.7115 34.2331 12.3177C34.2642 12.9728 34.1535 13.627 33.9086 14.2354C33.6636 14.8438 33.2902 15.3922 32.8139 15.8431C31.5241 16.8883 29.8852 17.4038 28.2293 17.2853C25.7815 17.2853 24.0657 16.6358 23.0822 15.3366C22.4413 14.3923 22.1213 13.2674 22.1674 12.1271ZM37.5449 16.9594V0.345316H42.1294C43.0697 0.326169 44.0097 0.393327 44.9377 0.54592C45.5897 0.656297 46.2159 0.885438 46.7851 1.22193C47.464 1.62311 48.0088 2.21637 48.3508 2.92691C48.7316 3.71225 48.9207 4.57676 48.9024 5.44938C48.9603 6.17345 48.8407 6.90074 48.5541 7.56818C48.2675 8.23562 47.8225 8.8231 47.2575 9.27972C45.7231 10.2145 43.934 10.6439 42.1424 10.5073H39.5297V16.9594H37.5449ZM39.5277 8.87251H42.2417C43.397 8.95766 44.552 8.70312 45.5645 8.1403C45.9972 7.83569 46.3444 7.42505 46.5727 6.9477C46.801 6.47034 46.9028 5.94232 46.8684 5.4143C46.9 4.90853 46.8054 4.40284 46.593 3.94273C46.3807 3.48262 46.0572 3.08255 45.6518 2.77853C44.637 2.18722 43.4658 1.91985 42.2949 2.01222H39.5297L39.5277 8.87251ZM52.0878 16.9594V0.345316H54.0706V15.2895H61.629V16.9594H52.0878ZM73.5732 12.2966H66.5224L64.7602 16.9594H62.7102L69.2435 0.345316H70.8432L77.3755 16.9594H75.3254L73.5732 12.2966ZM72.9715 10.6738L70.0428 2.89086L67.1031 10.6738H72.9715ZM82.292 16.9594V10.4602L76.6373 0.345316H78.7997L83.2829 8.50038L87.7551 0.345316H89.9175L84.2738 10.4602V16.9594H82.292ZM100.446 16.9594V2.01522H95.7066V0.348315H107.184V2.01522H102.43V16.9594H100.446ZM114.362 16.9594V10.4602L108.707 0.345316H110.87L115.353 8.50038L119.825 0.345316H121.994L116.348 10.4602V16.9594H114.362ZM124.02 16.9594V0.345316H128.605C129.545 0.32613 130.485 0.393288 131.413 0.54592C132.065 0.656451 132.691 0.885582 133.26 1.22193C133.939 1.62335 134.484 2.21654 134.826 2.92691C135.207 3.71225 135.396 4.57676 135.378 5.44938C135.436 6.17336 135.316 6.90056 135.03 7.568C134.743 8.23543 134.299 8.823 133.734 9.27972C132.199 10.2143 130.41 10.6437 128.619 10.5073H126.006V16.9594H124.02ZM126.002 8.87251H128.717C129.872 8.95766 131.027 8.70312 132.04 8.1403C132.472 7.83556 132.819 7.4249 133.048 6.94757C133.276 6.47025 133.378 5.9423 133.344 5.4143C133.375 4.90854 133.281 4.40288 133.068 3.94279C132.856 3.4827 132.532 3.08262 132.127 2.77853C131.112 2.18722 129.941 1.91985 128.77 2.01222H126.006L126.002 8.87251ZM138.559 16.9594V0.345316H148.82V2.01522H140.541V7.50041H147.445V9.1563H140.541V15.2955H149V16.9594H138.559Z" fill="#6C757D"/>
</svg>
