<svg width="331" height="21" viewBox="0 0 331 21" fill="none" xmlns="http://www.w3.org/2000/svg">
<path d="M7.66934 0.017921C8.75906 -0.0630254 9.85166 0.131123 10.8468 0.582543C11.8419 1.03396 12.7077 1.72819 13.3645 2.60144C14.4803 4.55649 15.0671 6.76861 15.0671 9.01963C15.0671 11.2707 14.4803 13.4828 13.3645 15.4379C12.1433 17.1596 10.1977 18.0207 7.52804 18.0214C4.85834 18.0221 2.91685 17.1609 1.70359 15.4379C0.587161 13.4831 0 11.2708 0 9.01963C0 6.76847 0.587161 4.55626 1.70359 2.60144C2.37185 1.64559 3.31579 0.916314 4.40938 0.510979C5.45985 0.161449 6.56248 -0.00532452 7.66934 0.017921ZM7.42284 1.18038C6.50565 1.10973 5.58594 1.2808 4.75546 1.67643C3.92498 2.07207 3.21272 2.67844 2.68971 3.43519C2.12018 4.29253 1.73997 5.26141 1.57435 6.27726C1.42198 7.18521 1.3472 8.1045 1.35085 9.02514C1.33376 10.0987 1.44005 11.1707 1.66756 12.22C1.86355 13.0693 2.20968 13.8766 2.68971 14.6041C3.28403 15.3103 4.02556 15.878 4.86238 16.2675C5.69919 16.657 6.61109 16.8588 7.5341 16.8588C8.45711 16.8588 9.36895 16.657 10.2058 16.2675C11.0426 15.878 11.7841 15.3103 12.3784 14.6041C13.2586 12.8741 13.7174 10.9606 13.7174 9.01963C13.7174 7.07865 13.2586 5.16515 12.3784 3.43519C11.8444 2.60182 11.0588 1.96017 10.1356 1.60328C9.26307 1.3018 8.34371 1.15859 7.42082 1.18038H7.42284ZM18.7771 17.6806V0.358676H20.0799V16.5783H28.2072V17.6806H18.7771ZM31.2036 17.6806V0.358676H41.3623V1.46101H32.5074V8.1553H40.0385V9.25763H32.5104V16.5733H41.5417V17.6806H31.2036ZM44.8738 17.6806V0.358676H49.2302C51.4484 0.251177 53.6353 0.915133 55.4193 2.23769C57.29 3.7409 58.2253 5.99969 58.2253 9.01413C58.2253 12.0286 57.29 14.2911 55.4193 15.8016C53.6125 17.1335 51.3996 17.7976 49.158 17.6806H44.8738ZM46.1766 16.5783H49.0828C51.0531 16.6954 53.0008 16.1086 54.5786 14.9227C56.1152 13.6474 56.8835 11.6785 56.8835 9.01615C56.8835 6.36983 56.1152 4.40463 54.5786 3.12056C52.9904 1.92868 51.0296 1.34139 49.0478 1.464H46.1817L46.1766 16.5783ZM61.9604 20.7121L63.2291 15.7806H65.0139L63.1589 20.7121H61.9604ZM78.2 17.6806V1.46198H73.033V0.359654H84.6578V1.46198H79.5018V17.6806H78.2ZM93.3975 0.017921C94.4872 -0.0630254 95.5798 0.131123 96.5749 0.582543C97.5701 1.03396 98.4358 1.72819 99.0926 2.60144C100.208 4.55649 100.795 6.76861 100.795 9.01963C100.795 11.2707 100.208 13.4828 99.0926 15.4379C97.8714 17.1596 95.9245 18.0207 93.2522 18.0214C90.5798 18.0221 88.638 17.1609 87.4267 15.4379C86.311 13.4828 85.7241 11.2707 85.7241 9.01963C85.7241 6.76861 86.311 4.55649 87.4267 2.60144C88.0951 1.64572 89.039 0.916483 90.1325 0.510979C91.1846 0.160881 92.289 -0.00589938 93.3975 0.017921ZM93.15 1.18038C92.2329 1.1098 91.3134 1.28092 90.4831 1.67655C89.6528 2.07219 88.9407 2.67852 88.4179 3.43519C87.8476 4.29225 87.467 5.26122 87.3015 6.27726C87.1499 7.1853 87.0755 8.10454 87.079 9.02514C87.0619 10.0987 87.1682 11.1707 87.3957 12.22C87.5917 13.0693 87.9378 13.8766 88.4179 14.6041C89.0122 15.3103 89.7537 15.878 90.5905 16.2675C91.4274 16.657 92.3392 16.8588 93.2622 16.8588C94.1852 16.8588 95.097 16.657 95.9339 16.2675C96.7707 15.878 97.5122 15.3103 98.1065 14.6041C98.9867 12.8741 99.4455 10.9606 99.4455 9.01963C99.4455 7.07865 98.9867 5.16515 98.1065 3.43519C97.5724 2.60151 96.7864 1.95981 95.8627 1.60328C94.9915 1.30217 94.0735 1.15896 93.152 1.18038H93.15ZM104.401 0.358676H105.704V11.4093C105.634 12.6349 105.86 13.8594 106.361 14.9799C107.051 16.2325 108.358 16.8589 110.284 16.8589C112.226 16.8589 113.537 16.2325 114.216 14.9799C114.721 13.8602 114.947 12.6353 114.877 11.4093V0.358676H116.18V10.5995C116.204 11.6909 116.14 12.7823 115.99 13.8635C115.891 14.5419 115.655 15.1933 115.298 15.7786C114.376 17.2738 112.709 18.0214 110.296 18.0214C107.868 18.0214 106.198 17.2738 105.285 15.7786C104.928 15.1891 104.692 14.5343 104.591 13.8525C104.446 12.7745 104.383 11.6871 104.404 10.5995L104.401 0.358676ZM132.516 14.088L133.488 14.8396C132.831 15.8573 131.928 16.6933 130.863 17.2708C129.712 17.805 128.452 18.0624 127.185 18.0224C125.794 18.0835 124.415 17.7496 123.206 17.0593C121.926 16.2283 120.968 14.9853 120.49 13.5358C119.993 12.1223 119.755 10.6304 119.789 9.13236C119.648 6.70601 120.364 4.30737 121.813 2.35592C122.472 1.58027 123.302 0.967718 124.237 0.566272C125.173 0.164827 126.188 -0.0146338 127.205 0.0419592C128.772 -0.0501563 130.319 0.434625 131.554 1.40486C132.089 1.8799 132.515 2.46457 132.804 3.11909C133.093 3.77361 133.237 4.48266 133.228 5.19799H131.965C131.961 4.64225 131.838 4.09372 131.605 3.58933C131.372 3.08494 131.033 2.63634 130.612 2.27372C129.656 1.52148 128.46 1.14189 127.245 1.20546C126.089 1.15384 124.946 1.45704 123.968 2.07432C122.908 2.83729 122.126 3.92625 121.743 5.17493C121.314 6.4613 121.107 7.81154 121.132 9.16747C121.025 11.1958 121.592 13.2025 122.745 14.8747C123.229 15.526 123.87 16.0433 124.609 16.3779C125.455 16.7197 126.363 16.8838 127.275 16.8599C128.29 16.8939 129.297 16.6803 130.211 16.2376C131.133 15.7059 131.922 14.9712 132.516 14.088ZM136.665 17.6816V0.358676H137.968V7.99192H147.288V0.358676H148.59V17.6806H147.288V9.09633H137.968V17.6806L136.665 17.6816ZM152.208 12.8433H153.471C153.424 13.8687 153.78 14.8717 154.463 15.6383C155.528 16.5341 156.904 16.9732 158.291 16.8599C159.639 16.9633 160.977 16.5658 162.049 15.7435C162.421 15.4161 162.715 15.0103 162.911 14.5554C163.107 14.1005 163.199 13.6079 163.182 13.1129C163.205 12.6468 163.118 12.1818 162.928 11.7555C162.738 11.3291 162.451 10.9534 162.089 10.6586C161.683 10.3432 161.23 10.0936 160.746 9.91907C159.945 9.64511 159.129 9.41759 158.301 9.23763C157.119 8.96404 156.237 8.72853 155.676 8.53612C155.14 8.34468 154.631 8.08426 154.162 7.76145C153.669 7.41392 153.274 6.94457 153.016 6.39911C152.758 5.85364 152.645 5.25064 152.689 4.64878C152.67 4.07314 152.766 3.4995 152.97 2.96116C153.175 2.42282 153.485 1.93058 153.882 1.51312C154.436 0.987447 155.094 0.583276 155.814 0.326502C156.533 0.0697288 157.299 -0.0339689 158.061 0.0219579C160.185 0.0219579 161.678 0.632537 162.54 1.85381C163.153 2.85914 163.449 4.02517 163.392 5.20099H162.129C162.18 4.21334 161.897 3.23733 161.328 2.42908C160.921 1.99443 160.421 1.65688 159.866 1.44143C159.311 1.22598 158.714 1.13814 158.121 1.18441C156.964 1.10349 155.822 1.48356 154.944 2.24167C154.634 2.53572 154.389 2.89143 154.225 3.28583C154.061 3.68022 153.982 4.10459 153.992 4.53159C153.964 5.00173 154.067 5.47041 154.29 5.88525C154.513 6.3001 154.847 6.64475 155.255 6.8806C155.618 7.09842 156.005 7.2755 156.407 7.40871C156.828 7.54199 157.529 7.72541 158.532 7.96091C159.482 8.17656 160.419 8.4469 161.338 8.77063C161.926 8.98729 162.479 9.28804 162.981 9.66352C163.486 10.0522 163.89 10.5576 164.157 11.1363C164.424 11.7151 164.547 12.35 164.514 12.9866C164.514 13.6665 164.385 14.3403 164.134 14.9719C163.896 15.5735 163.534 16.1179 163.071 16.5693C161.745 17.6381 160.06 18.1591 158.361 18.0254C155.926 18.0254 154.209 17.4184 153.21 16.2045C152.499 15.2324 152.145 14.0459 152.208 12.8433ZM179.747 14.088L180.729 14.8396C180.068 15.8578 179.162 16.6938 178.093 17.2708C176.943 17.806 175.683 18.0635 174.416 18.0224C173.025 18.0822 171.646 17.7484 170.437 17.0593C169.16 16.2254 168.203 14.9834 167.721 13.5358C167.224 12.1223 166.986 10.6304 167.02 9.13236C166.882 6.70482 167.602 4.30611 169.054 2.35592C169.713 1.57949 170.542 0.96638 171.478 0.564866C172.413 0.163351 173.429 -0.0156433 174.446 0.0419592C176.01 -0.0490768 177.553 0.435721 178.785 1.40486C179.321 1.87931 179.749 2.46362 180.04 3.11811C180.33 3.7726 180.476 4.48197 180.468 5.19799H179.196C179.196 4.64151 179.076 4.09157 178.842 3.58652C178.608 3.08147 178.267 2.63343 177.843 2.27372C176.888 1.52 175.691 1.14023 174.476 1.20546C173.32 1.15384 172.177 1.45704 171.199 2.07432C170.142 2.83823 169.364 3.92725 168.984 5.17493C168.55 6.46013 168.343 7.81121 168.373 9.16747C168.263 11.1947 168.827 13.2013 169.976 14.8747C170.461 15.5287 171.106 16.0464 171.85 16.3779C172.696 16.7207 173.603 16.8849 174.516 16.8599C175.53 16.8928 176.538 16.6792 177.452 16.2376C178.369 15.7025 179.154 14.9683 179.747 14.088ZM184.156 17.6816V0.358676H188.776C189.685 0.343952 190.593 0.402902 191.492 0.535017C192.132 0.626124 192.754 0.816136 193.336 1.09823C194.043 1.45463 194.618 2.02622 194.979 2.73069C195.386 3.52584 195.589 4.40937 195.571 5.30222C195.659 6.35793 195.364 7.41012 194.741 8.26637C194.117 9.12263 193.205 9.7257 192.173 9.96519C192.581 10.1968 192.93 10.5178 193.196 10.9042C193.549 11.4581 193.832 12.054 194.037 12.678L195.871 17.6806H194.428L192.675 12.9004C192.445 12.0761 191.957 11.3475 191.282 10.822C190.489 10.3969 189.593 10.2054 188.696 10.2698H185.459V17.6806L184.156 17.6816ZM185.459 9.16343H189.037C190.28 9.25797 191.527 9.01569 192.645 8.46198C193.16 8.12969 193.577 7.66616 193.853 7.11909C194.13 6.57202 194.256 5.96113 194.218 5.34932C194.252 4.76004 194.141 4.17136 193.895 3.63496C193.648 3.09856 193.274 2.63083 192.805 2.27274C191.663 1.62778 190.353 1.34502 189.047 1.46198H185.459V9.16343ZM199.559 17.6816V0.358676H209.721V1.46101H200.862V8.1553H208.388V9.25763H200.862V16.5733H209.891V17.6806L199.559 17.6816ZM213.228 17.6816V0.358676H223.39V1.46101H214.531V8.1553H222.067V9.25763H214.531V16.5733H223.571V17.6806L213.228 17.6816ZM226.898 17.6816V0.358676H228.15L237.54 14.7684V0.358676H238.833V17.9271H238.132L228.19 2.59441V17.6806L226.898 17.6816ZM242.621 20.7111L243.894 15.7796H245.678L243.824 20.7111H242.621ZM260.309 17.6806V1.68548L255.699 3.32999V2.15548L260.7 0.358676H261.582V17.6806H260.309ZM269.749 17.6806C269.93 16.5901 270.385 15.5634 271.072 14.6973C272.25 13.3808 273.563 12.192 274.99 11.1507C276.446 10.0916 277.786 8.88239 278.989 7.54297C279.624 6.74006 279.974 5.74792 279.981 4.72396C279.996 4.24792 279.907 3.77441 279.72 3.33635C279.533 2.89829 279.253 2.50622 278.899 2.18753C278.029 1.44279 276.906 1.06042 275.762 1.11927C275.033 1.07506 274.304 1.21281 273.641 1.52015C272.978 1.8275 272.401 2.29483 271.964 2.88005C271.501 3.62044 271.21 4.45536 271.112 5.32326H269.9C270.005 4.0435 270.486 2.8234 271.282 1.81577C271.855 1.20189 272.556 0.722381 273.336 0.411706C274.116 0.101032 274.954 -0.0331257 275.792 0.0188996C277.29 -0.0573587 278.765 0.414309 279.941 1.34577C280.419 1.75577 280.799 2.26883 281.05 2.84647C281.302 3.42412 281.42 4.05132 281.394 4.6809C281.395 6.12358 280.826 7.50822 279.811 8.53312C279.33 9.03419 278.919 9.43507 278.588 9.71967C278.257 10.0043 277.305 10.7408 275.752 11.9394C274.617 12.7874 273.536 13.7051 272.515 14.6873C271.991 15.2259 271.588 15.8703 271.333 16.5773H281.905V17.6806H269.749ZM291.496 0.017921C292.209 0.00591018 292.917 0.139192 293.577 0.409688C294.236 0.680184 294.834 1.08224 295.334 1.59129C296.877 3.1279 297.649 5.60217 297.649 9.01413C297.717 10.9666 297.344 12.9094 296.556 14.6973C296.132 15.7076 295.412 16.5658 294.491 17.1591C293.57 17.7524 292.491 18.053 291.395 18.0214C290.669 18.0401 289.947 17.9101 289.274 17.6395C288.6 17.369 287.989 16.9635 287.477 16.448C286.43 15.324 285.743 13.9133 285.503 12.3964C285.066 10.251 285.049 8.04132 285.453 5.88947C285.606 5.0083 285.876 4.15132 286.254 3.341C286.69 2.3221 287.423 1.45907 288.359 0.865801C289.295 0.27253 290.388 -0.0230845 291.496 0.017921ZM291.335 1.16839C290.794 1.1623 290.257 1.26639 289.758 1.47434C289.258 1.68229 288.806 1.98971 288.429 2.37794C287.116 3.6854 286.458 5.90113 286.455 9.02514C286.38 10.8069 286.712 12.5825 287.427 14.2163C287.746 15.0076 288.296 15.6842 289.006 16.1577C289.716 16.6311 290.552 16.8793 291.405 16.8699C292.144 16.8888 292.873 16.7064 293.516 16.3424C294.158 15.9784 294.69 15.4465 295.053 14.8035C296.014 13.0312 296.465 11.0272 296.356 9.01413C296.428 7.23256 296.096 5.45782 295.384 3.82305C295.055 3.02399 294.493 2.34291 293.77 1.86917C293.048 1.39542 292.199 1.15116 291.335 1.16839ZM306.688 17.6806V0.358676H307.991V7.99192H317.321V0.358676H318.624V17.6806H317.321V9.09633H307.991V17.6806H306.688ZM321.47 17.6806V16.7176L329.226 6.32442H322.121V5.22203H330.82V6.07988L323.013 16.5783H331V17.6806H321.47Z" fill="#1E1E1E"/>
</svg>
