<svg width="201" height="19" viewBox="0 0 201 19" fill="none" xmlns="http://www.w3.org/2000/svg">
<path d="M4.37522 18.0971L0 0.363391H1.29449L4.91715 15.0274L9.52321 0.209842H10.2557L14.8718 15.0274L18.4844 0.363391H19.7889L15.4137 18.0971H14.5707L9.88446 3.03266L5.20814 18.0971H4.37522ZM22.98 17.7088V0.363391H24.2846V17.7088H22.98ZM28.9308 17.7088V0.363391H30.1751L39.5778 14.7926V0.363391H40.8724V17.9556H40.1699L30.2253 2.60214V17.7088H28.9308ZM45.5286 17.7088V0.363391H49.8938C52.1162 0.256226 54.3071 0.920985 56.0953 2.24494C57.9618 3.75019 58.9051 6.01203 58.9051 9.03054C58.9051 12.049 57.9618 14.322 56.0953 15.8272C54.2847 17.1599 52.0686 17.8247 49.8235 17.7088H45.5286ZM46.8331 16.6049H49.7432C51.7148 16.7213 53.6636 16.1338 55.2424 14.9471C56.7811 13.67 57.5504 11.6985 57.5504 9.03256C57.5504 6.38266 56.7811 4.41481 55.2424 3.129C53.652 1.93481 51.688 1.34666 49.7031 1.47021H46.8331V16.6049ZM69.3616 0.0241976C70.4523 -0.0562487 71.5456 0.138437 72.5415 0.590439C73.5374 1.04244 74.4038 1.73729 75.0614 2.61121C76.1793 4.56867 76.7674 6.78387 76.7674 9.03807C76.7674 11.2923 76.1793 13.5075 75.0614 15.4649C73.8371 17.1889 71.8904 18.0513 69.2211 18.0519C66.5518 18.0526 64.605 17.1903 63.3807 15.4649C62.2627 13.5075 61.6748 11.2923 61.6748 9.03807C61.6748 6.78387 62.2627 4.56867 63.3807 2.61121C64.0513 1.65548 64.9961 0.925599 66.0902 0.517921C67.1441 0.166209 68.2508 -0.00149979 69.3616 0.0221764V0.0241976ZM69.1107 1.18822C68.1927 1.11689 67.2719 1.28791 66.4407 1.68415C65.6094 2.08039 64.8968 2.68796 64.3741 3.44609C63.8051 4.30594 63.4222 5.27534 63.2502 6.292C63.1032 7.20181 63.0294 8.12196 63.0295 9.04358C63.014 10.1187 63.1217 11.1921 63.3506 12.2427C63.5461 13.0933 63.8928 13.902 64.3741 14.6301C64.9684 15.3372 65.7103 15.9058 66.5476 16.2958C67.3849 16.6859 68.2974 16.888 69.2211 16.888C70.1448 16.888 71.0573 16.6859 71.8946 16.2958C72.7319 15.9058 73.4737 15.3372 74.0679 14.6301C74.9518 12.8985 75.4126 10.9821 75.4126 9.03807C75.4126 7.09401 74.9518 5.17762 74.0679 3.44609C73.5363 2.61201 72.7523 1.96937 71.8302 1.6117C70.9561 1.3097 70.0353 1.16562 69.1107 1.1862V1.18822ZM82.9287 18.0991L78.5535 0.365351H79.8481L83.4707 15.0295L88.0767 0.211863H88.8093L93.4254 15.0295L97.0379 0.365351H98.3425L93.9672 18.0991H93.1243L88.448 3.03468L83.7617 18.0991H82.9287ZM100.149 12.8659H101.403C101.359 13.8941 101.72 14.8985 102.407 15.6647C103.472 16.5632 104.851 17.0031 106.24 16.8879C107.589 16.9881 108.928 16.5904 110.003 15.77C110.374 15.4416 110.667 15.0349 110.861 14.5793C111.056 14.1238 111.146 13.6307 111.127 13.1358C111.152 12.6688 111.067 12.2025 110.876 11.7752C110.686 11.3479 110.397 10.972 110.033 10.6783C109.628 10.3604 109.174 10.1102 108.688 9.93769C107.889 9.66441 107.075 9.43659 106.25 9.25532C105.056 8.98136 104.173 8.74553 103.611 8.55286C103.075 8.35905 102.566 8.09848 102.096 7.77721C101.603 7.42853 101.209 6.9581 100.952 6.41186C100.695 5.86561 100.585 5.26217 100.63 4.66034C100.609 4.08456 100.703 3.51038 100.907 2.97129C101.11 2.4322 101.419 1.93895 101.815 1.52037C102.37 0.994763 103.029 0.590574 103.75 0.333502C104.47 0.0764305 105.236 -0.0278728 105.999 0.0271988C108.126 0.0271988 109.625 0.638664 110.495 1.86159C111.104 2.86945 111.398 4.03686 111.338 5.21323H110.083C110.126 4.22365 109.84 3.2477 109.27 2.43757C108.864 2.00151 108.364 1.66299 107.807 1.44718C107.251 1.23138 106.654 1.14386 106.059 1.19123C104.904 1.11001 103.763 1.49078 102.888 2.2499C102.576 2.54292 102.33 2.89886 102.166 3.29413C102.001 3.6894 101.923 4.11503 101.935 4.54292C101.905 5.01283 102.006 5.48183 102.228 5.89731C102.449 6.31279 102.782 6.65831 103.189 6.89511C103.554 7.11135 103.941 7.28858 104.343 7.42393C104.765 7.55739 105.477 7.74106 106.471 7.97688C107.423 8.19139 108.361 8.46212 109.281 8.78769C109.87 9.00247 110.425 9.3038 110.926 9.68179C111.435 10.0688 111.842 10.5742 112.111 11.1541C112.381 11.734 112.504 12.3709 112.472 13.0094C112.473 13.6914 112.34 14.3669 112.08 14.9973C111.843 15.5972 111.484 16.1418 111.027 16.5969C109.697 17.6658 108.011 18.1872 106.31 18.0549C103.872 18.0549 102.149 17.4472 101.142 16.2316C100.429 15.2589 100.078 14.0679 100.149 12.8639V12.8659ZM126.099 17.7088V1.69199L121.473 3.33872V2.16263L126.49 0.363391H127.364V17.7088H126.099ZM141.433 17.7088V1.69199L136.806 3.33872V2.16263L141.824 0.363391H142.707V17.7088H141.433ZM157.197 17.7088V0.363391H161.593C162.522 0.348606 163.452 0.407627 164.372 0.539971C165.032 0.641409 165.672 0.844559 166.269 1.1421C166.993 1.52214 167.577 2.12375 167.935 2.85908C168.352 3.68594 168.558 4.60265 168.537 5.52835C168.585 6.68928 168.25 7.83375 167.584 8.78567C167.193 9.27556 166.707 9.68134 166.155 9.97848C165.603 10.2756 164.997 10.458 164.372 10.5147C163.455 10.6487 162.529 10.7118 161.603 10.7034H158.512V17.7088H157.197ZM158.512 9.59451H161.884C162.672 9.61155 163.459 9.54053 164.232 9.38278C164.791 9.26485 165.318 9.02841 165.777 8.68938C166.219 8.29174 166.572 7.80593 166.814 7.2634C167.056 6.72086 167.181 6.13366 167.182 5.53962C167.183 4.94558 167.059 4.35792 166.819 3.81462C166.579 3.27132 166.227 2.78443 165.787 2.38539C165.16 1.92869 164.422 1.64869 163.65 1.57458C163.068 1.49881 162.481 1.46325 161.894 1.46819H158.512V9.59451ZM171.648 17.7088V0.363391H176.274C177.184 0.349029 178.093 0.408057 178.993 0.539971C179.634 0.631201 180.257 0.82147 180.84 1.10395C181.548 1.46083 182.124 2.03319 182.486 2.73861C182.893 3.53483 183.096 4.41956 183.078 5.31361C183.166 6.37075 182.871 7.42437 182.246 8.28177C181.622 9.13918 180.709 9.74307 179.676 9.98289C180.084 10.2148 180.434 10.5363 180.699 10.9231C181.049 11.48 181.332 12.0762 181.542 12.6993L183.379 17.7088H181.934L180.177 12.9221C179.948 12.0967 179.459 11.367 178.783 10.8409C177.988 10.4176 177.091 10.226 176.194 10.2879H172.952V17.7088H171.648ZM172.952 9.17906H176.535C177.78 9.27378 179.028 9.03111 180.147 8.47661C180.663 8.14394 181.081 7.67979 181.358 7.13196C181.635 6.58413 181.761 5.97239 181.723 5.35973C181.757 4.76966 181.646 4.18025 181.399 3.64312C181.153 3.106 180.778 2.63763 180.308 2.27906C179.164 1.63448 177.852 1.35142 176.545 1.46721H172.952V9.17906ZM193.584 0.018134C194.676 -0.0633847 195.772 0.130824 196.769 0.582845C197.767 1.03486 198.635 1.73022 199.294 2.60515C200.412 4.56261 201 6.77786 201 9.03207C201 11.2863 200.412 13.5015 199.294 15.4589C198.07 17.1829 196.12 18.0453 193.444 18.0459C190.784 18.0459 188.841 17.1836 187.613 15.4589C186.495 13.5015 185.907 11.2863 185.907 9.03207C185.907 6.77784 186.495 4.56257 187.613 2.60515C188.28 1.64992 189.222 0.919899 190.313 0.511858C191.367 0.162984 192.474 -0.00262355 193.584 0.0221764V0.018134ZM193.343 1.18222C192.424 1.11205 191.502 1.28349 190.67 1.67956C189.837 2.07563 189.122 2.68255 188.597 3.44008C188.027 4.29836 187.647 5.26874 187.483 6.28599C187.331 7.1952 187.257 8.11576 187.262 9.03758C187.244 10.1123 187.348 11.1856 187.573 12.2367C187.777 13.0845 188.124 13.8916 188.597 14.6241C189.192 15.3313 189.935 15.8997 190.773 16.2898C191.611 16.6798 192.524 16.8819 193.449 16.8819C194.373 16.8819 195.286 16.6798 196.124 16.2898C196.963 15.8997 197.705 15.3313 198.301 14.6241C199.184 12.8925 199.645 10.9761 199.645 9.03207C199.645 7.088 199.184 5.17162 198.301 3.44008C197.767 2.60336 196.979 1.96024 196.053 1.60569C195.182 1.30569 194.264 1.16361 193.343 1.1862V1.18222Z" fill="#1E1E1E"/>
</svg>
