<svg width="34" height="12" viewBox="0 0 34 12" fill="none" xmlns="http://www.w3.org/2000/svg">
<path d="M3.63859 11.7956H0V0.00219509H3.80073C4.82604 -0.0260552 5.84045 0.21881 6.73998 0.711676C7.55562 1.18124 8.20864 1.88838 8.61195 2.73873C9.06998 3.72127 9.2928 4.797 9.26266 5.88064C9.29052 6.97451 9.06577 8.06009 8.60589 9.05298C8.19089 9.91076 7.52404 10.6215 6.69439 11.0902C5.75499 11.5884 4.70134 11.8317 3.63859 11.7956ZM1.42806 10.5287H3.54734C4.39158 10.5587 5.22855 10.3628 5.97173 9.9611C6.60618 9.59157 7.10774 9.03112 7.40486 8.35971C8.03248 6.77117 8.03464 5.00377 7.41092 3.41369C7.12237 2.75177 6.63542 2.19575 6.01732 1.82245C5.31193 1.43219 4.51424 1.23961 3.70849 1.26502H1.42806V10.5287ZM14.0739 11.9983C13.5482 12.0072 13.0269 11.8999 12.5475 11.6841C12.1053 11.4848 11.7282 11.1652 11.459 10.7618C11.1795 10.3199 11.0383 9.80466 11.0535 9.28205C11.0355 8.8526 11.141 8.42696 11.3576 8.05566C11.5528 7.73869 11.8293 7.47974 12.1583 7.30566C12.5062 7.11967 12.8784 6.98319 13.2641 6.90023C13.6695 6.80901 14.0748 6.73809 14.4904 6.67728C15.0276 6.61647 15.4634 6.56577 15.7979 6.52523C16.0536 6.50921 16.3038 6.44381 16.5347 6.33266C16.6136 6.28723 16.6778 6.22013 16.7197 6.13928C16.7615 6.05843 16.7793 5.96721 16.7708 5.87656V5.82589C16.7857 5.58621 16.7521 5.34602 16.672 5.11963C16.5919 4.89324 16.467 4.68531 16.3046 4.50832C16.1157 4.33835 15.8942 4.20852 15.6536 4.12664C15.413 4.04476 15.1583 4.01256 14.9049 4.03199C14.363 4.00071 13.8261 4.15044 13.3786 4.45766C13.0498 4.69467 12.7831 5.00757 12.6012 5.36979L11.312 4.90361C11.5057 4.41515 11.8232 3.98548 12.2333 3.65693C12.6074 3.35953 13.0386 3.14225 13.5002 3.01846C13.9434 2.89907 14.4003 2.83769 14.8593 2.83598C15.1882 2.83879 15.516 2.87276 15.8384 2.93737C16.2179 3.00947 16.582 3.14659 16.9148 3.34274C17.2825 3.57496 17.5825 3.90015 17.7844 4.28537C18.0375 4.80878 18.1563 5.38698 18.13 5.9678V11.7956H16.7708V10.5996H16.7019C16.5816 10.8286 16.426 11.0372 16.2408 11.2179C15.9926 11.456 15.7017 11.6451 15.3834 11.7753C14.9662 11.9364 14.5209 12.0123 14.0739 11.9983ZM14.2765 10.7821C14.7494 10.7993 15.2184 10.6909 15.6357 10.4679C15.9862 10.2767 16.2773 9.99268 16.4769 9.64691C16.6642 9.32711 16.7635 8.96346 16.7648 8.59286V7.34618C16.6571 7.4425 16.526 7.50891 16.3847 7.53875C16.1646 7.5972 15.9417 7.64458 15.7168 7.68066C15.4675 7.7212 15.2232 7.76173 14.985 7.79214C14.7469 7.82254 14.5614 7.83268 14.4154 7.85295C14.0782 7.89639 13.7464 7.97455 13.4252 8.0861C13.1435 8.16545 12.8885 8.31955 12.6873 8.53205C12.4941 8.76051 12.3955 9.0542 12.4117 9.35301C12.3991 9.56204 12.4408 9.77072 12.5326 9.95893C12.6244 10.1472 12.7632 10.3085 12.9356 10.4273C13.3388 10.6765 13.807 10.8 14.2806 10.7821H14.2765ZM24.4513 2.94751V4.10288H19.8671V2.94751H24.4513ZM21.203 0.829212H22.5622V9.26176C22.5438 9.55847 22.6013 9.85494 22.7294 10.1232C22.8277 10.2974 22.982 10.4331 23.1672 10.5084C23.3508 10.5697 23.5433 10.6006 23.7368 10.5996C23.8601 10.5995 23.9832 10.5927 24.1057 10.5793C24.202 10.5591 24.2781 10.5388 24.3358 10.5287L24.6125 11.7449C24.4868 11.7919 24.3577 11.8292 24.2263 11.8564C24.0192 11.8921 23.8092 11.909 23.599 11.9071C23.2097 11.9059 22.8251 11.8231 22.4699 11.6638C22.1013 11.4999 21.7854 11.2368 21.5577 10.9037C21.3068 10.5264 21.1816 10.0794 21.1999 9.62662L21.203 0.829212ZM30.1089 11.978C29.3348 12.0019 28.5698 11.805 27.9034 11.4104C27.2874 11.0319 26.7945 10.4826 26.4845 9.82934C26.1576 9.07428 25.9888 8.26023 25.9888 7.43743C25.9888 6.61462 26.1576 5.80057 26.4845 5.04552C26.7896 4.38617 27.2722 3.82465 27.8781 3.42384C28.5024 3.02292 29.2324 2.81815 29.9741 2.83598C30.4389 2.83335 30.9007 2.91229 31.3383 3.06913C31.7961 3.22417 32.2148 3.47657 32.5657 3.80898C32.9591 4.19246 33.2602 4.6603 33.4464 5.17722C33.6828 5.84367 33.7942 6.54811 33.7748 7.255V7.83272H26.9568V6.65699H32.3893C32.397 6.19365 32.2946 5.7351 32.0903 5.31913C31.9021 4.93882 31.6105 4.61921 31.2491 4.39685C30.8641 4.16373 30.421 4.04424 29.971 4.05222C29.4727 4.04307 28.9831 4.18437 28.5663 4.45766C28.1784 4.71615 27.8661 5.0729 27.6612 5.49147C27.4504 5.92024 27.3422 6.3921 27.345 6.86985V7.65023C27.3279 8.23682 27.4461 8.81951 27.6906 9.35301C27.9038 9.79008 28.2425 10.1535 28.6636 10.3969C29.1036 10.6467 29.603 10.7727 30.1089 10.7618C30.4378 10.7664 30.7651 10.715 31.0768 10.6098C31.3584 10.5146 31.6158 10.3589 31.8308 10.1537C32.049 9.93239 32.2162 9.66599 32.3204 9.37324L33.638 9.74824C33.5003 10.1891 33.2615 10.5917 32.9407 10.924C32.597 11.2663 32.185 11.5322 31.7315 11.7043C31.2132 11.8934 30.6646 11.9862 30.1129 11.978H30.1089Z" fill="#B3B3B3"/>
</svg>
