<svg width="96" height="16" viewBox="0 0 96 16" fill="none" xmlns="http://www.w3.org/2000/svg">
<path d="M0 12.1168V0.367706H3.97022C4.75093 0.337511 5.52715 0.499067 6.23098 0.838238C6.79144 1.11707 7.25047 1.56442 7.54361 2.11752C7.83418 2.69126 7.98012 3.32735 7.96871 3.97038C7.98078 4.60992 7.83475 5.24252 7.54361 5.81208C7.25044 6.3574 6.79535 6.79837 6.24107 7.07423C5.53975 7.40116 4.77072 7.5566 3.99748 7.52763H0.780516V6.24225H3.947C4.466 6.26311 4.9832 6.16897 5.46158 5.96658C5.82072 5.80839 6.11576 5.53328 6.29864 5.18606C6.48239 4.80915 6.57277 4.39356 6.56217 3.97438C6.57201 3.54814 6.48176 3.12555 6.29864 2.74052C6.11615 2.38262 5.81943 2.09585 5.45551 1.92567C4.97424 1.71168 4.45002 1.61181 3.92377 1.63386H1.4227V12.1168H0ZM5.53024 6.83899L8.42207 12.1168H6.77017L3.92882 6.83899H5.53024ZM13.7504 12.3006C12.9799 12.3209 12.2191 12.1261 11.5532 11.7381C10.9404 11.3563 10.4498 10.8069 10.1396 10.1549C9.79712 9.41095 9.62828 8.59887 9.64585 7.78006C9.62907 6.95741 9.79783 6.14154 10.1396 5.39307C10.4429 4.73573 10.9237 4.17621 11.528 3.77754C12.1508 3.37946 12.878 3.17559 13.6171 3.19189C14.0796 3.19273 14.5389 3.27017 14.9762 3.42108C15.4321 3.57948 15.8488 3.83396 16.1979 4.16728C16.5904 4.54552 16.8909 5.00874 17.0764 5.52132C17.3117 6.18777 17.4226 6.89179 17.4035 7.59832V8.17183H10.6061V7.00157H16.0222C16.0307 6.54053 15.9286 6.08419 15.7244 5.67077C15.5378 5.2899 15.2472 4.96956 14.8863 4.74683C14.503 4.51455 14.0611 4.39719 13.613 4.40862C13.1159 4.39693 12.6271 4.53785 12.2126 4.81247C11.8272 5.07215 11.5167 5.42831 11.3119 5.84542C11.102 6.26971 10.9941 6.73718 10.9969 7.21055V7.99107C10.9792 8.57421 11.097 9.15353 11.3412 9.68339C11.5544 10.1209 11.8915 10.486 12.3105 10.7335C12.7505 10.9775 13.2474 11.1001 13.7504 11.0889C14.0778 11.0932 14.4037 11.0431 14.7146 10.9405C14.995 10.8429 15.2512 10.6862 15.4659 10.481C15.6827 10.2637 15.8492 10.0014 15.9536 9.71266L17.2612 10.0792C17.1264 10.5189 16.8886 10.9201 16.5675 11.2494C16.2263 11.5927 15.8156 11.8588 15.3629 12.03C14.8466 12.2186 14.2999 12.3103 13.7504 12.3006ZM26.3961 3.30498L23.1377 12.1168H21.7605L18.5021 3.30498H19.9712L22.4037 10.3265H22.4955L24.928 3.30498H26.3961ZM28.1833 12.1168V3.30498H29.5373V12.1168H28.1833ZM28.8689 1.83582C28.6146 1.83987 28.3692 1.74295 28.1863 1.56625C28.0974 1.4833 28.0265 1.38294 27.978 1.27142C27.9296 1.15991 27.9045 1.03958 27.9045 0.917985C27.9045 0.796386 27.9296 0.676066 27.978 0.564547C28.0265 0.453028 28.0974 0.352728 28.1863 0.269778C28.3692 0.093084 28.6146 -0.00389929 28.8689 0.000154005C28.9939 -0.00210697 29.1181 0.0205468 29.2343 0.0668359C29.3504 0.113125 29.4562 0.18215 29.5454 0.269778C29.6357 0.351919 29.7078 0.451995 29.7571 0.563622C29.8065 0.67525 29.832 0.795936 29.832 0.917985C29.832 1.04004 29.8065 1.16072 29.7571 1.27235C29.7078 1.38398 29.6357 1.48411 29.5454 1.56625C29.4562 1.65388 29.3504 1.72285 29.2343 1.76913C29.1181 1.81542 28.9939 1.83808 28.8689 1.83582ZM35.7087 12.3006C34.9383 12.3209 34.1775 12.1261 33.5116 11.7381C32.8989 11.3562 32.4083 10.8068 32.098 10.1549C31.7562 9.41076 31.5877 8.59876 31.6052 7.78006C31.5885 6.95752 31.7569 6.14173 32.098 5.39307C32.4014 4.73585 32.8822 4.17637 33.4863 3.77754C34.1092 3.37946 34.8364 3.17559 35.5754 3.19189C36.038 3.19273 36.4973 3.27017 36.9345 3.42108C37.3905 3.57948 37.8071 3.83396 38.1563 4.16728C38.5488 4.54552 38.8493 5.00874 39.0347 5.52132C39.2701 6.18776 39.381 6.89179 39.3619 7.59832V8.17183H32.5685V7.00157H37.9846C37.9931 6.54053 37.891 6.08419 37.6868 5.67077C37.5002 5.2899 37.2096 4.96956 36.8487 4.74683C36.4654 4.51455 36.0235 4.39719 35.5754 4.40862C35.0783 4.39693 34.5895 4.53785 34.175 4.81247C33.7896 5.07215 33.4791 5.42831 33.2743 5.84542C33.0644 6.26971 32.9565 6.73718 32.9593 7.21055V7.99107C32.9416 8.57421 33.0594 9.15353 33.3036 9.68339C33.5168 10.1209 33.8539 10.486 34.2729 10.7335C34.7129 10.9775 35.2098 11.1001 35.7128 11.0889C36.0402 11.0932 36.3661 11.0431 36.677 10.9405C36.9574 10.8429 37.2136 10.6862 37.4283 10.481C37.6451 10.2637 37.8116 10.0014 37.916 9.71266L39.2236 10.0792C39.0888 10.5189 38.851 10.9201 38.5299 11.2494C38.1887 11.5927 37.778 11.8588 37.3253 12.03C36.8087 12.2187 36.2617 12.3104 35.7118 12.3006H35.7087ZM43.4139 12.1168L40.7291 3.30498H42.1517L44.0561 10.0519H44.148L46.0341 3.30498H47.479L49.3379 10.0287H49.4298L51.3351 3.30498H52.7578L50.073 12.1168H48.7402L46.8126 5.3466H46.6753L44.7477 12.1168H43.4139ZM59.2665 12.1168V0.367706H60.6205V4.70443H60.7356C60.8366 4.55197 60.9729 4.3561 61.1486 4.11983C61.3571 3.85424 61.6189 3.63513 61.917 3.47661C62.3402 3.26625 62.8101 3.16754 63.2821 3.18985C63.9771 3.17654 64.6604 3.37023 65.245 3.74623C65.827 4.13636 66.2864 4.6836 66.5698 5.32441C66.9036 6.08273 67.0664 6.90527 67.0464 7.73359C67.0661 8.56645 66.9034 9.39358 66.5698 10.1569C66.2863 10.7978 65.8292 11.3465 65.2501 11.7412C64.672 12.1167 63.9946 12.3105 63.3054 12.2975C62.8359 12.3186 62.3687 12.2217 61.9463 12.0158C61.6426 11.8557 61.3749 11.635 61.1597 11.3676C60.9759 11.1232 60.8346 10.9213 60.7356 10.7618H60.5751V12.1168H59.2665ZM60.5973 7.71036C60.5863 8.31064 60.6856 8.90784 60.8901 9.47231C61.0586 9.94031 61.3548 10.3517 61.7453 10.6598C62.1583 10.94 62.6468 11.0879 63.1459 11.0838C63.645 11.0796 64.131 10.9236 64.5392 10.6365C64.9324 10.3199 65.2302 9.90047 65.3995 9.42486C65.6007 8.87735 65.6999 8.29767 65.6923 7.71442C65.7006 7.14317 65.6034 6.57529 65.4056 6.0393C65.2405 5.56956 64.9436 5.1573 64.5503 4.85185C64.1363 4.56841 63.6471 4.41485 63.1453 4.41071C62.6435 4.40658 62.1519 4.55205 61.7332 4.82861C61.3439 5.12458 61.0488 5.52729 60.8841 5.98778C60.6858 6.53991 60.5909 7.12385 60.6044 7.71036H60.5973ZM72.6968 12.3006C71.9671 12.3228 71.2469 12.1302 70.6258 11.7466C70.0046 11.363 69.5099 10.8052 69.2031 10.1428C68.8565 9.39607 68.6859 8.57983 68.7043 7.75682C68.6856 6.92794 68.8562 6.10574 69.2031 5.3527C69.451 4.86784 69.7959 4.43913 70.2165 4.09326C70.6371 3.74739 71.1244 3.49173 71.648 3.3422C72.1716 3.19266 72.7204 3.15241 73.2602 3.224C73.8 3.29559 74.3193 3.47747 74.7859 3.75831C75.3941 4.14633 75.8794 4.69932 76.1853 5.3527C76.5363 6.10458 76.7091 6.92728 76.6902 7.75682C76.7087 8.58049 76.5359 9.39719 76.1853 10.1428C75.8789 10.8044 75.385 11.3616 74.7648 11.7452C74.1447 12.1287 73.4256 12.3218 72.6968 12.3006ZM72.6968 11.0838C73.2329 11.1061 73.7603 10.942 74.1891 10.6194C74.5855 10.3003 74.8855 9.87727 75.0555 9.39762C75.4297 8.33369 75.4297 7.17392 75.0555 6.10999C74.8859 5.62699 74.5861 5.20029 74.1891 4.87712C73.7519 4.57083 73.2311 4.40652 72.6973 4.40652C72.1635 4.40652 71.6426 4.57083 71.2054 4.87712C70.8084 5.20029 70.5086 5.62699 70.3391 6.10999C69.9648 7.17392 69.9648 8.33369 70.3391 9.39762C70.5091 9.87727 70.809 10.3003 71.2054 10.6194C71.6359 10.9433 72.1656 11.1075 72.7038 11.0838H72.6968ZM82.0871 12.3006C81.3979 12.3133 80.7206 12.1195 80.1424 11.7442C79.5637 11.3492 79.1066 10.8006 78.8227 10.16C78.4899 9.39637 78.3276 8.56936 78.3472 7.73661C78.3273 6.9084 78.4896 6.08596 78.8227 5.32743C79.1065 4.68658 79.5662 4.13936 80.1485 3.74925C80.7327 3.3731 81.4157 3.1794 82.1104 3.19287C82.5809 3.16998 83.0493 3.26874 83.4705 3.47963C83.77 3.63604 84.0322 3.85549 84.2389 4.12285C84.4186 4.35912 84.5579 4.55499 84.6579 4.70745H84.772V0.370725H86.126V12.1168H84.8134V10.7627H84.6528C84.5532 10.923 84.4115 11.1249 84.2278 11.3686C84.0129 11.636 83.7456 11.8567 83.4422 12.0168C83.0224 12.2221 82.5581 12.3196 82.0912 12.3006H82.0871ZM82.2709 11.0838C82.7644 11.0994 83.249 10.9502 83.6482 10.6598C84.0384 10.3517 84.3343 9.94024 84.5024 9.47231C84.707 8.90784 84.8062 8.31064 84.7952 7.71036C84.8069 7.12206 84.7096 6.53673 84.5085 5.98378C84.3441 5.52306 84.049 5.12024 83.6593 4.82461C83.2397 4.54799 82.7472 4.40245 82.2447 4.40658C81.7421 4.41072 81.2521 4.56436 80.8371 4.84784C80.446 5.15529 80.1496 5.56683 79.9819 6.03524C79.7877 6.57202 79.6926 7.1396 79.7012 7.71036C79.6932 8.29312 79.7903 8.87258 79.9879 9.42085C80.1602 9.89492 80.4575 10.3136 80.8482 10.6325C81.258 10.9422 81.7617 11.1015 82.275 11.0838H82.2709ZM89.6661 15.4256C89.46 15.4279 89.2543 15.4086 89.0522 15.3681C88.9244 15.3494 88.7993 15.3155 88.6796 15.2671L89.0239 14.0736C89.3072 14.1528 89.6017 14.1839 89.8953 14.1655C90.1532 14.1395 90.3924 14.019 90.5668 13.8272C90.8139 13.5451 90.9995 13.2146 91.112 12.8569L91.3645 12.1683L88.1051 3.31102H89.5742L92.0066 10.3326H92.0985L94.5309 3.31102H96.0001L92.2591 13.4082C92.116 13.8174 91.9047 14.1995 91.634 14.5381C91.4024 14.8273 91.1055 15.0574 90.7677 15.2095C90.4209 15.3568 90.0469 15.4291 89.6701 15.4216L89.6661 15.4256Z" fill="#1E1E1E"/>
</svg>
