<svg width="44" height="18" viewBox="0 0 44 18" fill="none" xmlns="http://www.w3.org/2000/svg">
<path d="M0.00450937 12.3616H1.96743C1.94569 13.2314 2.23948 14.0797 2.79452 14.7498C3.24616 15.1574 3.77689 15.4675 4.35363 15.661C4.93037 15.8545 5.54078 15.9271 6.14682 15.8744C7.26661 15.9563 8.37866 15.6342 9.28137 14.9666C9.60657 14.6912 9.86533 14.3458 10.0383 13.9563C10.2113 13.5668 10.294 13.1433 10.2802 12.7174C10.2994 12.2967 10.2116 11.8781 10.0249 11.5006C9.83826 11.1232 9.55885 10.7992 9.21287 10.5592C8.83528 10.3016 8.42646 10.0931 7.99626 9.93863C7.24289 9.6772 6.47646 9.45505 5.70005 9.27307C4.8848 9.0758 4.08017 8.83693 3.28934 8.55741C2.78923 8.36893 2.31488 8.11817 1.87747 7.81108C1.39935 7.45299 1.0193 6.98009 0.772505 6.4361C0.525711 5.89212 0.42015 5.29467 0.465592 4.69905C0.421257 3.51703 0.846508 2.36549 1.64846 1.496C2.19794 0.973911 2.85048 0.572428 3.56423 0.317318C4.27797 0.0622085 5.03716 -0.0409004 5.79309 0.0146019C9.42109 0.0146019 11.2467 1.74478 11.2699 5.20512H9.30693C9.33409 4.37767 9.10133 3.56251 8.64137 2.87414C8.29057 2.48369 7.85404 2.17986 7.36605 1.98651C6.87806 1.79316 6.3519 1.71554 5.82887 1.75976C4.91537 1.69907 4.01277 1.98655 3.30263 2.56436C3.03156 2.80584 2.8162 3.10335 2.67145 3.43627C2.5267 3.7692 2.45602 4.12958 2.4643 4.49251C2.44276 4.89241 2.53351 5.29038 2.72627 5.64141C2.91904 5.99244 3.20615 6.28256 3.55515 6.47897C3.89254 6.67775 4.25039 6.83952 4.62249 6.96151C5.01303 7.09169 5.67518 7.27164 6.60893 7.50133C7.52956 7.71203 8.43474 7.98528 9.31817 8.3192C9.89344 8.55105 10.4283 8.87266 10.9028 9.27204C11.3708 9.67672 11.7402 10.1829 11.9829 10.7519C12.2257 11.321 12.3353 11.938 12.3035 12.5559C12.3352 13.2237 12.2223 13.8904 11.9727 14.5107C11.723 15.1309 11.3424 15.6898 10.8568 16.1494C9.54212 17.2148 7.87148 17.7404 6.18363 17.6196C3.6884 17.6196 1.93949 16.9574 0.936897 15.6331C0.283958 14.6705 -0.0428579 13.5238 0.00450937 12.3616ZM14.8675 12.3616H16.8304C16.8087 13.2314 17.1025 14.0797 17.6575 14.7498C18.1092 15.1573 18.6399 15.4675 19.2167 15.6609C19.7934 15.8544 20.4038 15.9271 21.0098 15.8744C22.1296 15.9563 23.2417 15.6342 24.1444 14.9666C24.4696 14.6912 24.7283 14.3458 24.9013 13.9563C25.0743 13.5668 25.157 13.1433 25.1432 12.7174C25.1625 12.2967 25.0746 11.8781 24.8879 11.5006C24.7013 11.1232 24.4219 10.7992 24.0759 10.5592C23.6983 10.3016 23.2895 10.0931 22.8593 9.93863C22.1059 9.67721 21.3395 9.45505 20.5631 9.27307C19.7478 9.07581 18.9432 8.83693 18.1524 8.55741C17.6522 8.36893 17.1779 8.11817 16.7405 7.81108C16.2624 7.45299 15.8823 6.98009 15.6355 6.4361C15.3887 5.89212 15.2832 5.29467 15.3286 4.69905C15.2843 3.51703 15.7095 2.36549 16.5115 1.496C17.061 0.973911 17.7135 0.572428 18.4272 0.317318C19.141 0.0622085 19.9002 -0.0409004 20.6561 0.0146019C24.2841 0.0146019 26.1097 1.74478 26.1329 5.20512H24.1699C24.1971 4.37767 23.9643 3.56251 23.5044 2.87414C23.1536 2.48369 22.7171 2.17986 22.2291 1.98651C21.7411 1.79316 21.2149 1.71554 20.6919 1.75976C19.7784 1.69907 18.8758 1.98655 18.1656 2.56436C17.8946 2.80584 17.6792 3.10335 17.5345 3.43627C17.3897 3.7692 17.319 4.12958 17.3273 4.49251C17.3058 4.89241 17.3965 5.29038 17.5893 5.64141C17.7821 5.99244 18.0692 6.28256 18.4182 6.47897C18.7555 6.67775 19.1134 6.83952 19.4855 6.96151C19.876 7.09169 20.5382 7.27164 21.4719 7.50133C22.3926 7.71203 23.2978 7.98528 24.1812 8.3192C24.7565 8.55101 25.2913 8.87263 25.7658 9.27204C26.2338 9.67672 26.6032 10.1829 26.8459 10.7519C27.0887 11.321 27.1983 11.938 27.1665 12.5559C27.1981 13.2237 27.0853 13.8904 26.8356 14.5106C26.5859 15.1308 26.2053 15.6898 25.7198 16.1494C24.4051 17.2148 22.7345 17.7404 21.0466 17.6196C18.5514 17.6196 16.8025 16.9574 15.7999 15.6331C15.147 14.6705 14.8202 13.5238 14.8675 12.3616ZM30.5454 17.2873V0.351981H35.0233C37.2832 0.225641 39.5142 0.909697 41.3149 2.28116C43.0352 4.02254 44 6.37178 44 8.81965C44 11.2675 43.0352 13.6168 41.3149 15.3581C39.5037 16.7352 37.2599 17.4194 34.9885 17.2873H30.5454ZM32.5666 15.5882H34.8863C36.6615 15.6872 38.4145 15.1544 39.8345 14.0843C41.1818 12.663 41.9338 10.7798 41.9359 8.82136C41.938 6.86296 41.19 4.97811 39.8457 3.55399C38.4142 2.4804 36.6492 1.94771 34.8628 2.05013H32.5655L32.5666 15.5882Z" fill="#6C757D"/>
</svg>
