<svg width="200" height="18" viewBox="0 0 200 18" fill="none" xmlns="http://www.w3.org/2000/svg">
<path d="M0 16.9308V0.344708H4.38556C6.59893 0.220973 8.78382 0.890922 10.5474 2.2341C12.2323 3.93956 13.1771 6.24036 13.1771 8.63774C13.1771 11.0351 12.2323 13.3359 10.5474 15.0414C8.77384 16.3898 6.57672 17.0599 4.35252 16.9308H0ZM1.97951 15.2667H4.2514C5.99005 15.3636 7.70688 14.8418 9.09755 13.7938C10.4171 12.4019 11.1536 10.5574 11.1556 8.63942C11.1577 6.72141 10.4252 4.87543 9.10856 3.48068C7.70656 2.4293 5.97793 1.90762 4.22837 2.00783H1.97951V15.2667ZM16.7382 16.9308V0.344708H18.7178V16.9308H16.7382ZM22.1301 12.1066H24.0525C24.0313 12.9585 24.319 13.7893 24.8626 14.4456C25.3049 14.8447 25.8247 15.1484 26.3896 15.3379C26.9544 15.5274 27.5522 15.5986 28.1457 15.547C29.2424 15.6272 30.3315 15.3118 31.2156 14.6579C31.5341 14.3882 31.7875 14.0499 31.9569 13.6685C32.1263 13.287 32.2073 12.8722 32.1939 12.4551C32.2127 12.0431 32.1267 11.6331 31.9439 11.2634C31.761 10.8937 31.4874 10.5765 31.1485 10.3414C30.7787 10.0891 30.3784 9.8849 29.957 9.73364C29.2192 9.47758 28.4686 9.26001 27.7082 9.08181C26.9097 8.8886 26.1217 8.65465 25.3472 8.38091C24.8574 8.19632 24.3928 7.95074 23.9644 7.64997C23.4962 7.29927 23.124 6.83612 22.8822 6.30335C22.6405 5.77059 22.5372 5.18546 22.5817 4.60213C22.5381 3.44447 22.9546 2.31662 23.7401 1.46512C24.2783 0.953796 24.9174 0.560608 25.6164 0.31076C26.3154 0.0609115 27.059 -0.0400556 27.7993 0.014302C31.3525 0.014302 33.1404 1.70878 33.1631 5.09775H31.2407C31.2673 4.28737 31.0393 3.48902 30.5888 2.81485C30.2453 2.43245 29.8177 2.13489 29.3398 1.94553C28.8619 1.75616 28.3466 1.68016 27.8343 1.72347C26.9397 1.66403 26.0557 1.94556 25.3602 2.51146C25.0947 2.74796 24.8838 3.03933 24.742 3.36539C24.6003 3.69145 24.531 4.04439 24.5392 4.39984C24.5181 4.79149 24.6069 5.18126 24.7957 5.52505C24.9845 5.86884 25.2657 6.15297 25.6075 6.34534C25.9379 6.54001 26.2884 6.69844 26.6528 6.81792C27.0353 6.94542 27.6838 7.12166 28.5983 7.34661C29.5 7.55293 30.3865 7.82055 31.2517 8.14761C31.8151 8.37465 32.3389 8.68963 32.8036 9.08081C33.262 9.47714 33.6238 9.97285 33.8615 10.5302C34.0992 11.0875 34.2066 11.6918 34.1754 12.2969C34.2064 12.9509 34.0959 13.604 33.8514 14.2114C33.6069 14.8188 33.2341 15.3662 32.7586 15.8163C31.471 16.8597 29.8348 17.3745 28.1818 17.2562C25.738 17.2562 24.0252 16.6077 23.0433 15.3107C22.4035 14.368 22.0841 13.245 22.1301 12.1066ZM37.4816 16.9308V0.344708H42.0584C42.9971 0.325611 43.9355 0.392655 44.862 0.544974C45.5128 0.655188 46.138 0.88391 46.7063 1.21981C47.3841 1.62027 47.9279 2.21261 48.2693 2.92199C48.6493 3.70606 48.838 4.56904 48.82 5.44017C48.8778 6.16302 48.7584 6.88908 48.4723 7.5554C48.1862 8.22172 47.7419 8.80818 47.1779 9.26402C45.6461 10.1973 43.8599 10.626 42.0714 10.4896H39.4631V16.9308H37.4816ZM39.4611 8.85753H42.1705C43.3239 8.94253 44.4769 8.68846 45.4877 8.12659C45.9196 7.82242 46.2661 7.41244 46.4941 6.9359C46.722 6.45937 46.8237 5.93227 46.7894 5.40515C46.821 4.90023 46.7265 4.39536 46.5145 3.93603C46.3025 3.4767 45.9796 3.0773 45.5749 2.77379C44.5617 2.18348 43.3925 1.91659 42.2236 2.00881H39.4631L39.4611 8.85753ZM52 16.9308V0.344708H53.9795V15.2636H61.5251V16.9308H52ZM73.4492 12.2759H66.4103L64.6511 16.9308H62.6045L69.1268 0.344708H70.7238L77.2451 16.9308H75.1985L73.4492 12.2759ZM72.8485 10.6558L69.9248 2.88593L66.99 10.6558H72.8485ZM82.1533 16.9308V10.4425L76.5081 0.344708H78.6669L83.1425 8.48606L87.6072 0.344708H89.766L84.1318 10.4425V16.9308H82.1533ZM96.13 12.1066H98.0525C98.0314 12.9585 98.3191 13.7893 98.8625 14.4456C99.3048 14.8448 99.8246 15.1486 100.389 15.3381C100.954 15.5276 101.552 15.5987 102.146 15.547C103.242 15.6271 104.331 15.3117 105.216 14.6579C105.534 14.3881 105.787 14.0499 105.957 13.6684C106.126 13.287 106.207 12.8722 106.194 12.4551C106.213 12.0431 106.127 11.6331 105.944 11.2634C105.761 10.8937 105.487 10.5765 105.148 10.3414C104.778 10.0891 104.378 9.88483 103.956 9.73364C103.218 9.47743 102.468 9.25986 101.707 9.08181C100.909 8.88862 100.121 8.65467 99.3461 8.38091C98.856 8.19629 98.3911 7.95071 97.9624 7.64997C97.4943 7.29914 97.1221 6.83596 96.8804 6.30323C96.6388 5.7705 96.5353 5.18544 96.5796 4.60213C96.5362 3.44448 96.9527 2.31668 97.7381 1.46512C98.2762 0.953796 98.9153 0.560608 99.6143 0.31076C100.313 0.0609115 101.057 -0.0400556 101.797 0.014302C105.351 0.014302 107.139 1.70878 107.161 5.09775H105.239C105.265 4.28728 105.036 3.48896 104.586 2.81485C104.242 2.43239 103.815 2.13477 103.337 1.9454C102.859 1.75604 102.344 1.68008 101.831 1.72347C100.937 1.66413 100.053 1.94565 99.3571 2.51146C99.0916 2.74792 98.8807 3.03926 98.7389 3.36533C98.5971 3.6914 98.5279 4.04438 98.5361 4.39984C98.515 4.79149 98.6039 5.18126 98.7927 5.52505C98.9815 5.86884 99.2627 6.15297 99.6045 6.34534C99.9353 6.53997 100.286 6.6984 100.651 6.81792C101.032 6.94542 101.68 7.12166 102.595 7.34661C103.497 7.55294 104.384 7.82056 105.25 8.14761C105.813 8.37486 106.337 8.68982 106.802 9.08081C107.26 9.47719 107.622 9.97292 107.859 10.5302C108.097 11.0876 108.204 11.6918 108.173 12.2969C108.204 12.9509 108.094 13.6039 107.849 14.2113C107.605 14.8187 107.232 15.3662 106.757 15.8163C105.469 16.8596 103.833 17.3743 102.18 17.2562C99.7359 17.2562 98.0231 16.6077 97.0412 15.3107C96.4022 14.3678 96.0828 13.2447 96.13 12.1066ZM111.485 16.9308V0.344708H113.463V16.9308H111.485ZM116.269 16.9308V15.4349L124.905 2.00881H116.943V0.344708H127.278V1.61133L118.529 15.2627H127.705V16.9308H116.269ZM130.769 16.9308V0.344708H141.013V2.01183H132.748V7.48778H139.641V9.14088H132.748V15.2697H141.192V16.9308H130.769ZM149.738 16.9308V0.344708H151.718V16.9308H149.738ZM156.108 16.9308V0.344708H158.02L166.13 12.7254V0.344708H168.075V17.1441H166.746L158.054 3.71398V16.9308H156.108ZM183.685 13.0849L184.968 14.3785C184.393 15.1709 183.662 15.8368 182.82 16.335C181.602 16.9777 180.238 17.2953 178.861 17.2572C177.791 17.3346 176.718 17.1474 175.738 16.712C174.757 16.2767 173.899 15.6066 173.239 14.761C172.097 12.8681 171.517 10.6894 171.567 8.47921C171.617 6.26905 172.294 4.11868 173.52 2.27917C174.165 1.52192 174.978 0.924687 175.893 0.534463C176.808 0.144239 177.801 -0.0283378 178.794 0.0303135C180.346 -0.0649524 181.879 0.415206 183.099 1.37901C183.625 1.85706 184.04 2.44353 184.317 3.09787C184.594 3.75221 184.725 4.45881 184.701 5.16883H182.779C182.768 4.3773 182.491 3.61249 181.992 2.99807C181.588 2.56555 181.093 2.22898 180.542 2.01309C179.991 1.79719 179.399 1.70746 178.809 1.75048C178.024 1.70554 177.242 1.86909 176.541 2.22451C175.84 2.57992 175.245 3.11453 174.818 3.77405C173.936 5.27712 173.51 7.0038 173.591 8.74438C173.497 10.5302 173.995 12.2971 175.008 13.7707C175.472 14.3583 176.071 14.8241 176.755 15.1278C177.439 15.4316 178.187 15.5641 178.933 15.514C180.095 15.5405 181.237 15.2111 182.205 14.5698C182.759 14.1384 183.256 13.6395 183.685 13.0849ZM188.032 16.9308V0.344708H190.01V7.37264H198.02V0.344708H200V16.9308H198.02V9.02574H190.01V16.9308H188.032Z" fill="#6C757D"/>
</svg>
