<svg width="252" height="18" viewBox="0 0 252 18" fill="none" xmlns="http://www.w3.org/2000/svg">
<path d="M0 16.9325V0.343558H1.24783V16.9325H0ZM6.15089 16.9325V0.343558H7.34359L16.3406 14.1434V0.343558H17.5773V17.1678H16.9034L7.38967 2.47963V16.9325H6.15089ZM25.7791 16.9325V1.40108H20.827V0.343558H31.9621V1.40108H27.0239V16.9325H25.7791ZM35.2108 16.9325V0.343558H44.9448V1.40108H36.4626V7.81031H43.6729V8.86783H36.4626V15.8779H45.115V16.9325H35.2108ZM48.7703 16.9325V0.343558H50.0121V15.8749H57.7933V16.9325H48.7703ZM77.9724 13.4905L78.9036 14.2106C78.2767 15.1872 77.4117 15.9884 76.39 16.5389C75.2872 17.0504 74.08 17.297 72.8649 17.2589C71.5317 17.3156 70.2096 16.996 69.0495 16.3366C67.83 15.5358 66.9162 14.3471 66.4558 12.9628C65.9802 11.6085 65.7528 10.1796 65.7848 8.74467C65.648 6.42026 66.3359 4.12214 67.7275 2.25531C68.3573 1.51238 69.1509 0.925665 70.0458 0.541292C70.9407 0.156918 71.9126 -0.0146465 72.885 0.0401119C74.3861 -0.0499771 75.8683 0.413202 77.051 1.34201C77.5648 1.79615 77.9748 2.35563 78.2531 2.9824C78.5313 3.60917 78.6712 4.28852 78.6633 4.97422H77.4416C77.4422 4.44116 77.327 3.91434 77.1039 3.43019C76.8809 2.94604 76.5552 2.51614 76.1497 2.17019C75.2347 1.44881 74.0886 1.08502 72.9251 1.14672C71.8167 1.09857 70.72 1.38882 69.7805 1.97891C68.7706 2.71332 68.0258 3.75506 67.6575 4.94818C67.2446 6.1796 67.0481 7.47324 67.0767 8.77172C66.9714 10.7142 67.5137 12.6366 68.6188 14.2376C69.0793 14.8626 69.6933 15.3583 70.4014 15.6767C71.2122 16.0031 72.0813 16.1602 72.9551 16.1383C73.9279 16.1685 74.8935 15.9623 75.7691 15.5374C76.647 15.0291 77.399 14.3294 77.9693 13.4905H77.9724ZM88.9682 0.017099C90.0124 -0.0602685 91.0592 0.12575 92.0127 0.558101C92.9663 0.990451 93.7961 1.65528 94.426 2.49164C95.4957 4.36348 96.0584 6.48209 96.0584 8.63801C96.0584 10.7939 95.4957 12.9125 94.426 14.7844C93.2543 16.4341 91.3917 17.2589 88.838 17.2589C86.2843 17.2589 84.4316 16.4338 83.2599 14.7844C82.1902 12.9125 81.6277 10.7939 81.6277 8.63801C81.6277 6.48209 82.1902 4.36348 83.2599 2.49164C83.8973 1.57664 84.7987 0.877901 85.8437 0.488756C86.8497 0.154909 87.9054 -0.00458945 88.9651 0.017099H88.9682ZM88.7379 1.1307C87.859 1.06272 86.9776 1.2263 86.1816 1.60514C85.3856 1.98398 84.7028 2.56484 84.2013 3.28982C83.6586 4.11164 83.2967 5.03944 83.1397 6.01173C82.9881 6.88068 82.9144 7.76143 82.9194 8.64351C82.9034 9.6714 83.0043 10.6978 83.2199 11.7029C83.4119 12.5153 83.7439 13.288 84.2013 13.9862C84.771 14.6626 85.4815 15.2063 86.2833 15.5792C87.0851 15.9522 87.9587 16.1454 88.843 16.1454C89.7273 16.1454 90.6008 15.9522 91.4026 15.5792C92.2044 15.2063 92.9151 14.6626 93.4847 13.9862C94.3274 12.3294 94.7666 10.4968 94.7666 8.63801C94.7666 6.77917 94.3274 4.94666 93.4847 3.28982C92.9719 2.49088 92.2176 1.87625 91.3316 1.53528C90.497 1.24679 89.6176 1.10978 88.7348 1.1307H88.7379ZM99.8909 16.9325V0.343558H104.317C105.188 0.329681 106.059 0.386287 106.921 0.512808C107.533 0.601366 108.127 0.783419 108.684 1.05259C109.361 1.39252 109.912 1.94031 110.256 2.61584C110.646 3.37667 110.839 4.22348 110.817 5.07838C110.903 6.08835 110.622 7.09549 110.026 7.9155C109.43 8.73551 108.559 9.31356 107.572 9.54382C107.964 9.76443 108.3 10.0729 108.553 10.4451C108.886 10.9795 109.155 11.5508 109.354 12.1476L111.117 16.9385H109.725L108.053 12.3609C107.83 11.5708 107.359 10.873 106.711 10.37C105.953 9.96408 105.095 9.78112 104.237 9.84226H101.133V16.9325H99.8909ZM101.133 8.77871H104.568C105.759 8.86799 106.952 8.63483 108.023 8.10373C108.514 7.78442 108.913 7.34028 109.177 6.81666C109.441 6.29304 109.561 5.70873 109.525 5.12345C109.558 4.55921 109.452 3.99546 109.216 3.48175C108.98 2.96804 108.622 2.52007 108.173 2.17719C107.081 1.55876 105.827 1.28801 104.578 1.40108H101.133V8.77871ZM115.103 16.9325V0.343558H124.837V1.40108H116.355V7.81031H123.565V8.86783H116.355V15.8779H125.007V16.9325H115.103ZM134.2 16.9325V0.343558H135.452V16.9325H134.2ZM149.613 1.44616H140.149V0.344567H150.824V1.42412L144.065 16.9325H142.703L149.613 1.44616ZM154.65 10.5443V9.48674H160.869V10.5443H154.65ZM169.601 16.9325V1.6104L165.185 3.18466V2.06002L169.972 0.339554H170.823V16.9325H169.601ZM179.105 16.9325C179.276 15.8884 179.71 14.9051 180.367 14.0753C181.498 12.8169 182.757 11.6789 184.122 10.6795C185.518 9.66922 186.8 8.51155 187.948 7.22649C188.561 6.45839 188.896 5.50542 188.899 4.52258C188.914 4.06698 188.83 3.61358 188.652 3.19398C188.473 2.77438 188.206 2.39868 187.868 2.09309C187.033 1.38114 185.959 1.01499 184.863 1.06961C184.164 1.02817 183.465 1.16058 182.829 1.45502C182.192 1.74946 181.639 2.19676 181.218 2.75704C180.781 3.46764 180.507 4.26679 180.417 5.09641H179.245C179.35 3.87077 179.809 2.70212 180.567 1.73356C181.115 1.14646 181.787 0.687724 182.533 0.390134C183.279 0.092544 184.082 -0.0365452 184.883 0.0120869C186.319 -0.0620873 187.733 0.389718 188.859 1.2829C189.319 1.67415 189.684 2.16539 189.925 2.71905C190.166 3.27271 190.278 3.87416 190.251 4.4775C190.255 5.85869 189.712 7.18518 188.739 8.16583C188.278 8.64652 187.888 9.02541 187.567 9.30248C187.247 9.57187 186.335 10.2809 184.853 11.4275C183.767 12.2417 182.73 13.1206 181.749 14.0593C181.249 14.5773 180.864 15.194 180.617 15.8699H190.752V16.9325H179.105ZM204.442 1.44616H194.988V0.344567H205.663V1.42412L198.904 16.9325H197.542L204.442 1.44616ZM215.507 0.017099C216.192 0.00495165 216.872 0.132297 217.505 0.391418C218.139 0.650538 218.713 1.03601 219.193 1.52428C220.662 2.99306 221.399 5.36311 221.406 8.63449C221.475 10.5052 221.115 12.367 220.354 14.0773C219.951 15.0454 219.262 15.8681 218.381 16.4366C217.499 17.0051 216.466 17.2925 215.417 17.2609C214.722 17.2787 214.031 17.1547 213.385 16.8965C212.739 16.6382 212.153 16.2511 211.662 15.7588C210.667 14.6779 210.013 13.3284 209.779 11.8782C209.559 10.809 209.448 9.72013 209.449 8.6285C209.445 7.62832 209.539 6.63015 209.729 5.6482C209.874 4.80344 210.133 3.98239 210.5 3.2077C210.913 2.23077 211.613 1.40237 212.507 0.832513C213.401 0.262653 214.448 -0.0217242 215.507 0.017099ZM215.367 1.11869C214.847 1.11246 214.332 1.21193 213.851 1.41111C213.371 1.61028 212.936 1.905 212.573 2.27734C211.321 3.52915 210.694 5.65086 210.691 8.6425C210.62 10.3487 210.938 12.0487 211.622 13.6137C211.928 14.3723 212.456 15.0208 213.137 15.4743C213.817 15.9278 214.619 16.1652 215.437 16.1553C216.143 16.1711 216.839 15.9954 217.453 15.647C218.067 15.2986 218.574 14.7904 218.922 14.1765C219.843 12.4793 220.273 10.5593 220.164 8.6315C220.236 6.92515 219.918 5.22488 219.233 3.66035C218.92 2.89609 218.384 2.24433 217.694 1.79083C217.004 1.33734 216.193 1.10238 215.367 1.11869ZM230.639 0.017099C231.322 0.00496873 232 0.132381 232.632 0.39154C233.264 0.650698 233.837 1.03615 234.315 1.52428C235.797 2.99439 236.528 5.36378 236.528 8.63449C236.6 10.5044 236.244 12.3661 235.486 14.0773C235.081 15.0447 234.393 15.8667 233.512 16.435C232.63 17.0033 231.597 17.2913 230.549 17.2609C229.854 17.2806 229.162 17.1575 228.516 16.8991C227.87 16.6407 227.284 16.2526 226.794 15.7588C225.792 14.6814 225.133 13.3307 224.901 11.8782C224.684 10.8086 224.577 9.7198 224.581 8.6285C224.577 7.62832 224.671 6.63015 224.861 5.6482C225.003 4.80396 225.259 3.98296 225.622 3.2077C226.038 2.23098 226.74 1.40319 227.635 0.833583C228.531 0.263975 229.578 -0.0206891 230.639 0.017099ZM230.489 1.11869C229.971 1.11248 229.456 1.21201 228.978 1.41123C228.499 1.61044 228.066 1.90515 227.705 2.27734C226.443 3.52915 225.812 5.65086 225.812 8.6425C225.742 10.3487 226.06 12.0487 226.744 13.6137C227.05 14.3724 227.578 15.0209 228.258 15.4744C228.939 15.9279 229.741 16.1653 230.559 16.1553C231.265 16.1731 231.962 15.9982 232.576 15.6496C233.19 15.301 233.698 14.7917 234.044 14.1765C234.969 12.4804 235.402 10.5602 235.296 8.6315C235.368 6.92515 235.05 5.22488 234.365 3.66035C234.05 2.89587 233.511 2.24431 232.819 1.79099C232.128 1.33766 231.316 1.1027 230.489 1.11869ZM240.564 16.9325V0.343558H241.815V7.65408H250.748V0.343558H252V16.9325H250.748V8.7116H241.815V16.9325H240.564Z" fill="#1E1E1E"/>
</svg>
