<svg width="139" height="18" viewBox="0 0 139 18" fill="none" xmlns="http://www.w3.org/2000/svg">
<path d="M8.68029 17.6377V13.7116H0V12.8916L5.60013 0.352293H6.93024L1.42008 12.6106H8.68029V5.3564H9.96023V12.6106H12.9603V13.7106H9.96023V17.6377H8.68029ZM29.6108 10.1845V9.08452H34.7509V16.9847C32.7068 17.6638 30.5648 18.0017 28.4108 17.9847C26.9172 18.0592 25.4322 17.7183 24.1206 16.9997C21.8106 15.563 20.6573 12.95 20.6606 9.16052C20.5146 6.70787 21.2605 4.28519 22.7606 2.33935C23.4528 1.56275 24.3115 0.952535 25.2725 0.554264C26.2336 0.155993 27.2722 -0.0200882 28.3108 0.0392353C29.9249 -0.0568339 31.5203 0.425392 32.8109 1.39932C33.357 1.8632 33.7909 2.44469 34.0801 3.10023C34.3694 3.75578 34.5064 4.46833 34.4809 5.18439H33.2109C33.2151 4.25277 32.8771 3.35203 32.2609 2.65332C31.7473 2.14193 31.1294 1.74738 30.4494 1.49661C29.7694 1.24585 29.0435 1.14476 28.3208 1.20028C27.3747 1.13776 26.4285 1.32191 25.5748 1.73472C24.7211 2.14753 23.9892 2.7749 23.4507 3.55538C22.4166 5.23404 21.9146 7.18625 22.0106 9.15551C21.8912 11.1971 22.4813 13.2172 23.6807 14.8737C24.206 15.5276 24.8867 16.0394 25.6607 16.3627C26.591 16.6925 27.5742 16.8474 28.5608 16.8197C30.2354 16.8051 31.8953 16.5079 33.4709 15.9407V10.1865L29.6108 10.1845ZM39.1911 17.6377V0.352293H44.3412C45.7458 0.264683 47.1431 0.614013 48.3413 1.35232C48.8583 1.72322 49.2739 2.21799 49.5499 2.79126C49.826 3.36454 49.9538 3.9979 49.9214 4.63335C49.9575 5.39203 49.7431 6.14158 49.3114 6.76647C48.7874 7.39407 48.1032 7.86785 47.3314 8.13748C47.8059 8.21171 48.2673 8.35383 48.7014 8.55949C49.0889 8.75743 49.4377 9.02329 49.7313 9.34448C50.1491 9.78919 50.4748 10.3123 50.6894 10.8835C50.9039 11.4547 51.0031 12.0628 50.9814 12.6726C50.9989 13.6375 50.7348 14.5865 50.2213 15.4037C49.7235 16.1915 48.9829 16.7959 48.1113 17.1257C46.9249 17.5144 45.6788 17.6892 44.4313 17.6418L39.1911 17.6377ZM40.4811 7.71144H44.7512C45.7422 7.77153 46.7238 7.48908 47.5313 6.91143C47.8763 6.6383 48.1521 6.28771 48.3363 5.88809C48.5204 5.48847 48.6077 5.05109 48.5913 4.61138C48.6153 4.15569 48.5298 3.70089 48.3419 3.28505C48.154 2.86921 47.8692 2.50443 47.5113 2.2213C46.6225 1.60444 45.5508 1.30693 44.4712 1.37728H40.4811V7.71144ZM40.4811 16.6117H44.1813C47.8114 16.6117 49.628 15.3147 49.6314 12.7206C49.6677 12.112 49.5448 11.5044 49.2748 10.9578C49.0047 10.4112 48.5968 9.9444 48.0913 9.60352C47.1866 9.04379 46.1341 8.77022 45.0713 8.81853H40.4811V16.6117ZM68.0018 10.1895V9.08953H73.142V16.9897C71.0978 17.6688 68.9558 18.0067 66.8019 17.9897C65.3083 18.0642 63.8232 17.7233 62.5117 17.0047C60.2016 15.568 59.0483 12.955 59.0517 9.16552C58.9057 6.71288 59.6515 4.29014 61.1517 2.34429C61.8439 1.5677 62.7025 0.95754 63.6636 0.559269C64.6246 0.160998 65.6633 -0.0150831 66.7019 0.0442404C68.3163 -0.055387 69.913 0.427204 71.202 1.40432C71.748 1.86826 72.1819 2.44976 72.4711 3.1053C72.7603 3.76083 72.8974 4.47335 72.872 5.1894H71.6019C71.6062 4.25778 71.2682 3.35704 70.6519 2.65832C70.1404 2.14701 69.5244 1.75243 68.846 1.50162C68.1676 1.25081 67.4429 1.1497 66.7218 1.20528C65.7741 1.14169 64.8261 1.32531 63.9706 1.73813C63.1151 2.15096 62.3815 2.77883 61.8416 3.56033C60.8076 5.23901 60.3057 7.19127 60.4017 9.16052C60.2823 11.2021 60.8723 13.2223 62.0718 14.8787C62.5987 15.5351 63.2833 16.0474 64.0618 16.3677C64.9884 16.6984 65.9685 16.8534 66.9519 16.8247C68.6264 16.8101 70.2864 16.5129 71.8619 15.9457V10.1915L68.0018 10.1895ZM77.5822 17.6427V0.352293H81.9323C84.1439 0.245425 86.3242 0.90801 88.1024 2.22734C89.9691 3.72738 90.9025 5.98141 90.9025 8.98949C90.9025 11.9976 89.9691 14.2553 88.1024 15.7627C86.3025 17.0921 84.0967 17.7549 81.8622 17.6377L77.5822 17.6427ZM78.8821 16.5427H81.7722C83.7402 16.6601 85.686 16.0746 87.2624 14.8907C88.7958 13.6179 89.5625 11.6532 89.5625 8.99651C89.5625 6.35577 88.7958 4.39472 87.2624 3.11335C85.6775 1.92328 83.7203 1.33717 81.7422 1.46029H78.8821V16.5427ZM94.5925 17.6427V0.352293H98.9427C101.158 0.243919 103.342 0.906538 105.123 2.22734C106.983 3.72738 107.923 5.98141 107.923 8.98949C107.923 11.9976 106.983 14.2626 105.123 15.7627C103.318 17.0907 101.11 17.7532 98.8727 17.6377L94.5925 17.6427ZM95.8926 16.5427H98.7927C100.758 16.6603 102.7 16.0746 104.273 14.8907C105.813 13.6176 106.573 11.6526 106.573 8.99651C106.573 6.35544 105.813 4.39639 104.273 3.11335C102.688 1.92328 100.731 1.33717 98.7527 1.46029H95.8926V16.5427ZM111.423 17.6427V0.352293H116.043C116.95 0.337968 117.856 0.396791 118.753 0.528262C119.392 0.620614 120.012 0.810159 120.593 1.09029C121.299 1.44588 121.873 2.01628 122.233 2.7193C122.636 3.51362 122.835 4.39528 122.813 5.28541C122.902 6.33752 122.609 7.38639 121.989 8.24063C121.368 9.09487 120.461 9.69751 119.433 9.93855C119.84 10.1697 120.189 10.49 120.453 10.8755C120.798 11.4328 121.079 12.0264 121.293 12.6456L123.123 17.6377H121.683L119.933 12.8676C119.701 12.0468 119.214 11.3208 118.543 10.7936C117.752 10.3717 116.858 10.1808 115.963 10.2425H112.723V17.6377L111.423 17.6427ZM112.723 9.14251H116.303C117.541 9.23838 118.782 8.99642 119.893 8.44248C120.409 8.11158 120.827 7.64945 121.104 7.10357C121.382 6.5577 121.509 5.94775 121.473 5.33638C121.507 4.74834 121.397 4.16096 121.151 3.6257C120.905 3.09043 120.532 2.62368 120.063 2.26635C118.924 1.62406 117.616 1.34198 116.313 1.4573H112.723V9.14251ZM127.663 8.90849C128.213 8.24025 128.912 7.7109 129.704 7.36341C130.497 7.01591 131.36 6.86005 132.224 6.90844C133.568 6.85348 134.895 7.22673 136.014 7.97445C136.708 8.46778 137.267 9.1278 137.639 9.89375C138.011 10.6597 138.185 11.507 138.144 12.3576C138.184 13.187 138.029 14.0144 137.692 14.7734C137.356 15.5324 136.846 16.202 136.204 16.7287C135.052 17.6046 133.629 18.0484 132.184 17.9827C131.326 18.0384 130.467 17.8998 129.671 17.5772C128.874 17.2547 128.161 16.7564 127.584 16.1197C126.603 14.7269 126.14 13.0356 126.273 11.3376C126.252 9.31688 126.433 7.29911 126.813 5.3144C127.062 3.83797 127.749 2.47021 128.784 1.38827C129.298 0.914873 129.902 0.549603 130.559 0.314084C131.217 0.0785654 131.916 -0.0223734 132.614 0.0172621C133.413 -0.0505704 134.217 0.0821932 134.952 0.403503C135.687 0.724813 136.331 1.22447 136.824 1.85728C137.314 2.58056 137.601 3.42229 137.654 4.29436H136.394C136.321 3.61053 136.066 2.95894 135.654 2.40832C135.269 1.97727 134.79 1.64086 134.254 1.42526C133.718 1.20965 133.14 1.12069 132.564 1.1653C131.618 1.12358 130.69 1.42788 129.954 2.02128C129.177 2.76388 128.617 3.70386 128.334 4.74041C127.938 6.09626 127.713 7.49703 127.663 8.90849ZM132.164 8.05245C130.996 7.99617 129.85 8.38099 128.954 9.13049C128.506 9.54517 128.154 10.0526 127.922 10.6175C127.691 11.1823 127.585 11.7908 127.613 12.4006C127.592 13.0236 127.703 13.6441 127.941 14.2202C128.18 14.7964 128.538 15.3148 128.993 15.7407C129.924 16.4473 131.06 16.8299 132.229 16.8299C133.397 16.8299 134.533 16.4473 135.464 15.7407C135.919 15.3195 136.278 14.8052 136.516 14.2327C136.754 13.6603 136.866 13.0432 136.844 12.4236C136.875 11.832 136.78 11.2404 136.564 10.6885C136.349 10.1366 136.018 9.63717 135.594 9.22351C134.646 8.40263 133.416 7.98334 132.164 8.05245Z" fill="#1E1E1E"/>
</svg>
