<svg width="74" height="23" viewBox="0 0 74 23" fill="none" xmlns="http://www.w3.org/2000/svg">
<path d="M0 21.8358V0.00266052H5.52143C6.69458 -0.0154083 7.86734 0.0585801 9.02892 0.223957C9.85786 0.35042 10.6621 0.605062 11.4127 0.978787C12.3252 1.45772 13.0614 2.2148 13.5146 3.14028C14.0373 4.18165 14.2965 5.33537 14.2695 6.50024C14.3256 7.96112 13.9045 9.40053 13.07 10.6009C12.5778 11.2174 11.966 11.728 11.2714 12.1019C10.5767 12.4758 9.81359 12.7053 9.02793 12.7765C7.8713 12.9451 6.70337 13.0245 5.53456 13.014H1.64208V21.8358H0ZM1.64313 11.6225H5.88723C6.881 11.6437 7.8741 11.5542 8.84808 11.3557C9.54981 11.2087 10.2111 10.9108 10.7862 10.4827C11.3438 9.98357 11.7902 9.37269 12.0962 8.68977C12.4023 8.00684 12.5612 7.26714 12.5626 6.51878C12.5641 5.77041 12.408 5.03012 12.1046 4.34603C11.8011 3.66194 11.3571 3.04936 10.8014 2.54812C10.01 1.97446 9.08012 1.62185 8.10735 1.52651C7.37601 1.43104 6.63892 1.38679 5.90142 1.39412H1.63906L1.64313 11.6225ZM18.3105 21.8358V6.1304H19.894V9.32766C20.428 8.34974 21.1588 7.493 22.0403 6.81146C23.0161 6.18993 24.1558 5.87527 25.3123 5.90808H26.0368V7.44809H25.5801C24.8002 7.42399 24.0225 7.54425 23.2862 7.80279C22.6689 8.04769 22.1204 8.43884 21.6876 8.94264C20.9321 9.81626 20.3314 10.8125 19.9112 11.8883V21.8358H18.3105ZM29.605 21.8358V6.1304H31.2036V21.8358H29.605ZM30.4336 0.165333C30.599 0.163115 30.7632 0.194798 30.916 0.258403C31.0687 0.322009 31.2069 0.416188 31.3219 0.535178C31.4418 0.652387 31.5365 0.79291 31.6001 0.948103C31.6637 1.1033 31.6949 1.26988 31.6917 1.43757C31.6945 1.60675 31.6618 1.77462 31.5955 1.93027C31.5291 2.08593 31.4307 2.22589 31.3067 2.34098C31.1895 2.46095 31.0489 2.55566 30.8938 2.61927C30.7386 2.68287 30.572 2.71403 30.4043 2.71082C30.2343 2.71412 30.0654 2.68307 29.9077 2.61954C29.75 2.55601 29.6068 2.46131 29.4866 2.3411C29.3664 2.22089 29.2717 2.07766 29.2082 1.91997C29.1447 1.76229 29.1136 1.59338 29.1169 1.42342C29.1127 1.25768 29.1434 1.09292 29.2071 0.939869C29.2709 0.786818 29.3661 0.648916 29.4867 0.535178C29.6117 0.41409 29.7595 0.319057 29.9215 0.255566C30.0836 0.192075 30.2566 0.161395 30.4306 0.165333H30.4336ZM47.8144 18.7123L48.7026 19.9411C47.9326 20.7062 47.0175 21.3099 46.0111 21.7166C45.0046 22.1234 43.9271 22.325 42.8417 22.3097C41.8823 22.3589 40.9238 22.1976 40.0335 21.8369C39.1432 21.4762 38.3426 20.925 37.6881 20.222C36.3173 18.536 35.6302 16.3965 35.763 14.2276C35.6611 11.969 36.335 9.74358 37.6729 7.92103C38.3092 7.1523 39.1183 6.54507 40.0342 6.14903C40.9502 5.75298 41.9468 5.57935 42.9427 5.64232C44.4263 5.55551 45.8872 6.03719 47.0282 6.98934C47.5341 7.46989 47.9327 8.05193 48.198 8.69732C48.4632 9.34271 48.589 10.0369 48.5672 10.7343H47.0424C46.7958 8.26662 45.4047 7.0331 42.869 7.03378C42.0422 6.98538 41.2174 7.15714 40.4788 7.53154C39.7401 7.90594 39.114 8.46958 38.6642 9.16496C37.7601 10.6668 37.3177 12.4014 37.392 14.1528C37.3213 15.1111 37.4434 16.0738 37.7509 16.9841C38.0585 17.8944 38.5453 18.7339 39.1826 19.453C39.6754 19.942 40.2634 20.3245 40.9103 20.5765C41.5572 20.8286 42.249 20.9449 42.9427 20.9182C43.8602 20.893 44.7634 20.6849 45.5995 20.3061C46.4355 19.9273 47.1875 19.3854 47.8114 18.7123H47.8144ZM65.8288 14.2418H53.451C53.4636 15.4787 53.7359 16.6991 54.2504 17.824C54.6861 18.7538 55.367 19.5472 56.2198 20.1189C57.0589 20.6546 58.0367 20.9325 59.0321 20.9182C61.0677 20.8787 63.0194 20.1 64.5232 18.7274L65.4115 19.9562C63.644 21.4743 61.3913 22.3092 59.0614 22.3097C58.0137 22.3538 56.9704 22.1502 56.0161 21.7155C55.0619 21.2807 54.2236 20.6271 53.5693 19.8077C52.3363 18.1656 51.7135 16.1455 51.808 14.0942C51.7258 11.9669 52.367 9.87455 53.6269 8.15848C54.2336 7.35326 55.025 6.70565 55.9344 6.27022C56.8438 5.83479 57.8445 5.62431 58.8522 5.65647C59.8205 5.62689 60.7821 5.82593 61.6591 6.23747C62.5361 6.64901 63.3037 7.26144 63.8997 8.02511C65.2525 9.80648 65.9345 12.0075 65.8257 14.2418H65.8288ZM64.1412 12.8503C64.0363 11.7087 63.699 10.6007 63.15 9.59441C62.7358 8.81154 62.1125 8.15898 61.3494 7.70938C60.5864 7.25979 59.7135 7.03081 58.828 7.04793C57.6745 7.02272 56.5522 7.42309 55.6752 8.17264C55.0693 8.69131 54.58 9.33216 54.2392 10.0532C53.8606 10.9456 53.6112 11.8875 53.4985 12.8503H64.1412ZM72.5941 19.4671C72.7789 19.4648 72.9622 19.5004 73.1327 19.5717C73.3032 19.6429 73.4573 19.7484 73.5855 19.8814C73.7176 20.0074 73.8226 20.1591 73.8939 20.3271C73.9651 20.4952 74.0012 20.676 73.9998 20.8586C74.0037 21.0451 73.9673 21.2304 73.8932 21.4016C73.8191 21.5728 73.709 21.7261 73.5703 21.8509C73.4393 21.9856 73.282 22.0918 73.1082 22.1631C72.9343 22.2344 72.7476 22.2691 72.5598 22.2652C72.3704 22.2695 72.1821 22.235 72.0066 22.1637C71.8311 22.0924 71.672 21.986 71.5392 21.8509C71.4076 21.7214 71.3031 21.5671 71.2318 21.3968C71.1604 21.2265 71.1237 21.0437 71.1237 20.8591C71.1237 20.6745 71.1604 20.4917 71.2318 20.3214C71.3031 20.1512 71.4076 19.9968 71.5392 19.8673C71.8238 19.601 72.2015 19.4573 72.5911 19.4671H72.5941ZM72.5941 8.95782C72.7789 8.95552 72.9622 8.9911 73.1327 9.06236C73.3032 9.13361 73.4573 9.23901 73.5855 9.3721C73.7178 9.5016 73.8228 9.65649 73.8939 9.82746C73.9651 9.99843 74.001 10.182 73.9996 10.3672C73.9981 10.5523 73.9594 10.7353 73.8857 10.9052C73.8119 11.075 73.7046 11.2283 73.5703 11.3557C73.4372 11.4866 73.2792 11.5893 73.1056 11.6579C72.932 11.7264 72.7464 11.7594 72.5598 11.7549C72.3717 11.7596 72.1845 11.7267 72.0093 11.6582C71.834 11.5896 71.6742 11.4868 71.5392 11.3557C71.4044 11.2248 71.2979 11.0675 71.2265 10.8937C71.155 10.7198 71.1201 10.5331 71.1239 10.3452C71.1197 10.16 71.1545 9.97587 71.226 9.80491C71.2976 9.63396 71.4043 9.47996 71.5392 9.35292C71.8247 9.08874 72.2023 8.94691 72.5911 8.95782H72.5941Z" fill="#1E1E1E"/>
</svg>
