<svg width="30" height="18" viewBox="0 0 30 18" fill="none" xmlns="http://www.w3.org/2000/svg">
<path d="M7.68624 0.0186434C8.81965 -0.0637418 9.95514 0.147731 10.9829 0.632621C12.0107 1.11751 12.8959 1.85943 13.553 2.78658C14.5803 4.619 15.1198 6.68453 15.1198 8.78526C15.1198 10.886 14.5803 12.9515 13.553 14.7839C12.3025 16.6292 10.3048 17.5518 7.55996 17.5518C4.81512 17.5518 2.81743 16.6292 1.56688 14.7839C0.539527 12.9515 0 10.886 0 8.78526C0 6.68452 0.539527 4.61897 1.56688 2.78658C2.25024 1.75466 3.2432 0.965954 4.40302 0.533917C5.45853 0.170101 6.57002 -0.00432619 7.68624 0.0186434ZM7.46932 1.79158C6.67672 1.73229 5.88204 1.87537 5.15989 2.20741C4.43775 2.53944 3.81182 3.04956 3.34087 3.68983C2.40339 5.21962 1.95635 6.99964 2.05977 8.79085C2.05977 13.4495 3.89283 15.7789 7.55894 15.7789C11.2251 15.7789 13.0581 13.4611 13.0581 8.82547C13.1705 7.02249 12.7231 5.22878 11.777 3.68983C11.3434 3.06014 10.7448 2.56195 10.0468 2.24986C9.22836 1.92127 8.35087 1.76524 7.46932 1.79158ZM17.7446 12.3134H19.6999C19.6782 13.1798 19.9709 14.0248 20.5237 14.6923C20.9737 15.0982 21.5023 15.4071 22.0768 15.5998C22.6513 15.7925 23.2593 15.8649 23.863 15.8124C24.9784 15.894 26.0861 15.5732 26.9853 14.9081C27.3092 14.6338 27.567 14.2898 27.7392 13.9019C27.9115 13.5139 27.9939 13.092 27.9802 12.6678C27.9993 12.2487 27.9116 11.8315 27.7255 11.4555C27.5394 11.0796 27.2608 10.757 26.916 10.518C26.5399 10.2614 26.1327 10.0537 25.7042 9.89984C24.9537 9.63945 24.1903 9.41817 23.4169 9.23689C22.6049 9.04037 21.8034 8.80243 21.0156 8.52402C20.5175 8.33629 20.0449 8.08654 19.6093 7.78063C19.133 7.42394 18.7544 6.95282 18.5086 6.41096C18.2628 5.8691 18.1576 5.27401 18.2029 4.68072C18.1586 3.5033 18.5822 2.35623 19.3811 1.49019C19.9285 0.970136 20.5785 0.570236 21.2894 0.316122C22.0004 0.0620085 22.7566 -0.0407446 23.5096 0.0145411C27.1234 0.0145411 28.9419 1.73798 28.965 5.18481H27.0097C27.0368 4.36059 26.8049 3.54858 26.3468 2.86291C25.9973 2.47398 25.5625 2.17133 25.0764 1.97874C24.5903 1.78614 24.0662 1.70887 23.5452 1.75292C22.6353 1.69246 21.7362 1.9788 21.0289 2.55436C20.7588 2.7949 20.5443 3.09124 20.4001 3.42287C20.256 3.75449 20.1855 4.11347 20.1938 4.47498C20.1723 4.87332 20.2627 5.26974 20.4547 5.6194C20.6468 5.96906 20.9328 6.25801 21.2804 6.45366C21.6165 6.65164 21.9729 6.81284 22.3436 6.93438C22.7326 7.06405 23.3921 7.24323 24.3222 7.47203C25.2393 7.68187 26.1409 7.95412 27.0209 8.28677C27.594 8.51768 28.1267 8.83797 28.5994 9.23583C29.0655 9.63893 29.4335 10.1431 29.6753 10.71C29.917 11.2768 30.0262 11.8914 29.9945 12.5069C30.0261 13.1721 29.9137 13.8362 29.6651 14.454C29.4164 15.0718 29.0372 15.6286 28.5536 16.0864C27.244 17.1476 25.5799 17.6711 23.8986 17.5508C21.4131 17.5508 19.671 16.8913 18.6724 15.5721C18.0224 14.6131 17.6972 13.4709 17.7446 12.3134Z" fill="#6C757D"/>
</svg>
