<svg width="110" height="19" viewBox="0 0 110 19" fill="none" xmlns="http://www.w3.org/2000/svg">
<path d="M0.00488364 12.7634H2.00871C1.986 13.6526 2.28605 14.5199 2.85334 15.205C3.31524 15.6219 3.85797 15.9393 4.44782 16.1373C5.03767 16.3354 5.662 16.4099 6.28189 16.3563C7.42709 16.4397 8.56435 16.1106 9.48803 15.4285C9.82118 15.1463 10.0862 14.7925 10.2631 14.3934C10.4401 13.9943 10.5245 13.5604 10.5099 13.1241C10.5292 12.6943 10.4392 12.2666 10.2482 11.8811C10.0572 11.4956 9.77152 11.1649 9.41789 10.9199C9.03192 10.6561 8.61371 10.443 8.17351 10.2856C7.40312 10.0177 6.61922 9.79027 5.82503 9.60435C4.99138 9.40362 4.16843 9.16083 3.35932 8.87695C2.84779 8.68437 2.36265 8.42782 1.91552 8.11347C1.42639 7.74748 1.03755 7.26401 0.785 6.70776C0.53245 6.15152 0.424406 5.54055 0.470801 4.93142C0.425396 3.72278 0.860127 2.54531 1.68008 1.65618C2.24217 1.12233 2.90964 0.711808 3.63964 0.450935C4.36963 0.190062 5.14607 0.0845664 5.9192 0.141261C9.62963 0.141261 11.4965 1.9113 11.5199 5.4514H9.51604C9.54354 4.60521 9.3053 3.7717 8.83475 3.06787C8.47605 2.66846 8.02962 2.35768 7.5305 2.16001C7.03137 1.96234 6.49318 1.88315 5.95828 1.92867C5.02433 1.86695 4.1016 2.16079 3.37534 2.75123C3.09833 2.99829 2.87827 3.30257 2.73037 3.64301C2.58247 3.98344 2.51027 4.35194 2.51872 4.72301C2.49676 5.13197 2.58953 5.5389 2.78657 5.89793C2.98361 6.25696 3.27706 6.55381 3.63383 6.75491C3.97914 6.95789 4.3453 7.12316 4.72594 7.24786C5.12671 7.38145 5.80364 7.56543 6.7568 7.79988C7.69844 8.01442 8.62435 8.29296 9.52809 8.6335C10.1161 8.87066 10.6629 9.19932 11.1482 9.60735C11.6266 10.0213 12.0042 10.5391 12.2523 11.121C12.5005 11.703 12.6125 12.3339 12.5799 12.9658C12.6123 13.6486 12.4969 14.3305 12.2417 14.9647C11.9865 15.5989 11.5974 16.1707 11.1011 16.6408C9.75631 17.7297 8.04794 18.267 6.32195 18.1437C3.77107 18.1437 1.98268 17.4664 0.956715 16.1118C0.28867 15.1266 -0.0450249 13.9527 0.00488364 12.7634ZM15.6909 17.8V0H17.6867V7.22077C18.4008 6.4614 19.224 5.81275 20.1293 5.29613C20.854 4.91908 21.66 4.72535 22.4768 4.732C23.1115 4.67062 23.7502 4.7985 24.3124 5.09947C24.8745 5.40043 25.3351 5.86105 25.6359 6.42329C25.886 6.90827 26.0526 7.43187 26.1288 7.9722C26.2292 8.79011 26.2723 9.61401 26.2581 10.4379V17.8H24.2622V10.3327C24.2977 9.50187 24.2064 8.67044 23.9917 7.86702C23.8561 7.45484 23.5831 7.10171 23.2184 6.86664C22.8536 6.63157 22.4193 6.52881 21.9879 6.57555C21.2639 6.58635 20.5585 6.80663 19.957 7.20976C19.1088 7.80749 18.3462 8.51843 17.6907 9.32281V17.8H15.6909ZM35.5809 4.74405C36.4097 4.71908 37.2337 4.87897 37.9931 5.21205C38.7525 5.54513 39.4283 6.04304 39.9713 6.66973C41.0227 8.04528 41.5923 9.72854 41.5923 11.4599C41.5923 13.1912 41.0227 14.8745 39.9713 16.25C39.3946 16.8584 38.7 17.3428 37.93 17.6739C37.1599 18.005 36.3304 18.1758 35.4922 18.1758C34.654 18.1758 33.8246 18.005 33.0545 17.6739C32.2844 17.3428 31.5899 16.8584 31.0132 16.25C29.9623 14.8743 29.3929 13.1911 29.3929 11.4599C29.3929 9.72867 29.9623 8.04549 31.0132 6.66973C31.5825 6.02816 32.2882 5.52221 33.0786 5.18899C33.869 4.85577 34.724 4.70374 35.5809 4.74405ZM35.4276 6.46933C34.8235 6.44942 34.2243 6.58347 33.6862 6.85881C33.1481 7.13415 32.6889 7.54178 32.3517 8.04339C31.7442 9.07946 31.4238 10.2588 31.4238 11.4599C31.4238 12.661 31.7442 13.8403 32.3517 14.8764C32.7169 15.3647 33.1908 15.7611 33.736 16.0342C34.2811 16.3072 34.8825 16.4494 35.4922 16.4494C36.1019 16.4494 36.7033 16.3072 37.2484 16.0342C37.7936 15.7611 38.2676 15.3647 38.6327 14.8764C39.2402 13.8403 39.5605 12.661 39.5605 11.4599C39.5605 10.2588 39.2402 9.0795 38.6327 8.04339C38.2754 7.53117 37.7938 7.11803 37.2333 6.84273C36.6727 6.56743 36.0514 6.43894 35.4276 6.46933ZM46.8284 18.0916L43.0481 5.11775H45.0791L47.7091 14.5578L51.1496 5.11775H52.2247L55.6642 14.5578L58.2943 5.11775H60.3261L56.5449 18.0916H55.1713L51.6846 8.44014L48.197 18.0916H46.8284ZM68.3385 17.8V0H70.3343V17.8H68.3385ZM85.1396 11.9769H75.6064C75.6624 12.501 75.7447 13.0219 75.8528 13.5378C75.9331 13.8449 76.0512 14.1407 76.2045 14.4185C76.5055 15.0441 76.9823 15.5684 77.5767 15.9272C78.1711 16.2859 78.8571 16.4636 79.5509 16.4384C80.2833 16.4459 81.0111 16.3224 81.7 16.0737C82.4713 15.7575 83.1944 15.3346 83.8481 14.8173L84.8109 16.3442C83.3158 17.5086 81.4808 18.1518 79.586 18.1757C78.7327 18.221 77.8804 18.0698 77.0948 17.7339C76.3091 17.398 75.611 16.8862 75.0543 16.238C74.0126 14.9144 73.4833 13.2595 73.5635 11.5771C73.483 9.80201 74.041 8.05682 75.1365 6.65774C75.6527 6.03033 76.3073 5.53098 77.0488 5.19896C77.7904 4.86694 78.5988 4.71125 79.4107 4.74405C80.7493 4.70619 82.0501 5.1901 83.0386 6.09361C84.4239 7.35202 85.1242 9.31311 85.1396 11.9769ZM83.1207 10.4149C83.0314 9.60482 82.7795 8.82102 82.3803 8.11047C82.0822 7.58222 81.6462 7.14483 81.119 6.84487C80.5918 6.54491 79.993 6.39367 79.3866 6.40726C77.336 6.40726 76.0876 7.74315 75.6414 10.4149H83.1207ZM87.1474 13.9016H89.003C89.0296 14.5091 89.2391 15.0944 89.6041 15.5807C89.9877 15.9285 90.4396 16.1926 90.9308 16.3563C91.4221 16.52 91.942 16.5797 92.4576 16.5316C94.5556 16.5316 95.6046 15.7999 95.6046 14.3364C95.6284 14.0322 95.5684 13.7272 95.4312 13.4547C95.294 13.1821 95.0847 12.9524 94.8261 12.7904C94.6106 12.652 94.3736 12.5504 94.1247 12.4899C93.8903 12.4278 93.2291 12.2941 92.141 12.0891C91.0967 11.948 90.0839 11.6302 89.1462 11.1493C88.6969 10.8776 88.3311 10.4874 88.0888 10.0215C87.8465 9.55568 87.7371 9.03215 87.7726 8.50826C87.7495 7.96474 87.8543 7.42334 88.0786 6.92773C88.3029 6.43211 88.6404 5.99611 89.064 5.65479C89.9527 5.01302 91.0343 4.69484 92.1289 4.7531C92.9658 4.73465 93.7973 4.89055 94.5706 5.21095C95.2194 5.46847 95.7702 5.9243 96.1446 6.51342C96.5207 7.15308 96.7118 7.8846 96.6967 8.62647H94.8411C94.8193 8.11678 94.6524 7.62394 94.3602 7.20579C94.0602 6.9125 93.6999 6.68807 93.3043 6.5481C92.9088 6.40812 92.4875 6.35594 92.0698 6.39522C91.4538 6.35494 90.8432 6.53224 90.3445 6.89617C90.1401 7.06995 89.9787 7.28854 89.8727 7.53497C89.7667 7.7814 89.719 8.04898 89.7334 8.31686C89.7084 8.56246 89.7473 8.81039 89.8461 9.03662C89.9449 9.26284 90.1003 9.45972 90.2974 9.60833C91.0783 9.98418 91.9152 10.2303 92.7752 10.3368C93.4602 10.4563 94.1381 10.6132 94.806 10.8067C95.2415 10.9346 95.6595 11.116 96.0504 11.3467C96.5356 11.6437 96.9289 12.0694 97.1868 12.5765C97.4447 13.0835 97.557 13.6522 97.5112 14.2192C97.5398 14.7729 97.4366 15.3255 97.2102 15.8316C96.9838 16.3377 96.6406 16.7829 96.2087 17.1307C95.1124 17.8881 93.7937 18.2561 92.4636 18.1757C88.9736 18.1757 87.2015 16.751 87.1474 13.9016ZM99.6172 13.9016H101.472C101.498 14.5092 101.707 15.0947 102.073 15.5807C102.456 15.9285 102.908 16.1927 103.399 16.3564C103.89 16.5201 104.41 16.5798 104.925 16.5316C107.023 16.5316 108.072 15.7999 108.072 14.3364C108.097 14.032 108.038 13.7265 107.902 13.4532C107.765 13.1799 107.556 12.9493 107.298 12.7864C107.082 12.6481 106.845 12.5466 106.597 12.4858C106.362 12.4237 105.701 12.2902 104.613 12.0851C103.569 11.9442 102.556 11.6263 101.619 11.1453C101.17 10.8735 100.804 10.4834 100.562 10.0176C100.319 9.55171 100.21 9.02812 100.245 8.50423C100.222 7.96067 100.327 7.41922 100.551 6.92357C100.775 6.42792 101.113 5.99197 101.537 5.65081C102.425 5.00904 103.506 4.69079 104.601 4.74907C105.438 4.73071 106.27 4.88666 107.043 5.20697C107.692 5.4648 108.242 5.92058 108.616 6.50945C108.993 7.14888 109.184 7.88056 109.169 8.6225H107.313C107.291 8.1128 107.124 7.6199 106.832 7.20175C106.532 6.90854 106.172 6.68416 105.777 6.54418C105.381 6.40421 104.96 6.35198 104.543 6.39118C103.926 6.35093 103.315 6.52821 102.816 6.89214C102.612 7.06601 102.451 7.28469 102.345 7.53112C102.239 7.77754 102.192 8.04509 102.206 8.31288C102.181 8.5584 102.22 8.80622 102.318 9.03246C102.417 9.25869 102.572 9.45569 102.769 9.60435C103.55 9.9802 104.387 10.2262 105.247 10.3327C105.932 10.4523 106.61 10.6091 107.278 10.8026C107.714 10.9302 108.132 11.1116 108.522 11.3427C109.009 11.639 109.405 12.0649 109.664 12.5729C109.923 13.0808 110.036 13.6508 109.99 14.2192C110.019 14.773 109.916 15.3257 109.69 15.832C109.463 16.3382 109.12 16.7833 108.688 17.1307C107.591 17.8884 106.273 18.2564 104.942 18.1757C101.447 18.1757 99.6713 16.751 99.6152 13.9016H99.6172Z" fill="#1E1E1E"/>
</svg>
