<svg width="256" height="18" viewBox="0 0 256 18" fill="none" xmlns="http://www.w3.org/2000/svg">
<path d="M8.52635 10.1973V8.59315H13.9532V16.2827C11.922 16.9648 9.79055 17.3 7.64812 17.2742C6.23773 17.3399 4.8342 17.0413 3.57275 16.407C2.26236 15.6461 1.25884 14.4515 0.735531 13.0294C0.224405 11.6779 -0.0203739 10.2402 0.0146955 8.79569C-0.114675 6.44692 0.613554 4.13112 2.06391 2.27911C2.7503 1.51643 3.59955 0.91799 4.5487 0.528196C5.49785 0.138402 6.52255 -0.0327828 7.54686 0.0273489C9.95633 0.0273489 11.6941 0.729171 12.7601 2.13274C13.3893 3.01908 13.7134 4.0859 13.6835 5.17246H11.7586C11.753 4.37498 11.4657 3.6051 10.9475 2.9989C10.5039 2.55838 9.97039 2.21878 9.38352 2.0032C8.79665 1.78762 8.17018 1.70117 7.54686 1.74975C6.73162 1.69721 5.91662 1.85615 5.18084 2.21113C4.44506 2.56611 3.81344 3.10509 3.34718 3.7759C2.415 5.27141 1.96039 7.01535 2.04386 8.77562C1.94507 10.576 2.4655 12.3559 3.51861 13.8195C3.97614 14.4027 4.5777 14.8568 5.26405 15.1368C6.07415 15.4363 6.93418 15.5775 7.7975 15.5529C9.24423 15.5467 10.6795 15.2955 12.0423 14.81V10.1982L8.52635 10.1973ZM17.9774 16.9524V0.345174H23.1115C23.9706 0.329165 24.8295 0.38585 25.679 0.514612C26.2682 0.609414 26.836 0.807611 27.3563 1.10009C28.0059 1.47311 28.5274 2.03412 28.8521 2.70922C29.2165 3.46731 29.3979 4.30038 29.3814 5.14137C29.4171 5.77658 29.3114 6.41177 29.072 7.00121C28.8326 7.59065 28.4654 8.11967 27.9969 8.55007C27.5017 8.94001 26.9517 9.25485 26.3647 9.48446C26.7647 9.6983 27.1051 10.0084 27.3553 10.3867C27.6761 10.912 27.9297 11.4756 28.1102 12.064L29.7433 16.9524H27.5598L26.2986 13.0796C26.1108 12.4861 25.9908 12.1332 25.9387 12.0209C25.8547 11.8251 25.7541 11.637 25.6379 11.4585C25.3766 10.9889 24.9806 10.6082 24.501 10.3657C23.8596 10.1506 23.1834 10.0591 22.5079 10.096H19.9594V16.9524H17.9774ZM19.9594 8.46281H22.9671C24.0438 8.54676 25.1229 8.33275 26.086 7.84424C26.5093 7.55928 26.8498 7.16765 27.0732 6.7089C27.2966 6.25015 27.395 5.74056 27.3583 5.23163C27.3937 4.73444 27.3028 4.23633 27.0943 3.78361C26.8857 3.33089 26.5661 2.93823 26.1652 2.64203C25.2259 2.14257 24.1627 1.92365 23.1024 2.0114H19.9594V8.46281ZM42.2161 12.2916H35.1681L33.4087 16.9524H31.3584L37.8891 0.345174H39.4881L46.0188 16.9524H43.9695L42.2161 12.2916ZM41.6145 10.6694L38.6871 2.88967L35.7486 10.6694H41.6145ZM48.5572 16.9524V0.345174H53.1399C54.0797 0.326036 55.0194 0.393166 55.947 0.545697C56.5987 0.656029 57.2247 0.885075 57.7937 1.22143C58.4723 1.62245 59.0169 2.21547 59.3587 2.92571C59.7392 3.7108 59.9281 4.57491 59.9101 5.44714C59.968 6.17092 59.8485 6.89791 59.562 7.56508C59.2755 8.23225 58.8306 8.81949 58.2659 9.27592C56.7322 10.2104 54.9437 10.6396 53.1529 10.503H50.5382V16.9524H48.5572ZM50.5393 8.86888H53.2522C54.407 8.95399 55.5615 8.69956 56.5736 8.13697C57.006 7.83242 57.353 7.42194 57.5812 6.94479C57.8094 6.46765 57.9112 5.93988 57.8769 5.41208C57.9086 4.90652 57.814 4.40104 57.6017 3.94112C57.3894 3.4812 57.0661 3.08129 56.6608 2.77739C55.6464 2.18633 54.4757 1.91906 53.3053 2.0114H50.5382L50.5393 8.86888ZM63.0872 16.9524V0.345174H65.0682V7.38206H73.0886V0.345174H75.0697V16.9524H73.0846V9.03226H65.0642V16.9524H63.0872ZM79.4628 16.9524V0.345174H81.4449V16.9524H79.4628ZM97.1448 13.1016L98.4291 14.3969C97.854 15.1903 97.122 15.8571 96.2786 16.3559C95.0586 16.9995 93.6933 17.3175 92.3145 17.2793C91.2431 17.3568 90.1692 17.1693 89.1874 16.7334C88.2056 16.2975 87.3463 15.6266 86.6852 14.7799C85.5417 12.8846 84.961 10.7031 85.0109 8.4901C85.0608 6.27712 85.7392 4.12397 86.9669 2.28211C87.6128 1.52377 88.4259 0.92566 89.3422 0.534927C90.2585 0.144194 91.253 -0.0285349 92.2474 0.0303473C93.8015 -0.0650404 95.3363 0.415793 96.5583 1.38083C97.0845 1.85949 97.5004 2.44671 97.7774 3.10188C98.0543 3.75706 98.1857 4.46453 98.1624 5.17546H96.2375C96.2271 4.38271 95.9491 3.61679 95.4485 3.00196C95.0446 2.56879 94.5487 2.23169 93.9973 2.0155C93.4459 1.79932 92.8531 1.70953 92.2624 1.75275C91.4766 1.70788 90.693 1.87168 89.991 2.22753C89.2889 2.58338 88.6936 3.1186 88.2652 3.7789C87.3837 5.28428 86.9575 7.01292 87.0381 8.75555C86.9438 10.5436 87.4425 12.3128 88.4567 13.7884C88.9207 14.3767 89.5211 14.8431 90.2058 15.1472C90.8906 15.4513 91.6391 15.584 92.3867 15.5338C93.5497 15.5603 94.6929 15.2304 95.6631 14.5884C96.217 14.1565 96.7147 13.657 97.1448 13.1016ZM106.208 16.9524L108.012 0.345174H109.938L115.051 13.5789L120.152 0.345174H122.077L123.874 16.9524H121.982L120.578 4.08369L115.599 16.9524H114.496L109.508 4.08369L108.1 16.9524H106.208ZM127.291 16.9524V0.345174H137.548V2.0144H129.273V7.49734H136.174V9.15256H129.273V15.2892H137.729V16.9524H127.291ZM139.997 16.9524L141.801 0.345174H143.727L148.84 13.5789L153.941 0.345174H155.866L157.671 16.9524H155.775L154.371 4.08369L149.387 16.9524H148.284L143.296 4.08369L141.888 16.9524H139.997ZM167.812 0.0183539C168.927 -0.0629488 170.045 0.145175 171.057 0.622552C172.069 1.09993 172.941 1.83041 173.587 2.7433C174.599 4.54715 175.13 6.58066 175.13 8.64883C175.13 10.717 174.599 12.7505 173.587 14.5543C172.357 16.3709 170.391 17.2793 167.688 17.2793C164.986 17.2793 163.019 16.3709 161.788 14.5543C160.777 12.7505 160.245 10.717 160.245 8.64883C160.245 6.58066 160.777 4.54715 161.788 2.7433C162.461 1.72746 163.439 0.951015 164.58 0.525626C165.619 0.167556 166.713 -0.00416168 167.812 0.0183539ZM167.598 1.76376C166.818 1.70481 166.035 1.84547 165.324 2.17239C164.613 2.49932 163.997 3.00178 163.534 3.63253C162.611 5.13847 162.17 6.89092 162.273 8.65434C162.273 13.2407 164.077 15.5338 167.686 15.5338C171.296 15.5338 173.1 13.252 173.1 8.68842C173.211 6.91357 172.771 5.1478 171.84 3.63253C171.411 3.01125 170.819 2.5204 170.129 2.21394C169.325 1.89186 168.464 1.73859 167.598 1.76376ZM178.57 16.9524V0.345174H183.704C184.563 0.329174 185.421 0.385859 186.271 0.514612C186.86 0.609422 187.428 0.807615 187.949 1.10009C188.599 1.47295 189.121 2.03398 189.446 2.70922C189.81 3.46729 189.992 4.30037 189.975 5.14137C190.011 5.77658 189.905 6.41177 189.666 7.00121C189.426 7.59065 189.059 8.11967 188.591 8.55007C188.095 8.94009 187.545 9.25494 186.957 9.48446C187.358 9.69813 187.698 10.0082 187.949 10.3867C188.27 10.912 188.523 11.4755 188.703 12.064L190.335 16.9524H188.151L186.89 13.0796C186.703 12.4861 186.583 12.1332 186.53 12.0209C186.446 11.8251 186.346 11.6369 186.23 11.4585C185.968 10.9887 185.572 10.608 185.093 10.3657C184.451 10.1506 183.775 10.0591 183.1 10.096H180.555V16.9524H178.57ZM180.551 8.46281H183.559C184.635 8.54661 185.714 8.33261 186.678 7.84424C187.101 7.55928 187.441 7.16765 187.665 6.7089C187.888 6.25015 187.987 5.74056 187.95 5.23163C187.985 4.73435 187.894 4.23621 187.685 3.78349C187.477 3.33076 187.157 2.93811 186.756 2.64203C185.817 2.14266 184.754 1.92373 183.694 2.0114H180.552L180.551 8.46281ZM196.88 16.9524V10.4559L191.227 0.345174H193.389L197.87 8.4969L202.34 0.345174H204.502L198.861 10.4559V16.9524H196.88ZM210.874 12.1221H212.799C212.778 12.9751 213.066 13.807 213.61 14.4641C214.053 14.8638 214.573 15.168 215.139 15.3577C215.705 15.5475 216.303 15.6186 216.898 15.5669C217.996 15.6471 219.086 15.3312 219.971 14.6766C220.29 14.4065 220.544 14.0679 220.714 13.6859C220.883 13.304 220.964 12.8887 220.951 12.4711C220.97 12.0585 220.884 11.648 220.701 11.2778C220.517 10.9077 220.243 10.59 219.904 10.3547C219.533 10.1022 219.132 9.89769 218.71 9.74611C217.971 9.48973 217.22 9.27188 216.458 9.09345C215.659 8.90014 214.87 8.66589 214.094 8.39165C213.604 8.20678 213.138 7.96091 212.709 7.65981C212.24 7.30865 211.867 6.84485 211.625 6.3114C211.383 5.77796 211.28 5.19211 211.324 4.60803C211.281 3.44893 211.698 2.31975 212.484 1.46705C213.023 0.955071 213.663 0.561381 214.363 0.311213C215.063 0.0610456 215.807 -0.0401118 216.549 0.0143153C220.106 0.0143153 221.897 1.71099 221.919 5.10429H219.993C220.02 4.29283 219.792 3.49333 219.341 2.81845C218.997 2.4355 218.569 2.13756 218.09 1.94795C217.612 1.75834 217.096 1.68226 216.583 1.7257C215.687 1.66608 214.802 1.94798 214.105 2.5147C213.84 2.75146 213.628 3.04317 213.486 3.36965C213.344 3.69614 213.275 4.04958 213.283 4.40549C213.262 4.79764 213.351 5.18791 213.54 5.53214C213.729 5.87637 214.011 6.16083 214.353 6.35344C214.684 6.54832 215.035 6.70702 215.4 6.82669C215.783 6.95435 216.432 7.13075 217.348 7.35599C218.251 7.5626 219.139 7.83062 220.005 8.15808C220.569 8.38562 221.094 8.70092 221.559 9.09241C222.018 9.48929 222.38 9.98569 222.618 10.5437C222.856 11.1018 222.964 11.7068 222.933 12.3126C222.964 12.9675 222.853 13.6213 222.608 14.2295C222.364 14.8377 221.99 15.3859 221.514 15.8366C220.225 16.8812 218.587 17.3965 216.932 17.2783C214.484 17.2783 212.769 16.629 211.786 15.3303C211.147 14.3857 210.829 13.2612 210.877 12.1221H210.874ZM226.254 16.9524V0.345174H228.235V16.9524H226.254ZM231.045 16.9524V15.4546L239.689 2.0144H231.717V0.348173H242.065V1.61342L233.304 15.2822H242.496V16.9524H231.045ZM245.563 16.9524V0.345174H255.821V2.0144H247.544V7.49734H254.446V9.15256H247.544V15.2892H256V16.9524H245.563Z" fill="#6C757D"/>
</svg>
