<svg width="44" height="14" viewBox="0 0 44 14" fill="none" xmlns="http://www.w3.org/2000/svg">
<path d="M9.72485 10.8413L10.469 11.4142C9.96716 12.1918 9.27665 12.8297 8.4618 13.2685C7.58471 13.6763 6.6242 13.8729 5.65741 13.8424C4.59612 13.8883 3.54344 13.6336 2.62063 13.1074C1.6461 12.4715 0.916234 11.5238 0.55029 10.4192C0.170912 9.34097 -0.0111086 8.20316 0.0130293 7.06034C-0.0934624 5.20827 0.455452 3.37781 1.56353 1.88996C2.06604 1.29812 2.69887 0.830775 3.41236 0.524615C4.12585 0.218454 4.90058 0.0818055 5.67576 0.125387C6.87054 0.0553661 8.04967 0.424835 8.99085 1.16415C9.39986 1.52613 9.72603 1.97203 9.94716 2.47145C10.1683 2.97087 10.2792 3.51208 10.2723 4.05822H9.30381C9.30286 3.63424 9.21036 3.21547 9.03266 2.83053C8.85497 2.44558 8.59627 2.10353 8.27421 1.82778C7.54381 1.2537 6.63001 0.963967 5.70227 1.01227C4.8211 0.973933 3.94921 1.20506 3.20275 1.67487C2.39656 2.25892 1.80224 3.08938 1.50952 4.04089C1.17947 5.02168 1.02182 6.05224 1.04362 7.08685C0.959529 8.63338 1.38966 10.1643 2.26691 11.4407C2.63556 11.9398 3.12728 12.3349 3.69409 12.5875C4.34104 12.8494 5.03518 12.9747 5.73288 12.9555C6.50786 12.981 7.27746 12.818 7.97556 12.4805C8.67462 12.0727 9.27258 11.5124 9.72485 10.8413ZM16.9737 3.79011C17.6014 3.77116 18.225 3.898 18.7954 4.16066C19.3659 4.42332 19.8676 4.81465 20.2613 5.30392C20.9959 6.33276 21.3907 7.56534 21.3907 8.82949C21.3907 10.0936 20.9959 11.3262 20.2613 12.3551C19.8414 12.8309 19.325 13.212 18.7465 13.473C18.168 13.7341 17.5406 13.869 16.906 13.869C16.2713 13.869 15.6439 13.7341 15.0654 13.473C14.4869 13.212 13.9706 12.8309 13.5506 12.3551C12.773 11.3537 12.3735 10.1102 12.4222 8.84326C12.3725 7.56776 12.7718 6.31524 13.5506 5.30392C13.9643 4.80288 14.4891 4.40519 15.0833 4.14241C15.6775 3.87964 16.3247 3.75901 16.9737 3.79011ZM16.8575 4.63214C16.1888 4.62264 15.5339 4.823 14.9849 5.20504C14.4351 5.62588 14.0017 6.18002 13.7258 6.81504C13.4498 7.45007 13.3404 8.14499 13.4079 8.83408C13.3658 9.83054 13.6317 10.8158 14.1694 11.6558C14.4875 12.0815 14.9006 12.4271 15.3758 12.6652C15.8509 12.9032 16.375 13.0272 16.9065 13.0272C17.4379 13.0272 17.962 12.9032 18.4372 12.6652C18.9123 12.4271 19.3254 12.0815 19.6435 11.6558C20.1424 10.7972 20.4051 9.82194 20.4051 8.82899C20.4051 7.83604 20.1424 6.86077 19.6435 6.0022C19.3344 5.55531 18.9162 5.19486 18.4286 4.95507C17.941 4.71528 17.4002 4.60412 16.8575 4.63214ZM24.0606 13.5824V0H25.028V13.5824H24.0606ZM32.2402 3.79011C32.8681 3.77116 33.4918 3.89799 34.0624 4.16064C34.6329 4.4233 35.1349 4.81463 35.5288 5.30392C36.2628 6.33299 36.6573 7.56548 36.6573 8.82949C36.6573 10.0935 36.2628 11.326 35.5288 12.3551C35.1088 12.8309 34.5925 13.212 34.014 13.473C33.4355 13.7341 32.8081 13.869 32.1734 13.869C31.5388 13.869 30.9114 13.7341 30.3329 13.473C29.7544 13.212 29.2381 12.8309 28.8181 12.3551C28.0405 11.3537 27.6409 10.1102 27.6896 8.84326C27.6399 7.56776 28.0393 6.31524 28.8181 5.30392C29.2317 4.80302 29.7562 4.40542 30.3502 4.14265C30.9443 3.87987 31.5914 3.75917 32.2402 3.79011ZM32.124 4.63214C31.4552 4.62278 30.8004 4.82312 30.2514 5.20504C29.7021 5.62633 29.2691 6.18054 28.9932 6.81545C28.7173 7.45035 28.6076 8.14505 28.6744 8.83408C28.6323 9.83054 28.8982 10.8158 29.4359 11.6558C29.7541 12.0815 30.1673 12.4271 30.6425 12.6652C31.1177 12.9033 31.6419 13.0272 32.1734 13.0272C32.705 13.0272 33.2292 12.9033 33.7044 12.6652C34.1796 12.4271 34.5928 12.0815 34.911 11.6558C35.4098 10.7972 35.6726 9.82194 35.6726 8.82899C35.6726 7.83604 35.4098 6.86077 34.911 6.0022C34.6017 5.5553 34.1833 5.19485 33.6955 4.95507C33.2077 4.71529 32.6668 4.60414 32.124 4.63214ZM39.324 13.5824V4.07657H40.2822V6.01342C40.6057 5.42183 41.0479 4.90336 41.581 4.49044C42.1718 4.11457 42.8616 3.92427 43.5616 3.94404H44V4.87577H43.7227C43.2505 4.86098 42.7798 4.93391 42.3342 5.09086C41.9603 5.23904 41.628 5.47588 41.3659 5.781C40.9087 6.3097 40.5453 6.91269 40.2914 7.56391V13.5824H39.324Z" fill="#1E1E1E"/>
</svg>
