<svg width="117" height="13" viewBox="0 0 117 13" fill="none" xmlns="http://www.w3.org/2000/svg">
<path d="M0 12.2798V0.566968H4.39182C5.17331 0.541296 5.94967 0.702093 6.65668 1.03605C7.24313 1.32245 7.72813 1.78108 8.04679 2.35064C8.37346 2.95201 8.53725 3.62836 8.52191 4.31255C8.53913 4.99577 8.37299 5.67112 8.04076 6.26837C7.715 6.8267 7.22599 7.27176 6.63957 7.54371C5.92415 7.86183 5.14623 8.01463 4.36363 7.99067H1.23511V6.22911H4.07876C4.51982 6.24426 4.95941 6.17031 5.37124 6.01168C5.68316 5.88336 5.94446 5.65634 6.11513 5.36542C6.28764 5.04195 6.37231 4.67895 6.36073 4.31255C6.37124 3.94272 6.28668 3.57637 6.11513 3.24856C5.94659 2.94703 5.68286 2.70981 5.3652 2.57409C4.9546 2.40351 4.51202 2.32354 4.06769 2.33958H2.12294V12.2798H0ZM6.0507 6.97196L8.95072 12.2798H6.5832L3.73451 6.97196H6.0507ZM14.1468 12.4509C13.3511 12.4722 12.5639 12.283 11.8648 11.9023C11.2309 11.5363 10.7192 10.991 10.3942 10.335C10.0552 9.58468 9.87985 8.77074 9.87985 7.94736C9.87985 7.12398 10.0552 6.31003 10.3942 5.55968C10.7177 4.89929 11.2217 4.34403 11.8477 3.95817C12.5084 3.56201 13.268 3.36166 14.0381 3.38041C14.5603 3.37698 15.0789 3.46591 15.5702 3.64312C16.0515 3.81372 16.4891 4.08871 16.8516 4.44839C17.2436 4.8392 17.5443 5.31184 17.7323 5.83247C17.9594 6.47078 18.0679 7.14526 18.0524 7.82258V8.45772H10.8522V7.06154H16.0684C16.0713 6.69301 15.9828 6.32955 15.8107 6.00364C15.6484 5.69742 15.4045 5.44203 15.1061 5.26576C14.7907 5.08171 14.4304 4.98871 14.0653 4.99703C13.6713 4.98919 13.2837 5.0966 12.95 5.30607C12.6341 5.50424 12.3758 5.78193 12.201 6.11134C12.0244 6.44431 11.9321 6.81549 11.9323 7.1924V8.41042C11.9202 8.86492 12.0161 9.31582 12.2121 9.72606C12.3866 10.0747 12.6592 10.3647 12.9963 10.5605C13.357 10.7573 13.7632 10.8559 14.174 10.8464C14.4519 10.8503 14.7285 10.8078 14.9924 10.7206C15.2279 10.6378 15.4438 10.5072 15.6265 10.3371C15.8079 10.1639 15.9458 9.95042 16.0292 9.71395L17.9618 9.93138C17.8468 10.4296 17.6067 10.8904 17.2643 11.2702C16.9043 11.6614 16.4579 11.963 15.9607 12.151C15.3791 12.3622 14.7634 12.4639 14.1448 12.4509H14.1468ZM27.3998 3.49216L24.2712 12.2798H21.9832L18.8547 3.49517H21.0622L23.0814 10.021H23.173L25.1973 3.49517L27.3998 3.49216ZM28.8322 12.2798V3.49517H30.9027V12.2798H28.8322ZM29.873 2.24798C29.5591 2.25339 29.2555 2.13644 29.0264 1.92186C28.9141 1.82224 28.8244 1.69973 28.7632 1.56257C28.7021 1.42542 28.6711 1.27676 28.6721 1.12661C28.6705 0.976516 28.7013 0.827844 28.7624 0.690766C28.8236 0.553688 28.9136 0.43144 29.0264 0.332397C29.2539 0.114602 29.5581 -0.00470497 29.873 0.000261624C30.029 -0.00301969 30.1842 0.0245913 30.3295 0.0816058C30.4748 0.13862 30.6074 0.223865 30.7195 0.332397C30.8325 0.431268 30.9227 0.553525 30.9839 0.690643C31.0451 0.827761 31.0758 0.976476 31.0739 1.12661C31.0752 1.2768 31.0442 1.42556 30.9831 1.56276C30.922 1.69995 30.8321 1.82241 30.7195 1.92186C30.4913 2.13774 30.1871 2.2549 29.873 2.24798ZM36.9192 12.4509C36.1235 12.4722 35.3363 12.283 34.6372 11.9023C34.0033 11.5363 33.4916 10.991 33.1666 10.335C32.8276 9.58468 32.6522 8.77074 32.6522 7.94736C32.6522 7.12398 32.8276 6.31003 33.1666 5.55968C33.4901 4.89929 33.9941 4.34403 34.6201 3.95817C35.2808 3.56201 36.0404 3.36166 36.8105 3.38041C37.3327 3.37698 37.8513 3.46591 38.3425 3.64312C38.8239 3.81372 39.2615 4.08871 39.624 4.44839C40.016 4.8392 40.3167 5.31184 40.5047 5.83247C40.7318 6.47078 40.8403 7.14526 40.8248 7.82258V8.45772H33.6246V7.06154H38.8408C38.8437 6.69301 38.7552 6.32955 38.5831 6.00364C38.4208 5.69742 38.1769 5.44203 37.8785 5.26576C37.5631 5.08171 37.2028 4.98871 36.8377 4.99703C36.4437 4.98919 36.0561 5.0966 35.7224 5.30607C35.4065 5.50424 35.1482 5.78193 34.9734 6.11134C34.7968 6.44431 34.7045 6.81549 34.7047 7.1924V8.41042C34.6926 8.86492 34.7885 9.31582 34.9845 9.72606C35.159 10.0747 35.4316 10.3647 35.7687 10.5605C36.1294 10.7573 36.5356 10.8559 36.9464 10.8464C37.2243 10.8503 37.5009 10.8078 37.7648 10.7206C38.0003 10.6378 38.2162 10.5072 38.3989 10.3371C38.5803 10.1639 38.7182 9.95042 38.8016 9.71395L40.7342 9.93138C40.6192 10.4296 40.3791 10.8904 40.0367 11.2702C39.6767 11.6614 39.2303 11.963 38.7331 12.151C38.1528 12.3617 37.5385 12.4634 36.9212 12.4509H36.9192ZM44.3429 12.2798L41.8606 3.49517H43.9745L45.5186 9.67168H45.5992L47.1775 3.49517H49.2652L50.8436 9.63543H50.9291L52.4511 3.49517H54.565L52.0777 12.2798H49.9205L48.2737 6.34081H48.1539L46.5061 12.2798H44.3429ZM59.6433 12.4509C58.8476 12.4722 58.0604 12.283 57.3613 11.9023C56.7274 11.5366 56.216 10.9912 55.8917 10.335C55.552 9.58486 55.3763 8.77084 55.3763 7.94736C55.3763 7.12387 55.552 6.30986 55.8917 5.55968C56.2145 4.89914 56.7182 4.34379 57.3442 3.95817C58.0049 3.56216 58.7645 3.36183 59.5346 3.38041C60.0571 3.37718 60.576 3.4661 61.0676 3.64312C61.5485 3.814 61.9857 4.08896 62.348 4.44839C62.7404 4.83893 63.0412 5.31165 63.2288 5.83247C63.4563 6.47071 63.5651 7.1452 63.5499 7.82258V8.45772H56.3487V7.06154H61.5649C61.5678 6.69301 61.4793 6.32955 61.3072 6.00364C61.1455 5.69698 60.9015 5.44145 60.6026 5.26576C60.2871 5.08171 59.9269 4.98871 59.5618 4.99703C59.1678 4.98936 58.7802 5.09677 58.4464 5.30607C58.1306 5.50424 57.8723 5.78193 57.6975 6.11134C57.5209 6.44431 57.4286 6.81549 57.4288 7.1924V8.41042C57.4167 8.86492 57.5126 9.31582 57.7086 9.72606C57.8831 10.0747 58.1557 10.3647 58.4928 10.5605C58.8535 10.7573 59.2596 10.8559 59.6705 10.8464C59.9484 10.8503 60.225 10.8078 60.4888 10.7206C60.7244 10.6378 60.9403 10.5072 61.123 10.3371C61.3043 10.1639 61.4423 9.95042 61.5256 9.71395L63.4583 9.93138C63.3433 10.4296 63.1032 10.8904 62.7607 11.2702C62.4008 11.6614 61.9544 11.963 61.4572 12.151C60.8762 12.3619 60.2612 12.4636 59.6433 12.4509ZM65.3014 12.2798V3.49517H67.3086V4.95876H67.4002C67.5356 4.4867 67.8256 4.07378 68.2236 3.78608C68.616 3.50829 69.0866 3.36236 69.5674 3.36935C69.6822 3.36935 69.81 3.37435 69.9509 3.38643C70.0719 3.39105 70.1923 3.40454 70.3113 3.42673V5.33421C70.1751 5.29356 70.0351 5.26663 69.8935 5.25372C69.7135 5.22772 69.5319 5.21423 69.35 5.21342C68.9953 5.20801 68.6451 5.29287 68.3323 5.46003C68.0405 5.61396 67.7968 5.8452 67.6277 6.12842C67.4525 6.42831 67.3634 6.7707 67.37 7.11794V12.2798H65.3014ZM77.7521 7.13201V12.2798H75.6815V3.49517H77.6615V4.98794H77.7622C77.9557 4.50681 78.2932 4.09725 78.7285 3.81527C79.2254 3.51161 79.8004 3.36041 80.3824 3.38041C80.9353 3.36732 81.4817 3.5014 81.9657 3.76894C82.422 4.03042 82.7889 4.42329 83.0186 4.89633C83.2847 5.45432 83.4121 6.06831 83.3901 6.68609V12.2798H81.3255V7.00618C81.3552 6.50527 81.1917 6.01209 80.8685 5.62819C80.7082 5.45934 80.5131 5.32736 80.2967 5.24149C80.0803 5.15563 79.8478 5.1179 79.6153 5.13091C79.2778 5.12477 78.9446 5.20736 78.649 5.37045C78.369 5.52935 78.1408 5.76564 77.9917 6.05094C77.8286 6.38737 77.7499 6.75837 77.7622 7.13201H77.7521ZM88.0195 12.457C87.5025 12.4636 86.9899 12.3606 86.5156 12.155C86.0869 11.9639 85.7218 11.6541 85.4637 11.2621C85.1961 10.8261 85.0627 10.3209 85.0802 9.80961C85.0642 9.38307 85.1588 8.95965 85.355 8.58054C85.5335 8.26106 85.7915 7.99304 86.1039 7.80242C86.4359 7.60166 86.7968 7.45298 87.1739 7.36154C87.5813 7.25733 87.9958 7.18297 88.414 7.13908C88.9294 7.08539 89.3472 7.03772 89.6673 6.99611C89.9108 6.97539 90.1478 6.90704 90.3648 6.79484C90.438 6.74812 90.4972 6.68265 90.5365 6.6053C90.5758 6.52795 90.5937 6.44153 90.5883 6.35494V6.32072C90.5995 6.13608 90.571 5.95121 90.5049 5.77846C90.4387 5.60572 90.3364 5.44911 90.2048 5.31915C89.8948 5.06346 89.4984 4.93656 89.0975 4.96478C88.6697 4.94206 88.246 5.05827 87.8896 5.29599C87.6165 5.4909 87.4093 5.76444 87.2957 6.08013L85.362 5.80531C85.4973 5.30305 85.7569 4.84299 86.117 4.46756C86.4764 4.1 86.917 3.82178 87.4034 3.65522C87.9438 3.46649 88.5131 3.37349 89.0855 3.38041C89.5112 3.38058 89.9356 3.43059 90.3497 3.5294C90.7589 3.62406 91.1481 3.79034 91.4993 4.02059C91.8511 4.25178 92.1383 4.56879 92.3338 4.94168C92.5614 5.39321 92.6715 5.89485 92.6539 6.40022V12.2798H90.6769V11.0719H90.6084C90.4724 11.3298 90.2926 11.5621 90.077 11.7584C89.8285 11.9819 89.5389 12.1548 89.2244 12.2677C88.8404 12.4009 88.4359 12.4651 88.0295 12.457H88.0195ZM88.558 10.936C88.933 10.9451 89.3042 10.8603 89.6381 10.6893C89.9287 10.5362 90.1723 10.3069 90.3427 10.026C90.5094 9.75633 90.5966 9.44515 90.5943 9.12814V8.09333C90.4942 8.16318 90.3819 8.21372 90.2632 8.24232C90.0937 8.29171 89.9217 8.33165 89.7478 8.36207C89.5576 8.39629 89.3683 8.42649 89.1821 8.45367L88.6959 8.52217C88.4124 8.55625 88.134 8.62378 87.8665 8.72345C87.6422 8.80527 87.4431 8.94405 87.2887 9.12611C87.1214 9.3568 87.0495 9.64307 87.0879 9.92542C87.1263 10.2078 87.2722 10.4645 87.495 10.642C87.8127 10.8499 88.1877 10.9527 88.5671 10.936H88.558ZM94.7496 12.2798V3.49517H96.7276V4.98794H96.8282C96.9939 4.5069 97.312 4.09309 97.7342 3.80925C98.1843 3.51572 98.713 3.36613 99.2501 3.38041C99.7848 3.36263 100.311 3.51488 100.754 3.81527C101.165 4.09989 101.471 4.51204 101.624 4.98794H101.715C101.907 4.5023 102.253 4.09265 102.699 3.82129C103.196 3.51851 103.77 3.36545 104.352 3.38041C104.716 3.36674 105.08 3.4276 105.42 3.55932C105.76 3.69103 106.07 3.89081 106.331 4.14642C106.602 4.4489 106.809 4.80277 106.941 5.187C107.072 5.57123 107.125 5.97802 107.097 6.38314V12.2798H105.021V6.70323C105.04 6.48439 105.011 6.26397 104.936 6.05752C104.861 5.85107 104.742 5.66361 104.586 5.50838C104.292 5.2512 103.912 5.11427 103.522 5.12489C103.304 5.11309 103.087 5.14893 102.884 5.22994C102.681 5.31096 102.499 5.43514 102.349 5.5939C102.062 5.92889 101.913 6.36085 101.933 6.80184V12.2798H99.9074V6.61765C99.9169 6.41782 99.8852 6.21819 99.8142 6.03116C99.7432 5.84413 99.6345 5.67368 99.4947 5.5305C99.3542 5.39475 99.1874 5.28903 99.0047 5.21981C98.8219 5.15058 98.627 5.11934 98.4318 5.1279C98.1447 5.12497 97.8629 5.20425 97.6194 5.35638C97.3702 5.51043 97.1681 5.73018 97.0356 5.99153C96.8853 6.28492 96.8105 6.61118 96.8182 6.94075V12.2798H94.7496ZM113.093 12.4509C112.297 12.4722 111.51 12.283 110.811 11.9023C110.177 11.5363 109.665 10.991 109.34 10.335C109.001 9.58468 108.826 8.77074 108.826 7.94736C108.826 7.12398 109.001 6.31003 109.34 5.55968C109.664 4.89958 110.167 4.34439 110.793 3.95817C111.454 3.56213 112.214 3.3618 112.984 3.38041C113.506 3.37698 114.025 3.46591 114.516 3.64312C114.997 3.81399 115.435 4.08894 115.798 4.44839C116.19 4.8392 116.49 5.31184 116.678 5.83247C116.906 6.47078 117.014 7.14526 116.999 7.82258V8.45772H109.798V7.06154H115.015C115.017 6.69301 114.929 6.32955 114.757 6.00364C114.595 5.69742 114.351 5.44203 114.052 5.26576C113.737 5.08171 113.377 4.98871 113.011 4.99703C112.617 4.98919 112.23 5.0966 111.896 5.30607C111.58 5.50424 111.322 5.78193 111.147 6.11134C110.971 6.44431 110.878 6.81549 110.878 7.1924V8.41042C110.866 8.86492 110.962 9.31582 111.158 9.72606C111.333 10.0747 111.605 10.3647 111.942 10.5605C112.303 10.7573 112.709 10.8559 113.12 10.8464C113.398 10.8504 113.674 10.8079 113.937 10.7206C114.173 10.6381 114.39 10.5075 114.573 10.3371C114.754 10.1639 114.892 9.95043 114.975 9.71395L116.908 9.93138C116.793 10.4296 116.553 10.8904 116.21 11.2702C115.849 11.6621 115.401 11.9638 114.902 12.151C114.323 12.3614 113.71 12.4631 113.094 12.4509H113.093Z" fill="#757575"/>
</svg>
