<svg width="34" height="12" viewBox="0 0 34 12" fill="none" xmlns="http://www.w3.org/2000/svg">
<path d="M3.63958 11.7956H0V0.00218792H3.80073C4.82603 -0.0260136 5.84042 0.218848 6.73996 0.711669C7.5553 1.18129 8.208 1.88844 8.61093 2.73872C9.06896 3.72126 9.29175 4.79699 9.26161 5.88063C9.28979 6.97443 9.06539 8.06 8.60585 9.05298C8.19049 9.91082 7.52328 10.6215 6.69334 11.0902C5.75454 11.5881 4.70165 11.8313 3.63958 11.7956ZM1.42806 10.5287H3.54734C4.3916 10.5588 5.22858 10.3629 5.9717 9.96109C6.60644 9.59162 7.10834 9.03118 7.40585 8.3597C8.03347 6.77116 8.03564 5.00376 7.41193 3.41369C7.12304 2.75198 6.63617 2.19605 6.01833 1.82244C5.31256 1.43219 4.51456 1.23962 3.70849 1.26501H1.42806V10.5287ZM14.0738 11.9983C13.5484 12.0072 13.0276 11.8999 12.5485 11.6841C12.106 11.4854 11.7287 11.1656 11.46 10.7618C11.1806 10.3198 11.0394 9.80465 11.0545 9.28205C11.0365 8.85259 11.142 8.42695 11.3586 8.05566C11.5537 7.73898 11.8297 7.48008 12.1583 7.30566C12.5063 7.11994 12.8784 6.98347 13.264 6.90022C13.6694 6.809 14.0749 6.73809 14.4914 6.67727C15.0286 6.61646 15.4641 6.56576 15.7978 6.52522C16.0539 6.50916 16.3044 6.44376 16.5357 6.33265C16.6146 6.28723 16.6788 6.22012 16.7207 6.13927C16.7625 6.05842 16.7803 5.9672 16.7718 5.87655V5.82588C16.7866 5.58613 16.7528 5.34589 16.6725 5.1195C16.5922 4.8931 16.4671 4.68522 16.3046 4.50831C16.1158 4.33842 15.8945 4.20863 15.6541 4.12675C15.4137 4.04488 15.1592 4.01263 14.9059 4.03198C14.364 4.00055 13.827 4.15029 13.3796 4.45765C13.0505 4.69437 12.7837 5.00734 12.6022 5.36979L11.312 4.9036C11.5056 4.41512 11.8232 3.98544 12.2333 3.65692C12.6076 3.35992 13.0388 3.14268 13.5002 3.01846C13.9434 2.89919 14.4003 2.83781 14.8593 2.83597C15.1882 2.83879 15.516 2.87276 15.8384 2.93736C16.2182 3.00921 16.5828 3.14634 16.9158 3.34273C17.283 3.57551 17.5829 3.90056 17.7854 4.28537C18.0382 4.80887 18.1566 5.38706 18.13 5.96779V11.7956H16.7718V10.5996H16.7019C16.582 10.8286 16.4267 11.0372 16.2418 11.2179C15.9934 11.4563 15.7021 11.6454 15.3833 11.7753C14.9662 11.9366 14.5209 12.0124 14.0738 11.9983ZM14.2816 10.782C14.7544 10.7991 15.2234 10.6907 15.6408 10.4679C15.991 10.2767 16.2817 9.99263 16.481 9.6469C16.669 9.32737 16.7687 8.96361 16.7698 8.59286V7.34617C16.6622 7.4425 16.5311 7.5089 16.3897 7.53875C16.1972 7.58942 15.9742 7.64012 15.7208 7.68066C15.4674 7.7212 15.2282 7.76172 14.9901 7.79213C14.7519 7.82254 14.5654 7.83267 14.4195 7.85294C14.0823 7.89649 13.7504 7.97465 13.4292 8.08609C13.1479 8.16561 12.8933 8.3197 12.6924 8.53205C12.4988 8.76035 12.3998 9.05406 12.4157 9.353C12.4032 9.56204 12.4448 9.77071 12.5366 9.95893C12.6284 10.1471 12.7673 10.3085 12.9397 10.4273C13.3421 10.6756 13.8091 10.799 14.2816 10.782ZM24.4554 2.9475V4.10288H19.8722V2.9475H24.4554ZM21.2121 0.829205H22.5712V9.26176C22.5531 9.55834 22.6103 9.85468 22.7375 10.1232C22.8357 10.2974 22.99 10.4332 23.1753 10.5084C23.3593 10.5697 23.552 10.6006 23.7459 10.5996C23.8688 10.5995 23.9917 10.5927 24.1138 10.5793C24.2152 10.5591 24.2871 10.5388 24.3449 10.5287L24.6206 11.7449C24.4953 11.7921 24.3666 11.8293 24.2355 11.8564C24.0279 11.8921 23.8176 11.909 23.6071 11.907C23.2182 11.9059 22.8338 11.8231 22.479 11.6638C22.1106 11.4995 21.7949 11.2364 21.5668 10.9037C21.3163 10.5262 21.1914 10.0793 21.2101 9.62661L21.2121 0.829205ZM30.118 11.978C29.3439 12.002 28.5789 11.8051 27.9125 11.4104C27.2968 11.0315 26.8039 10.4823 26.4936 9.82933C26.1673 9.07411 25.9989 8.26012 25.9989 7.43742C25.9989 6.61472 26.1673 5.80073 26.4936 5.04551C26.799 4.38636 27.2815 3.82493 27.8872 3.42383C28.5114 3.02291 29.2415 2.81815 29.9832 2.83597C30.4484 2.83327 30.9104 2.91221 31.3484 3.06912C31.8058 3.2243 32.2242 3.47669 32.5748 3.80898C32.9689 4.1921 33.2704 4.66003 33.4565 5.17721C33.6921 5.84386 33.8031 6.5482 33.7839 7.25499V7.83271H26.9659V6.65698H32.4025C32.4086 6.19324 32.3043 5.73467 32.0984 5.31912C31.9105 4.93888 31.6193 4.61927 31.2582 4.39684C30.8728 4.16369 30.4294 4.04421 29.9791 4.05221C29.4808 4.04306 28.9912 4.18437 28.5744 4.45765C28.1869 4.71628 27.875 5.07302 27.6703 5.49147C27.4592 5.92016 27.3506 6.39201 27.3531 6.86985V7.65022C27.336 8.23681 27.4542 8.81951 27.6987 9.353C27.9122 9.79015 28.2514 10.1536 28.6727 10.3969C29.1127 10.6468 29.6121 10.7728 30.118 10.7618C30.4466 10.7663 30.7735 10.7149 31.0849 10.6098C31.3667 10.5144 31.6244 10.3587 31.84 10.1537C32.0582 9.93238 32.2252 9.66599 32.3295 9.37323L33.6471 9.74823C33.5097 10.189 33.2713 10.5917 32.9508 10.924C32.6069 11.2664 32.1945 11.5323 31.7406 11.7043C31.2198 11.8946 30.6684 11.9874 30.1139 11.978H30.118Z" fill="#B3B3B3"/>
</svg>
