<svg width="97" height="27" viewBox="0 0 97 27" fill="none" xmlns="http://www.w3.org/2000/svg">
<path d="M14.8533 22.9961V26.2297H0V0.288632H3.85182V22.9961H14.8533ZM41.6394 13.2612C41.6598 15.0864 41.3413 16.8994 40.7001 18.6084C40.1198 20.1684 39.2286 21.5942 38.0807 22.7994C36.9297 23.9808 35.5455 24.9098 34.0161 25.5272C30.6322 26.8278 26.8863 26.8278 23.5024 25.5272C21.973 24.9097 20.5888 23.9807 19.4378 22.7994C18.298 21.5879 17.4079 20.1638 16.8184 18.6084C15.5659 15.1598 15.5659 11.3806 16.8184 7.93206C17.4021 6.37376 18.2928 4.94857 19.4378 3.74103C20.5849 2.55063 21.9698 1.61506 23.5024 0.99517C26.8817 -0.329673 30.6367 -0.329673 34.0161 0.99517C35.5486 1.61509 36.9335 2.55066 38.0807 3.74103C39.2335 4.94243 40.1253 6.36935 40.7001 7.93206C41.3402 9.63433 41.6587 11.4406 41.6394 13.2592V13.2612ZM37.7013 13.2612C37.7213 11.8508 37.5076 10.4469 37.069 9.10628C36.6896 7.95077 36.0745 6.88658 35.2626 5.98106C34.4836 5.12072 33.5202 4.4476 32.4444 4.01199C31.274 3.54006 30.0211 3.30667 28.7592 3.32553C27.4916 3.30823 26.2331 3.54151 25.0559 4.01199C23.9834 4.45356 23.0213 5.12582 22.2378 5.98106C21.4257 6.88648 20.8106 7.9507 20.4313 9.10628C19.5879 11.8189 19.5879 14.7236 20.4313 17.4362C20.8129 18.5865 21.4279 19.6457 22.2378 20.5473C23.0213 21.4026 23.9834 22.0748 25.0559 22.5164C26.236 22.975 27.4933 23.2019 28.7592 23.1848C30.0194 23.2035 31.2711 22.9765 32.4444 22.5164C33.5204 22.0812 34.4839 21.408 35.2626 20.5473C36.0726 19.6458 36.6876 18.5866 37.069 17.4362C37.5097 16.0885 37.7234 14.6769 37.7013 13.2592V13.2612ZM67.6438 13.6044V23.7207C66.3671 24.6421 64.9526 25.3554 63.4527 25.8343C61.8825 26.3047 60.2505 26.5361 58.6114 26.5208C56.6707 26.5482 54.7417 26.2175 52.9209 25.5453C51.3102 24.9424 49.8411 24.0138 48.6055 22.8175C47.4002 21.63 46.4584 20.202 45.8415 18.6265C45.1875 16.9142 44.8627 15.0939 44.8841 13.2612C44.862 11.4257 45.1742 9.60154 45.8054 7.87787C46.3873 6.3023 47.3015 4.87049 48.486 3.67974C49.6705 2.48899 51.0976 1.56722 52.67 0.9771C54.4406 0.304952 56.3223 -0.026039 58.2159 0.00159838C59.1784 -0.00453291 60.1396 0.0740524 61.0882 0.236442C61.9325 0.380289 62.7612 0.604097 63.5631 0.904842C64.2942 1.18118 64.9947 1.53229 65.6536 1.9526C66.2979 2.34525 66.9028 2.79897 67.4601 3.30747L66.3562 5.04169C66.2853 5.16916 66.1896 5.28117 66.0749 5.37114C65.9601 5.4611 65.8285 5.52722 65.6878 5.56557C65.5316 5.59749 65.3704 5.5961 65.2147 5.56152C65.0591 5.52693 64.9125 5.45992 64.7845 5.36485C64.4714 5.1842 64.1221 4.97345 63.7368 4.73258C63.3088 4.46467 62.8549 4.24073 62.3819 4.06418C61.7897 3.83813 61.1793 3.66287 60.5574 3.5403C59.7418 3.38495 58.9126 3.31232 58.0825 3.32353C56.7662 3.30349 55.4589 3.54218 54.2347 4.02604C53.1231 4.46168 52.1231 5.14067 51.3082 6.01318C50.4774 6.92111 49.8438 7.99138 49.4475 9.15646C48.9969 10.4759 48.7769 11.8631 48.7971 13.2572C48.7753 14.7134 49.0076 16.1622 49.4836 17.5385C49.9012 18.7259 50.5593 19.8144 51.4165 20.736C52.2763 21.6141 53.3185 22.2925 54.4695 22.7231C55.7592 23.196 57.1245 23.4286 58.498 23.4096C59.0345 23.4117 59.5708 23.3815 60.1037 23.3193C60.5907 23.2511 61.0732 23.1546 61.5489 23.0303C61.999 22.9125 62.4398 22.7615 62.8676 22.5786C63.3012 22.398 63.7287 22.1993 64.1502 21.9825V16.545H60.3205C60.1012 16.5529 59.8874 16.4751 59.7244 16.3282C59.6532 16.2574 59.5972 16.1728 59.5599 16.0796C59.5226 15.9864 59.5048 15.8866 59.5076 15.7863V13.6004L67.6438 13.6044ZM96.9991 13.2612C97.0195 15.0864 96.701 16.8994 96.0598 18.6084C95.4795 20.1684 94.5883 21.5942 93.4404 22.7994C92.2894 23.9808 90.9052 24.9098 89.3758 25.5272C85.9919 26.8278 82.246 26.8278 78.862 25.5272C77.3326 24.9098 75.9484 23.9808 74.7975 22.7994C73.6577 21.5879 72.7676 20.1638 72.1781 18.6084C70.9256 15.1598 70.9256 11.3806 72.1781 7.93206C72.7617 6.37373 73.6525 4.94853 74.7975 3.74103C75.9446 2.55066 77.3295 1.61509 78.862 0.99517C82.2414 -0.329574 85.9964 -0.329574 89.3758 0.99517C90.9083 1.61509 92.2932 2.55066 93.4404 3.74103C94.5932 4.94243 95.485 6.36935 96.0598 7.93206C96.6999 9.63433 97.0184 11.4406 96.9991 13.2592V13.2612ZM93.061 13.2612C93.081 11.8508 92.8673 10.4469 92.4287 9.10628C92.0493 7.95077 91.4342 6.88658 90.6223 5.98106C89.8433 5.12072 88.8799 4.4476 87.8041 4.01199C86.6337 3.54008 85.3808 3.3067 84.1189 3.32553C82.8513 3.30825 81.5928 3.54154 80.4156 4.01199C79.343 4.45338 78.3809 5.12567 77.5975 5.98106C76.7856 6.88658 76.1705 7.95077 75.791 9.10628C74.948 11.8189 74.948 14.7235 75.791 17.4362C76.1725 18.5866 76.7875 19.6458 77.5975 20.5473C78.3809 21.4027 79.343 22.075 80.4156 22.5164C81.5957 22.975 82.853 23.2019 84.1189 23.1848C85.3791 23.2035 86.6308 22.9765 87.8041 22.5164C88.8801 22.0812 89.8436 21.408 90.6223 20.5473C91.4323 19.6458 92.0473 18.5866 92.4287 17.4362C92.8694 16.0885 93.0831 14.6769 93.061 13.2592V13.2612Z" fill="black"/>
</svg>
