<svg width="127" height="19" viewBox="0 0 127 19" fill="none" xmlns="http://www.w3.org/2000/svg">
<path d="M0 18.329V0.844775H6.55696C7.72348 0.807307 8.8822 1.04765 9.9376 1.54596C10.8129 1.97436 11.5366 2.65963 12.012 3.51023C12.4993 4.40779 12.7434 5.41715 12.7202 6.43815C12.7454 7.45795 12.4978 8.46595 12.003 9.358C11.5158 10.1905 10.7862 10.8544 9.91156 11.2611C8.84327 11.7351 7.68203 11.9628 6.51386 11.9273H1.84408V9.29791H6.08718C6.74553 9.32044 7.40163 9.21003 8.01637 8.97333C8.48175 8.78166 8.8716 8.4429 9.12625 8.00877C9.38412 7.52645 9.51053 6.98479 9.49283 6.43815C9.50906 5.88623 9.38283 5.33941 9.12625 4.85048C8.87511 4.40001 8.48159 4.04562 8.00738 3.84282C7.39436 3.5881 6.73351 3.46885 6.07013 3.49324H3.16525V18.329H0ZM9.0321 10.4068L13.3603 18.329H9.82841L5.57632 10.4068H9.0321ZM20.6354 18.5854C19.448 18.6162 18.2733 18.3336 17.2297 17.766C16.2847 17.2183 15.5218 16.4045 15.0361 15.4261C14.5297 14.3062 14.2678 13.0913 14.2678 11.8622C14.2678 10.6331 14.5297 9.41816 15.0361 8.29825C15.5189 7.31262 16.2708 6.48368 17.2047 5.90724C18.1913 5.31712 19.3249 5.01847 20.4742 5.04582C21.254 5.0406 22.0285 5.1735 22.762 5.43844C23.4798 5.69077 24.1328 6.09885 24.6742 6.63343C25.2595 7.21651 25.7086 7.92185 25.9894 8.69888C26.3282 9.65185 26.4901 10.6587 26.4671 11.6698V12.6174H15.7182V10.535H23.5042C23.5086 9.98471 23.3764 9.44201 23.1196 8.95535C22.8785 8.49788 22.5151 8.11637 22.0698 7.85348C21.5989 7.579 21.0612 7.44036 20.5162 7.45285C19.9282 7.4402 19.3493 7.60037 18.8515 7.91358C18.3806 8.20745 17.9949 8.61942 17.7326 9.10856C17.469 9.60557 17.3314 10.1597 17.3319 10.7223V12.5413C17.3136 13.2196 17.4567 13.8925 17.7496 14.5046C18.01 15.025 18.4166 15.4581 18.9196 15.7507C19.4583 16.0447 20.0649 16.1918 20.6785 16.1774C21.0927 16.1831 21.5051 16.1198 21.8985 15.99C22.2505 15.8668 22.5731 15.672 22.8461 15.4181C23.1186 15.1598 23.3266 14.841 23.4531 14.4875L26.338 14.8121C26.1659 15.5555 25.8074 16.2429 25.2962 16.8094C24.7593 17.3938 24.0926 17.8439 23.3499 18.1236C22.4816 18.4449 21.5611 18.6015 20.6354 18.5854ZM39.9366 5.21608L35.2708 18.329H31.8561L27.1864 5.21608H30.4818L33.4959 14.9573H33.6321L36.6542 5.21608H39.9366ZM41.5944 18.329V5.21608H44.6866V18.329H41.5944ZM43.148 3.35501C42.6797 3.36295 42.2267 3.18834 41.8849 2.86817C41.7185 2.71853 41.5854 2.53555 41.4943 2.33114C41.4033 2.12673 41.3562 1.90547 41.3562 1.68168C41.3562 1.4579 41.4033 1.23663 41.4943 1.03222C41.5854 0.827814 41.7185 0.644829 41.8849 0.495193C42.2288 0.177133 42.68 0.000470828 43.1485 0.000470828C43.6169 0.000470828 44.0682 0.177133 44.4121 0.495193C44.5785 0.644829 44.7116 0.827814 44.8027 1.03222C44.8938 1.23663 44.9408 1.4579 44.9408 1.68168C44.9408 1.90547 44.8938 2.12673 44.8027 2.33114C44.7116 2.53555 44.5785 2.71853 44.4121 2.86817C44.0711 3.19033 43.617 3.36525 43.148 3.35501ZM53.1877 18.5804C52.0002 18.6112 50.8255 18.3286 49.782 17.761C48.8366 17.2138 48.0735 16.3999 47.5884 15.4211C47.082 14.3012 46.8201 13.0862 46.8201 11.8572C46.8201 10.6281 47.082 9.41315 47.5884 8.29324C48.0706 7.30752 48.8221 6.47851 49.756 5.90223C50.743 5.31223 51.8769 5.01359 53.0265 5.0408C53.8063 5.03573 54.5808 5.16863 55.3143 5.43343C56.0319 5.68599 56.6849 6.09405 57.2265 6.62841C57.8115 7.21155 58.2603 7.9169 58.5407 8.69387C58.8799 9.64676 59.0422 10.6536 59.0195 11.6648V12.6125H48.2696V10.5299H56.0555C56.0607 9.97972 55.9289 9.43689 55.6719 8.95034C55.4305 8.4928 55.0667 8.11129 54.6212 7.84847C54.1503 7.57399 53.6125 7.43534 53.0676 7.44783C52.4795 7.43559 51.9008 7.59573 51.4028 7.90856C50.9323 8.2025 50.5468 8.61448 50.2849 9.10355C50.0214 9.60058 49.8838 10.1547 49.8843 10.7173V12.5363C49.8657 13.2147 50.0092 13.8878 50.3029 14.4996C50.5626 15.0201 50.969 15.4533 51.4719 15.7457C52.0107 16.0394 52.6173 16.1865 53.2309 16.1724C53.6454 16.178 54.0581 16.1147 54.4519 15.985C54.8038 15.8617 55.1264 15.667 55.3994 15.4131C55.672 15.155 55.8796 14.8362 56.0054 14.4825L58.8913 14.8071C58.7187 15.5503 58.3602 16.2376 57.8495 16.8044C57.3124 17.3886 56.6458 17.8386 55.9033 18.1186C55.035 18.4416 54.1141 18.5999 53.1877 18.5854V18.5804ZM63.7874 18.329L60.0813 5.21608H63.2315L65.5354 14.4365H65.6556L68.0115 5.21608H71.1307L73.4866 14.3844H73.6148L75.8856 5.21608H79.0439L75.3297 18.329H72.1114L69.6522 9.46719H69.4729L67.0148 18.329H63.7874ZM92.7497 5.21608V7.60606H85.2122V5.21608H92.7497ZM87.0733 2.07485H90.1625V14.3844C90.1441 14.7139 90.2085 15.0428 90.3497 15.341C90.4647 15.5434 90.6458 15.7001 90.8626 15.7847C91.087 15.8674 91.3247 15.9081 91.5638 15.9049C91.741 15.906 91.918 15.8915 92.0927 15.8618C92.258 15.8338 92.3832 15.8078 92.4683 15.7847L92.9891 18.2008C92.7565 18.2757 92.5201 18.3385 92.281 18.3891C91.9157 18.4644 91.544 18.5043 91.1711 18.5083C90.4571 18.5413 89.7441 18.4221 89.0796 18.1587C88.4769 17.9113 87.9622 17.4887 87.6022 16.9457C87.225 16.3311 87.0408 15.6175 87.0733 14.8972V2.07485ZM94.8543 18.329V5.21608H97.9444V18.329H94.8543ZM96.4079 3.35501C95.9393 3.36321 95.4858 3.18858 95.1437 2.86817C94.9773 2.71853 94.8443 2.53555 94.7532 2.33114C94.6621 2.12673 94.615 1.90547 94.615 1.68168C94.615 1.4579 94.6621 1.23663 94.7532 1.03222C94.8443 0.827814 94.9773 0.644829 95.1437 0.495193C95.4836 0.170298 95.9378 -0.00745919 96.4079 0.000409691C96.6407 -0.00460939 96.8721 0.0365307 97.0889 0.121461C97.3057 0.206392 97.5035 0.333388 97.671 0.495193C97.8376 0.644659 97.971 0.827608 98.0622 1.03204C98.1535 1.23647 98.2007 1.4578 98.2007 1.68168C98.2007 1.90556 98.1535 2.12696 98.0622 2.33139C97.971 2.53582 97.8376 2.7187 97.671 2.86817C97.3304 3.19027 96.8766 3.3652 96.4079 3.35501ZM107.189 5.21608V7.60606H99.6513V5.21608H107.189ZM101.512 2.07485H104.603V14.3844C104.584 14.7139 104.649 15.0428 104.79 15.341C104.905 15.5434 105.086 15.7001 105.303 15.7847C105.527 15.8674 105.765 15.9081 106.004 15.9049C106.181 15.906 106.358 15.8915 106.533 15.8618C106.698 15.8338 106.823 15.8078 106.908 15.7847L107.429 18.2008C107.197 18.2757 106.96 18.3385 106.721 18.3891C106.356 18.4644 105.984 18.5043 105.611 18.5083C104.897 18.5413 104.184 18.4221 103.52 18.1587C102.917 17.9113 102.402 17.4887 102.042 16.9457C101.665 16.3311 101.481 15.6175 101.513 14.8972L101.512 2.07485ZM112.665 0.844775V18.329H109.575V0.844775H112.665ZM121.167 18.5854C119.98 18.6165 118.805 18.3338 117.762 17.766C116.816 17.2186 116.053 16.4048 115.567 15.4261C115.06 14.3062 114.799 13.0913 114.799 11.8622C114.799 10.6331 115.06 9.41816 115.567 8.29825C116.05 7.31262 116.801 6.48368 117.735 5.90724C118.722 5.31712 119.856 5.01847 121.005 5.04582C121.785 5.0406 122.559 5.1735 123.293 5.43844C124.01 5.69074 124.664 6.09883 125.205 6.63343C125.79 7.21651 126.239 7.92185 126.52 8.69888C126.859 9.65185 127.021 10.6587 126.998 11.6698V12.6174H116.25V10.535H124.036C124.04 9.98471 123.908 9.442 123.651 8.95535C123.41 8.49788 123.047 8.11637 122.602 7.85348C122.131 7.579 121.593 7.44036 121.048 7.45285C120.46 7.4402 119.881 7.60037 119.383 7.91358C118.912 8.20745 118.527 8.61942 118.264 9.10856C118.001 9.60574 117.864 10.1598 117.864 10.7223V12.5413C117.845 13.2196 117.988 13.8925 118.281 14.5046C118.542 15.025 118.948 15.4581 119.451 15.7507C119.99 16.0447 120.597 16.1918 121.21 16.1774C121.625 16.1831 122.037 16.1198 122.43 15.99C122.782 15.8664 123.105 15.6717 123.379 15.4181C123.651 15.1598 123.859 14.841 123.985 14.4875L126.87 14.8121C126.697 15.5552 126.339 16.2424 125.829 16.8094C125.291 17.3936 124.625 17.8437 123.882 18.1236C123.013 18.4449 122.093 18.6015 121.167 18.5854Z" fill="#1E1E1E"/>
</svg>
