<svg width="64" height="18" viewBox="0 0 64 18" fill="none" xmlns="http://www.w3.org/2000/svg">
<path d="M4.45025 17.0644V1.62442L0 3.2108V2.07753L4.82363 0.343813H5.6815V17.0644H4.45025ZM15.8335 8.62083C16.3633 7.97263 17.0392 7.45913 17.8057 7.12235C18.5722 6.78558 19.4076 6.63511 20.2434 6.68327C21.5396 6.63142 22.8188 6.99257 23.8965 7.71462C24.5703 8.18979 25.1133 8.8274 25.4749 9.56834C25.8366 10.3093 26.0052 11.1295 25.9653 11.953C26.0054 12.7564 25.8553 13.5579 25.5274 14.2924C25.1995 15.0269 24.703 15.6738 24.0782 16.1803C22.9662 17.029 21.5903 17.4578 20.193 17.3913C19.3649 17.445 18.5354 17.3108 17.7665 16.9987C16.9976 16.6866 16.3092 16.2047 15.7528 15.589C14.8002 14.2443 14.3502 12.6078 14.4812 10.9651C14.459 9.01074 14.6348 7.05919 15.006 5.14029C15.2454 3.71357 15.9061 2.39107 16.9032 1.34287C17.4028 0.885768 17.9885 0.533019 18.6262 0.305317C19.2639 0.0776149 19.9407 -0.0204678 20.6168 0.0168443C21.3894 -0.0490977 22.1661 0.079237 22.8764 0.390147C23.5867 0.701056 24.208 1.18467 24.6837 1.79699C25.1575 2.49671 25.4362 3.31008 25.4911 4.15334H24.2699C24.2051 3.49042 23.9571 2.85865 23.5534 2.3288C23.1813 1.91255 22.7183 1.58768 22.2002 1.37941C21.6822 1.17115 21.1231 1.08508 20.5664 1.12791C19.6528 1.08768 18.7558 1.38189 18.0435 1.95542C17.2907 2.66942 16.7493 3.57734 16.4793 4.57921C16.0916 5.89313 15.8745 7.25149 15.8335 8.62083ZM20.1829 7.79334C19.0524 7.7373 17.9424 8.10994 17.0747 8.83679C16.6395 9.23641 16.2975 9.72668 16.0726 10.273C15.8476 10.8193 15.7454 11.4083 15.773 11.9984C15.7514 12.6016 15.86 13.2023 16.0917 13.7595C16.3233 14.3168 16.6724 14.8176 17.1151 15.2277C18.0147 15.9113 19.1135 16.2814 20.2434 16.2814C21.3733 16.2814 22.4721 15.9113 23.3717 15.2277C23.8111 14.8199 24.1574 14.3224 24.3873 13.7688C24.6172 13.2152 24.7252 12.6187 24.7039 12.0196C24.7348 11.4475 24.6428 10.8753 24.4339 10.3418C24.225 9.80822 23.904 9.32566 23.4928 8.92661C22.5795 8.13162 21.3918 7.72495 20.1829 7.79334ZM35.8247 17.0644V0.347847H40.8098C42.1667 0.262686 43.5169 0.599317 44.6749 1.31158C45.1749 1.66996 45.5764 2.14847 45.8428 2.70296C46.1091 3.25746 46.2315 3.87008 46.1986 4.48434C46.2337 5.21734 46.0282 5.94171 45.6134 6.54704C45.1083 7.15694 44.4449 7.61576 43.696 7.87305C44.1569 7.94361 44.6055 8.07954 45.0281 8.27672C45.3993 8.47089 45.7339 8.72799 46.0171 9.0366C46.4223 9.46586 46.7381 9.97147 46.946 10.524C47.1539 11.0765 47.2497 11.6648 47.228 12.2548C47.2449 13.188 46.9888 14.1059 46.4913 14.8957C46.0079 15.6591 45.2886 16.2441 44.4427 16.5618C43.2976 16.9371 42.0949 17.1059 40.8906 17.0603L35.8247 17.0644ZM37.0659 7.46537H41.2034C42.1602 7.52424 43.1081 7.25199 43.8878 6.69437C44.2217 6.43182 44.4883 6.09351 44.6656 5.70745C44.8428 5.32138 44.9256 4.89865 44.907 4.47425C44.9311 4.03387 44.8493 3.59414 44.6684 3.19189C44.4876 2.78964 44.2129 2.43658 43.8676 2.1623C43.0089 1.5666 41.9739 1.27887 40.9309 1.34589H37.0659V7.46537ZM37.0659 16.0673H40.6483C44.1602 16.0673 45.9162 14.813 45.9162 12.3042C45.9508 11.7164 45.8322 11.1296 45.5722 10.6013C45.3122 10.073 44.9195 9.62111 44.4326 9.2899C43.5595 8.74808 42.5429 8.48317 41.5163 8.53001H37.0659V16.0673ZM59.0351 9.85602V8.78936H64V16.4276C62.0215 17.0833 59.9487 17.4088 57.8644 17.3913C56.4206 17.4618 54.9853 17.1322 53.7169 16.4387C51.4866 15.0494 50.3732 12.5222 50.3765 8.85698C50.2355 6.48576 50.9558 4.14341 52.4049 2.26119C53.0753 1.51132 53.9061 0.922289 54.8356 0.537909C55.7651 0.15353 56.7694 -0.0162942 57.7736 0.041066C59.3335 -0.0543086 60.876 0.410976 62.123 1.35296C62.6517 1.80099 63.0717 2.36323 63.3514 2.99727C63.6311 3.63132 63.7632 4.32061 63.7376 5.01313H62.5065C62.5111 4.11385 62.1882 3.24363 61.5982 2.56495C61.1004 2.07084 60.5021 1.68964 59.8439 1.44726C59.1857 1.20488 58.4831 1.10699 57.7837 1.16022C56.8683 1.10008 55.953 1.2783 55.127 1.6775C54.301 2.07669 53.5926 2.6832 53.071 3.43785C52.0707 5.06162 51.5852 6.9501 51.6784 8.85496C51.5598 10.83 52.1304 12.785 53.293 14.3861C53.8026 15.0177 54.4616 15.5123 55.2104 15.8251C56.1101 16.1449 57.0614 16.2948 58.0158 16.2671C59.6333 16.2526 61.2368 15.9653 62.7588 15.4174V9.85199L59.0351 9.85602Z" fill="#1E1E1E"/>
</svg>
