<svg width="96" height="16" viewBox="0 0 96 16" fill="none" xmlns="http://www.w3.org/2000/svg">
<path d="M0 12.1169V0.367705H3.96925C4.74996 0.337551 5.52616 0.499107 6.23001 0.838242C6.79052 1.11702 7.24959 1.56439 7.54268 2.11754C7.83357 2.69117 7.97951 3.32735 7.96777 3.97041C7.98017 4.61 7.83414 5.24269 7.54268 5.81213C7.24977 6.35731 6.79505 6.79827 6.24114 7.0743C5.53979 7.40116 4.77074 7.55659 3.9975 7.5277H0.784537V6.24231H3.95208C4.47109 6.26313 4.98829 6.16899 5.46668 5.96664C5.82583 5.80845 6.12084 5.53334 6.30372 5.18611C6.48767 4.80923 6.57839 4.39367 6.56827 3.97442C6.57761 3.54811 6.48701 3.12555 6.30372 2.74055C6.12142 2.3825 5.82466 2.09568 5.46061 1.92569C4.97933 1.71169 4.4551 1.61182 3.92885 1.63387H1.42776V12.1169H0ZM5.53028 6.83906L8.42114 12.1169H6.76921L3.9238 6.83906H5.53028ZM13.7495 12.3007C12.9791 12.3209 12.2182 12.1262 11.5523 11.7383C10.9393 11.3567 10.4486 10.8072 10.1387 10.155C9.79602 9.4111 9.62719 8.59897 9.64494 7.78013C9.62802 6.95747 9.79677 6.14156 10.1387 5.39312C10.4418 4.73568 10.9227 4.17612 11.5271 3.77758C12.1496 3.37952 12.8764 3.17564 13.6152 3.19192C14.0781 3.19267 14.5377 3.27011 14.9753 3.42111C15.4312 3.57974 15.8478 3.83419 16.1971 4.16732C16.5893 4.54562 16.8895 5.00885 17.0745 5.52137C17.3099 6.18782 17.4208 6.89186 17.4017 7.59839V8.17191H10.6092V7.00164H16.0244C16.0329 6.5406 15.9307 6.08425 15.7265 5.67082C15.5402 5.28973 15.2496 4.96931 14.8885 4.74688C14.5052 4.51449 14.0632 4.39712 13.6152 4.40866C13.1183 4.39698 12.6299 4.53791 12.2157 4.81251C11.8299 5.07163 11.5192 5.42794 11.315 5.84548C11.1044 6.26957 10.9962 6.73712 10.999 7.21062V7.99115C10.9818 8.57425 11.0996 9.15346 11.3433 9.68348C11.5565 10.121 11.8936 10.4861 12.3126 10.7336C12.7527 10.9775 13.2495 11.1001 13.7525 11.089C14.08 11.0935 14.4059 11.0434 14.7168 10.9406C15.0034 10.8442 15.2641 10.6833 15.4788 10.4705C15.6936 10.2576 15.8568 9.99846 15.9558 9.71276L17.2684 10.0793C17.1329 10.5189 16.8948 10.92 16.5737 11.2495C16.2327 11.593 15.8219 11.8592 15.3691 12.0301C14.8506 12.2196 14.3014 12.3114 13.7495 12.3007ZM26.3964 3.30501L23.1369 12.1169H21.7607L18.5013 3.30501H19.9704L22.4029 10.3266H22.4947L24.9272 3.30501H26.3964ZM28.1836 12.1169V3.30501H29.5366V12.1169H28.1836ZM28.8712 1.83583C28.617 1.83944 28.3717 1.74258 28.1886 1.56627C28.1 1.48316 28.0293 1.38275 27.981 1.27125C27.9327 1.15975 27.9078 1.0395 27.9078 0.91799C27.9078 0.796477 27.9327 0.676232 27.981 0.564733C28.0293 0.453234 28.1 0.352883 28.1886 0.269776C28.3717 0.0934576 28.617 -0.00346251 28.8712 0.000149383C28.9964 -0.00207735 29.1207 0.0206097 29.237 0.0668936C29.3533 0.113178 29.4593 0.182163 29.5487 0.269776C29.639 0.351918 29.7111 0.451995 29.7605 0.563623C29.8098 0.675252 29.8353 0.795939 29.8353 0.91799C29.8353 1.04004 29.8098 1.16073 29.7605 1.27236C29.7111 1.38399 29.639 1.48412 29.5487 1.56627C29.4593 1.65388 29.3533 1.7228 29.237 1.76909C29.1207 1.81537 28.9964 1.83806 28.8712 1.83583ZM35.7111 12.3007C34.9407 12.3209 34.1799 12.1262 33.5139 11.7383C32.9009 11.3567 32.4103 10.8072 32.1003 10.155C31.7576 9.4111 31.5888 8.59897 31.6066 7.78013C31.5896 6.95747 31.7584 6.14156 32.1003 5.39312C32.4034 4.73568 32.8843 4.17612 33.4887 3.77758C34.1112 3.37952 34.8381 3.17564 35.5768 3.19192C36.0397 3.19267 36.4993 3.27011 36.9369 3.42111C37.3928 3.57974 37.8094 3.83419 38.1587 4.16732C38.5509 4.54562 38.8511 5.00885 39.0362 5.52137C39.2715 6.18782 39.3824 6.89186 39.3633 7.59839V8.17191H32.5708V7.00164H37.986C37.9945 6.5406 37.8924 6.08425 37.6881 5.67082C37.5019 5.28973 37.2113 4.96931 36.8501 4.74688C36.4668 4.51449 36.0249 4.39712 35.5768 4.40866C35.08 4.39698 34.5915 4.53791 34.1773 4.81251C33.7915 5.07163 33.4808 5.42794 33.2766 5.84548C33.066 6.26957 32.9578 6.73712 32.9606 7.21062V7.99115C32.9434 8.57425 33.0612 9.15346 33.3049 9.68348C33.5181 10.121 33.8552 10.4861 34.2743 10.7336C34.7143 10.9775 35.2112 11.1001 35.7141 11.089C36.0416 11.0935 36.3675 11.0434 36.6784 10.9406C36.965 10.8442 37.2257 10.6833 37.4405 10.4705C37.6552 10.2576 37.8184 9.99846 37.9174 9.71276L39.23 10.0793C39.0945 10.5189 38.8564 10.92 38.5353 11.2495C38.1944 11.593 37.7835 11.8592 37.3307 12.0301C36.8122 12.2196 36.263 12.3114 35.7111 12.3007ZM43.4163 12.1169L40.7315 3.30501H42.1542L44.0595 10.052H44.1504L46.0326 3.30501H47.4785L49.3374 10.0288H49.4293L51.3336 3.30501H52.7564L50.0714 12.1169H48.7407L46.8131 5.34665H46.6747L44.7472 12.1169H43.4163ZM59.2691 12.1169V0.367705H60.6231V4.70448H60.7373C60.8382 4.55201 60.9746 4.35614 61.1502 4.11986C61.3591 3.85416 61.6211 3.63505 61.9196 3.47664C62.3428 3.26615 62.8128 3.16743 63.2848 3.18988C63.9795 3.17641 64.6625 3.37011 65.2467 3.74627C65.829 4.13638 66.2887 4.6836 66.5725 5.32446C66.9056 6.083 67.068 6.90545 67.0481 7.73367C67.0676 8.56642 66.9053 9.39344 66.5725 10.157C66.2886 10.7977 65.8315 11.3463 65.2528 11.7413C64.6746 12.1166 63.9972 12.3104 63.308 12.2977C62.8382 12.3188 62.3706 12.222 61.9479 12.016C61.6445 11.8558 61.3772 11.6351 61.1623 11.3677C60.9786 11.1233 60.8369 10.9214 60.7373 10.7619H60.5767V12.1169H59.2691ZM60.5999 7.71043C60.5884 8.31076 60.6877 8.90806 60.8928 9.4724C61.0608 9.94033 61.3568 10.3518 61.747 10.6599C62.16 10.9402 62.6485 11.088 63.1476 11.0839C63.6467 11.0797 64.1326 10.9237 64.5409 10.6366C64.9341 10.3198 65.2322 9.90046 65.4022 9.42495C65.603 8.87737 65.7019 8.29769 65.694 7.7145C65.7027 7.1432 65.6055 6.57525 65.4073 6.03936C65.2425 5.56969 64.946 5.1574 64.553 4.85189C64.1389 4.56846 63.6498 4.41489 63.148 4.41075C62.6462 4.40662 62.1545 4.55209 61.7358 4.82866C61.3462 5.12434 61.0511 5.52715 60.8867 5.98784C60.6877 6.53985 60.5922 7.1238 60.605 7.71043H60.5999ZM72.6995 12.3007C71.9698 12.323 71.2496 12.1303 70.6285 11.7467C70.0073 11.3631 69.5126 10.8053 69.2058 10.1429C68.8584 9.39641 68.6874 8.58004 68.706 7.7569C68.6871 6.92788 68.858 6.10552 69.2058 5.35275C69.4536 4.86791 69.7984 4.43923 70.219 4.09336C70.6395 3.7475 71.1266 3.49183 71.6502 3.34229C72.1737 3.19275 72.7224 3.15251 73.2622 3.22409C73.8019 3.29567 74.3212 3.47752 74.7876 3.75835C75.3977 4.14491 75.8847 4.69772 76.1912 5.3517C76.5426 6.10344 76.7154 6.92632 76.696 7.75591C76.715 8.57963 76.5422 9.39645 76.1912 10.1419C75.8848 10.8034 75.391 11.3604 74.7711 11.744C74.1511 12.1275 73.4322 12.3208 72.7035 12.2997L72.6995 12.3007ZM72.6995 11.0839C73.2354 11.106 73.7623 10.9419 74.1909 10.6195C74.5873 10.3004 74.8873 9.87739 75.0573 9.39771C75.4315 8.33377 75.4315 7.17399 75.0573 6.11005C74.8877 5.62704 74.5879 5.20034 74.1909 4.87716C73.7538 4.57095 73.2332 4.40669 72.6995 4.40669C72.1659 4.40669 71.6452 4.57095 71.2082 4.87716C70.8106 5.19976 70.5106 5.62665 70.3418 6.11005C69.9661 7.17375 69.9661 8.33401 70.3418 9.39771C70.5108 9.87786 70.811 10.3011 71.2082 10.6195C71.6381 10.943 72.167 11.1071 72.7046 11.0839H72.6995ZM82.09 12.3007C81.4007 12.3137 80.7234 12.1199 80.1453 11.7443C79.5662 11.3497 79.1091 10.8009 78.8256 10.1601C78.4919 9.39669 78.3292 8.56956 78.3489 7.73669C78.3289 6.90836 78.4917 6.08581 78.8256 5.32748C79.109 4.6867 79.5683 4.13946 80.1503 3.74929C80.7346 3.37342 81.4176 3.17973 82.1122 3.1929C82.5827 3.16992 83.0512 3.26868 83.4723 3.47966C83.7719 3.63607 84.034 3.85553 84.2407 4.12288C84.4205 4.35916 84.5608 4.55503 84.6597 4.7075H84.7749V0.370725H86.1289V12.1169H84.8163V10.7629H84.6557C84.5568 10.9231 84.4154 11.125 84.2317 11.3687C84.0164 11.6361 83.7487 11.8568 83.445 12.0169C83.0246 12.2226 82.5596 12.3201 82.092 12.3007H82.09ZM82.2738 11.0839C82.7669 11.0993 83.2511 10.9501 83.65 10.6599C84.0405 10.3518 84.3369 9.9404 84.5053 9.4724C84.7099 8.90794 84.8091 8.31072 84.7981 7.71043C84.8099 7.12203 84.7124 6.53659 84.5103 5.98383C84.3463 5.52321 84.0515 5.12039 83.6621 4.82465C83.2419 4.54721 82.7485 4.40125 82.245 4.40539C81.7414 4.40953 81.2506 4.56358 80.8349 4.84789C80.4441 5.1556 80.1477 5.56707 79.9797 6.03529C79.786 6.57222 79.6909 7.1397 79.699 7.71043C79.6915 8.29315 79.7886 8.87252 79.9857 9.42094C80.1579 9.89504 80.4552 10.3137 80.846 10.6326C81.2567 10.9427 81.7615 11.1021 82.2758 11.0839H82.2738ZM89.668 15.4258C89.4619 15.428 89.2562 15.4087 89.0541 15.3682C88.9263 15.3496 88.8012 15.3157 88.6815 15.2673L89.0258 14.0737C89.3095 14.1529 89.6044 14.1839 89.8983 14.1656C90.1559 14.1397 90.3947 14.0191 90.5687 13.8274C90.8158 13.5452 91.0015 13.2148 91.114 12.857L91.3664 12.1684L88.106 3.30501H89.5741L92.0076 10.3266H92.0984L94.5319 3.30501H96L92.264 13.4023C92.1207 13.8116 91.909 14.1937 91.638 14.5322C91.4063 14.8214 91.1095 15.0515 90.7717 15.2037C90.4241 15.3537 90.0486 15.428 89.6701 15.4218L89.668 15.4258Z" fill="#1E1E1E"/>
</svg>
