<svg width="19" height="20" viewBox="0 0 19 20" fill="none" xmlns="http://www.w3.org/2000/svg">
<path d="M15.0209 14.0095C14.2646 14.0106 13.5369 14.2993 12.9855 14.8171L5.92448 10.7072C6.04462 10.2479 6.04462 9.76546 5.92448 9.30619L12.9795 5.19328C13.4846 5.66077 14.1353 5.94004 14.8221 5.9841C15.509 6.02817 16.19 5.83435 16.7508 5.43524C17.3115 5.03613 17.7176 4.45609 17.9009 3.79269C18.0842 3.12929 18.0334 2.42301 17.7571 1.79266C17.4808 1.16231 16.9958 0.646352 16.3837 0.331587C15.7717 0.0168229 15.0699 -0.0775462 14.3964 0.0643541C13.723 0.206254 13.1189 0.57577 12.6859 1.11073C12.2528 1.6457 12.0173 2.31347 12.0188 3.00172C12.0235 3.23779 12.0537 3.47265 12.1089 3.70221L5.05387 7.81513C4.62657 7.41507 4.09162 7.14867 3.51488 7.04868C2.93813 6.9487 2.34477 7.01949 1.80774 7.25237C1.27071 7.48524 0.813477 7.87004 0.492292 8.3594C0.171106 8.84876 0 9.42133 0 10.0067C0 10.592 0.171106 11.1646 0.492292 11.654C0.813477 12.1433 1.27071 12.5281 1.80774 12.761C2.34477 12.9939 2.93813 13.0647 3.51488 12.9647C4.09162 12.8647 4.62657 12.5983 5.05387 12.1982L12.1069 16.3191C11.9646 16.9246 12.0142 17.5593 12.249 18.1352C12.4837 18.7111 12.8919 19.1997 13.417 19.5331C13.942 19.8665 14.5578 20.0281 15.1788 19.9957C15.7999 19.9632 16.3955 19.7382 16.8829 19.3519C17.3703 18.9656 17.7253 18.4371 17.8988 17.8399C18.0722 17.2426 18.0555 16.6062 17.8508 16.0189C17.6461 15.4316 17.2636 14.9226 16.7566 14.5625C16.2495 14.2025 15.6429 14.0092 15.0209 14.0095Z" fill="black" fill-opacity="0.2"/>
</svg>
