<svg width="116" height="21" viewBox="0 0 116 21" fill="none" xmlns="http://www.w3.org/2000/svg">
<path d="M0 20.3037V0H13.2609V2.8906H3.48764V8.54797H11.4487V11.4436H3.47861V20.3037H0ZM28.8245 13.7653H18.0323C18.0786 14.0036 18.1122 14.1825 18.133 14.302C18.2064 14.7599 18.3168 15.2111 18.4632 15.6511C18.6076 15.9751 18.7978 16.2765 19.028 16.5462C19.3905 16.981 19.849 17.3255 20.3674 17.5527C20.8859 17.7798 21.45 17.8833 22.0153 17.8551C22.83 17.866 23.6404 17.7355 24.4105 17.4695C25.3103 17.1192 26.1643 16.6611 26.9538 16.1052L28.4268 18.6384C27.4372 19.316 26.3636 19.862 25.2331 20.2624C24.1868 20.5921 23.0951 20.7548 21.9982 20.7447C20.9752 20.8027 19.9519 20.6356 19.0005 20.2552C18.0491 19.8747 17.1927 19.2902 16.4918 18.5427C15.18 16.9642 14.5117 14.9491 14.6201 12.8995C14.4962 10.6938 15.2162 8.52361 16.6338 6.82931C17.2877 6.11552 18.0899 5.55342 18.9841 5.18244C19.8782 4.81146 20.8427 4.64056 21.8099 4.68175C22.6828 4.6465 23.5538 4.78896 24.37 5.10049C25.1862 5.41202 25.9306 5.88613 26.5581 6.49404C27.3504 7.29397 27.9323 8.27775 28.2516 9.35745C28.6516 10.7919 28.8446 12.2763 28.8245 13.7653ZM25.5019 11.2875C25.4014 10.467 25.1345 9.67563 24.7176 8.96177C24.4067 8.47335 23.974 8.07434 23.462 7.80404C22.95 7.53375 22.3765 7.4015 21.7978 7.42032C19.8157 7.42032 18.5676 8.70973 18.0535 11.2886L25.5019 11.2875ZM41.4007 18.6797C40.7866 19.3867 40.0173 19.9422 39.1529 20.3027C38.2885 20.6632 37.3525 20.819 36.418 20.7578C32.9209 20.7578 31.1728 19.1468 31.1734 15.925C31.1203 15.2748 31.2083 14.6208 31.4317 14.0079C31.655 13.3949 32.0082 12.8375 32.4672 12.3739C33.4123 11.5389 34.9896 11.1214 37.1993 11.1214C37.8235 11.1214 38.9203 11.1718 40.4896 11.2724L41.137 11.3137V10.3774C41.2251 9.5434 40.9829 8.7081 40.4624 8.0506C39.7581 7.51529 38.8785 7.26378 37.9977 7.34581C37.3436 7.29096 36.69 7.4557 36.1401 7.81399C35.6982 8.23096 35.4363 8.80382 35.4101 9.41082H32.2577C32.3523 8.63933 32.5514 7.88432 32.8498 7.1666C33.1135 6.6261 33.5 6.15478 33.9784 5.79026C35.2086 4.97159 36.6757 4.5842 38.1497 4.6888C39.682 4.59399 41.2073 4.96347 42.5264 5.74898C43.7568 6.60277 44.3716 8.14456 44.3709 10.3744V20.3037H41.3977L41.4007 18.6797ZM41.2225 13.6455C40.0746 13.5261 38.9212 13.4663 37.7671 13.4663C36.909 13.3883 36.047 13.5655 35.2893 13.9758C34.8625 14.4502 34.6181 15.0607 34.5997 15.6986C34.5812 16.3365 34.79 16.9601 35.1886 17.4584C35.7746 17.8424 36.4733 18.017 37.1711 17.9537C37.8178 18.0262 38.4724 17.9455 39.0822 17.7182C39.6919 17.4908 40.2396 17.1231 40.6809 16.6449C41.0872 15.9905 41.2754 15.2242 41.2185 14.456L41.2225 13.6455ZM49.4402 8.01535H47.2927V5.12072H49.4946L49.7151 0.771229H52.7849V5.12072H56.6945V8.01133H52.7849V14.6564C52.7237 15.3997 52.8464 16.1466 53.1424 16.8311C53.2962 17.038 53.5021 17.2005 53.739 17.302C53.976 17.4035 54.2356 17.4404 54.4915 17.4091H57.0801V20.3037H54.4502C53.1988 20.3863 51.9564 20.0416 50.9263 19.3261C50.3899 18.8158 49.9772 18.1896 49.7197 17.4955C49.4621 16.8014 49.3665 16.0576 49.4402 15.3209V8.01535ZM59.7099 5.12475H63.0546V14.0996C63.0276 14.8534 63.097 15.6076 63.261 16.3438C63.3349 16.7049 63.5377 17.0267 63.8316 17.249C64.1255 17.4714 64.4903 17.5791 64.8578 17.552C65.4882 17.5504 66.1064 17.3793 66.6479 17.0567C67.4506 16.5234 68.1894 15.8998 68.8499 15.1981V5.12072H72.1815V20.3037H68.8499V18.3353C68.2364 18.8451 67.5937 19.3184 66.9248 19.753C66.0133 20.2831 64.978 20.5633 63.9235 20.5655C63.2094 20.6334 62.4915 20.483 61.8648 20.134C61.238 19.7851 60.732 19.254 60.4137 18.6112C59.8554 17.1076 59.6154 15.5045 59.7089 13.9033L59.7099 5.12475ZM76.5491 20.3037V5.12072H79.7559V7.18573C80.4485 6.4747 81.2474 5.87555 82.1239 5.40969C82.8952 5.07111 83.7315 4.90646 84.5735 4.92741H85.0829V8.16235H84.4638C83.95 8.14847 83.4365 8.19921 82.9354 8.31337C82.4989 8.43272 82.0852 8.62359 81.7111 8.87821C81.4605 9.04049 81.2213 9.2198 80.9952 9.41485C80.8301 9.57057 80.463 9.96524 79.8938 10.5989V20.3037H76.5491ZM100.982 13.7653H90.1896C90.2359 14.0036 90.2694 14.1825 90.2903 14.302C90.3631 14.76 90.4736 15.2112 90.6205 15.6511C90.7648 15.9751 90.9551 16.2765 91.1854 16.5462C91.5478 16.981 92.0063 17.3255 92.5248 17.5527C93.0432 17.7798 93.6073 17.8833 94.1726 17.8551C94.9873 17.866 95.7977 17.7355 96.5679 17.4695C97.4686 17.1197 98.3236 16.662 99.1141 16.1062L100.587 18.6394C99.5975 19.3169 98.5239 19.8628 97.3935 20.2634C96.3472 20.593 95.2555 20.7558 94.1585 20.7457C93.1355 20.8038 92.1122 20.6368 91.1608 20.2563C90.2094 19.8758 89.353 19.2912 88.6522 18.5437C87.3404 16.9652 86.672 14.9501 86.7805 12.9005C86.6566 10.6948 87.3765 8.52461 88.7941 6.83032C89.4481 6.11653 90.2503 5.55443 91.1444 5.18345C92.0386 4.81246 93.0031 4.64157 93.9702 4.68276C94.8432 4.64751 95.7142 4.78997 96.5304 5.1015C97.3466 5.41303 98.091 5.88713 98.7184 6.49504C99.5108 7.295 100.093 8.27877 100.412 9.35846C100.811 10.7928 101.003 12.2767 100.982 13.7653ZM97.6643 11.2875C97.5637 10.467 97.2968 9.67565 96.88 8.96177C96.5691 8.47335 96.1364 8.07434 95.6244 7.80404C95.1124 7.53375 94.5388 7.4015 93.9602 7.42032C91.9781 7.42032 90.7299 8.70973 90.2158 11.2886L97.6643 11.2875ZM103.07 15.4306H106.126C106.147 16.0314 106.359 16.6098 106.73 17.0828C107.123 17.4461 107.589 17.7222 108.097 17.8929C108.605 18.0636 109.143 18.1252 109.676 18.0736C111.768 18.0736 112.814 17.408 112.814 16.077C112.834 15.7783 112.761 15.4806 112.606 15.2245C112.451 14.9684 112.221 14.7662 111.947 14.6453C111.718 14.5329 111.479 14.4451 111.231 14.3835C111.002 14.3285 110.318 14.1909 109.18 13.9707C107.843 13.7665 106.55 13.3383 105.354 12.7041C104.798 12.3707 104.344 11.8891 104.045 11.3131C103.746 10.737 103.613 10.0893 103.661 9.44203C103.63 8.7442 103.766 8.0491 104.058 7.4146C104.351 6.78011 104.79 6.22459 105.34 5.79429C106.491 4.992 107.877 4.59948 109.277 4.67973C111.755 4.67973 113.48 5.41807 114.453 6.89475C114.957 7.7082 115.215 8.64967 115.196 9.60614H112.14C112.117 9.09537 111.945 8.60255 111.645 8.18853C111.331 7.88316 110.954 7.64988 110.54 7.50488C110.126 7.35988 109.686 7.30663 109.25 7.34883C107.706 7.34883 106.934 7.93615 106.934 9.11078C106.918 9.379 106.982 9.64598 107.12 9.87681C107.257 10.1076 107.462 10.2916 107.705 10.4046C108.575 10.7331 109.474 10.9776 110.39 11.1345C111.228 11.2955 112.055 11.5069 112.867 11.7678C113.399 11.9523 113.907 12.2019 114.378 12.5108C114.919 12.8847 115.353 13.3943 115.636 13.9885C115.918 14.5827 116.04 15.2408 115.989 15.8968C116.017 16.5682 115.887 17.2368 115.61 17.8489C115.332 18.461 114.915 18.9994 114.392 19.4207C113.006 20.3904 111.33 20.8568 109.642 20.7427C105.3 20.744 103.11 18.9733 103.07 15.4306Z" fill="#1E1E1E"/>
</svg>
